<svg width="50" height="51" viewBox="0 0 50 51" fill="none" xmlns="http://www.w3.org/2000/svg">
<g clip-path="url(#clip0_174_1151)">
<path d="M24.9998 0.455078C11.1928 0.455078 0 11.6479 0 25.4549C0 39.262 11.1928 50.4552 24.9998 50.4552C38.8069 50.4552 50.0002 39.262 50.0002 25.4549C49.9846 11.6543 38.801 0.470642 24.9998 0.455078V0.455078ZM24.9998 47.9549C12.5734 47.9549 2.49985 37.8814 2.49985 25.4549C2.49985 13.0285 12.5734 2.95493 24.9998 2.95493C37.4263 2.95493 47.4998 13.0285 47.4998 25.4549C47.4857 37.8754 37.4203 47.9407 24.9998 47.9549Z" fill="#FECA2E"/>
<path d="M22.0735 15.7641C21.5535 15.3096 20.7638 15.3627 20.3093 15.8822C19.8552 16.4023 19.9083 17.1919 20.4279 17.6465L29.3524 25.455L20.4274 33.264C19.9074 33.7185 19.8547 34.5082 20.3088 35.0278C20.7634 35.5478 21.553 35.6009 22.0731 35.1463L32.0729 26.3962C32.3444 26.159 32.5 25.8157 32.5 25.455C32.5 25.0943 32.3444 24.7514 32.0729 24.5138L22.0735 15.7641Z" fill="#FECA2E"/>
</g>
<defs>
<clipPath id="clip0_174_1151">
<rect width="50" height="50" fill="white" transform="translate(0 0.455078)"/>
</clipPath>
</defs>
</svg>
