<svg width="50" height="51" viewBox="0 0 50 51" fill="none" xmlns="http://www.w3.org/2000/svg">
<g clip-path="url(#clip0_174_1147)">
<path d="M25.0002 0.455078C38.8072 0.455078 50 11.6479 50 25.4549C50 39.262 38.8072 50.4552 25.0002 50.4552C11.1931 50.4552 -0.000152588 39.262 -0.000152588 25.4549C0.0154114 11.6543 11.199 0.470642 25.0002 0.455078V0.455078ZM25.0002 47.9549C37.4266 47.9549 47.5002 37.8814 47.5002 25.4549C47.5002 13.0285 37.4266 2.95493 25.0002 2.95493C12.5737 2.95493 2.50015 13.0285 2.50015 25.4549C2.51434 37.8754 12.5797 47.9407 25.0002 47.9549Z" fill="#FECA2E"/>
<path d="M27.9265 15.7641C28.4465 15.3096 29.2362 15.3627 29.6907 15.8822C30.1448 16.4023 30.0917 17.1919 29.5721 17.6465L20.6476 25.455L29.5726 33.264C30.0926 33.7185 30.1453 34.5082 29.6912 35.0278C29.2366 35.5478 28.447 35.6009 27.9269 35.1463L17.9271 26.3962C17.6556 26.159 17.5 25.8157 17.5 25.455C17.5 25.0943 17.6556 24.7514 17.9271 24.5138L27.9265 15.7641Z" fill="#FECA2E"/>
</g>
<defs>
<clipPath id="clip0_174_1147">
<rect width="50" height="50" fill="white" transform="matrix(-1 0 0 1 50 0.455078)"/>
</clipPath>
</defs>
</svg>
