<svg width="61" height="61" viewBox="0 0 61 61" fill="none" xmlns="http://www.w3.org/2000/svg">
<g clip-path="url(#clip0_91_3190)">
<path d="M10.4196 23.6934L10.2706 23.6468L10.1215 23.6934L4.90961 25.3251L4.85088 19.8641L4.8492 19.708L4.75875 19.5806L1.59634 15.128L6.77202 13.3845L6.92005 13.3346L7.01322 13.2093L10.2706 8.82576L13.5281 13.2093L13.6212 13.3346L13.7693 13.3845L18.9449 15.1279L15.7825 19.5806L15.6921 19.708L15.6904 19.8641L15.6317 25.3251L10.4196 23.6934Z" stroke="#FECA2E" stroke-width="0.997876"/>
<path d="M27.1275 6.36814L27.2755 6.31828L27.3687 6.19291L30.6262 1.80941L33.8835 6.1929L33.9767 6.31828L34.1247 6.36814L39.3004 8.11159L36.138 12.5641L36.0475 12.6915L36.0459 12.8477L35.9872 18.3088L30.7752 16.6771L30.6262 16.6304L30.4771 16.6771L25.2652 18.3088L25.2065 12.8478L25.2048 12.6916L25.1143 12.5642L21.9518 8.11159L27.1275 6.36814Z" stroke="#FECA2E" stroke-width="0.997876"/>
<path d="M47.8306 13.3845L47.9786 13.3346L48.0718 13.2093L51.3292 8.82576L54.5867 13.2093L54.6798 13.3346L54.8279 13.3845L60.0035 15.1279L56.841 19.5806L56.7506 19.708L56.7489 19.8641L56.6901 25.3251L51.4782 23.6934L51.3292 23.6468L51.1801 23.6934L45.9682 25.3251L45.9095 19.864L45.9078 19.7078L45.8173 19.5805L42.6549 15.1279L47.8306 13.3845Z" stroke="#FECA2E" stroke-width="0.997876"/>
<path d="M45.2752 30.3973H37.9498V28.9322C37.9498 27.3162 36.6356 26.002 35.0195 26.002H26.2289C24.6129 26.002 23.2987 27.3161 23.2987 28.9322V30.3973H15.9732C14.3571 30.3973 13.043 31.7115 13.043 33.3275V52.3738C13.043 53.9899 14.3571 55.3041 15.9732 55.3041H45.2753C46.8914 55.3041 48.2056 53.9899 48.2056 52.3738V33.3275C48.2055 31.7115 46.8914 30.3973 45.2752 30.3973ZM24.7638 28.9322C24.7638 28.1245 25.4213 27.4671 26.2289 27.4671H35.0195C35.8272 27.4671 36.4846 28.1245 36.4846 28.9322V30.3973H24.7638V28.9322ZM46.7404 52.3739C46.7404 53.1815 46.083 53.839 45.2753 53.839H15.9732C15.1656 53.839 14.5081 53.1815 14.5081 52.3739V41.7107C14.9409 41.963 15.4371 42.1182 15.9732 42.1182H27.6941V44.3159C27.6941 44.7208 28.0217 45.0484 28.4266 45.0484H32.822C33.2269 45.0484 33.5545 44.7208 33.5545 44.3159V42.1182H45.2754C45.8115 42.1182 46.3078 41.9631 46.7405 41.7107V52.3739H46.7404ZM29.1591 43.5833V40.653H32.0894V43.5833H29.1591ZM46.7404 39.188C46.7404 39.9956 46.083 40.653 45.2753 40.653H33.5545V39.9205C33.5545 39.5156 33.2268 39.1879 32.8219 39.1879H28.4266C28.0217 39.1879 27.694 39.5156 27.694 39.9205V40.653H15.9732C15.1656 40.653 14.5081 39.9956 14.5081 39.188V33.3276C14.5081 32.5199 15.1656 31.8625 15.9732 31.8625H45.2753C46.083 31.8625 46.7404 32.5199 46.7404 33.3276V39.188Z" fill="#FECA2E"/>
</g>
<defs>
<clipPath id="clip0_91_3190">
<rect width="60" height="60" fill="white" transform="translate(0.800781 0.859375)"/>
</clipPath>
</defs>
</svg>
