<svg width="61" height="61" viewBox="0 0 61 61" fill="none" xmlns="http://www.w3.org/2000/svg">
<path d="M14.5975 17.1296L6.43146 29.0475C6.23309 29.3369 6.23737 29.7397 6.47336 30.0312L28.9082 57.4479C29.9227 58.6882 31.8175 58.6856 32.8303 57.4484L46.5087 40.732C46.796 40.381 46.7443 39.8637 46.3933 39.5764C46.0423 39.2896 45.5254 39.3413 45.2381 39.6923L33.7879 53.6849L39.4799 30.3322H52.8971L47.7122 36.6689C47.4249 37.0194 47.4766 37.5367 47.8276 37.824C48.1786 38.1109 48.6959 38.0592 48.9827 37.7086L55.2647 30.0312C55.5024 29.7375 55.5037 29.334 55.3066 29.0475L47.1406 17.1296C46.3343 15.9522 45.0863 15.4772 44.625 15.4208L31.8606 13.8711C31.242 13.7206 30.5452 13.7086 29.8774 13.8711L17.1134 15.4208C16.6479 15.4777 15.4008 15.9573 14.5975 17.1296ZM15.9519 18.0577L15.9523 18.0573C15.9557 18.0522 15.9595 18.0479 15.963 18.0432L21.5455 28.6905H8.66652L15.9519 18.0577ZM8.84138 30.3322H22.2582L27.9501 53.6849L8.84138 30.3322ZM45.7755 18.0432C45.7789 18.0483 45.7828 18.0526 45.7862 18.0577L49.5351 23.5287L53.0719 28.6905H40.1925L45.7755 18.0432ZM44.4344 17.065L38.8719 27.673L33.1889 15.6863C45.1364 17.1369 44.3249 17.0313 44.4344 17.065ZM30.4905 15.4234C30.7435 15.3853 30.9872 15.3845 31.2476 15.4234L37.5377 28.6905H32.7845C32.3309 28.6905 31.9637 29.0582 31.9637 29.5118C31.9637 29.965 32.3309 30.3326 32.7845 30.3326H37.7899L31.3972 56.56C31.0873 56.7913 30.6516 56.7917 30.3408 56.56L23.9481 30.3326H28.954C29.4071 30.3326 29.7748 29.965 29.7748 29.5118C29.7748 29.0582 29.4071 28.6905 28.954 28.6905H24.2008L30.4905 15.4234ZM17.3691 17.0437L28.5491 15.6863L22.8661 27.673L17.3037 17.065C17.3255 17.0582 17.3468 17.0497 17.3691 17.0437Z" fill="#FECA2E"/>
<path d="M51.2205 9.94458C50.7673 9.94458 50.3997 10.3122 50.3997 10.7654V12.0005H49.1646C48.711 12.0005 48.3438 12.3682 48.3438 12.8213C48.3438 13.2749 48.711 13.6426 49.1646 13.6426H50.3997V14.8777C50.3997 15.3309 50.7673 15.6985 51.2205 15.6985C51.6741 15.6985 52.0414 15.3309 52.0414 14.8777V13.6426H53.2765C53.73 13.6426 54.0977 13.2749 54.0977 12.8213C54.0977 12.3682 53.73 12.0005 53.2765 12.0005H52.0414V10.7654C52.0414 10.3122 51.6741 9.94458 51.2205 9.94458Z" fill="#FECA2E"/>
<path d="M12.244 44.6873C11.7904 44.6873 11.4231 45.0549 11.4231 45.5081V46.7432H10.188C9.73443 46.7432 9.36719 47.1109 9.36719 47.564C9.36719 48.0176 9.73443 48.3853 10.188 48.3853H11.4231V49.6204C11.4231 50.0736 11.7904 50.4412 12.244 50.4412C12.6976 50.4412 13.0648 50.0736 13.0648 49.6204V48.3853H14.2999C14.7535 48.3853 15.1207 48.0176 15.1207 47.564C15.1207 47.1109 14.7535 46.7432 14.2999 46.7432H13.0648V45.5081C13.0648 45.0549 12.6971 44.6873 12.244 44.6873Z" fill="#FECA2E"/>
<path d="M30.8677 9.45502C31.3209 9.45502 31.6885 9.08778 31.6885 8.63419V3.16239C31.6885 2.70879 31.3209 2.34155 30.8677 2.34155C30.4141 2.34155 30.0469 2.70879 30.0469 3.16239V8.63419C30.0469 9.08778 30.4141 9.45502 30.8677 9.45502Z" fill="#FECA2E"/>
<path d="M38.0365 11.0585L41.3156 6.6782C41.5875 6.31524 41.5136 5.80093 41.1506 5.52903C40.7876 5.25713 40.2729 5.33152 40.0014 5.69448L36.7224 10.0744C36.4509 10.4374 36.5244 10.9521 36.8874 11.2236C37.2503 11.495 37.7651 11.4211 38.0365 11.0585Z" fill="#FECA2E"/>
<path d="M20.5868 5.52909C20.2238 5.80099 20.1499 6.3153 20.4218 6.67826L23.7008 11.0586C23.9727 11.4216 24.487 11.4951 24.85 11.2236C25.213 10.9522 25.2869 10.4374 25.015 10.0745L21.736 5.69454C21.4641 5.33158 20.9497 5.25762 20.5868 5.52909Z" fill="#FECA2E"/>
</svg>
