<svg width="51" height="51" viewBox="0 0 51 51" fill="none" xmlns="http://www.w3.org/2000/svg">
<path d="M47.9297 36.0078C47.515 35.2912 46.8334 34.7681 46.034 34.5529C45.2346 34.3376 44.3824 34.4478 43.6641 34.8594L36.0469 39.2578C35.6309 38.6345 35.004 38.1824 34.2812 37.9844L22.625 34.8672C21.728 34.6251 20.7839 34.6171 19.8828 34.8437L15.7812 35.8672V34.5234C15.7812 34.3162 15.6989 34.1175 15.5524 33.971C15.4059 33.8245 15.2072 33.7422 15 33.7422H8.75C8.5428 33.7422 8.34409 33.8245 8.19757 33.971C8.05106 34.1175 7.96875 34.3162 7.96875 34.5234V35.3047H2.5C2.2928 35.3047 2.09409 35.387 1.94757 35.5335C1.80106 35.68 1.71875 35.8787 1.71875 36.0859V47.0234C1.71875 47.2306 1.80106 47.4294 1.94757 47.5759C2.09409 47.7224 2.2928 47.8047 2.5 47.8047H7.96875V48.5859C7.96875 48.7931 8.05106 48.9919 8.19757 49.1384C8.34409 49.2849 8.5428 49.3672 8.75 49.3672H15C15.2072 49.3672 15.4059 49.2849 15.5524 49.1384C15.6989 48.9919 15.7812 48.7931 15.7812 48.5859V47.5078L16.7891 48.0078C17.5489 48.386 18.3857 48.5839 19.2344 48.5859H30.9297C31.8902 48.588 32.8339 48.3346 33.6641 47.8516L46.7891 40.2734C47.504 39.8572 48.0252 39.175 48.2389 38.3758C48.4526 37.5766 48.3415 36.7253 47.9297 36.0078ZM7.96875 46.2422H3.28125V36.8672H7.96875V46.2422ZM14.2188 47.8047H9.53125V35.3047H14.2188V47.8047ZM46.0078 38.9219L32.8828 46.5C32.2893 46.8435 31.6155 47.0241 30.9297 47.0234H19.2344C18.6266 47.0247 18.0271 46.8828 17.4844 46.6094L15.7812 45.7578V37.4766L20.2578 36.3594C20.902 36.1965 21.5772 36.2019 22.2188 36.375L33.875 39.5C34.1749 39.5779 34.4447 39.7435 34.6498 39.9757C34.8549 40.2079 34.9861 40.4961 35.0263 40.8033C35.0666 41.1105 35.0143 41.4227 34.8759 41.7C34.7376 41.9772 34.5197 42.2068 34.25 42.3594C34.0739 42.4632 33.8787 42.5306 33.676 42.5574C33.4734 42.5843 33.2674 42.5701 33.0703 42.5156L23.75 40.0156C23.549 39.9618 23.3349 39.9899 23.1547 40.094C22.9744 40.198 22.8429 40.3693 22.7891 40.5703C22.7352 40.7713 22.7634 40.9854 22.8674 41.1657C22.9714 41.3459 23.1428 41.4774 23.3438 41.5313L32.6641 44.0234C32.929 44.0948 33.2021 44.1315 33.4766 44.1328C34.0232 44.1336 34.56 43.9879 35.0312 43.7109C35.3883 43.507 35.7013 43.2341 35.9521 42.9083C36.2029 42.5824 36.3865 42.2099 36.4922 41.8125C36.5788 41.4681 36.6079 41.1117 36.5781 40.7578L44.4453 36.2187C44.8043 36.0195 45.2267 35.9676 45.6232 36.074C46.0197 36.1804 46.3593 36.4368 46.5703 36.7891C46.7778 37.1467 46.8351 37.5719 46.7297 37.9717C46.6242 38.3714 46.3647 38.7131 46.0078 38.9219Z" fill="#FECA2E"/>
<path d="M11.875 47.0234C12.0822 47.0234 12.2809 46.9411 12.4274 46.7946C12.5739 46.6481 12.6562 46.4494 12.6562 46.2422V45.4609C12.6562 45.2537 12.5739 45.055 12.4274 44.9085C12.2809 44.762 12.0822 44.6797 11.875 44.6797C11.6678 44.6797 11.4691 44.762 11.3226 44.9085C11.1761 45.055 11.0938 45.2537 11.0938 45.4609V46.2422C11.0938 46.4494 11.1761 46.6481 11.3226 46.7946C11.4691 46.9411 11.6678 47.0234 11.875 47.0234Z" fill="#FECA2E"/>
<path d="M36.0938 14.2109H33.1641L33.0234 13.8828L35.1016 11.8125C35.2479 11.665 35.3301 11.4656 35.3301 11.2578C35.3301 11.05 35.2479 10.8506 35.1016 10.7031L31.7891 7.39063C31.6416 7.24426 31.4422 7.16212 31.2344 7.16212C31.0266 7.16212 30.8272 7.24426 30.6797 7.39063L28.6094 9.46875L28.2812 9.32812V6.39844C28.2812 6.19124 28.1989 5.99252 28.0524 5.84601C27.9059 5.6995 27.7072 5.61719 27.5 5.61719H22.8125C22.6053 5.61719 22.4066 5.6995 22.2601 5.84601C22.1136 5.99252 22.0312 6.19124 22.0312 6.39844V9.32812L21.7031 9.46875L19.6328 7.39063C19.4853 7.24426 19.2859 7.16212 19.0781 7.16212C18.8703 7.16212 18.6709 7.24426 18.5234 7.39063L15.2109 10.7031C15.0646 10.8506 14.9824 11.05 14.9824 11.2578C14.9824 11.4656 15.0646 11.665 15.2109 11.8125L17.2891 13.8828L17.1484 14.2109H14.2188C14.0115 14.2109 13.8128 14.2932 13.6663 14.4398C13.5198 14.5863 13.4375 14.785 13.4375 14.9922V19.6797C13.4375 19.8869 13.5198 20.0856 13.6663 20.2321C13.8128 20.3786 14.0115 20.4609 14.2188 20.4609H17.1484L17.2891 20.7891L15.2109 22.8594C15.067 23.0083 14.9859 23.2069 14.9844 23.4141C14.9874 23.6209 15.0683 23.819 15.2109 23.9688L18.5234 27.2812C18.6724 27.4252 18.871 27.5063 19.0781 27.5078C19.2849 27.5048 19.483 27.4239 19.6328 27.2812L21.7031 25.2031L22.0312 25.3438V28.2734C22.0312 28.4806 22.1136 28.6794 22.2601 28.8259C22.4066 28.9724 22.6053 29.0547 22.8125 29.0547H27.5C27.7072 29.0547 27.9059 28.9724 28.0524 28.8259C28.1989 28.6794 28.2812 28.4806 28.2812 28.2734V25.3438L28.6094 25.2031L30.6797 27.2812C30.8308 27.4207 31.0288 27.4981 31.2344 27.4981C31.4399 27.4981 31.638 27.4207 31.7891 27.2812L35.1016 23.9688C35.2442 23.819 35.3251 23.6209 35.3281 23.4141C35.3266 23.2069 35.2455 23.0083 35.1016 22.8594L33.0234 20.7891L33.1641 20.4609H36.0938C36.301 20.4609 36.4997 20.3786 36.6462 20.2321C36.7927 20.0856 36.875 19.8869 36.875 19.6797V14.9922C36.875 14.785 36.7927 14.5863 36.6462 14.4398C36.4997 14.2932 36.301 14.2109 36.0938 14.2109ZM35.3125 18.8984H32.6094C32.4446 18.8986 32.2841 18.9508 32.1508 19.0476C32.0175 19.1444 31.9183 19.2809 31.8672 19.4375C31.7464 19.83 31.5867 20.2095 31.3906 20.5703C31.311 20.7192 31.2809 20.8897 31.3048 21.0569C31.3287 21.2241 31.4053 21.3793 31.5234 21.5L33.4453 23.4141L31.2344 25.625L29.3203 23.7031C29.1996 23.585 29.0444 23.5084 28.8772 23.4845C28.71 23.4606 28.5396 23.4907 28.3906 23.5703C28.0298 23.7664 27.6503 23.9261 27.2578 24.0469C27.1012 24.0979 26.9647 24.1972 26.8679 24.3305C26.7711 24.4638 26.7189 24.6243 26.7188 24.7891V27.4922H23.5938V24.7891C23.5936 24.6243 23.5414 24.4638 23.4446 24.3305C23.3478 24.1972 23.2113 24.0979 23.0547 24.0469C22.6622 23.9261 22.2827 23.7664 21.9219 23.5703C21.7729 23.4907 21.6025 23.4606 21.4353 23.4845C21.2681 23.5084 21.1129 23.585 20.9922 23.7031L19.0781 25.625L16.8672 23.4141L18.7891 21.5C18.9072 21.3793 18.9838 21.2241 19.0077 21.0569C19.0316 20.8897 19.0015 20.7192 18.9219 20.5703C18.7258 20.2095 18.5661 19.83 18.4453 19.4375C18.3942 19.2809 18.295 19.1444 18.1617 19.0476C18.0284 18.9508 17.8679 18.8986 17.7031 18.8984H15V15.7734H17.7031C17.8679 15.7733 18.0284 15.7211 18.1617 15.6243C18.295 15.5275 18.3942 15.391 18.4453 15.2344C18.5661 14.8419 18.7258 14.4624 18.9219 14.1016C19.0015 13.9526 19.0316 13.7822 19.0077 13.615C18.9838 13.4478 18.9072 13.2925 18.7891 13.1719L16.8672 11.2578L19.0781 9.04688L20.9922 10.9688C21.1129 11.0869 21.2681 11.1635 21.4353 11.1874C21.6025 11.2113 21.7729 11.1812 21.9219 11.1016C22.2827 10.9054 22.6622 10.7458 23.0547 10.625C23.2113 10.5739 23.3478 10.4746 23.4446 10.3414C23.5414 10.2081 23.5936 10.0476 23.5938 9.88281V7.17969H26.7188V9.88281C26.7189 10.0476 26.7711 10.2081 26.8679 10.3414C26.9647 10.4746 27.1012 10.5739 27.2578 10.625C27.6503 10.7458 28.0298 10.9054 28.3906 11.1016C28.5396 11.1812 28.71 11.2113 28.8772 11.1874C29.0444 11.1635 29.1996 11.0869 29.3203 10.9688L31.2344 9.04688L33.4453 11.2578L31.5234 13.1719C31.4053 13.2925 31.3287 13.4478 31.3048 13.615C31.2809 13.7822 31.311 13.9526 31.3906 14.1016C31.5867 14.4624 31.7464 14.8419 31.8672 15.2344C31.9183 15.391 32.0175 15.5275 32.1508 15.6243C32.2841 15.7211 32.4446 15.7733 32.6094 15.7734H35.3125V18.8984Z" fill="#FECA2E"/>
<path d="M29.8438 17.3359C29.8438 16.4088 29.5688 15.5026 29.0538 14.7317C28.5387 13.9608 27.8066 13.36 26.9501 13.0053C26.0936 12.6505 25.1511 12.5576 24.2418 12.7385C23.3325 12.9194 22.4972 13.3658 21.8417 14.0214C21.1861 14.6769 20.7397 15.5122 20.5588 16.4215C20.378 17.3307 20.4708 18.2732 20.8256 19.1298C21.1804 19.9863 21.7812 20.7184 22.552 21.2335C23.3229 21.7485 24.2292 22.0234 25.1563 22.0234C26.3991 22.0222 27.5906 21.5279 28.4694 20.6491C29.3483 19.7703 29.8425 18.5788 29.8438 17.3359ZM22.0313 17.3359C22.0313 16.7179 22.2145 16.1137 22.5579 15.5998C22.9013 15.0859 23.3893 14.6853 23.9604 14.4488C24.5314 14.2123 25.1597 14.1504 25.7659 14.271C26.3721 14.3916 26.9289 14.6892 27.366 15.1262C27.803 15.5633 28.1006 16.1201 28.2212 16.7263C28.3418 17.3325 28.2799 17.9608 28.0434 18.5318C27.8069 19.1028 27.4063 19.5909 26.8924 19.9343C26.3785 20.2777 25.7743 20.4609 25.1563 20.4609C24.3275 20.4609 23.5326 20.1317 22.9465 19.5456C22.3605 18.9596 22.0313 18.1647 22.0313 17.3359Z" fill="#FECA2E"/>
<path d="M43.125 18.8984H41.5625C41.5625 14.5472 39.834 10.3742 36.7572 7.29747C33.6805 4.2207 29.5075 2.49219 25.1562 2.49219C20.805 2.49219 16.632 4.2207 13.5553 7.29747C10.4785 10.3742 8.75 14.5472 8.75 18.8984H7.1875C5.9443 18.8984 4.75201 19.3923 3.87294 20.2714C2.99386 21.1504 2.5 22.3427 2.5 23.5859C2.5 24.8291 2.99386 26.0214 3.87294 26.9005C4.75201 27.7796 5.9443 28.2734 7.1875 28.2734H11.0938C11.301 28.2734 11.4997 28.1911 11.6462 28.0446C11.7927 27.8981 11.875 27.6994 11.875 27.4922V19.6797C11.875 19.4725 11.7927 19.2738 11.6462 19.1273C11.4997 18.9807 11.301 18.8984 11.0938 18.8984H10.3125C10.3125 14.9616 11.8764 11.1861 14.6601 8.40232C17.4439 5.61858 21.2194 4.05469 25.1562 4.05469C29.0931 4.05469 32.8686 5.61858 35.6524 8.40232C38.4361 11.1861 40 14.9616 40 18.8984H39.2188C39.0116 18.8984 38.8128 18.9807 38.6663 19.1273C38.5198 19.2738 38.4375 19.4725 38.4375 19.6797V27.4922C38.4375 27.6994 38.5198 27.8981 38.6663 28.0446C38.8128 28.1911 39.0116 28.2734 39.2188 28.2734H40V30.6172C40 30.8244 39.9177 31.0231 39.7712 31.1696C39.6247 31.3161 39.4259 31.3984 39.2188 31.3984H33.6094C33.4472 30.9432 33.1487 30.5489 32.7545 30.2693C32.3603 29.9898 31.8895 29.8384 31.4062 29.8359H29.8438C29.2221 29.8359 28.626 30.0829 28.1865 30.5224C27.7469 30.9619 27.5 31.5581 27.5 32.1797C27.5 32.8013 27.7469 33.3974 28.1865 33.837C28.626 34.2765 29.2221 34.5234 29.8438 34.5234H31.4062C31.8895 34.5209 32.3603 34.3696 32.7545 34.09C33.1487 33.8105 33.4472 33.4162 33.6094 32.9609H39.2188C39.8398 32.9591 40.4348 32.7116 40.874 32.2724C41.3131 31.8333 41.5606 31.2382 41.5625 30.6172V28.2734H43.125C44.3682 28.2734 45.5605 27.7796 46.4396 26.9005C47.3186 26.0214 47.8125 24.8291 47.8125 23.5859C47.8125 22.3427 47.3186 21.1504 46.4396 20.2714C45.5605 19.3923 44.3682 18.8984 43.125 18.8984ZM7.1875 26.7109C6.3587 26.7109 5.56384 26.3817 4.97779 25.7956C4.39174 25.2096 4.0625 24.4147 4.0625 23.5859C4.0625 22.7571 4.39174 21.9623 4.97779 21.3762C5.56384 20.7902 6.3587 20.4609 7.1875 20.4609V26.7109ZM10.3125 26.7109H8.75V20.4609H10.3125V26.7109ZM31.4062 32.9609H29.8438C29.6365 32.9609 29.4378 32.8786 29.2913 32.7321C29.1448 32.5856 29.0625 32.3869 29.0625 32.1797C29.0625 31.9725 29.1448 31.7738 29.2913 31.6273C29.4378 31.4807 29.6365 31.3984 29.8438 31.3984H31.4062C31.6135 31.3984 31.8122 31.4807 31.9587 31.6273C32.1052 31.7738 32.1875 31.9725 32.1875 32.1797C32.1875 32.3869 32.1052 32.5856 31.9587 32.7321C31.8122 32.8786 31.6135 32.9609 31.4062 32.9609ZM41.5625 26.7109H40V20.4609H41.5625V26.7109ZM43.125 26.7109V20.4609C43.9538 20.4609 44.7487 20.7902 45.3347 21.3762C45.9208 21.9623 46.25 22.7571 46.25 23.5859C46.25 24.4147 45.9208 25.2096 45.3347 25.7956C44.7487 26.3817 43.9538 26.7109 43.125 26.7109Z" fill="#FECA2E"/>
</svg>
