<svg width="51" height="51" viewBox="0 0 51 51" fill="none" xmlns="http://www.w3.org/2000/svg">
<path d="M20.4306 6.62678H24.1678C24.5738 6.62678 24.903 6.29755 24.903 5.89148C24.903 5.48542 24.5738 5.15619 24.1678 5.15619H20.4306C20.0245 5.15619 19.6953 5.48542 19.6953 5.89148C19.6953 6.29755 20.0245 6.62678 20.4306 6.62678Z" fill="#FECA2E"/>
<path d="M17.1025 46.2117H23.7686C24.1747 46.2117 24.5039 45.8824 24.5039 45.4764C24.5039 45.0703 24.1747 44.7411 23.7686 44.7411H17.1025C16.6964 44.7411 16.3672 45.0703 16.3672 45.4764C16.3672 45.8824 16.6964 46.2117 17.1025 46.2117Z" fill="#FECA2E"/>
<path d="M7.62201 38.8961C8.02808 38.8961 8.35731 38.5668 8.35731 38.1608V9.38556H32.5089V13.1679C32.5089 13.574 32.8381 13.9032 33.2442 13.9032C33.6503 13.9032 33.9795 13.574 33.9795 13.1679C33.9799 12.2833 33.9784 15.8817 33.9828 5.32672C33.9828 3.71694 32.6663 2.40027 31.0509 2.40027H31.049H9.81533H9.81371C8.27671 2.40027 6.88672 3.6645 6.88672 5.32888V38.1608C6.88672 38.5668 7.21595 38.8961 7.62201 38.8961ZM31.049 3.87086C31.8259 3.87086 32.5089 4.50686 32.5089 5.32888V7.91497H8.3578V5.32672C8.3578 4.52479 9.01462 3.87086 9.81533 3.87086H31.049Z" fill="#FECA2E"/>
<path d="M24.9679 20.927C25.254 21.2108 25.72 21.2125 26.0077 20.9219L29.0806 17.8203C29.3646 17.5338 29.3646 17.072 29.0806 16.7855L26.0077 13.6839C25.7219 13.3952 25.2566 13.3938 24.9679 13.6788C24.6793 13.9646 24.6771 14.4303 24.9629 14.7186L27.5232 17.3029L24.9629 19.8872C24.6771 20.1755 24.6793 20.6412 24.9679 20.927Z" fill="#FECA2E"/>
<path d="M15.8956 13.6788C15.6073 13.3923 15.1413 13.3945 14.8559 13.6839L11.7833 16.7855C11.4993 17.072 11.4993 17.5338 11.7833 17.8203L14.8559 20.9219C15.1415 21.2104 15.6068 21.2129 15.8956 20.927C16.1843 20.6412 16.1865 20.1755 15.9007 19.8872L13.3408 17.3029L15.9007 14.7186C16.1865 14.4303 16.1843 13.9646 15.8956 13.6788Z" fill="#FECA2E"/>
<path d="M21.6181 11.6011L17.3022 22.4618C17.1521 22.8391 17.3367 23.2668 17.714 23.4165C18.0893 23.5663 18.5181 23.3838 18.6687 23.0047L22.9846 12.144C23.1347 11.7667 22.9501 11.339 22.5728 11.1893C22.194 11.0375 21.7678 11.2238 21.6181 11.6011Z" fill="#FECA2E"/>
<path d="M33.2482 25.2238C31.0938 25.2238 29.3438 26.9738 29.3438 29.1282C29.3438 31.3029 31.1169 33.0326 33.2482 33.0326C35.3701 33.0326 37.1452 31.3065 37.1452 29.1282C37.1452 26.9738 35.3952 25.2238 33.2482 25.2238ZM33.9835 31.4444V28.6429C33.9835 28.2385 33.6526 27.9076 33.2482 27.9076C32.8364 27.9076 32.5129 28.2385 32.5129 28.6429V31.4517C31.5276 31.1429 30.8143 30.2165 30.8143 29.1282C30.8143 27.79 31.9026 26.6944 33.2482 26.6944C34.5864 26.6944 35.6746 27.79 35.6746 29.1282C35.6746 30.2165 34.9614 31.1356 33.9835 31.4444Z" fill="#FECA2E"/>
<path d="M42.7691 26.8047L40.9603 26.5988C40.8206 26.1723 40.6441 25.7532 40.4309 25.3488L41.4897 23.8488C41.7029 23.5621 41.6662 23.1576 41.4161 22.9076L39.3059 20.8047C39.0412 20.54 38.622 20.5106 38.3279 20.7459L36.9088 21.8856C36.5044 21.6797 36.0853 21.5106 35.6515 21.3782L35.35 19.5621C35.2911 19.2091 34.9823 18.9517 34.622 18.9517H31.6441C31.2691 18.9517 30.9529 19.2312 30.9088 19.6062L30.7103 21.4223C30.2764 21.562 29.8647 21.7385 29.4676 21.9444L27.9603 20.8782C27.6661 20.6723 27.2691 20.7017 27.0191 20.9591L24.9161 23.062C24.6514 23.3268 24.6294 23.7459 24.8647 24.04L25.997 25.4664C25.7911 25.8708 25.622 26.29 25.4897 26.7238L23.6809 27.0253C23.3279 27.0915 23.0632 27.3929 23.0632 27.7532V30.7312C23.0632 31.1061 23.35 31.415 23.7176 31.4591L25.5264 31.665C25.6662 32.0988 25.85 32.5179 26.0558 32.915L24.997 34.4076C24.7912 34.7017 24.8205 35.0988 25.0779 35.3562L27.1809 37.4591C27.4456 37.7238 27.8647 37.7459 28.1588 37.5106L29.5853 36.3782C29.9897 36.5767 30.4015 36.7459 30.8353 36.8782L31.1367 38.6944C31.1955 39.0547 31.5044 39.312 31.8647 39.312H32.5117V40.937H7.62201C7.21761 40.937 6.88672 41.2679 6.88672 41.6723C6.88672 41.7862 6.88672 46.7175 6.88672 46.5326C6.88672 48.1429 8.20293 49.4591 9.81322 49.4591H31.0485C32.6661 49.4591 33.9823 48.1429 33.9823 46.5326C33.9823 46.1731 33.9823 38.9563 33.9823 39.312H34.8426C35.2176 39.312 35.5338 39.0326 35.5779 38.6576L35.7838 36.8415C36.2103 36.7018 36.6294 36.5253 37.0265 36.3194L38.5264 37.3855C38.8206 37.5914 39.2176 37.5547 39.475 37.3047L41.5706 35.1944C41.8353 34.9297 41.8573 34.5106 41.6221 34.2238L40.4897 32.7973C40.6956 32.3856 40.8647 31.9665 40.997 31.54L42.8059 31.2312C43.1588 31.1723 43.4235 30.8635 43.4235 30.5106V27.5326C43.4235 27.1576 43.1441 26.8414 42.7691 26.8047ZM32.5117 46.5326C32.5117 47.3341 31.8573 47.9885 31.0485 47.9885H9.81323C9.01173 47.9885 8.35731 47.3341 8.35731 46.5326C8.35731 46.3747 8.35731 42.3321 8.35731 42.4076H32.5118V46.5326H32.5117ZM41.9529 29.8856L40.2912 30.165C39.997 30.2164 39.7691 30.4297 39.6956 30.7238C39.5485 31.3414 39.3059 31.937 38.9823 32.5032C38.8279 32.7605 38.85 33.0914 39.0412 33.3267L40.0632 34.6209L38.872 35.8267L37.4897 34.8414C37.2544 34.6723 36.9309 34.665 36.6809 34.8194C36.1441 35.1503 35.5559 35.4003 34.9309 35.5547C34.6294 35.6282 34.4088 35.8855 34.372 36.187L34.1882 37.8415C33.5687 37.8415 33.1021 37.8415 32.4823 37.8415L32.2029 36.1723C32.1588 35.8856 31.9382 35.6503 31.6515 35.5841C31.0338 35.4297 30.4382 35.1871 29.8867 34.8635C29.6221 34.7091 29.2912 34.7311 29.0559 34.9223L27.7544 35.9517L26.5558 34.7532L27.5264 33.3929C27.6828 33.1714 27.7106 32.8446 27.5559 32.5694C27.225 32.0326 26.9676 31.437 26.8059 30.8047C26.7324 30.5105 26.4823 30.29 26.1809 30.2606L24.5338 30.0694V28.3782L26.1956 28.0988C26.4897 28.0473 26.725 27.8267 26.7911 27.54C26.9382 26.915 27.1809 26.3194 27.5118 25.7753C27.6661 25.5106 27.6515 25.1797 27.4603 24.9371L26.4235 23.6356L27.622 22.437L28.997 23.415C29.2323 23.5841 29.5559 23.5988 29.8059 23.4444C30.3426 23.1135 30.9382 22.8635 31.5706 22.7017C31.8647 22.6282 32.0779 22.3782 32.1147 22.0767L32.2985 20.4223H34.0044L34.2838 22.0841C34.3353 22.3782 34.5485 22.6135 34.8353 22.6797C35.4603 22.8268 36.0559 23.0694 36.6073 23.4003C36.872 23.5547 37.2029 23.5326 37.4382 23.3414L38.7323 22.3047L39.9308 23.5106L38.9603 24.8782C38.806 25.0967 38.7743 25.4161 38.9308 25.6944C39.2691 26.2459 39.5191 26.8414 39.6735 27.4517C39.747 27.7458 39.997 27.9665 40.3058 28.0032L41.9529 28.187V29.8856H41.9529Z" fill="#FECA2E"/>
</svg>
