<svg width="51" height="51" viewBox="0 0 51 51" fill="none" xmlns="http://www.w3.org/2000/svg">
<g clip-path="url(#clip0_101_5296)">
<path d="M20.3849 35.9689C20.196 35.9689 20.0058 35.904 19.8506 35.7718L14.509 31.2234C14.3247 31.0663 14.2188 30.8369 14.2188 30.5946C14.2188 30.3528 14.3252 30.1234 14.509 29.9663L19.8506 25.4179C20.1974 25.1222 20.7184 25.1641 21.0142 25.511C21.3094 25.8583 21.268 26.3793 20.9206 26.6745L16.3174 30.5946L20.9206 34.5147C21.268 34.8104 21.3094 35.3314 21.0142 35.6783C20.8506 35.8704 20.6185 35.9689 20.3849 35.9689Z" fill="#FECA2E"/>
<path d="M30.9274 35.9689C30.6939 35.9689 30.4617 35.8704 30.2987 35.6783C30.0029 35.3314 30.0449 34.8104 30.3917 34.5147L34.9949 30.5946L30.3917 26.6745C30.0449 26.3793 30.0029 25.8583 30.2987 25.511C30.5939 25.1641 31.1154 25.1222 31.4618 25.4179L36.8034 29.9663C36.9877 30.1234 37.0936 30.3528 37.0936 30.5946C37.0936 30.8369 36.9877 31.0663 36.8034 31.2234L31.4618 35.7718C31.3066 35.904 31.1163 35.9689 30.9274 35.9689Z" fill="#FECA2E"/>
<path d="M23.7643 39.3805C23.7076 39.3805 23.6505 39.3745 23.5929 39.3625C23.147 39.2685 22.8614 38.8304 22.9554 38.3845L26.2845 22.5785C26.3784 22.1326 26.816 21.847 27.2624 21.941C27.7083 22.035 27.9939 22.4726 27.8999 22.9189L24.5709 38.725C24.4889 39.1137 24.1461 39.3805 23.7643 39.3805Z" fill="#FECA2E"/>
<path d="M45.1138 47.9917H6.1987C3.1428 47.9917 0.65625 45.5056 0.65625 42.4493V9.42026C0.65625 6.36436 3.1428 3.87781 6.1987 3.87781H45.1138C48.1697 3.87781 50.6562 6.36436 50.6562 9.42026V42.4493C50.6562 45.5056 48.1697 47.9917 45.1138 47.9917ZM6.1987 5.52875C4.05303 5.52875 2.30719 7.27459 2.30719 9.42026V42.4493C2.30719 44.5949 4.05303 46.3408 6.1987 46.3408H45.1138C47.2595 46.3408 49.0053 44.5949 49.0053 42.4493V9.42026C49.0053 7.27459 47.2595 5.52875 45.1138 5.52875H6.1987Z" fill="#FECA2E"/>
<path d="M49.8308 17.0959H1.48172C1.02569 17.0959 0.65625 16.7265 0.65625 16.2705C0.65625 15.8149 1.02569 15.445 1.48172 15.445H49.8308C50.2868 15.445 50.6562 15.8149 50.6562 16.2705C50.6562 16.7265 50.2868 17.0959 49.8308 17.0959Z" fill="#FECA2E"/>
<path d="M14.7607 13.1459C13.3208 13.1459 12.1484 11.9736 12.1484 10.5336C12.1484 9.0932 13.3208 7.92133 14.7607 7.92133C16.2012 7.92133 17.373 9.0932 17.373 10.5336C17.373 11.9736 16.2012 13.1459 14.7607 13.1459ZM14.7607 9.57227C14.231 9.57227 13.7994 10.0034 13.7994 10.5336C13.7994 11.0638 14.231 11.495 14.7607 11.495C15.2909 11.495 15.7221 11.0638 15.7221 10.5336C15.7221 10.0034 15.2909 9.57227 14.7607 9.57227Z" fill="#FECA2E"/>
<path d="M6.7334 13.1206C5.29297 13.1206 4.12109 11.9487 4.12109 10.5083C4.12109 9.06786 5.29297 7.89599 6.7334 7.89599C8.17383 7.89599 9.3457 9.06786 9.3457 10.5083C9.3457 11.9487 8.17383 13.1206 6.7334 13.1206ZM6.7334 9.54693C6.20366 9.54693 5.77204 9.97855 5.77204 10.5083C5.77204 11.0385 6.20366 11.4697 6.7334 11.4697C7.2636 11.4697 7.69476 11.0385 7.69476 10.5083C7.69476 9.97855 7.2636 9.54693 6.7334 9.54693Z" fill="#FECA2E"/>
<path d="M22.7837 13.1708C21.3438 13.1708 20.1719 11.9989 20.1719 10.5585C20.1719 9.11853 21.3438 7.94666 22.7837 7.94666C24.2241 7.94666 25.396 9.11853 25.396 10.5585C25.396 11.9989 24.2241 13.1708 22.7837 13.1708ZM22.7837 9.59714C22.254 9.59714 21.8228 10.0283 21.8228 10.5585C21.8228 11.0887 22.254 11.5199 22.7837 11.5199C23.3139 11.5199 23.7451 11.0887 23.7451 10.5585C23.7451 10.0283 23.3139 9.59714 22.7837 9.59714Z" fill="#FECA2E"/>
</g>
<defs>
<clipPath id="clip0_101_5296">
<rect width="50" height="50" fill="white" transform="translate(0.65625 0.929688)"/>
</clipPath>
</defs>
</svg>
