<svg width="51" height="51" viewBox="0 0 51 51" fill="none" xmlns="http://www.w3.org/2000/svg">
<path d="M47.8125 23.5859H41.5625C41.3553 23.5859 41.1566 23.6682 41.0101 23.8148C40.8636 23.9613 40.7812 24.16 40.7812 24.3672V25.1484H39.2188V3.27344C39.2188 3.06624 39.1364 2.86752 38.9899 2.72101C38.8434 2.5745 38.6447 2.49219 38.4375 2.49219H11.875C11.6678 2.49219 11.4691 2.5745 11.3226 2.72101C11.1761 2.86752 11.0938 3.06624 11.0938 3.27344V24.3672H9.53125V23.5859C9.53125 23.3787 9.44894 23.18 9.30243 23.0335C9.15591 22.887 8.9572 22.8047 8.75 22.8047H2.5C2.2928 22.8047 2.09409 22.887 1.94757 23.0335C1.80106 23.18 1.71875 23.3787 1.71875 23.5859V37.6484C1.71875 37.8556 1.80106 38.0544 1.94757 38.2009C2.09409 38.3474 2.2928 38.4297 2.5 38.4297H8.75C8.9572 38.4297 9.15591 38.3474 9.30243 38.2009C9.44894 38.0544 9.53125 37.8556 9.53125 37.6484V36.8672H10.4688C10.3719 37.1166 10.319 37.3809 10.3125 37.6484C10.3125 38.27 10.5594 38.8662 10.999 39.3057C11.4385 39.7453 12.0346 39.9922 12.6562 39.9922C12.6562 40.6138 12.9032 41.2099 13.3427 41.6495C13.7823 42.089 14.3784 42.3359 15 42.3359H15.2578C15.4738 42.3341 15.6886 42.3028 15.8961 42.243C16.042 42.7208 16.3371 43.1394 16.7382 43.4373C17.1394 43.7352 17.6254 43.8968 18.125 43.8984H18.3828C18.5618 43.8963 18.74 43.874 18.9141 43.832C18.9141 43.8539 18.9062 43.8758 18.9062 43.8984C18.9062 44.52 19.1532 45.1162 19.5927 45.5557C20.0323 45.9953 20.6284 46.2422 21.25 46.2422H21.5078C22.0155 46.2456 22.51 46.0808 22.9141 45.7734L24.7109 44.4289C25.0311 44.5899 25.3838 44.6757 25.7422 44.6797H25.9375C26.4393 44.6781 26.9274 44.5155 27.3299 44.2158C27.7324 43.9161 28.0281 43.4952 28.1734 43.0148C28.3958 43.0827 28.6269 43.1171 28.8594 43.1172H29.0625C29.5649 43.1161 30.0536 42.9531 30.4561 42.6524C30.8586 42.3516 31.1534 41.9292 31.2969 41.4477C31.5219 41.5183 31.7563 41.5544 31.9922 41.5547H32.1875C32.4936 41.5572 32.7971 41.4981 33.0799 41.381C33.3627 41.2638 33.619 41.0909 33.8336 40.8727C33.9375 40.7718 34.0314 40.6611 34.1141 40.5422C34.4309 40.695 34.7779 40.7751 35.1297 40.7766H35.3125C35.9341 40.7766 36.5302 40.5296 36.9698 40.0901C37.4093 39.6506 37.6562 39.0544 37.6562 38.4328V38.3234C37.6563 38.1853 37.6438 38.0475 37.6188 37.9117L38.1391 36.8672H40.7812V38.4297C40.7812 38.6369 40.8636 38.8356 41.0101 38.9821C41.1566 39.1286 41.3553 39.2109 41.5625 39.2109H47.8125C48.0197 39.2109 48.2184 39.1286 48.3649 38.9821C48.5114 38.8356 48.5938 38.6369 48.5938 38.4297V24.3672C48.5938 24.16 48.5114 23.9613 48.3649 23.8148C48.2184 23.6682 48.0197 23.5859 47.8125 23.5859ZM12.6562 4.05469H37.6562V24.6898C37.0922 24.0942 36.4126 23.6198 35.6591 23.2957C34.9055 22.9716 34.0938 22.8045 33.2734 22.8047H30.0391C28.7283 22.8005 27.4523 23.2258 26.4062 24.0156L24.4531 25.4828L24.3297 25.3719C23.0435 24.2186 21.3759 23.5824 19.6484 23.5859H17.4375C16.7413 23.5845 16.0544 23.7464 15.432 24.0586C15.0265 24.2624 14.5788 24.3681 14.125 24.3672H12.6562V4.05469ZM7.96875 36.8672H3.28125V24.3672H7.96875V36.8672ZM11.875 37.6484C11.8761 37.5273 11.9048 37.4081 11.9589 37.2998C12.0131 37.1915 12.0913 37.097 12.1875 37.0234L14.2781 35.4609C14.411 35.3585 14.5744 35.3035 14.7422 35.3047H15C15.2072 35.3047 15.4059 35.387 15.5524 35.5335C15.6989 35.68 15.7812 35.8787 15.7812 36.0859C15.7792 36.2069 15.7501 36.3258 15.696 36.4339C15.6419 36.5421 15.5643 36.6368 15.4688 36.7109L13.3766 38.2781C13.2435 38.3785 13.0808 38.4319 12.9141 38.4297H12.6562C12.449 38.4297 12.2503 38.3474 12.1038 38.2009C11.9573 38.0544 11.875 37.8556 11.875 37.6484ZM15.2578 40.7734H15C14.7928 40.7734 14.5941 40.6911 14.4476 40.5446C14.3011 40.3981 14.2188 40.1994 14.2188 39.9922C14.2196 39.8711 14.2483 39.7518 14.3024 39.6434C14.3566 39.5351 14.4349 39.4406 14.5312 39.3672L16.6234 37.8C16.7565 37.6996 16.9192 37.6463 17.0859 37.6484H17.3438C17.466 37.647 17.5869 37.6746 17.6965 37.729C17.806 37.7834 17.9011 37.863 17.9738 37.9614C18.0465 38.0597 18.0948 38.1739 18.1147 38.2946C18.1346 38.4153 18.1256 38.539 18.0883 38.6555L16.7188 39.6797C16.5025 39.8461 16.3173 40.0495 16.1719 40.2805L15.7172 40.6211C15.585 40.7211 15.4235 40.7747 15.2578 40.7734ZM18.3828 42.3359H18.125C17.9178 42.3359 17.7191 42.2536 17.5726 42.1071C17.4261 41.9606 17.3438 41.7619 17.3438 41.5547C17.3448 41.4785 17.3571 41.403 17.3805 41.3305L18.75 40.3047C18.9642 40.1388 19.1475 39.9365 19.2914 39.707L19.7359 39.375L19.7672 39.3492C19.897 39.2578 20.0522 39.2095 20.2109 39.2109H20.4688C20.676 39.2109 20.8747 39.2932 21.0212 39.4398C21.1677 39.5863 21.25 39.785 21.25 39.9922C21.2502 40.1516 21.2011 40.3071 21.1094 40.4375C21.0608 40.5047 21.0033 40.5649 20.9383 40.6164L18.8453 42.1844C18.7122 42.2848 18.5495 42.3381 18.3828 42.3359ZM24.0633 42.9609L21.9703 44.5289C21.8371 44.629 21.6744 44.6821 21.5078 44.6797H21.25C21.0428 44.6797 20.8441 44.5974 20.6976 44.4509C20.5511 44.3044 20.4688 44.1056 20.4688 43.8984C20.4696 43.7773 20.4982 43.658 20.5524 43.5496C20.6065 43.4413 20.6848 43.3468 20.7812 43.2734L22.8742 41.7055C23.0072 41.6055 23.1696 41.5525 23.3359 41.5547H23.5938C23.7511 41.5542 23.905 41.6013 24.0352 41.6898C24.1654 41.7783 24.2658 41.904 24.3233 42.0505C24.3808 42.197 24.3927 42.3575 24.3575 42.5109C24.3222 42.6643 24.2415 42.8034 24.1258 42.9102C24.1219 42.9133 24.0664 42.9562 24.0625 42.9609H24.0633ZM25.9375 43.1172H25.7938C25.9251 42.7658 25.9674 42.3873 25.9168 42.0155C25.8662 41.6437 25.7244 41.2903 25.5039 40.9867L26.6531 41.9727C26.7011 42.0876 26.7234 42.2115 26.7188 42.3359C26.7188 42.5431 26.6364 42.7419 26.4899 42.8884C26.3434 43.0349 26.1447 43.1172 25.9375 43.1172ZM36.0938 38.4297C36.0938 38.6369 36.0114 38.8356 35.8649 38.9821C35.7184 39.1286 35.5197 39.2109 35.3125 39.2109H35.1328C34.941 39.2124 34.7553 39.1429 34.6117 39.0156L34.4555 38.8727C34.4105 38.7795 34.3476 38.6961 34.2703 38.6273L27.2391 32.3773C27.0844 32.2414 26.8822 32.172 26.6767 32.1844C26.4711 32.1967 26.2787 32.2897 26.1413 32.4431C26.0039 32.5965 25.9327 32.798 25.9431 33.0037C25.9535 33.2094 26.0447 33.4026 26.1969 33.5414L32.8852 39.557C32.8444 39.6339 32.7917 39.7038 32.7289 39.7641C32.6585 39.8364 32.5743 39.8938 32.4813 39.933C32.3883 39.9722 32.2884 39.9923 32.1875 39.9922H31.9922C31.8022 39.9891 31.6189 39.9213 31.4727 39.8L30.9797 39.3734C30.8702 39.209 30.7388 39.0602 30.5891 38.9312L25.6672 34.7125C25.5102 34.5793 25.307 34.5133 25.1017 34.5291C24.8964 34.5449 24.7057 34.6411 24.5709 34.7967C24.4362 34.9524 24.3683 35.1549 24.3821 35.3604C24.3959 35.5658 24.4902 35.7575 24.6445 35.8938L29.7656 40.3883C29.8225 40.5084 29.8493 40.6406 29.8438 40.7734C29.8438 40.9806 29.7614 41.1794 29.6149 41.3259C29.4684 41.4724 29.2697 41.5547 29.0625 41.5547H28.8594C28.672 41.5552 28.4907 41.4877 28.3492 41.3648L27.8648 40.9539C27.7455 40.7781 27.6015 40.6203 27.4375 40.4852L23.3125 37.0477C23.2341 36.9814 23.1435 36.9313 23.0457 36.9001C22.9479 36.8689 22.845 36.8573 22.7427 36.8659C22.6405 36.8745 22.5409 36.9031 22.4497 36.9502C22.3586 36.9973 22.2776 37.0619 22.2113 37.1402C22.1451 37.2186 22.095 37.3093 22.0638 37.407C22.0326 37.5048 22.021 37.6077 22.0296 37.71C22.0382 37.8122 22.0668 37.9118 22.1139 38.003C22.161 38.0942 22.2255 38.1752 22.3039 38.2414L24.6539 40.257C24.3266 40.0856 23.9632 39.9948 23.5938 39.9922H23.3359C23.1577 39.9944 22.9803 40.0167 22.807 40.0586C22.807 40.0359 22.8125 40.0141 22.8125 39.9922C22.8125 39.3706 22.5656 38.7744 22.126 38.3349C21.6865 37.8954 21.0904 37.6484 20.4688 37.6484H20.2109C19.9949 37.6503 19.7802 37.6816 19.5727 37.7414C19.426 37.264 19.1307 36.8459 18.7297 36.5481C18.3288 36.2503 17.8432 36.0884 17.3438 36.0859C17.3438 35.4643 17.0968 34.8682 16.6573 34.4287C16.2177 33.9891 15.6216 33.7422 15 33.7422H14.7422C14.2345 33.7384 13.7399 33.9033 13.3359 34.2109L11.875 35.3047H9.53125V25.9297H14.125C14.8212 25.9311 15.5081 25.7692 16.1305 25.457C16.536 25.2532 16.9837 25.1475 17.4375 25.1484H19.6484C20.939 25.1476 22.1876 25.6065 23.1703 26.443L22.1875 27.1797C21.794 27.4748 21.5033 27.8863 21.3566 28.3559C21.2099 28.8254 21.2147 29.3292 21.3703 29.7958C21.5258 30.2625 21.8243 30.6684 22.2233 30.956C22.6224 31.2437 23.1018 31.3984 23.5938 31.3984H24.0078C24.3704 31.3991 24.7282 31.3148 25.0523 31.1523L27.2336 30.0586L34.6289 36.6664L35.4141 37.3695L35.8773 37.7953L35.8922 37.8094L35.9125 37.8289C36.0277 37.967 36.0917 38.1405 36.0938 38.3203V38.4297ZM37.6562 35.3047C37.5104 35.3039 37.3672 35.3439 37.243 35.4203C37.1187 35.4966 37.0183 35.6063 36.9531 35.7367L36.6406 36.3703L36.582 36.318L28.0281 28.4789C27.9116 28.3721 27.7655 28.3031 27.609 28.2811C27.4525 28.259 27.293 28.285 27.1516 28.3555L24.3539 29.7578C24.2462 29.8104 24.1277 29.8371 24.0078 29.8359H23.5938C23.3865 29.8359 23.1878 29.7536 23.0413 29.6071C22.8948 29.4606 22.8125 29.2619 22.8125 29.0547C22.8134 28.9336 22.842 28.8143 22.8962 28.7059C22.9504 28.5976 23.0286 28.5031 23.125 28.4297L27.3438 25.2641C28.1202 24.6789 29.0668 24.3639 30.0391 24.3672H33.2734C34.012 24.3666 34.7393 24.5486 35.3906 24.897C36.0418 25.2453 36.5968 25.7493 37.0062 26.3641C37.0777 26.4709 37.1744 26.5584 37.2878 26.6189C37.4012 26.6794 37.5277 26.711 37.6562 26.7109H40.7812V35.3047H37.6562ZM47.0312 37.6484H42.3438V25.1484H47.0312V37.6484Z" fill="#FECA2E"/>
<path d="M25.1562 21.2422C26.7014 21.2422 28.2119 20.784 29.4966 19.9255C30.7814 19.0671 31.7828 17.847 32.3741 16.4194C32.9654 14.9919 33.1201 13.421 32.8186 11.9055C32.5172 10.3901 31.7731 8.99802 30.6805 7.90542C29.5879 6.81282 28.1959 6.06875 26.6804 5.76731C25.1649 5.46586 23.5941 5.62057 22.1665 6.21188C20.739 6.80319 19.5188 7.80454 18.6604 9.0893C17.8019 10.3741 17.3438 11.8845 17.3438 13.4297C17.346 15.501 18.1699 17.4868 19.6345 18.9515C21.0991 20.4161 23.0849 21.2399 25.1562 21.2422ZM25.1562 7.17969C26.3924 7.17969 27.6008 7.54625 28.6286 8.23301C29.6564 8.91976 30.4574 9.89588 30.9305 11.0379C31.4035 12.18 31.5273 13.4366 31.2862 14.649C31.045 15.8614 30.4497 16.975 29.5757 17.8491C28.7016 18.7232 27.5879 19.3184 26.3756 19.5596C25.1632 19.8008 23.9065 19.677 22.7645 19.2039C21.6224 18.7309 20.6463 17.9298 19.9596 16.902C19.2728 15.8742 18.9062 14.6658 18.9062 13.4297C18.9081 11.7727 19.5672 10.184 20.7389 9.01233C21.9106 7.84063 23.4992 7.18155 25.1562 7.17969Z" fill="#FECA2E"/>
<path d="M24.375 16.5547C24.5822 16.5546 24.7809 16.4723 24.9273 16.3258L29.6148 11.6383L28.5102 10.5336L24.3016 14.7422L21.7188 12.8047L20.7812 14.0547L23.9062 16.3984C24.0413 16.5002 24.2059 16.5551 24.375 16.5547Z" fill="#FECA2E"/>
</svg>
