<svg width="162" height="166" viewBox="0 0 162 166" fill="none" xmlns="http://www.w3.org/2000/svg">
<g clip-path="url(#clip0_2_30)">
<g clip-path="url(#clip1_2_30)">
<path fill-rule="evenodd" clip-rule="evenodd" d="M12.588 -135.882C16.796 -135.882 19.769 -134.878 21.522 -132.503C23.134 -130.318 23.946 -126.674 23.282 -120.741C23.178 -120.462 23.08 -120.191 22.988 -119.929C15.54 -121.291 7.86501 -122.002 0.0230103 -122.002C-7.90199 -122.002 -15.657 -121.276 -23.178 -119.886C-23.311 -122.726 -22.985 -126.398 -21.683 -129.509C-20.927 -131.313 -19.866 -132.876 -18.426 -134.001C-17.017 -135.102 -15.178 -135.837 -12.746 -135.912C-10.498 -135.694 -7.00098 -135.885 -3.97598 -137.209C-2.42898 -137.886 -0.954988 -138.882 0.144012 -140.321C0.316012 -140.546 0.477014 -140.78 0.627014 -141.024C0.909014 -140.52 1.255 -140.021 1.681 -139.542C3.62 -137.367 6.96601 -135.882 12.588 -135.882ZM23.638 -134.057C25.024 -132.178 25.84 -129.702 26.072 -126.55C26.828 -127.761 27.708 -128.934 28.731 -129.975C30.361 -131.634 32.385 -132.989 34.876 -133.609C37.372 -134.23 40.232 -134.086 43.485 -132.914L43.6 -132.872L43.705 -132.81C45.384 -131.824 48.08 -130.785 50.677 -130.802C51.957 -130.81 53.17 -131.075 54.23 -131.685C55.28 -132.289 56.254 -133.275 57.008 -134.854L59.429 -133.844C58.96 -132.541 58.525 -130.623 59.218 -128.618C59.894 -126.659 61.756 -124.316 66.517 -122.363C69.051 -121.323 72.298 -118.915 73.784 -114.999C74.732 -112.499 74.918 -109.505 73.875 -106.035C75.118 -107.04 76.49 -107.956 77.968 -108.64C79.968 -109.564 82.203 -110.085 84.589 -109.794C86.982 -109.503 89.415 -108.41 91.823 -106.291L92.033 -106.105C94.427 -103.998 96.489 -102.181 98.591 -101.414C99.619 -101.038 100.609 -100.937 101.625 -101.18C102.653 -101.425 103.818 -102.049 105.141 -103.31L107.042 -101.504C106.139 -100.453 105.048 -98.815 104.98 -96.696C104.913 -94.626 105.817 -91.775 109.568 -88.258C112.382 -85.621 114.356 -82.068 113.809 -77.887C113.455 -75.187 112.068 -72.387 109.433 -69.539C111.161 -69.937 112.993 -70.177 114.811 -70.142C117.093 -70.097 119.41 -69.616 121.47 -68.41C123.547 -67.195 125.286 -65.288 126.458 -62.529L126.491 -62.452L126.514 -62.371C127.04 -60.5 128.262 -57.886 130.147 -56.103C131.076 -55.224 132.134 -54.576 133.322 -54.283C134.498 -53.994 135.886 -54.031 137.526 -54.648L138.57 -52.246C137.327 -51.63 135.682 -50.548 134.789 -48.624C133.917 -46.744 133.633 -43.767 135.71 -39.067C136.815 -36.566 137.485 -32.584 135.837 -28.733C134.8 -26.31 132.896 -24.053 129.815 -22.283C131.357 -21.979 132.912 -21.525 134.375 -20.878C136.462 -19.955 138.411 -18.616 139.844 -16.708C141.288 -14.785 142.152 -12.354 142.162 -9.358V-9.274L142.152 -9.19099C141.911 -7.26199 142.024 -4.38 143.069 -2.008C143.585 -0.838996 144.309 0.165989 145.29 0.894989C146.262 1.61599 147.555 2.11801 149.307 2.18201L149.342 4.79999C147.957 4.88799 146.019 5.24999 144.449 6.67999C142.914 8.07799 141.497 10.713 141.589 15.849C141.637 18.582 140.71 22.511 137.698 25.424C135.617 27.436 132.652 28.86 128.588 29.147C130.24 30.133 131.866 31.341 133.246 32.771C134.83 34.413 136.129 36.387 136.734 38.695C137.343 41.02 137.223 43.597 136.099 46.375L136.068 46.453L136.027 46.526C135.074 48.221 134.088 50.933 134.159 53.522C134.194 54.799 134.484 56.002 135.117 57.046C135.743 58.079 136.75 59.031 138.348 59.75L137.394 62.189C136.078 61.749 134.146 61.353 132.15 62.087C130.2 62.803 127.89 64.711 126.032 69.5C125.043 72.05 122.698 75.338 118.807 76.901C116.475 77.837 113.692 78.113 110.465 77.341C111.198 78.435 111.853 79.606 112.37 80.83C113.256 82.93 113.757 85.239 113.49 87.609C113.22 89.998 112.18 92.359 110.13 94.549L110.073 94.61L110.008 94.663C108.507 95.903 106.611 98.08 105.744 100.521C105.317 101.725 105.154 102.951 105.368 104.152C105.58 105.341 106.177 106.59 107.409 107.835L105.641 109.769C104.572 108.886 102.911 107.824 100.784 107.792C98.705 107.761 95.863 108.713 92.403 112.515C90.561 114.54 87.188 116.766 82.995 116.828C80.187 116.87 77.151 115.94 74.09 113.538C74.464 115.072 74.701 116.681 74.698 118.286C74.693 120.533 74.218 122.823 72.939 124.878C71.654 126.943 69.618 128.674 66.661 129.889L66.589 129.919L66.515 129.94C64.638 130.464 62.019 131.683 60.232 133.562C59.351 134.488 58.702 135.543 58.409 136.727C58.118 137.899 58.154 139.283 58.773 140.92L56.368 141.968C55.751 140.728 54.667 139.084 52.737 138.192C50.851 137.321 47.866 137.037 43.156 139.107C39.931 140.524 35.901 141.442 32.167 139.836C29.539 138.707 27.271 136.424 25.571 132.646C25.287 134.534 24.79 136.48 23.997 138.286C23.081 140.373 21.748 142.325 19.842 143.762C17.922 145.212 15.489 146.084 12.487 146.108L12.403 146.109L12.32 146.099C10.381 145.866 7.67399 145.996 5.48199 147.033C4.40499 147.544 3.47899 148.26 2.80499 149.239C2.13599 150.214 1.66702 151.519 1.61002 153.289L-1.01401 153.336C-1.10201 152.044 -1.59799 150.097 -3.20599 148.504C-4.79099 146.936 -7.63499 145.535 -12.777 145.649C-15.516 145.71 -19.457 144.802 -22.39 141.809C-24.265 139.896 -25.638 137.224 -26.075 133.623C-26.946 134.938 -27.961 136.208 -29.122 137.318C-30.77 138.894 -32.752 140.185 -35.064 140.782C-37.395 141.384 -39.976 141.259 -42.757 140.13L-42.835 140.099L-42.908 140.058C-44.605 139.102 -47.32 138.112 -49.916 138.177C-51.196 138.209 -52.404 138.495 -53.452 139.125C-54.49 139.748 -55.447 140.751 -56.172 142.344L-58.611 141.378C-58.166 140.066 -57.766 138.141 -58.495 136.149C-59.208 134.203 -61.113 131.894 -65.908 130.028C-68.461 129.035 -71.751 126.687 -73.309 122.799C-74.416 120.034 -74.589 116.639 -73.182 112.628C-74.792 113.852 -76.625 114.967 -78.583 115.734C-80.708 116.566 -83.032 117.009 -85.399 116.684C-87.783 116.357 -90.123 115.261 -92.265 113.162L-92.325 113.104L-92.377 113.038C-93.583 111.511 -95.716 109.565 -98.143 108.64C-99.338 108.183 -100.565 107.99 -101.775 108.175C-102.973 108.357 -104.24 108.923 -105.517 110.121L-107.404 108.301C-106.493 107.256 -105.389 105.627 -105.305 103.509C-105.222 101.439 -106.104 98.581 -109.829 95.036C-111.811 93.149 -113.96 89.729 -113.919 85.541C-113.89 82.65 -112.821 79.545 -110.169 76.459C-111.724 76.898 -113.367 77.201 -115.017 77.247C-117.277 77.309 -119.597 76.892 -121.723 75.646C-123.857 74.396 -125.697 72.368 -127.083 69.375L-127.124 69.287L-127.151 69.195C-127.701 67.33 -128.957 64.732 -130.865 62.973C-131.805 62.106 -132.871 61.472 -134.063 61.194C-135.242 60.92 -136.629 60.974 -138.262 61.613L-139.337 59.224C-138.17 58.628 -136.932 57.704 -136.241 55.852C-135.53 53.949 -135.322 50.87 -136.717 45.813C-137.564 42.742 -138.323 38.772 -136.758 35.075C-135.668 32.5 -133.538 30.239 -129.943 28.499C-131.699 28.191 -133.49 27.695 -135.159 26.947C-137.241 26.014 -139.184 24.665 -140.608 22.75C-142.042 20.82 -142.894 18.385 -142.89 15.389V15.305L-142.879 15.222C-142.628 13.294 -142.727 10.412 -143.761 8.035C-144.271 6.863 -144.99 5.854 -145.968 5.121C-146.936 4.395 -148.226 3.887 -149.978 3.814L-150 1.19598C-148.615 1.11498 -146.675 0.762996 -145.098 -0.660004C-143.557 -2.05 -142.127 -4.679 -142.193 -9.815C-142.229 -12.548 -141.282 -16.473 -138.256 -19.371C-136.429 -21.121 -133.928 -22.418 -130.612 -22.895C-131.661 -23.537 -132.671 -24.273 -133.578 -25.116C-135.237 -26.658 -136.589 -28.595 -137.185 -31.007C-137.782 -33.424 -137.59 -36.197 -136.361 -39.355L-136.33 -39.437L-136.287 -39.514C-135.346 -41.216 -134.379 -43.934 -134.468 -46.523C-134.512 -47.799 -134.811 -49.001 -135.451 -50.04C-136.084 -51.069 -137.098 -52.013 -138.701 -52.722L-137.764 -55.167C-136.446 -54.736 -134.511 -54.354 -132.52 -55.102C-130.574 -55.832 -128.278 -57.756 -126.454 -62.558C-124.933 -66.562 -122.459 -69.883 -118.418 -70.963C-116.105 -71.582 -113.426 -71.423 -110.329 -70.4C-111.089 -71.457 -111.773 -72.592 -112.307 -73.792C-113.23 -75.864 -113.729 -78.173 -113.37 -80.609C-113.01 -83.054 -111.802 -85.506 -109.51 -87.881L-109.451 -87.942L-109.384 -87.995C-107.863 -89.21 -105.93 -91.354 -105.021 -93.78C-104.574 -94.976 -104.39 -96.2 -104.583 -97.404C-104.775 -98.596 -105.351 -99.856 -106.561 -101.121L-104.76 -103.025C-103.707 -102.124 -102.064 -101.034 -99.938 -100.966C-97.86 -100.9 -95.001 -101.803 -91.478 -105.546C-88.721 -108.474 -85.32 -110.519 -81.282 -109.931C-78.849 -109.577 -76.352 -108.286 -73.768 -105.926C-74.117 -107.455 -74.334 -109.056 -74.336 -110.651C-74.339 -112.93 -73.903 -115.252 -72.729 -117.334C-71.546 -119.432 -69.658 -121.205 -66.9 -122.429L-66.824 -122.463L-66.744 -122.487C-64.879 -123.047 -62.283 -124.317 -60.533 -126.23C-59.67 -127.173 -59.042 -128.24 -58.772 -129.43C-58.504 -130.607 -58.567 -131.99 -59.217 -133.615L-56.833 -134.709C-56.192 -133.481 -55.077 -131.859 -53.129 -131.004C-51.227 -130.169 -48.237 -129.942 -43.568 -132.103C-39.899 -133.801 -35.649 -134.392 -31.786 -132.42C-29.335 -131.168 -27.182 -128.957 -25.473 -125.613C-25.204 -127.265 -24.767 -128.943 -24.107 -130.52C-23.227 -132.622 -21.927 -134.595 -20.046 -136.065C-18.15 -137.547 -15.733 -138.46 -12.731 -138.535L-12.647 -138.537L-12.563 -138.528C-10.628 -138.329 -7.56501 -138.501 -5.03101 -139.61C-3.78001 -140.157 -2.70898 -140.911 -1.94598 -141.909C-1.19498 -142.894 -0.692009 -144.183 -0.665009 -145.91L1.957 -146C2.082 -144.533 2.34599 -142.741 3.64499 -141.284C4.91099 -139.863 7.40701 -138.503 12.588 -138.503C17.127 -138.503 21.152 -137.426 23.638 -134.057ZM-124.253 -20.025C-124.534 -20.119 -124.823 -20.22 -125.118 -20.326C-130.873 -20.965 -134.358 -19.47 -136.436 -17.48C-138.81 -15.206 -139.595 -12.055 -139.566 -9.84801C-139.494 -4.20501 -141.076 -0.753996 -143.336 1.285C-143.908 1.8 -144.507 2.21101 -145.111 2.54001C-144.86 2.69001 -144.62 2.85299 -144.389 3.02499C-142.97 4.08999 -141.999 5.502 -141.351 6.991C-140.087 9.897 -139.986 13.242 -140.262 15.473C-140.251 17.901 -139.563 19.754 -138.497 21.189C-137.408 22.654 -135.87 23.755 -134.083 24.555C-131.081 25.9 -127.523 26.335 -124.708 26.303C-125.958 19.177 -126.61 11.846 -126.61 4.362C-126.61 -3.98 -125.799 -12.134 -124.253 -20.025ZM-131.79 -27.035C-129.738 -25.127 -126.987 -23.811 -124.5 -22.893C-124.231 -22.86 -123.958 -22.823 -123.681 -22.782C-120.298 -38.206 -114.091 -52.576 -105.629 -65.325L-105.716 -65.402C-111.177 -68.537 -115.03 -69.153 -117.737 -68.429C-120.606 -67.662 -122.615 -65.266 -123.999 -61.625C-126.003 -56.348 -128.743 -53.716 -131.594 -52.646C-132.315 -52.375 -133.024 -52.212 -133.707 -52.127C-133.529 -51.896 -133.365 -51.657 -133.215 -51.413C-132.285 -49.903 -131.9 -48.233 -131.844 -46.611C-131.735 -43.446 -132.869 -40.298 -133.944 -38.324C-134.985 -35.61 -135.077 -33.418 -134.636 -31.633C-134.189 -29.826 -133.166 -28.315 -131.79 -27.035ZM-71.748 -99.761C-84.4 -91.06 -95.389 -80.122 -104.139 -67.52L-104.162 -67.533C-106.273 -69.425 -108.627 -71.98 -109.909 -74.859C-110.681 -76.593 -111.043 -78.396 -110.773 -80.226C-110.508 -82.03 -109.612 -83.976 -107.678 -86C-105.928 -87.414 -103.674 -89.892 -102.563 -92.86C-101.994 -94.381 -101.71 -96.071 -101.992 -97.821C-102.038 -98.105 -102.098 -98.387 -102.173 -98.669C-101.51 -98.487 -100.792 -98.368 -100.022 -98.343C-96.978 -98.246 -93.439 -99.634 -89.567 -103.747C-87.084 -106.384 -84.481 -107.744 -81.66 -107.334C-78.953 -106.94 -75.647 -104.868 -71.748 -99.761ZM-124.166 29.193C-121.046 44.817 -115.04 59.402 -106.725 72.371C-109.175 73.505 -112.17 74.544 -115.087 74.625C-116.974 74.677 -118.782 74.327 -120.393 73.383C-121.979 72.453 -123.47 70.891 -124.661 68.355C-125.311 66.204 -126.755 63.191 -129.082 61.045C-130.277 59.943 -131.736 59.042 -133.464 58.64C-133.84 58.552 -134.224 58.489 -134.617 58.453C-134.301 57.958 -134.017 57.399 -133.78 56.766C-132.802 54.146 -132.713 50.45 -134.185 45.114C-135.014 42.11 -135.531 38.909 -134.34 36.095C-133.238 33.493 -130.511 30.873 -124.166 29.193ZM-104.918 75.11C-109.799 78.908 -111.265 82.591 -111.294 85.567C-111.327 88.848 -109.619 91.612 -108.019 93.135C-103.927 97.03 -102.561 100.573 -102.682 103.613C-102.713 104.381 -102.838 105.096 -103.024 105.755C-102.74 105.682 -102.456 105.624 -102.17 105.58C-100.416 105.313 -98.726 105.608 -97.207 106.187C-94.242 107.318 -91.776 109.586 -90.372 111.343C-88.625 113.034 -86.816 113.84 -85.042 114.084C-83.229 114.333 -81.365 114.005 -79.541 113.29C-76.677 112.169 -74.044 110.144 -72.122 108.227C-84.994 99.307 -96.129 88.066 -104.918 75.11ZM-23.43 128.564L-23.463 128.644C-24.068 134.432 -22.533 137.914 -20.512 139.976C-18.211 142.323 -15.046 143.077 -12.835 143.028C-7.17699 142.902 -3.57199 144.45 -1.35599 146.643C-0.738988 147.254 -0.243992 147.901 0.152008 148.554C0.302008 148.276 0.464008 148.01 0.639008 147.756C1.62101 146.327 2.94199 145.335 4.35599 144.665C7.11099 143.36 10.316 143.231 12.546 143.486C14.979 143.452 16.83 142.748 18.258 141.671C19.716 140.571 20.805 139.026 21.59 137.235C22.797 134.486 23.236 131.28 23.259 128.604C15.726 129.998 7.96001 130.727 0.0230103 130.727C-7.98999 130.727 -15.83 129.984 -23.43 128.564ZM-30.939 135.422C-28.753 133.332 -27.107 130.518 -26.057 128.044C-41.696 124.777 -56.274 118.631 -69.21 110.186C-72.021 115.323 -71.946 119.141 -70.871 121.827C-69.65 124.874 -67.018 126.782 -64.957 127.584C-59.688 129.634 -57.076 132.393 -56.029 135.25C-55.765 135.972 -55.608 136.68 -55.53 137.361C-55.295 137.186 -55.054 137.024 -54.807 136.876C-53.286 135.963 -51.61 135.595 -49.984 135.554C-46.811 135.476 -43.666 136.637 -41.698 137.73C-39.438 138.631 -37.458 138.69 -35.724 138.243C-33.953 137.785 -32.354 136.775 -30.939 135.422ZM26.672 127.924C42.394 124.564 57.034 118.291 69.998 109.698C71.098 112.193 72.078 115.304 72.072 118.284C72.068 120.169 71.671 121.95 70.709 123.495C69.763 125.015 68.211 126.403 65.732 127.436C63.567 128.053 60.517 129.456 58.329 131.757C57.209 132.934 56.286 134.379 55.86 136.099C55.791 136.378 55.735 136.662 55.694 136.95C55.155 136.525 54.541 136.135 53.842 135.812C51.078 134.534 47.277 134.431 42.101 136.706C39.133 138.011 35.95 138.606 33.208 137.427C30.751 136.371 28.285 133.727 26.672 127.924ZM72.331 108.114C76.251 112.878 79.974 114.248 82.956 114.204C86.248 114.155 88.975 112.383 90.462 110.749C94.263 106.571 97.778 105.123 100.823 105.168C101.594 105.18 102.314 105.287 102.98 105.458C102.9 105.177 102.835 104.896 102.785 104.613C102.473 102.868 102.728 101.174 103.271 99.643C104.331 96.656 106.543 94.14 108.268 92.696C109.919 90.912 110.682 89.089 110.882 87.315C111.086 85.502 110.712 83.652 109.952 81.851C108.951 79.48 107.318 77.286 105.657 75.537C105.417 75.416 105.175 75.29 104.931 75.158C96.184 88.039 85.118 99.224 72.331 108.114ZM103.333 72.831L103.071 73.163L103.097 73.184C99.115 79.111 94.632 84.675 89.711 89.817C87.744 87.56 84.548 79.541 94.067 67.668C97.327 63.602 98.871 59.813 99.192 56.343C99.515 52.869 98.6 49.835 97.15 47.304C95.878 45.087 94.186 43.24 92.517 41.779C94.738 42.195 97.256 42.392 99.713 41.961C102.582 41.459 105.406 40.099 107.569 37.263C109.711 34.453 111.108 30.321 111.406 24.442C112.166 9.42299 120.929 5.90098 124.024 5.72198C123.756 30.524 116.176 53.575 103.333 72.831ZM107.233 73.391C107.004 73.157 106.775 72.932 106.548 72.716C114.871 59.827 120.908 45.331 124.089 29.796C126.537 30.84 129.296 32.456 131.357 34.591C132.715 35.999 133.731 37.592 134.194 39.356C134.646 41.084 134.591 43.059 133.694 45.316C132.604 47.282 131.447 50.424 131.534 53.591C131.579 55.214 131.952 56.886 132.871 58.403C133.02 58.648 133.182 58.888 133.358 59.121C132.675 59.201 131.965 59.359 131.242 59.625C128.383 60.675 125.625 63.287 123.583 68.55C122.785 70.608 120.879 73.24 117.825 74.467C115.325 75.47 111.845 75.614 107.233 73.391ZM124.726 26.459C130.388 27.025 133.82 25.523 135.869 23.541C138.232 21.257 139.001 18.101 138.962 15.895C138.861 10.252 140.427 6.79399 142.677 4.74399C143.246 4.22499 143.844 3.81101 144.445 3.48001C144.194 3.33101 143.953 3.16999 143.722 2.99799C142.297 1.94099 141.32 0.532997 140.665 -0.953003C139.386 -3.853 139.269 -7.197 139.534 -9.429C139.511 -11.857 138.814 -13.707 137.741 -15.137C136.645 -16.597 135.101 -17.689 133.31 -18.482C130.602 -19.679 127.447 -20.137 124.79 -20.183C124.627 -20.135 124.463 -20.088 124.296 -20.041C125.844 -12.145 126.655 -3.986 126.655 4.362C126.655 11.9 125.994 19.284 124.726 26.459ZM124.412 -22.809C124.178 -22.809 123.948 -22.807 123.722 -22.802C120.322 -38.294 114.073 -52.721 105.552 -65.511C108.117 -66.62 111.512 -67.583 114.756 -67.519C116.715 -67.481 118.563 -67.07 120.141 -66.146C121.686 -65.242 123.046 -63.805 124.01 -61.576C124.631 -59.416 126.037 -56.377 128.34 -54.198C129.521 -53.081 130.968 -52.161 132.691 -51.737C132.971 -51.668 133.256 -51.612 133.546 -51.571C133.12 -51.034 132.73 -50.421 132.407 -49.724C131.127 -46.963 131.026 -43.169 133.307 -38.006C134.2 -35.986 134.714 -32.781 133.423 -29.762C132.312 -27.166 129.763 -24.477 124.412 -22.809ZM103.841 -68.013C108.821 -71.866 110.829 -75.346 111.206 -78.228C111.608 -81.299 110.203 -84.067 107.774 -86.344C103.652 -90.207 102.259 -93.74 102.356 -96.781C102.379 -97.475 102.478 -98.126 102.632 -98.733C102.499 -98.694 102.367 -98.659 102.234 -98.627C100.632 -98.245 99.112 -98.429 97.691 -98.948C95.109 -99.891 92.704 -102.013 90.481 -103.974L90.345 -104.094L90.089 -104.32C88.014 -106.146 86.061 -106.971 84.272 -107.189C82.476 -107.408 80.734 -107.027 79.07 -106.258C76.033 -104.853 73.399 -102.221 71.482 -99.975C84.1 -91.353 95.074 -80.511 103.841 -68.013ZM25.763 -119.39C25.795 -119.636 25.826 -119.878 25.855 -120.119C26.864 -122.761 28.368 -125.859 30.606 -128.136C31.975 -129.53 33.591 -130.585 35.513 -131.063C37.404 -131.534 39.695 -131.472 42.486 -130.485C44.436 -129.363 47.541 -128.158 50.697 -128.179C52.324 -128.189 54.006 -128.527 55.543 -129.412C55.793 -129.556 56.037 -129.713 56.275 -129.884C56.341 -129.202 56.485 -128.491 56.736 -127.764C57.73 -124.888 60.291 -122.082 65.522 -119.936C67.567 -119.097 70.164 -117.141 71.328 -114.072C72.409 -111.224 72.357 -107.142 68.969 -101.648C56.011 -110.057 41.415 -116.165 25.763 -119.39ZM-32.983 -130.084C-35.887 -131.566 -39.244 -131.214 -42.466 -129.723C-47.597 -127.349 -51.4 -127.378 -54.188 -128.602C-54.893 -128.912 -55.515 -129.29 -56.062 -129.705C-56.097 -129.416 -56.147 -129.131 -56.211 -128.851C-56.604 -127.123 -57.499 -125.661 -58.596 -124.462C-60.737 -122.121 -63.755 -120.661 -65.908 -120C-68.142 -118.992 -69.563 -117.605 -70.441 -116.048C-71.338 -114.458 -71.713 -112.61 -71.71 -110.658C-71.706 -107.342 -70.613 -103.89 -69.413 -101.329C-56.378 -109.873 -41.669 -116.081 -25.882 -119.356C-27.617 -125.521 -30.254 -128.69 -32.983 -130.084ZM-4.814 120.42C-1.96 123.337 -0.870004 126.548 -0.729004 128.1C-34.378 127.901 -64.851 114.329 -87.079 92.44C-85.896 91.204 -83.427 89.698 -79.79 89.727C-75.982 89.757 -70.739 91.476 -64.266 97.273C-60.826 100.354 -57.558 102.082 -54.479 102.733C-51.384 103.388 -48.57 102.934 -46.099 101.8C-43.211 100.475 -40.812 98.234 -38.915 95.784C-39.152 98.157 -39.114 100.884 -38.387 103.519C-37.6 106.374 -35.995 109.148 -33.058 111.209C-30.136 113.259 -26.015 114.52 -20.337 114.587C-12.639 114.679 -7.771 117.397 -4.814 120.42ZM-94.295 68.026C-84.852 79.633 -87.09 88.094 -88.944 90.564C-110.555 68.36 -123.891 38.091 -123.985 4.715C-123.922 4.713 -123.858 4.70901 -123.794 4.70401C-122.174 4.64201 -119.531 5.37501 -117.104 8.12701C-114.592 10.978 -112.266 16.059 -111.731 24.75C-111.447 29.353 -110.334 32.874 -108.599 35.495C-106.854 38.129 -104.53 39.777 -101.971 40.7C-98.767 41.856 -95.224 41.869 -91.964 41.348C-93.902 42.942 -95.984 45.094 -97.469 47.761C-98.89 50.311 -99.776 53.355 -99.437 56.815C-99.098 60.272 -97.548 64.028 -94.295 68.026ZM-123.961 2.08701H-123.965C-123.365 -31.107 -109.665 -61.11 -87.806 -82.993C-86.812 -81.712 -85.91 -79.506 -86.171 -76.401C-86.489 -72.619 -88.548 -67.425 -94.456 -61.017C-97.598 -57.61 -99.314 -54.312 -99.905 -51.168C-100.499 -48.012 -99.938 -45.12 -98.708 -42.575C-97.105 -39.256 -94.364 -36.521 -91.521 -34.448C-94.13 -34.757 -97.375 -34.773 -100.548 -33.862C-103.355 -33.055 -106.129 -31.514 -108.323 -28.799C-110.514 -26.087 -112.052 -22.296 -112.552 -17.114C-114.03 -1.801 -121.131 1.85001 -123.961 2.08701ZM-64.832 -90.576C-75.235 -81.441 -82.834 -83.124 -85.797 -84.96C-63.702 -106.102 -33.778 -119.162 -0.798004 -119.375C-1.093 -116.108 -5.156 -109.485 -21.554 -108.518C-26.184 -108.245 -29.746 -107.074 -32.413 -105.248C-35.088 -103.415 -36.783 -100.978 -37.757 -98.318C-38.819 -95.42 -39.027 -92.263 -38.753 -89.288C-40.146 -91.08 -41.915 -92.915 -44.066 -94.295C-46.567 -95.899 -49.614 -96.908 -53.167 -96.499C-56.704 -96.092 -60.594 -94.297 -64.832 -90.576ZM1.90399 128.089C35.484 127.59 65.829 113.774 87.872 91.698L87.865 91.69L87.827 91.649L87.792 91.609C85.532 89.26 76.871 85.66 64.249 97.128C60.826 100.239 57.557 101.954 54.464 102.562C51.356 103.174 48.53 102.645 46.051 101.443C42.917 99.923 40.345 97.332 38.363 94.606C38.876 97.926 38.84 101.549 37.611 104.802C36.652 107.342 34.969 109.639 32.306 111.344C29.656 113.041 26.113 114.104 21.496 114.325C12.849 114.738 7.92801 117.442 5.19901 120.345C2.53401 123.179 1.84801 126.312 1.90201 128.05L1.90399 128.089ZM123.998 3.09799L124.025 3.09698C123.691 -30.153 110.214 -60.263 88.531 -82.308C86.712 -79.791 84.813 -72.401 93.945 -60.928C97.19 -56.85 98.72 -53.056 99.029 -49.585C99.339 -46.11 98.414 -43.079 96.954 -40.554C95.577 -38.173 93.716 -36.223 91.922 -34.722C95.228 -35.078 98.826 -34.896 102.068 -33.662C104.73 -32.649 107.154 -30.923 108.935 -28.222C110.711 -25.529 111.793 -21.953 111.929 -17.325C112.426 -0.300997 120.745 3.11499 123.998 3.09799ZM64.233 -90.495C76.451 -79.313 84.148 -81.947 86.633 -84.197C64.703 -105.555 34.871 -118.869 1.92401 -119.364C2.19401 -117.872 3.091 -115.767 5.289 -113.862C7.915 -111.584 12.5 -109.509 20.317 -109.244C25.872 -109.056 29.893 -107.611 32.726 -105.352C35.562 -103.091 37.081 -100.115 37.814 -97.097C38.503 -94.265 38.511 -91.352 38.257 -88.841C40.231 -91.221 42.698 -93.41 45.592 -94.767C48.18 -95.98 51.115 -96.528 54.304 -95.932C57.483 -95.338 60.811 -93.626 64.233 -90.495ZM31.086 -103.304C28.801 -105.126 25.371 -106.45 20.228 -106.624C11.987 -106.903 6.765 -109.108 3.565 -111.883C2.259 -113.016 1.305 -114.23 0.630005 -115.418C-1.85 -111.063 -8.384 -106.669 -21.399 -105.901C-25.67 -105.649 -28.74 -104.583 -30.926 -103.086C-33.103 -101.595 -34.482 -99.624 -35.29 -97.418C-36.696 -93.579 -36.369 -89.022 -35.377 -85.257C-24.524 -89.535 -12.697 -91.885 -0.320984 -91.885C12.148 -91.885 24.06 -89.499 34.98 -85.16C35.614 -87.851 36.271 -92.323 35.261 -96.479C34.631 -99.07 33.367 -101.485 31.086 -103.304ZM37.961 -83.916C59.984 -74.285 77.666 -56.599 87.261 -34.591C89.446 -35.935 92.686 -38.416 94.681 -41.867C95.921 -44.011 96.668 -46.507 96.415 -49.352C96.161 -52.203 94.891 -55.524 91.891 -59.293C84.694 -68.336 83.655 -75.559 84.77 -80.187C79.946 -78.616 72.2 -79.646 62.461 -88.559C59.312 -91.441 56.413 -92.868 53.822 -93.352C51.24 -93.834 48.862 -93.401 46.706 -92.39C43.01 -90.658 39.987 -87.232 37.961 -83.916ZM91.065 -24.26C93.719 -15.512 95.146 -6.23199 95.146 3.38101C95.146 12.618 93.828 21.548 91.371 29.993L91.545 30.226H91.303C90.523 32.88 89.631 35.486 88.632 38.038C91.229 38.903 95.384 40.058 99.258 39.379C101.591 38.971 103.782 37.9 105.478 35.675C107.195 33.424 108.5 29.865 108.782 24.309C109.377 12.543 114.648 6.82999 119.236 4.47699C114.608 2.07499 109.685 -4.16701 109.302 -17.249C109.178 -21.512 108.189 -24.585 106.741 -26.78C105.298 -28.967 103.344 -30.371 101.132 -31.213C97.185 -32.715 92.428 -32.42 88.554 -31.474C89.461 -29.174 90.28 -26.831 91.008 -24.448H91.204L91.065 -24.26ZM92.521 3.38101C92.521 11.664 91.432 19.694 89.388 27.335L71.063 2.77301L89.104 -21.61C91.331 -13.66 92.521 -5.27799 92.521 3.38101ZM50.859 30.226H88.563C77.252 67.568 42.954 94.952 2.09201 95.992L18.295 74.092H41.017H43.012L42.223 72.261L34.264 53.795H61.037H63.206L62.199 51.874L50.859 30.226ZM86.313 27.602H52.693L69.433 4.97699L86.313 27.602ZM49.461 27.558L67.794 2.78L49.439 -21.824H49.404L36.712 3.22101L49.461 27.558ZM85.997 -21.824L69.424 0.575989L52.713 -21.824H85.997ZM88.259 -24.448H50.755L50.743 -24.465L60.552 -43.82L61.518 -45.726H59.382H36.427L47.4 -64.371L48.564 -66.349H46.269H19.494L2.431 -89.22C42.784 -88.048 76.68 -61.183 88.259 -24.448ZM0.993988 -86.757L16.22 -66.349H-14.629L0.993988 -86.757ZM-0.394989 -89.26L-17.934 -66.349H-43.948H-46.234L-45.081 -64.375L-34.185 -45.726H-58.065H-60.212L-59.233 -43.815L-49.59 -24.999L-50.011 -24.448H-88.882H-88.901C-77.066 -61.992 -41.92 -89.228 -0.394989 -89.26ZM-86.249 -21.824H-52.021L-69.268 0.707001L-86.249 -21.824ZM-48.715 -21.824L-67.629 2.88199L-48.998 27.602H-48.655L-35.431 2.63L-47.963 -21.824H-48.715ZM-89.644 -21.968L-70.924 2.87L-89.931 27.698C-92.038 19.949 -93.163 11.796 -93.163 3.38101C-93.163 -5.40799 -91.936 -13.911 -89.644 -21.968ZM-0.71701 96.022C-42.463 95.848 -77.708 68.18 -89.205 30.226H-50.306L-50.153 30.43L-61.506 51.869L-62.526 53.795H-60.346H-32.542L-32.455 53.911L-40.238 72.268L-41.012 74.092H-39.03H-17.244L-0.71701 96.022ZM-86.552 27.602H-52.284L-69.285 5.04501L-86.552 27.602ZM-31.272 51.121L-47.02 30.226H-22.412L-31.272 51.121ZM-7.605 51.171L-18.339 30.226H-8.302L-0.212982 50.35L0.117004 51.171H-7.605ZM-18.449 27.602H-9.35699L-13.781 16.593L-18.449 27.602ZM0.980011 46.281L-5.47299 30.226H7.18201L0.980011 46.281ZM2.228 50.333L9.995 30.226H20.084L9.46899 51.171H1.905L2.228 50.333ZM11.009 27.602H20.116L15.313 16.459L11.009 27.602ZM32.712 50.195L24.105 30.226H47.486L32.712 50.195ZM24.356 27.602H46.521L35.255 6.09601L30.658 15.167V15.168L24.356 27.602ZM29.208 12.222L33.759 3.241L26.081 -11.416L22.339 -1.728L29.208 12.222ZM18.703 -3.17H11.382L15.368 -9.94301L18.703 -3.17ZM20.762 -4.93001L23.367 -11.675H17.441L20.762 -4.93001ZM15.574 -15.467L19.315 -21.824H12.444L15.574 -15.467ZM11.151 -24.448H19.254L9.48199 -43.101H1.966L11.151 -24.448ZM-0.636993 -43.101H-8.243L-18.121 -24.448H-9.714L-0.636993 -43.101ZM0.674011 -45.726L0.657013 -45.76L0.640015 -45.726H-6.853L0.666992 -59.927L8.10699 -45.726H0.674011ZM-6.795 -24.448L0.67099 -39.791L8.22601 -24.448H-6.795ZM-10.991 -21.824H-17.18L-13.803 -16.044L-10.991 -21.824ZM-11.733 -14.3L-8.07199 -21.824H-0.342987L-0.541992 -21.353L-3.53299 -14.3H-11.733ZM-13.592 -10.48L-9.321 -3.17H-17.149L-13.592 -10.48ZM-19.426 -4.489L-15.929 -11.675H-22.315L-19.426 -4.489ZM-20.975 -1.30501L-27.562 12.23L-32.471 2.64999L-25.032 -11.398L-20.975 -1.30501ZM-26.056 15.168L-20.568 25.877L-16.027 15.168H-26.056ZM-11.526 15.168L-6.528 27.602H-0.901001L-9.06999 15.168H-11.526ZM-10.795 12.543H-12.064L-11.566 11.369L-10.795 12.543ZM-5.92999 15.168L0.669006 25.213L7.26901 15.168H-5.92999ZM10.409 15.168L2.23999 27.602H8.19601L12.999 15.168H10.409ZM16.826 12.543L21.053 1.60101L26.441 12.543H16.826ZM17.615 15.168H27.715L22.257 25.938L17.615 15.168ZM13.626 12.543H12.134L13.035 11.172L13.626 12.543ZM8.99301 12.543H2.134L8.767 1.272L11.791 8.28601L8.99301 12.543ZM-0.140991 12.543H-7.65399L-10.334 8.46399L-7.05 0.717987L-0.140991 12.543ZM-15.409 12.543H-24.795L-19.655 1.98001L-15.409 12.543ZM9.51801 -21.824L13.223 -14.3H4.914L1.871 -21.36L1.67099 -21.824H9.51801ZM-45.685 27.602H-22.633L-33.97 5.48001L-45.685 27.602ZM-32.554 -42.934L-46.498 -24.72L-46.359 -24.448H-21.753L-32.554 -42.934ZM-47.823 -27.306L-35.732 -43.101H-55.918L-47.823 -27.306ZM-41.661 -63.725L-32.261 -47.635L-19.943 -63.725H-41.661ZM-16.638 -63.725L-30.417 -45.726H-9.823L-0.485992 -63.357L-0.291992 -63.725H-16.638ZM31.606 -45.726L18.178 -63.725H1.64099L1.836 -63.352L11.07 -45.726H31.606ZM21.452 -63.725L34.043 -46.849L43.975 -63.725H21.452ZM57.245 -43.101H36.839L48.991 -26.813L57.245 -43.101ZM23.904 -24.448L34.301 -42.114L47.48 -24.448H23.904ZM35.216 0.367004L46.462 -21.824H23.591L35.216 0.367004ZM21.577 -25.668L31.837 -43.101H12.445L21.577 -25.668ZM-11.213 -43.101H-29.612L-19.961 -26.583L-11.213 -43.101ZM-22.481 -21.824H-45.014L-33.932 -0.200012L-22.481 -21.824ZM-34.52 51.171H-58.167L-48.408 32.744L-34.52 51.171ZM-29.256 53.795L-15.936 71.468H-0.152008L-0.182007 71.411L-9.209 53.795H-29.256ZM-10.554 51.171H-28.442L-20.343 32.07L-10.554 51.171ZM-6.25999 53.795L0.980011 67.922L8.13901 53.795H-6.25999ZM11.082 53.795L2.15701 71.406L2.125 71.468H16.972L30.048 53.795H11.082ZM30.275 51.171H12.412L22.065 32.123L30.275 51.171ZM35.254 51.171H58.868L49.08 32.485L35.254 51.171ZM-23.496 -14.3H-15.824L-19.848 -21.188L-23.496 -14.3ZM21.444 -20.267L24.57 -14.3H17.932L21.444 -20.267ZM39.023 71.468H20.237L32.108 55.424L39.023 71.468ZM16.693 5.604L15.18 9.51999L14.76 8.54501L16.693 5.604ZM17.593 -0.54599L13.516 5.659L10.842 -0.54599H17.593ZM13.342 -11.675L9.13 -4.51801L6.04501 -11.675H13.342ZM6.853 -3.17L3.18701 -11.675H-1.79498L-5.401 -3.17H6.853ZM0.675995 -17.502L-0.682007 -14.3H2.056L0.675995 -17.502ZM-11.251 -11.675H-4.646L-7.423 -5.12401L-11.251 -11.675ZM-16.254 -0.54599H-9.36499L-12.067 5.827L-16.254 -0.54599ZM-15.395 5.54099L-13.299 8.73199L-13.716 9.71701L-15.395 5.54099ZM0.670013 93.501L-13.958 74.092H15.03L0.670013 93.501ZM-19.223 71.468L-30.63 56.332L-37.048 71.468H-19.223ZM6.79199 -0.54599H-4.74799L1.00101 9.29401L6.79199 -0.54599ZM87.323 41.211C77.852 63.03 60.44 80.616 38.725 90.34C40.702 93.778 43.593 97.334 47.196 99.082C49.219 100.063 51.468 100.477 53.958 99.987C56.464 99.494 59.315 98.066 62.484 95.186C72.27 86.295 80.467 85.561 85.526 87.272C84.17 82.532 84.752 75.091 92.02 66.026C95.033 62.267 96.315 58.951 96.579 56.101C96.843 53.256 96.104 50.758 94.873 48.61C92.842 45.068 89.502 42.539 87.323 41.211ZM35.094 91.876C24.143 96.244 12.192 98.647 -0.320984 98.647C-12.769 98.647 -24.66 96.27 -35.565 91.945C-36.226 94.503 -36.949 98.852 -35.854 102.823C-35.199 105.2 -33.901 107.413 -31.547 109.065C-29.179 110.726 -25.622 111.903 -20.306 111.966C-11.937 112.065 -6.39599 115.05 -2.93399 118.589C-1.51299 120.041 -0.445009 121.587 0.321991 123.053C0.951991 121.569 1.90499 120.017 3.28299 118.551C6.58199 115.043 12.207 112.144 21.37 111.706C25.659 111.501 28.722 110.524 30.887 109.138C33.037 107.761 34.376 105.933 35.153 103.877C36.55 100.178 36.138 95.691 35.094 91.876ZM-38.675 90.646C-60.592 81.04 -78.201 63.454 -87.807 41.571C-89.963 42.935 -93.207 45.502 -95.177 49.039C-96.386 51.21 -97.103 53.723 -96.825 56.559C-96.547 59.399 -95.26 62.682 -92.259 66.37C-84.936 75.371 -83.931 83.12 -85.06 88.06C-83.578 87.47 -81.806 87.086 -79.769 87.102C-75.146 87.139 -69.313 89.229 -62.515 95.318C-59.32 98.179 -56.453 99.633 -53.936 100.165C-51.436 100.694 -49.195 100.333 -47.194 99.415C-43.527 97.733 -40.621 94.152 -38.675 90.646ZM-89.26 38.073C-93.474 27.323 -95.787 15.622 -95.787 3.38101C-95.787 -8.89299 -93.461 -20.624 -89.226 -31.398C-91.715 -31.962 -95.884 -32.474 -99.821 -31.342C-102.205 -30.658 -104.48 -29.379 -106.277 -27.154C-108.078 -24.925 -109.474 -21.654 -109.937 -16.863C-111.047 -5.35501 -115.332 0.562997 -119.357 3.116C-117.938 3.802 -116.483 4.863 -115.132 6.396C-112.118 9.814 -109.667 15.52 -109.108 24.589C-108.845 28.865 -107.825 31.908 -106.407 34.049C-104.998 36.176 -103.148 37.488 -101.078 38.235C-97.419 39.555 -93.023 39.123 -89.26 38.073ZM-87.695 -35.063C-78.025 -56.918 -60.361 -74.461 -38.403 -84.003C-39.728 -86.357 -42.099 -89.915 -45.483 -92.086C-47.574 -93.428 -50.023 -94.219 -52.867 -93.892C-55.727 -93.562 -59.137 -92.084 -63.1 -88.603C-71.899 -80.878 -79.337 -80.095 -84.083 -81.395C-83.617 -79.919 -83.389 -78.171 -83.556 -76.181C-83.938 -71.642 -86.362 -65.924 -92.527 -59.238C-95.422 -56.098 -96.847 -53.23 -97.326 -50.683C-97.803 -48.148 -97.363 -45.824 -96.345 -43.717C-94.577 -40.057 -91.068 -37.076 -87.695 -35.063Z" fill="white"/>
</g>
</g>
<defs>
<clipPath id="clip0_2_30">
<rect width="162" height="166" fill="white"/>
</clipPath>
<clipPath id="clip1_2_30">
<rect width="518" height="518" fill="white" transform="translate(-123 -247)"/>
</clipPath>
</defs>
</svg>
