<svg width="61" height="61" viewBox="0 0 61 61" fill="none" xmlns="http://www.w3.org/2000/svg">
<path d="M26.0794 50.0575C25.8281 48.7991 25.3099 47.6092 24.5597 46.5681C23.8094 45.5271 22.8447 44.659 21.7304 44.0225C20.6593 43.414 19.5132 42.9481 18.3213 42.6368C19.3837 41.839 20.1683 40.7273 20.564 39.4589C20.9596 38.1906 20.9463 36.8299 20.5258 35.5696C20.1053 34.3093 19.299 33.2132 18.2211 32.4365C17.1431 31.6598 15.8482 31.2418 14.5196 31.2418C13.191 31.2418 11.896 31.6598 10.8181 32.4365C9.74015 33.2132 8.93386 34.3093 8.51338 35.5696C8.0929 36.8299 8.07953 38.1906 8.47517 39.4589C8.87081 40.7273 9.65541 41.839 10.7179 42.6368C9.5269 42.9484 8.38173 43.4142 7.31144 44.0225C6.19734 44.6589 5.23265 45.5269 4.48244 46.5678C3.73223 47.6087 3.21393 48.7984 2.9625 50.0566L1.87707 55.4954C1.83506 55.7047 1.8684 55.9221 1.97119 56.1091C2.07399 56.2962 2.23961 56.4408 2.43878 56.5176C10.2159 59.5134 18.8287 59.5134 26.6058 56.5176C26.805 56.4408 26.9706 56.2962 27.0734 56.1091C27.1762 55.9221 27.2095 55.7047 27.1675 55.4954L26.0794 50.0575ZM9.99968 37.5859C9.99968 36.6914 10.2649 35.817 10.7619 35.0733C11.2588 34.3295 11.9652 33.7499 12.7916 33.4076C13.618 33.0653 14.5273 32.9757 15.4046 33.1502C16.2819 33.3247 17.0878 33.7554 17.7203 34.3879C18.3528 35.0204 18.7835 35.8263 18.958 36.7036C19.1325 37.5809 19.0429 38.4902 18.7006 39.3166C18.3583 40.143 17.7787 40.8494 17.0349 41.3463C16.2912 41.8433 15.4168 42.1085 14.5223 42.1085C13.3233 42.1071 12.1738 41.6301 11.3259 40.7823C10.4781 39.9345 10.0011 38.7849 9.99968 37.5859ZM3.80099 55.0966L4.73898 50.4111C4.93962 49.4065 5.35341 48.4566 5.95244 47.6256C6.55147 46.7945 7.3218 46.1016 8.21144 45.5936C10.1401 44.5156 12.3128 43.9496 14.5223 43.9496C16.7318 43.9496 18.9045 44.5156 20.8331 45.5936C21.7229 46.1017 22.4933 46.7947 23.0924 47.6259C23.6914 48.4572 24.1051 49.4072 24.3056 50.412L25.2436 55.0966C18.3117 57.5795 10.7329 57.5795 3.80099 55.0966Z" fill="#FECA2E"/>
<path d="M59.73 55.4954L58.6446 50.0538C58.3933 48.7955 57.8751 47.6056 57.1249 46.5645C56.3747 45.5234 55.4099 44.6554 54.2956 44.0189C53.2235 43.4114 52.0765 42.9468 50.8838 42.6368C51.9462 41.839 52.7308 40.7273 53.1265 39.4589C53.5221 38.1906 53.5088 36.8299 53.0883 35.5696C52.6678 34.3093 51.8615 33.2132 50.7836 32.4365C49.7056 31.6598 48.4107 31.2418 47.0821 31.2418C45.7535 31.2418 44.4585 31.6598 43.3806 32.4365C42.3026 33.2132 41.4964 34.3093 41.0759 35.5696C40.6554 36.8299 40.642 38.1906 41.0377 39.4589C41.4333 40.7273 42.2179 41.839 43.2804 42.6368C42.0894 42.9484 40.9442 43.4142 39.8739 44.0225C38.7598 44.6589 37.7951 45.5269 37.0449 46.5678C36.2947 47.6087 35.7764 48.7984 35.525 50.0566L34.4396 55.4954C34.3976 55.7047 34.4309 55.9221 34.5337 56.1091C34.6365 56.2962 34.8021 56.4408 35.0013 56.5176C42.7784 59.5134 51.3912 59.5134 59.1683 56.5176C59.3675 56.4408 59.5331 56.2962 59.6359 56.1091C59.7387 55.9221 59.772 55.7047 59.73 55.4954ZM42.5622 37.5859C42.5622 36.6914 42.8274 35.817 43.3244 35.0733C43.8213 34.3295 44.5277 33.7499 45.3541 33.4076C46.1805 33.0653 47.0898 32.9757 47.9671 33.1502C48.8444 33.3247 49.6503 33.7554 50.2828 34.3879C50.9153 35.0204 51.346 35.8263 51.5205 36.7036C51.695 37.5809 51.6054 38.4902 51.2631 39.3166C50.9208 40.143 50.3412 40.8494 49.5974 41.3463C48.8537 41.8433 47.9793 42.1085 47.0848 42.1085C45.8858 42.1071 44.7363 41.6301 43.8884 40.7823C43.0406 39.9345 42.5636 38.7849 42.5622 37.5859ZM36.3635 55.0966L37.3015 50.4111C37.5021 49.4065 37.9159 48.4566 38.5149 47.6256C39.114 46.7945 39.8843 46.1016 40.7739 45.5936C42.7026 44.5156 44.8753 43.9496 47.0848 43.9496C49.2943 43.9496 51.467 44.5156 53.3956 45.5936C54.2854 46.1017 55.0558 46.7947 55.6549 47.6259C56.2539 48.4572 56.6676 49.4072 56.8681 50.412L57.8061 55.0966C50.8742 57.5795 43.2954 57.5795 36.3635 55.0966Z" fill="#FECA2E"/>
<path d="M37.0786 23.0629L40.8948 29.0328C40.9915 29.1843 41.1311 29.3037 41.2959 29.3756C41.4607 29.4474 41.6432 29.4685 41.8201 29.4362C41.9969 29.4039 42.1602 29.3196 42.2889 29.1941C42.4176 29.0686 42.506 28.9075 42.5428 28.7315L43.8444 22.5528C50.6781 21.073 55.2251 16.9872 55.2251 12.2593C55.2251 6.27407 47.7176 1.40503 38.4915 1.40503C29.2653 1.40503 21.7578 6.27407 21.7578 12.2593C21.7578 17.9107 28.4513 22.598 37.0786 23.0629ZM38.4915 3.21407C46.7226 3.21407 53.4161 7.27176 53.4161 12.2593C53.4161 16.165 49.097 19.7153 42.9137 20.8921C42.7383 20.9253 42.5768 21.0097 42.4493 21.1346C42.3218 21.2595 42.2341 21.4193 42.1973 21.594L41.2277 26.1889L38.3504 21.6898C38.2713 21.5665 38.1635 21.4642 38.0362 21.3917C37.9089 21.3192 37.7659 21.2787 37.6195 21.2738C29.7393 20.9961 23.5669 17.0352 23.5669 12.2593C23.5669 7.27176 30.2603 3.21407 38.4915 3.21407Z" fill="#FECA2E"/>
<path d="M36.2014 24.8981C36.1724 24.7829 36.121 24.6745 36.0502 24.5791C35.9793 24.4838 35.8904 24.4033 35.7884 24.3423C35.6864 24.2813 35.5734 24.241 35.4559 24.2237C35.3383 24.2064 35.2185 24.2124 35.1033 24.2414C32.171 24.9652 29.127 25.1187 26.1368 24.6937C25.9239 24.6627 25.7069 24.7099 25.5262 24.8267L21.3039 27.5095L21.9696 24.5119C22.0164 24.3013 21.9865 24.081 21.8851 23.8906C21.7838 23.7002 21.6178 23.5523 21.417 23.4735C17.0988 21.7802 14.52 18.94 14.52 15.8773C14.52 12.8698 17.0147 10.0585 21.1926 8.35804C21.3027 8.31325 21.4028 8.24724 21.4874 8.16375C21.5719 8.08026 21.6392 7.98094 21.6853 7.87145C21.7315 7.76197 21.7556 7.64447 21.7564 7.52565C21.7571 7.40684 21.7345 7.28904 21.6897 7.17899C21.6449 7.06894 21.5789 6.96878 21.4954 6.88425C21.4119 6.79971 21.3126 6.73244 21.2031 6.68629C21.0936 6.64013 20.9761 6.61599 20.8573 6.61525C20.7385 6.61451 20.6207 6.63718 20.5106 6.68196C15.6271 8.6701 12.7109 12.1082 12.7109 15.8773C12.7109 19.5271 15.4345 22.8421 20.0376 24.8601L19.0616 29.2489C19.0225 29.4237 19.0362 29.6061 19.101 29.7731C19.1657 29.9401 19.2786 30.0841 19.4252 30.1869C19.5719 30.2897 19.7458 30.3466 19.9248 30.3505C20.1039 30.3543 20.2801 30.3049 20.431 30.2086L26.22 26.5254C29.3342 26.9286 32.4962 26.7489 35.5447 25.9953C35.7772 25.9368 35.977 25.7884 36.1001 25.5826C36.2233 25.3769 36.2597 25.1307 36.2014 24.8981Z" fill="#FECA2E"/>
</svg>
