<svg width="162" height="160" viewBox="0 0 162 160" fill="none" xmlns="http://www.w3.org/2000/svg">
<g clip-path="url(#clip0_2_27)">
<rect width="162" height="160" fill="white"/>
<path fill-rule="evenodd" clip-rule="evenodd" d="M174.588 -135.882C178.796 -135.882 181.769 -134.878 183.522 -132.503C185.134 -130.318 185.946 -126.674 185.282 -120.741C185.178 -120.462 185.08 -120.191 184.988 -119.929C177.54 -121.291 169.865 -122.002 162.023 -122.002C154.098 -122.002 146.343 -121.276 138.822 -119.886C138.689 -122.726 139.015 -126.398 140.317 -129.509C141.073 -131.313 142.134 -132.876 143.574 -134.001C144.983 -135.102 146.822 -135.837 149.254 -135.912C151.502 -135.694 154.999 -135.885 158.024 -137.209C159.571 -137.886 161.045 -138.882 162.144 -140.321C162.316 -140.546 162.477 -140.78 162.627 -141.024C162.909 -140.52 163.255 -140.021 163.681 -139.542C165.62 -137.367 168.966 -135.882 174.588 -135.882ZM185.638 -134.057C187.024 -132.178 187.84 -129.702 188.072 -126.55C188.828 -127.761 189.708 -128.934 190.731 -129.975C192.361 -131.634 194.385 -132.989 196.876 -133.609C199.372 -134.23 202.232 -134.086 205.485 -132.914L205.6 -132.872L205.705 -132.81C207.384 -131.824 210.08 -130.785 212.677 -130.802C213.957 -130.81 215.17 -131.075 216.23 -131.685C217.28 -132.289 218.254 -133.275 219.008 -134.854L221.429 -133.844C220.96 -132.541 220.525 -130.623 221.218 -128.618C221.894 -126.659 223.756 -124.316 228.517 -122.363C231.051 -121.323 234.298 -118.915 235.784 -114.999C236.732 -112.499 236.918 -109.505 235.875 -106.035C237.118 -107.04 238.49 -107.956 239.968 -108.64C241.968 -109.564 244.203 -110.085 246.589 -109.794C248.982 -109.503 251.415 -108.41 253.823 -106.291L254.033 -106.105C256.427 -103.998 258.489 -102.181 260.591 -101.414C261.619 -101.038 262.609 -100.937 263.625 -101.18C264.653 -101.425 265.818 -102.049 267.141 -103.31L269.042 -101.504C268.139 -100.453 267.048 -98.815 266.98 -96.696C266.913 -94.626 267.817 -91.775 271.568 -88.258C274.382 -85.621 276.356 -82.068 275.809 -77.887C275.455 -75.187 274.068 -72.387 271.433 -69.539C273.161 -69.937 274.993 -70.177 276.811 -70.142C279.093 -70.097 281.41 -69.616 283.47 -68.41C285.547 -67.195 287.286 -65.288 288.458 -62.529L288.491 -62.452L288.514 -62.371C289.04 -60.5 290.262 -57.886 292.147 -56.103C293.076 -55.224 294.134 -54.576 295.322 -54.283C296.498 -53.994 297.886 -54.031 299.526 -54.648L300.57 -52.246C299.327 -51.63 297.682 -50.548 296.789 -48.624C295.917 -46.744 295.633 -43.767 297.71 -39.067C298.815 -36.566 299.485 -32.584 297.837 -28.733C296.8 -26.31 294.896 -24.053 291.815 -22.283C293.357 -21.979 294.912 -21.525 296.375 -20.878C298.462 -19.955 300.411 -18.616 301.844 -16.708C303.288 -14.785 304.152 -12.354 304.162 -9.358V-9.274L304.152 -9.19099C303.911 -7.26199 304.024 -4.38 305.069 -2.008C305.585 -0.838996 306.309 0.165989 307.29 0.894989C308.262 1.61599 309.555 2.11801 311.307 2.18201L311.342 4.79999C309.957 4.88799 308.019 5.24999 306.449 6.67999C304.914 8.07799 303.497 10.713 303.589 15.849C303.637 18.582 302.71 22.511 299.698 25.424C297.617 27.436 294.652 28.86 290.588 29.147C292.24 30.133 293.866 31.341 295.246 32.771C296.83 34.413 298.129 36.387 298.734 38.695C299.343 41.02 299.223 43.597 298.099 46.375L298.068 46.453L298.027 46.526C297.074 48.221 296.088 50.933 296.159 53.522C296.194 54.799 296.484 56.002 297.117 57.046C297.743 58.079 298.75 59.031 300.348 59.75L299.394 62.189C298.078 61.749 296.146 61.353 294.15 62.087C292.2 62.803 289.89 64.711 288.032 69.5C287.043 72.05 284.698 75.338 280.807 76.901C278.475 77.837 275.692 78.113 272.465 77.341C273.198 78.435 273.853 79.606 274.37 80.83C275.256 82.93 275.757 85.239 275.49 87.609C275.22 89.998 274.18 92.359 272.13 94.549L272.073 94.61L272.008 94.663C270.507 95.903 268.611 98.08 267.744 100.521C267.317 101.725 267.154 102.951 267.368 104.152C267.58 105.341 268.177 106.59 269.409 107.835L267.641 109.769C266.572 108.886 264.911 107.824 262.784 107.792C260.705 107.761 257.863 108.713 254.403 112.515C252.561 114.54 249.188 116.766 244.995 116.828C242.187 116.87 239.151 115.94 236.09 113.538C236.464 115.072 236.701 116.681 236.698 118.286C236.693 120.533 236.218 122.823 234.939 124.878C233.654 126.943 231.618 128.674 228.661 129.889L228.589 129.919L228.515 129.94C226.638 130.464 224.019 131.683 222.232 133.562C221.351 134.488 220.702 135.543 220.409 136.727C220.118 137.899 220.154 139.283 220.773 140.92L218.368 141.968C217.751 140.728 216.667 139.084 214.737 138.192C212.851 137.321 209.866 137.037 205.156 139.107C201.931 140.524 197.901 141.442 194.167 139.836C191.539 138.707 189.271 136.424 187.571 132.646C187.287 134.534 186.79 136.48 185.997 138.286C185.081 140.373 183.748 142.325 181.842 143.762C179.922 145.212 177.489 146.084 174.487 146.108L174.403 146.109L174.32 146.099C172.381 145.866 169.674 145.996 167.482 147.033C166.405 147.544 165.479 148.26 164.805 149.239C164.136 150.214 163.667 151.519 163.61 153.289L160.986 153.336C160.898 152.044 160.402 150.097 158.794 148.504C157.209 146.936 154.365 145.535 149.223 145.649C146.484 145.71 142.543 144.802 139.61 141.809C137.735 139.896 136.362 137.224 135.925 133.623C135.054 134.938 134.039 136.208 132.878 137.318C131.23 138.894 129.248 140.185 126.936 140.782C124.605 141.384 122.024 141.259 119.243 140.13L119.165 140.099L119.092 140.058C117.395 139.102 114.68 138.112 112.084 138.177C110.804 138.209 109.596 138.495 108.548 139.125C107.51 139.748 106.553 140.751 105.828 142.344L103.389 141.378C103.834 140.066 104.234 138.141 103.505 136.149C102.792 134.203 100.887 131.894 96.092 130.028C93.539 129.035 90.249 126.687 88.691 122.799C87.584 120.034 87.411 116.639 88.818 112.628C87.208 113.852 85.375 114.967 83.417 115.734C81.292 116.566 78.968 117.009 76.601 116.684C74.217 116.357 71.877 115.261 69.735 113.162L69.675 113.104L69.623 113.038C68.417 111.511 66.284 109.565 63.857 108.64C62.662 108.183 61.435 107.99 60.225 108.175C59.027 108.357 57.76 108.923 56.483 110.121L54.596 108.301C55.507 107.256 56.611 105.627 56.695 103.509C56.778 101.439 55.896 98.581 52.171 95.036C50.189 93.149 48.04 89.729 48.081 85.541C48.11 82.65 49.179 79.545 51.831 76.459C50.276 76.898 48.633 77.201 46.983 77.247C44.723 77.309 42.403 76.892 40.277 75.646C38.143 74.396 36.303 72.368 34.917 69.375L34.876 69.287L34.849 69.195C34.299 67.33 33.043 64.732 31.135 62.973C30.195 62.106 29.129 61.472 27.937 61.194C26.758 60.92 25.371 60.974 23.738 61.613L22.663 59.224C23.83 58.628 25.068 57.704 25.759 55.852C26.47 53.949 26.678 50.87 25.283 45.813C24.436 42.742 23.677 38.772 25.242 35.075C26.332 32.5 28.462 30.239 32.057 28.499C30.301 28.191 28.51 27.695 26.841 26.947C24.759 26.014 22.816 24.665 21.392 22.75C19.958 20.82 19.106 18.385 19.11 15.389V15.305L19.121 15.222C19.372 13.294 19.273 10.412 18.239 8.035C17.729 6.863 17.01 5.854 16.032 5.121C15.064 4.395 13.774 3.887 12.022 3.814L12 1.19598C13.385 1.11498 15.325 0.762996 16.902 -0.660004C18.443 -2.05 19.873 -4.679 19.807 -9.815C19.771 -12.548 20.718 -16.473 23.744 -19.371C25.571 -21.121 28.072 -22.418 31.388 -22.895C30.339 -23.537 29.329 -24.273 28.422 -25.116C26.763 -26.658 25.411 -28.595 24.815 -31.007C24.218 -33.424 24.41 -36.197 25.639 -39.355L25.67 -39.437L25.713 -39.514C26.654 -41.216 27.621 -43.934 27.532 -46.523C27.488 -47.799 27.189 -49.001 26.549 -50.04C25.916 -51.069 24.902 -52.013 23.299 -52.722L24.236 -55.167C25.554 -54.736 27.489 -54.354 29.48 -55.102C31.426 -55.832 33.722 -57.756 35.546 -62.558C37.067 -66.562 39.541 -69.883 43.582 -70.963C45.895 -71.582 48.574 -71.423 51.671 -70.4C50.911 -71.457 50.227 -72.592 49.693 -73.792C48.77 -75.864 48.271 -78.173 48.63 -80.609C48.99 -83.054 50.198 -85.506 52.49 -87.881L52.549 -87.942L52.616 -87.995C54.137 -89.21 56.07 -91.354 56.979 -93.78C57.426 -94.976 57.61 -96.2 57.417 -97.404C57.225 -98.596 56.649 -99.856 55.439 -101.121L57.24 -103.025C58.293 -102.124 59.936 -101.034 62.062 -100.966C64.14 -100.9 66.999 -101.803 70.522 -105.546C73.279 -108.474 76.68 -110.519 80.718 -109.931C83.151 -109.577 85.648 -108.286 88.232 -105.926C87.883 -107.455 87.666 -109.056 87.664 -110.651C87.661 -112.93 88.097 -115.252 89.271 -117.334C90.454 -119.432 92.342 -121.205 95.1 -122.429L95.176 -122.463L95.256 -122.487C97.121 -123.047 99.717 -124.317 101.467 -126.23C102.33 -127.173 102.958 -128.24 103.228 -129.43C103.496 -130.607 103.433 -131.99 102.783 -133.615L105.167 -134.709C105.808 -133.481 106.923 -131.859 108.871 -131.004C110.773 -130.169 113.763 -129.942 118.432 -132.103C122.101 -133.801 126.351 -134.392 130.214 -132.42C132.665 -131.168 134.818 -128.957 136.527 -125.613C136.796 -127.265 137.233 -128.943 137.893 -130.52C138.773 -132.622 140.073 -134.595 141.954 -136.065C143.85 -137.547 146.267 -138.46 149.269 -138.535L149.353 -138.537L149.437 -138.528C151.372 -138.329 154.435 -138.501 156.969 -139.61C158.22 -140.157 159.291 -140.911 160.054 -141.909C160.805 -142.894 161.308 -144.183 161.335 -145.91L163.957 -146C164.082 -144.533 164.346 -142.741 165.645 -141.284C166.911 -139.863 169.407 -138.503 174.588 -138.503C179.127 -138.503 183.152 -137.426 185.638 -134.057ZM37.747 -20.025C37.466 -20.119 37.177 -20.22 36.882 -20.326C31.127 -20.965 27.642 -19.47 25.564 -17.48C23.19 -15.206 22.405 -12.055 22.434 -9.84801C22.506 -4.20501 20.924 -0.753996 18.664 1.285C18.092 1.8 17.493 2.21101 16.889 2.54001C17.14 2.69001 17.38 2.85299 17.611 3.02499C19.03 4.08999 20.001 5.502 20.649 6.991C21.913 9.897 22.014 13.242 21.738 15.473C21.749 17.901 22.437 19.754 23.503 21.189C24.592 22.654 26.13 23.755 27.917 24.555C30.919 25.9 34.477 26.335 37.292 26.303C36.042 19.177 35.39 11.846 35.39 4.362C35.39 -3.98 36.201 -12.134 37.747 -20.025ZM30.21 -27.035C32.262 -25.127 35.013 -23.811 37.5 -22.893C37.769 -22.86 38.042 -22.823 38.319 -22.782C41.702 -38.206 47.909 -52.576 56.371 -65.325L56.284 -65.402C50.823 -68.537 46.97 -69.153 44.263 -68.429C41.394 -67.662 39.385 -65.266 38.001 -61.625C35.997 -56.348 33.257 -53.716 30.406 -52.646C29.685 -52.375 28.976 -52.212 28.293 -52.127C28.471 -51.896 28.635 -51.657 28.785 -51.413C29.715 -49.903 30.1 -48.233 30.156 -46.611C30.265 -43.446 29.131 -40.298 28.056 -38.324C27.015 -35.61 26.923 -33.418 27.364 -31.633C27.811 -29.826 28.834 -28.315 30.21 -27.035ZM90.252 -99.761C77.6 -91.06 66.611 -80.122 57.861 -67.52L57.838 -67.533C55.727 -69.425 53.373 -71.98 52.091 -74.859C51.319 -76.593 50.957 -78.396 51.227 -80.226C51.492 -82.03 52.388 -83.976 54.322 -86C56.072 -87.414 58.326 -89.892 59.437 -92.86C60.006 -94.381 60.29 -96.071 60.008 -97.821C59.962 -98.105 59.902 -98.387 59.827 -98.669C60.49 -98.487 61.208 -98.368 61.978 -98.343C65.022 -98.246 68.561 -99.634 72.433 -103.747C74.916 -106.384 77.519 -107.744 80.34 -107.334C83.047 -106.94 86.353 -104.868 90.252 -99.761ZM37.834 29.193C40.954 44.817 46.96 59.402 55.275 72.371C52.825 73.505 49.83 74.544 46.913 74.625C45.026 74.677 43.218 74.327 41.607 73.383C40.021 72.453 38.53 70.891 37.339 68.355C36.689 66.204 35.245 63.191 32.918 61.045C31.723 59.943 30.264 59.042 28.536 58.64C28.16 58.552 27.776 58.489 27.383 58.453C27.699 57.958 27.983 57.399 28.22 56.766C29.198 54.146 29.287 50.45 27.815 45.114C26.986 42.11 26.469 38.909 27.66 36.095C28.762 33.493 31.489 30.873 37.834 29.193ZM57.082 75.11C52.201 78.908 50.735 82.591 50.706 85.567C50.673 88.848 52.381 91.612 53.981 93.135C58.073 97.03 59.439 100.573 59.318 103.613C59.287 104.381 59.162 105.096 58.976 105.755C59.26 105.682 59.544 105.624 59.83 105.58C61.584 105.313 63.274 105.608 64.793 106.187C67.758 107.318 70.224 109.586 71.628 111.343C73.375 113.034 75.184 113.84 76.958 114.084C78.771 114.333 80.635 114.005 82.459 113.29C85.323 112.169 87.956 110.144 89.878 108.227C77.006 99.307 65.871 88.066 57.082 75.11ZM138.57 128.564L138.537 128.644C137.932 134.432 139.467 137.914 141.488 139.976C143.789 142.323 146.954 143.077 149.165 143.028C154.823 142.902 158.428 144.45 160.644 146.643C161.261 147.254 161.756 147.901 162.152 148.554C162.302 148.276 162.464 148.01 162.639 147.756C163.621 146.327 164.942 145.335 166.356 144.665C169.111 143.36 172.316 143.231 174.546 143.486C176.979 143.452 178.83 142.748 180.258 141.671C181.716 140.571 182.805 139.026 183.59 137.235C184.797 134.486 185.236 131.28 185.259 128.604C177.726 129.998 169.96 130.727 162.023 130.727C154.01 130.727 146.17 129.984 138.57 128.564ZM131.061 135.422C133.247 133.332 134.893 130.518 135.943 128.044C120.304 124.777 105.726 118.631 92.79 110.186C89.979 115.323 90.054 119.141 91.129 121.827C92.35 124.874 94.982 126.782 97.043 127.584C102.312 129.634 104.924 132.393 105.971 135.25C106.235 135.972 106.392 136.68 106.47 137.361C106.705 137.186 106.946 137.024 107.193 136.876C108.714 135.963 110.39 135.595 112.016 135.554C115.189 135.476 118.334 136.637 120.302 137.73C122.562 138.631 124.542 138.69 126.276 138.243C128.047 137.785 129.646 136.775 131.061 135.422ZM188.672 127.924C204.394 124.564 219.034 118.291 231.998 109.698C233.098 112.193 234.078 115.304 234.072 118.284C234.068 120.169 233.671 121.95 232.709 123.495C231.763 125.015 230.211 126.403 227.732 127.436C225.567 128.053 222.517 129.456 220.329 131.757C219.209 132.934 218.286 134.379 217.86 136.099C217.791 136.378 217.735 136.662 217.694 136.95C217.155 136.525 216.541 136.135 215.842 135.812C213.078 134.534 209.277 134.431 204.101 136.706C201.133 138.011 197.95 138.606 195.208 137.427C192.751 136.371 190.285 133.727 188.672 127.924ZM234.331 108.114C238.251 112.878 241.974 114.248 244.956 114.204C248.248 114.155 250.975 112.383 252.462 110.749C256.263 106.571 259.778 105.123 262.823 105.168C263.594 105.18 264.314 105.287 264.98 105.458C264.9 105.177 264.835 104.896 264.785 104.613C264.473 102.868 264.728 101.174 265.271 99.643C266.331 96.656 268.543 94.14 270.268 92.696C271.919 90.912 272.682 89.089 272.882 87.315C273.086 85.502 272.712 83.652 271.952 81.851C270.951 79.48 269.318 77.286 267.657 75.537C267.417 75.416 267.175 75.29 266.931 75.158C258.184 88.039 247.118 99.224 234.331 108.114ZM265.333 72.831L265.071 73.163L265.097 73.184C261.115 79.111 256.632 84.675 251.711 89.817C249.744 87.56 246.548 79.541 256.067 67.668C259.327 63.602 260.871 59.813 261.192 56.343C261.515 52.869 260.6 49.835 259.15 47.304C257.878 45.087 256.186 43.24 254.517 41.779C256.738 42.195 259.256 42.392 261.713 41.961C264.582 41.459 267.406 40.099 269.569 37.263C271.711 34.453 273.108 30.321 273.406 24.442C274.166 9.42299 282.929 5.90098 286.024 5.72198C285.756 30.524 278.176 53.575 265.333 72.831ZM269.233 73.391C269.004 73.157 268.775 72.932 268.548 72.716C276.871 59.827 282.908 45.331 286.089 29.796C288.537 30.84 291.296 32.456 293.357 34.591C294.715 35.999 295.731 37.592 296.194 39.356C296.646 41.084 296.591 43.059 295.694 45.316C294.604 47.282 293.447 50.424 293.534 53.591C293.579 55.214 293.952 56.886 294.871 58.403C295.02 58.648 295.182 58.888 295.358 59.121C294.675 59.201 293.965 59.359 293.242 59.625C290.383 60.675 287.625 63.287 285.583 68.55C284.785 70.608 282.879 73.24 279.825 74.467C277.325 75.47 273.845 75.614 269.233 73.391ZM286.726 26.459C292.388 27.025 295.82 25.523 297.869 23.541C300.232 21.257 301.001 18.101 300.962 15.895C300.861 10.252 302.427 6.79399 304.677 4.74399C305.246 4.22499 305.844 3.81101 306.445 3.48001C306.194 3.33101 305.953 3.16999 305.722 2.99799C304.297 1.94099 303.32 0.532997 302.665 -0.953003C301.386 -3.853 301.269 -7.197 301.534 -9.429C301.511 -11.857 300.814 -13.707 299.741 -15.137C298.645 -16.597 297.101 -17.689 295.31 -18.482C292.602 -19.679 289.447 -20.137 286.79 -20.183C286.627 -20.135 286.463 -20.088 286.296 -20.041C287.844 -12.145 288.655 -3.986 288.655 4.362C288.655 11.9 287.994 19.284 286.726 26.459ZM286.412 -22.809C286.178 -22.809 285.948 -22.807 285.722 -22.802C282.322 -38.294 276.073 -52.721 267.552 -65.511C270.117 -66.62 273.512 -67.583 276.756 -67.519C278.715 -67.481 280.563 -67.07 282.141 -66.146C283.686 -65.242 285.046 -63.805 286.01 -61.576C286.631 -59.416 288.037 -56.377 290.34 -54.198C291.521 -53.081 292.968 -52.161 294.691 -51.737C294.971 -51.668 295.256 -51.612 295.546 -51.571C295.12 -51.034 294.73 -50.421 294.407 -49.724C293.127 -46.963 293.026 -43.169 295.307 -38.006C296.2 -35.986 296.714 -32.781 295.423 -29.762C294.312 -27.166 291.763 -24.477 286.412 -22.809ZM265.841 -68.013C270.821 -71.866 272.829 -75.346 273.206 -78.228C273.608 -81.299 272.203 -84.067 269.774 -86.344C265.652 -90.207 264.259 -93.74 264.356 -96.781C264.379 -97.475 264.478 -98.126 264.632 -98.733C264.499 -98.694 264.367 -98.659 264.234 -98.627C262.632 -98.245 261.112 -98.429 259.691 -98.948C257.109 -99.891 254.704 -102.013 252.481 -103.974L252.345 -104.094L252.089 -104.32C250.014 -106.146 248.061 -106.971 246.272 -107.189C244.476 -107.408 242.734 -107.027 241.07 -106.258C238.033 -104.853 235.399 -102.221 233.482 -99.975C246.1 -91.353 257.074 -80.511 265.841 -68.013ZM187.763 -119.39C187.795 -119.636 187.826 -119.878 187.855 -120.119C188.864 -122.761 190.368 -125.859 192.606 -128.136C193.975 -129.53 195.591 -130.585 197.513 -131.063C199.404 -131.534 201.695 -131.472 204.486 -130.485C206.436 -129.363 209.541 -128.158 212.697 -128.179C214.324 -128.189 216.006 -128.527 217.543 -129.412C217.793 -129.556 218.037 -129.713 218.275 -129.884C218.341 -129.202 218.485 -128.491 218.736 -127.764C219.73 -124.888 222.291 -122.082 227.522 -119.936C229.567 -119.097 232.164 -117.141 233.328 -114.072C234.409 -111.224 234.357 -107.142 230.969 -101.648C218.011 -110.057 203.415 -116.165 187.763 -119.39ZM129.017 -130.084C126.113 -131.566 122.756 -131.214 119.534 -129.723C114.403 -127.349 110.6 -127.378 107.812 -128.602C107.107 -128.912 106.485 -129.29 105.938 -129.705C105.903 -129.416 105.853 -129.131 105.789 -128.851C105.396 -127.123 104.501 -125.661 103.404 -124.462C101.263 -122.121 98.245 -120.661 96.092 -120C93.858 -118.992 92.437 -117.605 91.559 -116.048C90.662 -114.458 90.287 -112.61 90.29 -110.658C90.294 -107.342 91.387 -103.89 92.587 -101.329C105.622 -109.873 120.331 -116.081 136.118 -119.356C134.383 -125.521 131.746 -128.69 129.017 -130.084ZM157.186 120.42C160.04 123.337 161.13 126.548 161.271 128.1C127.622 127.901 97.149 114.329 74.921 92.44C76.104 91.204 78.573 89.698 82.21 89.727C86.018 89.757 91.261 91.476 97.734 97.273C101.174 100.354 104.442 102.082 107.521 102.733C110.616 103.388 113.43 102.934 115.901 101.8C118.789 100.475 121.188 98.234 123.085 95.784C122.848 98.157 122.886 100.884 123.613 103.519C124.4 106.374 126.005 109.148 128.942 111.209C131.864 113.259 135.985 114.52 141.663 114.587C149.361 114.679 154.229 117.397 157.186 120.42ZM67.705 68.026C77.148 79.633 74.91 88.094 73.056 90.564C51.445 68.36 38.109 38.091 38.015 4.715C38.078 4.713 38.142 4.70901 38.206 4.70401C39.826 4.64201 42.469 5.37501 44.896 8.12701C47.408 10.978 49.734 16.059 50.269 24.75C50.553 29.353 51.666 32.874 53.401 35.495C55.146 38.129 57.47 39.777 60.029 40.7C63.233 41.856 66.776 41.869 70.036 41.348C68.098 42.942 66.016 45.094 64.531 47.761C63.11 50.311 62.224 53.355 62.563 56.815C62.902 60.272 64.452 64.028 67.705 68.026ZM38.039 2.08701H38.035C38.635 -31.107 52.335 -61.11 74.194 -82.993C75.188 -81.712 76.09 -79.506 75.829 -76.401C75.511 -72.619 73.452 -67.425 67.544 -61.017C64.402 -57.61 62.686 -54.312 62.095 -51.168C61.501 -48.012 62.062 -45.12 63.292 -42.575C64.895 -39.256 67.636 -36.521 70.479 -34.448C67.87 -34.757 64.625 -34.773 61.452 -33.862C58.645 -33.055 55.871 -31.514 53.677 -28.799C51.486 -26.087 49.948 -22.296 49.448 -17.114C47.97 -1.801 40.869 1.85001 38.039 2.08701ZM97.168 -90.576C86.765 -81.441 79.166 -83.124 76.203 -84.96C98.298 -106.102 128.222 -119.162 161.202 -119.375C160.907 -116.108 156.844 -109.485 140.446 -108.518C135.816 -108.245 132.254 -107.074 129.587 -105.248C126.912 -103.415 125.217 -100.978 124.243 -98.318C123.181 -95.42 122.973 -92.263 123.247 -89.288C121.854 -91.08 120.085 -92.915 117.934 -94.295C115.433 -95.899 112.386 -96.908 108.833 -96.499C105.296 -96.092 101.406 -94.297 97.168 -90.576ZM163.904 128.089C197.484 127.59 227.829 113.774 249.872 91.698L249.865 91.69L249.827 91.649L249.792 91.609C247.532 89.26 238.871 85.66 226.249 97.128C222.826 100.239 219.557 101.954 216.464 102.562C213.356 103.174 210.53 102.645 208.051 101.443C204.917 99.923 202.345 97.332 200.363 94.606C200.876 97.926 200.84 101.549 199.611 104.802C198.652 107.342 196.969 109.639 194.306 111.344C191.656 113.041 188.113 114.104 183.496 114.325C174.849 114.738 169.928 117.442 167.199 120.345C164.534 123.179 163.848 126.312 163.902 128.05L163.904 128.089ZM285.998 3.09799L286.025 3.09698C285.691 -30.153 272.214 -60.263 250.531 -82.308C248.712 -79.791 246.813 -72.401 255.945 -60.928C259.19 -56.85 260.72 -53.056 261.029 -49.585C261.339 -46.11 260.414 -43.079 258.954 -40.554C257.577 -38.173 255.716 -36.223 253.922 -34.722C257.228 -35.078 260.826 -34.896 264.068 -33.662C266.73 -32.649 269.154 -30.923 270.935 -28.222C272.711 -25.529 273.793 -21.953 273.929 -17.325C274.426 -0.300997 282.745 3.11499 285.998 3.09799ZM226.233 -90.495C238.451 -79.313 246.148 -81.947 248.633 -84.197C226.703 -105.555 196.871 -118.869 163.924 -119.364C164.194 -117.872 165.091 -115.767 167.289 -113.862C169.915 -111.584 174.5 -109.509 182.317 -109.244C187.872 -109.056 191.893 -107.611 194.726 -105.352C197.562 -103.091 199.081 -100.115 199.814 -97.097C200.503 -94.265 200.511 -91.352 200.257 -88.841C202.231 -91.221 204.698 -93.41 207.592 -94.767C210.18 -95.98 213.115 -96.528 216.304 -95.932C219.483 -95.338 222.811 -93.626 226.233 -90.495ZM193.086 -103.304C190.801 -105.126 187.371 -106.45 182.228 -106.624C173.987 -106.903 168.765 -109.108 165.565 -111.883C164.259 -113.016 163.305 -114.23 162.63 -115.418C160.15 -111.063 153.616 -106.669 140.601 -105.901C136.33 -105.649 133.26 -104.583 131.074 -103.086C128.897 -101.595 127.518 -99.624 126.71 -97.418C125.304 -93.579 125.631 -89.022 126.623 -85.257C137.476 -89.535 149.303 -91.885 161.679 -91.885C174.148 -91.885 186.06 -89.499 196.98 -85.16C197.614 -87.851 198.271 -92.323 197.261 -96.479C196.631 -99.07 195.367 -101.485 193.086 -103.304ZM199.961 -83.916C221.984 -74.285 239.666 -56.599 249.261 -34.591C251.446 -35.935 254.686 -38.416 256.681 -41.867C257.921 -44.011 258.668 -46.507 258.415 -49.352C258.161 -52.203 256.891 -55.524 253.891 -59.293C246.694 -68.336 245.655 -75.559 246.77 -80.187C241.946 -78.616 234.2 -79.646 224.461 -88.559C221.312 -91.441 218.413 -92.868 215.822 -93.352C213.24 -93.834 210.862 -93.401 208.706 -92.39C205.01 -90.658 201.987 -87.232 199.961 -83.916ZM253.065 -24.26C255.719 -15.512 257.146 -6.23199 257.146 3.38101C257.146 12.618 255.828 21.548 253.371 29.993L253.545 30.226H253.303C252.523 32.88 251.631 35.486 250.632 38.038C253.229 38.903 257.384 40.058 261.258 39.379C263.591 38.971 265.782 37.9 267.478 35.675C269.195 33.424 270.5 29.865 270.782 24.309C271.377 12.543 276.648 6.82999 281.236 4.47699C276.608 2.07499 271.685 -4.16701 271.302 -17.249C271.178 -21.512 270.189 -24.585 268.741 -26.78C267.298 -28.967 265.344 -30.371 263.132 -31.213C259.185 -32.715 254.428 -32.42 250.554 -31.474C251.461 -29.174 252.28 -26.831 253.008 -24.448H253.204L253.065 -24.26ZM254.521 3.38101C254.521 11.664 253.432 19.694 251.388 27.335L233.063 2.77301L251.104 -21.61C253.331 -13.66 254.521 -5.27799 254.521 3.38101ZM212.859 30.226H250.563C239.252 67.568 204.954 94.952 164.092 95.992L180.295 74.092H203.017H205.012L204.223 72.261L196.264 53.795H223.037H225.206L224.199 51.874L212.859 30.226ZM248.313 27.602H214.693L231.433 4.97699L248.313 27.602ZM211.461 27.558L229.794 2.78L211.439 -21.824H211.404L198.712 3.22101L211.461 27.558ZM247.997 -21.824L231.424 0.575989L214.713 -21.824H247.997ZM250.259 -24.448H212.755L212.743 -24.465L222.552 -43.82L223.518 -45.726H221.382H198.427L209.4 -64.371L210.564 -66.349H208.269H181.494L164.431 -89.22C204.784 -88.048 238.68 -61.183 250.259 -24.448ZM162.994 -86.757L178.22 -66.349H147.371L162.994 -86.757ZM161.605 -89.26L144.066 -66.349H118.052H115.766L116.919 -64.375L127.815 -45.726H103.935H101.788L102.767 -43.815L112.41 -24.999L111.989 -24.448H73.118H73.099C84.934 -61.992 120.08 -89.228 161.605 -89.26ZM75.751 -21.824H109.979L92.732 0.707001L75.751 -21.824ZM113.285 -21.824L94.371 2.88199L113.002 27.602H113.345L126.569 2.63L114.037 -21.824H113.285ZM72.356 -21.968L91.076 2.87L72.069 27.698C69.962 19.949 68.837 11.796 68.837 3.38101C68.837 -5.40799 70.064 -13.911 72.356 -21.968ZM161.283 96.022C119.537 95.848 84.292 68.18 72.795 30.226H111.694L111.847 30.43L100.494 51.869L99.474 53.795H101.654H129.458L129.545 53.911L121.762 72.268L120.988 74.092H122.97H144.756L161.283 96.022ZM75.448 27.602H109.716L92.715 5.04501L75.448 27.602ZM130.728 51.121L114.98 30.226H139.588L130.728 51.121ZM154.395 51.171L143.661 30.226H153.698L161.787 50.35L162.117 51.171H154.395ZM143.551 27.602H152.643L148.219 16.593L143.551 27.602ZM162.98 46.281L156.527 30.226H169.182L162.98 46.281ZM164.228 50.333L171.995 30.226H182.084L171.469 51.171H163.905L164.228 50.333ZM173.009 27.602H182.116L177.313 16.459L173.009 27.602ZM194.712 50.195L186.105 30.226H209.486L194.712 50.195ZM186.356 27.602H208.521L197.255 6.09601L192.658 15.167V15.168L186.356 27.602ZM191.208 12.222L195.759 3.241L188.081 -11.416L184.339 -1.728L191.208 12.222ZM180.703 -3.17H173.382L177.368 -9.94301L180.703 -3.17ZM182.762 -4.93001L185.367 -11.675H179.441L182.762 -4.93001ZM177.574 -15.467L181.315 -21.824H174.444L177.574 -15.467ZM173.151 -24.448H181.254L171.482 -43.101H163.966L173.151 -24.448ZM161.363 -43.101H153.757L143.879 -24.448H152.286L161.363 -43.101ZM162.674 -45.726L162.657 -45.76L162.64 -45.726H155.147L162.667 -59.927L170.107 -45.726H162.674ZM155.205 -24.448L162.671 -39.791L170.226 -24.448H155.205ZM151.009 -21.824H144.82L148.197 -16.044L151.009 -21.824ZM150.267 -14.3L153.928 -21.824H161.657L161.458 -21.353L158.467 -14.3H150.267ZM148.408 -10.48L152.679 -3.17H144.851L148.408 -10.48ZM142.574 -4.489L146.071 -11.675H139.685L142.574 -4.489ZM141.025 -1.30501L134.438 12.23L129.529 2.64999L136.968 -11.398L141.025 -1.30501ZM135.944 15.168L141.432 25.877L145.973 15.168H135.944ZM150.474 15.168L155.472 27.602H161.099L152.93 15.168H150.474ZM151.205 12.543H149.936L150.434 11.369L151.205 12.543ZM156.07 15.168L162.669 25.213L169.269 15.168H156.07ZM172.409 15.168L164.24 27.602H170.196L174.999 15.168H172.409ZM178.826 12.543L183.053 1.60101L188.441 12.543H178.826ZM179.615 15.168H189.715L184.257 25.938L179.615 15.168ZM175.626 12.543H174.134L175.035 11.172L175.626 12.543ZM170.993 12.543H164.134L170.767 1.272L173.791 8.28601L170.993 12.543ZM161.859 12.543H154.346L151.666 8.46399L154.95 0.717987L161.859 12.543ZM146.591 12.543H137.205L142.345 1.98001L146.591 12.543ZM171.518 -21.824L175.223 -14.3H166.914L163.871 -21.36L163.671 -21.824H171.518ZM116.315 27.602H139.367L128.03 5.48001L116.315 27.602ZM129.446 -42.934L115.502 -24.72L115.641 -24.448H140.247L129.446 -42.934ZM114.177 -27.306L126.268 -43.101H106.082L114.177 -27.306ZM120.339 -63.725L129.739 -47.635L142.057 -63.725H120.339ZM145.362 -63.725L131.583 -45.726H152.177L161.514 -63.357L161.708 -63.725H145.362ZM193.606 -45.726L180.178 -63.725H163.641L163.836 -63.352L173.07 -45.726H193.606ZM183.452 -63.725L196.043 -46.849L205.975 -63.725H183.452ZM219.245 -43.101H198.839L210.991 -26.813L219.245 -43.101ZM185.904 -24.448L196.301 -42.114L209.48 -24.448H185.904ZM197.216 0.367004L208.462 -21.824H185.591L197.216 0.367004ZM183.577 -25.668L193.837 -43.101H174.445L183.577 -25.668ZM150.787 -43.101H132.388L142.039 -26.583L150.787 -43.101ZM139.519 -21.824H116.986L128.068 -0.200012L139.519 -21.824ZM127.48 51.171H103.833L113.592 32.744L127.48 51.171ZM132.744 53.795L146.064 71.468H161.848L161.818 71.411L152.791 53.795H132.744ZM151.446 51.171H133.558L141.657 32.07L151.446 51.171ZM155.74 53.795L162.98 67.922L170.139 53.795H155.74ZM173.082 53.795L164.157 71.406L164.125 71.468H178.972L192.048 53.795H173.082ZM192.275 51.171H174.412L184.065 32.123L192.275 51.171ZM197.254 51.171H220.868L211.08 32.485L197.254 51.171ZM138.504 -14.3H146.176L142.152 -21.188L138.504 -14.3ZM183.444 -20.267L186.57 -14.3H179.932L183.444 -20.267ZM201.023 71.468H182.237L194.108 55.424L201.023 71.468ZM178.693 5.604L177.18 9.51999L176.76 8.54501L178.693 5.604ZM179.593 -0.54599L175.516 5.659L172.842 -0.54599H179.593ZM175.342 -11.675L171.13 -4.51801L168.045 -11.675H175.342ZM168.853 -3.17L165.187 -11.675H160.205L156.599 -3.17H168.853ZM162.676 -17.502L161.318 -14.3H164.056L162.676 -17.502ZM150.749 -11.675H157.354L154.577 -5.12401L150.749 -11.675ZM145.746 -0.54599H152.635L149.933 5.827L145.746 -0.54599ZM146.605 5.54099L148.701 8.73199L148.284 9.71701L146.605 5.54099ZM162.67 93.501L148.042 74.092H177.03L162.67 93.501ZM142.777 71.468L131.37 56.332L124.952 71.468H142.777ZM168.792 -0.54599H157.252L163.001 9.29401L168.792 -0.54599ZM249.323 41.211C239.852 63.03 222.44 80.616 200.725 90.34C202.702 93.778 205.593 97.334 209.196 99.082C211.219 100.063 213.468 100.477 215.958 99.987C218.464 99.494 221.315 98.066 224.484 95.186C234.27 86.295 242.467 85.561 247.526 87.272C246.17 82.532 246.752 75.091 254.02 66.026C257.033 62.267 258.315 58.951 258.579 56.101C258.843 53.256 258.104 50.758 256.873 48.61C254.842 45.068 251.502 42.539 249.323 41.211ZM197.094 91.876C186.143 96.244 174.192 98.647 161.679 98.647C149.231 98.647 137.34 96.27 126.435 91.945C125.774 94.503 125.051 98.852 126.146 102.823C126.801 105.2 128.099 107.413 130.453 109.065C132.821 110.726 136.378 111.903 141.694 111.966C150.063 112.065 155.604 115.05 159.066 118.589C160.487 120.041 161.555 121.587 162.322 123.053C162.952 121.569 163.905 120.017 165.283 118.551C168.582 115.043 174.207 112.144 183.37 111.706C187.659 111.501 190.722 110.524 192.887 109.138C195.037 107.761 196.376 105.933 197.153 103.877C198.55 100.178 198.138 95.691 197.094 91.876ZM123.325 90.646C101.408 81.04 83.799 63.454 74.193 41.571C72.037 42.935 68.793 45.502 66.823 49.039C65.614 51.21 64.897 53.723 65.175 56.559C65.453 59.399 66.74 62.682 69.741 66.37C77.064 75.371 78.069 83.12 76.94 88.06C78.422 87.47 80.194 87.086 82.231 87.102C86.854 87.139 92.687 89.229 99.485 95.318C102.68 98.179 105.547 99.633 108.064 100.165C110.564 100.694 112.805 100.333 114.806 99.415C118.473 97.733 121.379 94.152 123.325 90.646ZM72.74 38.073C68.526 27.323 66.213 15.622 66.213 3.38101C66.213 -8.89299 68.539 -20.624 72.774 -31.398C70.285 -31.962 66.116 -32.474 62.179 -31.342C59.795 -30.658 57.52 -29.379 55.723 -27.154C53.922 -24.925 52.526 -21.654 52.063 -16.863C50.953 -5.35501 46.668 0.562997 42.643 3.116C44.062 3.802 45.517 4.863 46.868 6.396C49.882 9.814 52.333 15.52 52.892 24.589C53.155 28.865 54.175 31.908 55.593 34.049C57.002 36.176 58.852 37.488 60.922 38.235C64.581 39.555 68.977 39.123 72.74 38.073ZM74.305 -35.063C83.975 -56.918 101.639 -74.461 123.597 -84.003C122.272 -86.357 119.901 -89.915 116.517 -92.086C114.426 -93.428 111.977 -94.219 109.133 -93.892C106.273 -93.562 102.863 -92.084 98.9 -88.603C90.101 -80.878 82.663 -80.095 77.917 -81.395C78.383 -79.919 78.611 -78.171 78.444 -76.181C78.062 -71.642 75.638 -65.924 69.473 -59.238C66.578 -56.098 65.153 -53.23 64.674 -50.683C64.197 -48.148 64.637 -45.824 65.655 -43.717C67.423 -40.057 70.932 -37.076 74.305 -35.063Z" fill="#464646"/>
</g>
<defs>
<clipPath id="clip0_2_27">
<rect width="162" height="160" fill="white"/>
</clipPath>
</defs>
</svg>
