<svg width="51" height="51" viewBox="0 0 51 51" fill="none" xmlns="http://www.w3.org/2000/svg">
<g clip-path="url(#clip0_91_2998)">
<path d="M39.4897 33.2312C38.8342 28.3148 36.1967 23.7867 32.2498 20.7851V17.4093C32.2498 11.5664 29.9741 6.07339 25.8428 1.94136L25.7709 1.86948C25.4655 1.56401 24.9717 1.56401 24.6662 1.86948L24.5944 1.94136C20.4631 6.07261 18.1873 11.5664 18.1873 17.4093V20.7851C14.2405 23.7867 11.603 28.3148 10.9475 33.2312L10.3819 37.475C10.3326 37.8453 10.5522 38.1992 10.9061 38.3187C10.9889 38.3461 11.0733 38.3593 11.1561 38.3593C11.4303 38.3593 11.6928 38.214 11.8342 37.9656L12.6334 36.5664C13.7991 34.5273 15.8811 33.1929 18.1873 32.9421V33.6718C18.1873 34.1031 18.5373 34.4531 18.9686 34.4531H19.7498V36.7968C19.7498 37.2281 20.0998 37.5781 20.5311 37.5781H24.4373V40.7031H25.9998V37.5781H29.9061C30.3373 37.5781 30.6873 37.2281 30.6873 36.7968V34.4531H31.4686C31.8998 34.4531 32.2498 34.1031 32.2498 33.6718V32.9429C34.5561 33.1929 36.6381 34.5281 37.8037 36.5671L38.603 37.9664C38.7451 38.214 39.0069 38.3593 39.2811 38.3593C39.3639 38.3593 39.4483 38.346 39.5311 38.3179C39.885 38.1984 40.1045 37.8453 40.0553 37.4742L39.4897 33.2312ZM25.2186 3.54292C26.86 5.29761 28.1522 7.29683 29.0701 9.45308H21.367C22.285 7.29683 23.5772 5.29761 25.2186 3.54292ZM12.3866 34.2585L12.4959 33.4375C13.042 29.339 15.0998 25.5445 18.1873 22.8195V31.3695C15.9506 31.5695 13.8756 32.6093 12.3866 34.2585ZM29.1248 36.0156H21.3123V34.4531H29.1248V36.0156ZM30.6873 32.8906H19.7498V17.4093C19.7498 15.2031 20.103 13.0515 20.7756 11.0156H29.6623C30.3342 13.0515 30.6873 15.2031 30.6873 17.4093V32.8906ZM32.2498 31.3703V22.8195C35.3373 25.5453 37.3944 29.3398 37.9412 33.4375L38.0506 34.2585C36.5616 32.6093 34.4866 31.5695 32.2498 31.3703Z" fill="#000"/>
<path d="M25.2188 15.7031C22.6336 15.7031 20.5312 17.8055 20.5312 20.3906C20.5312 22.9758 22.6336 25.0781 25.2188 25.0781C27.8039 25.0781 29.9062 22.9758 29.9062 20.3906C29.9062 17.8055 27.8039 15.7031 25.2188 15.7031ZM25.2188 23.5156C23.4953 23.5156 22.0938 22.1141 22.0938 20.3906C22.0938 18.6672 23.4953 17.2656 25.2188 17.2656C26.9422 17.2656 28.3438 18.6672 28.3438 20.3906C28.3438 22.1141 26.9422 23.5156 25.2188 23.5156Z" fill="#000"/>
<path d="M28.9938 38.707L27.6937 39.5734L28.5242 40.8195C28.9172 41.4094 29.125 42.0953 29.125 42.8039C29.125 43.7594 28.7531 44.6578 28.0773 45.3336L25.2188 48.1922L22.3602 45.3336C21.6844 44.6578 21.3125 43.7594 21.3125 42.8039C21.3125 42.0953 21.5203 41.4094 21.9133 40.8195L22.7438 39.5734L21.4437 38.707L20.6133 39.9531C20.0484 40.8 19.75 41.7859 19.75 42.8039C19.75 44.1766 20.2844 45.468 21.2555 46.4383L24.6664 49.8492C24.8187 50.0016 25.0188 50.0781 25.2188 50.0781C25.4187 50.0781 25.6188 50.0016 25.7711 49.8492L29.182 46.4383C30.1531 45.468 30.6875 44.1766 30.6875 42.8039C30.6875 41.7859 30.3891 40.8 29.8242 39.9531L28.9938 38.707Z" fill="#000"/>
</g>
<defs>
<clipPath id="clip0_91_2998">
<rect width="50" height="50" fill="#000" transform="translate(0.21875 0.859375)"/>
</clipPath>
</defs>
</svg>
