<svg width="51" height="51" viewBox="0 0 51 51" fill="none" xmlns="http://www.w3.org/2000/svg">
<g clip-path="url(#clip0_91_3013)">
<path d="M18.2096 32.101C18.1492 32.4305 18.1835 32.7704 18.3084 33.0812C18.4334 33.392 18.6439 33.661 18.9155 33.8571C19.1872 34.0531 19.5088 34.1681 19.8432 34.1887C20.1775 34.2093 20.5109 34.1347 20.8046 33.9735L25.6379 31.336L30.4712 33.9735C30.7651 34.1333 31.098 34.2069 31.4318 34.1857C31.7656 34.1646 32.0867 34.0496 32.358 33.854C32.6293 33.6585 32.8399 33.3903 32.9655 33.0803C33.0911 32.7703 33.1266 32.4311 33.0679 32.1019L32.1262 26.6852L35.9596 22.7835C36.1904 22.5484 36.3517 22.254 36.4255 21.9328C36.4994 21.6117 36.4829 21.2764 36.3779 20.9641C36.2729 20.6517 36.0835 20.3746 35.8306 20.1633C35.5778 19.952 35.2714 19.8147 34.9454 19.7668L29.7112 19.0168L27.2037 14.301C27.0529 14.0166 26.8274 13.7787 26.5515 13.6127C26.2757 13.4468 25.9598 13.3591 25.6379 13.3591C25.316 13.3591 25.0001 13.4468 24.7243 13.6127C24.4484 13.7787 24.2229 14.0166 24.0721 14.301L21.5646 19.0127L16.3304 19.7627C16.0043 19.8104 15.6978 19.9476 15.4449 20.1589C15.1919 20.3702 15.0025 20.6475 14.8976 20.9599C14.7926 21.2723 14.7763 21.6077 14.8503 21.9289C14.9243 22.25 15.0859 22.5444 15.3171 22.7794L19.1504 26.681L18.2096 32.101ZM16.5062 21.6093C16.4894 21.5942 16.4777 21.5742 16.4728 21.5521C16.4679 21.53 16.47 21.5069 16.4787 21.486C16.4839 21.466 16.495 21.448 16.5106 21.4344C16.5263 21.4209 16.5457 21.4124 16.5662 21.4102L22.2196 20.6018C22.3495 20.5834 22.4732 20.5345 22.5806 20.4592C22.6881 20.3839 22.7762 20.2843 22.8379 20.1685L25.5437 15.0852C25.5524 15.0676 25.5658 15.0528 25.5825 15.0425C25.5991 15.0321 25.6183 15.0266 25.6379 15.0266C25.6575 15.0266 25.6767 15.0321 25.6933 15.0425C25.71 15.0528 25.7234 15.0676 25.7321 15.0852L28.4379 20.1685C28.4996 20.2843 28.5877 20.3839 28.6952 20.4592C28.8026 20.5345 28.9263 20.5834 29.0562 20.6018L34.7096 21.4102C34.7294 21.4132 34.7479 21.422 34.7627 21.4355C34.7775 21.449 34.788 21.4666 34.7929 21.486C34.8015 21.5068 34.8036 21.5298 34.7988 21.5518C34.7941 21.5739 34.7827 21.5939 34.7662 21.6093L30.6379 25.8185C30.5451 25.9129 30.4762 26.0281 30.4367 26.1545C30.3973 26.2808 30.3886 26.4148 30.4112 26.5452L31.4254 32.3869C31.4309 32.4088 31.4294 32.4318 31.4212 32.4529C31.413 32.4739 31.3984 32.4919 31.3796 32.5044C31.3646 32.5173 31.3457 32.5249 31.326 32.526C31.3062 32.527 31.2867 32.5215 31.2704 32.5102L26.0387 29.6552C25.9163 29.5884 25.779 29.5534 25.6396 29.5534C25.5001 29.5534 25.3628 29.5884 25.2404 29.6552L20.0087 32.5102C19.9923 32.5211 19.9728 32.5264 19.9532 32.5253C19.9335 32.5243 19.9147 32.5169 19.8996 32.5044C19.8807 32.4919 19.8662 32.4739 19.858 32.4529C19.8498 32.4318 19.8483 32.4088 19.8537 32.3869L20.8679 26.5452C20.8901 26.4145 20.8808 26.2804 20.8408 26.154C20.8008 26.0276 20.7313 25.9126 20.6379 25.8185L16.5062 21.6093Z" fill="#F9F9F9"/>
<path d="M24.9446 50.7635C25.396 50.8913 25.874 50.8913 26.3254 50.7635C38.6763 47.261 47.3021 36.1744 47.3021 23.8027V8.97687C47.3051 8.19159 47.0047 7.43549 46.4636 6.8664C45.9224 6.29731 45.1824 5.95923 44.3979 5.92271C35.0446 5.54021 29.2529 2.56354 27.1971 1.30187C26.7279 1.0118 26.1871 0.858154 25.6354 0.858154C25.0838 0.858154 24.543 1.0118 24.0738 1.30187C22.0179 2.56354 16.2263 5.54021 6.86794 5.92271C6.08431 5.96027 5.34542 6.29885 4.8053 6.86784C4.26518 7.43684 3.96551 8.19235 3.96878 8.97687V23.8027C3.96878 36.1744 12.5946 47.261 24.9446 50.7635ZM5.63544 8.97687C5.63257 8.62179 5.76669 8.27926 6.0099 8.02053C6.25311 7.7618 6.58669 7.60678 6.94128 7.58771C16.6854 7.18937 22.7746 4.05271 24.9463 2.72187C25.1534 2.59388 25.392 2.52609 25.6354 2.52609C25.8789 2.52609 26.1175 2.59388 26.3246 2.72187C28.4913 4.05521 34.5854 7.18937 44.3246 7.58771C44.68 7.60574 45.0147 7.76028 45.259 8.0191C45.5032 8.27791 45.6381 8.62103 45.6354 8.97687V23.8027C45.6354 35.4327 37.5079 45.8594 25.8704 49.1602C25.7164 49.2027 25.5537 49.2027 25.3996 49.1602C13.7629 45.8594 5.63544 35.4327 5.63544 23.8027V8.97687Z" fill="#F9F9F9"/>
<path d="M24.8581 47.1927C25.3653 47.356 25.9109 47.356 26.4181 47.1927C36.9173 43.7652 43.9714 34.3593 43.9714 23.776V11.566C43.9698 10.9467 43.739 10.35 43.3236 9.89068C42.9081 9.4314 42.3375 9.1421 41.7214 9.07851C36.5216 8.6954 31.4504 7.27887 26.8048 4.91184C26.4459 4.71992 26.0451 4.61951 25.6381 4.61951C25.2311 4.61951 24.8304 4.71992 24.4714 4.91184C19.827 7.27823 14.7573 8.69474 9.55894 9.07851C8.93944 9.13456 8.36369 9.4216 7.94607 9.8826C7.52845 10.3436 7.29953 10.9448 7.30478 11.5668V23.776C7.30478 34.3593 14.3589 43.7652 24.8581 47.1927ZM8.97144 11.5668C8.97159 11.3621 9.04711 11.1646 9.18359 11.0119C9.32008 10.8593 9.50798 10.7623 9.71144 10.7393C15.1305 10.3346 20.4146 8.85382 25.2548 6.38351C25.3724 6.31954 25.5042 6.28603 25.6381 6.28603C25.772 6.28603 25.9038 6.31954 26.0214 6.38351C30.8618 8.85414 36.1462 10.3347 41.5656 10.7385C41.7689 10.7616 41.9566 10.8587 42.0929 11.0114C42.2293 11.164 42.3047 11.3614 42.3048 11.566V23.776C42.3048 33.6343 35.7131 42.4068 25.9014 45.6093C25.7303 45.6652 25.5459 45.6652 25.3748 45.6093C15.5631 42.4043 8.97144 33.6318 8.97144 23.776V11.5668Z" fill="#F9F9F9"/>
</g>
<defs>
<clipPath id="clip0_91_3013">
<rect width="50" height="50" fill="white" transform="translate(0.636719 0.859375)"/>
</clipPath>
</defs>
</svg>
