<svg width="103" height="80" viewBox="0 0 103 80" fill="none" xmlns="http://www.w3.org/2000/svg">
<path d="M6.41147 79.9975C5.3399 79.9975 4.35406 79.7761 3.45394 79.3331C2.56811 78.8902 1.84659 78.2616 1.28937 77.4472L2.89673 75.9041C3.35393 76.4613 3.91114 76.9185 4.56837 77.2757C5.23989 77.6329 5.88283 77.8115 6.4972 77.8115C7.22586 77.8115 7.80451 77.6401 8.23314 77.2972C8.67605 76.9543 8.89751 76.5042 8.89751 75.947C8.89751 75.5469 8.82607 75.2183 8.6832 74.9611C8.54032 74.6897 8.276 74.4254 7.89024 74.1682C7.50447 73.8967 6.91154 73.561 6.11143 73.1609C5.05415 72.6466 4.21833 72.1608 3.60396 71.7036C2.9896 71.2464 2.53954 70.7606 2.25378 70.2462C1.96803 69.7319 1.82516 69.139 1.82516 68.4674C1.82516 67.6959 2.02518 67.0172 2.42524 66.4315C2.83958 65.8314 3.41108 65.3742 4.13975 65.0598C4.86841 64.7312 5.71138 64.5669 6.66865 64.5669C7.71164 64.5669 8.64034 64.7741 9.45473 65.1884C10.2834 65.6028 10.8906 66.1671 11.2764 66.8815L9.54045 68.1674C9.19755 67.7245 8.78321 67.3816 8.29743 67.1387C7.82594 66.8815 7.31873 66.7529 6.77581 66.7529C6.07571 66.7529 5.52564 66.9029 5.12559 67.203C4.73982 67.4887 4.54694 67.8959 4.54694 68.4246C4.54694 68.7532 4.63267 69.0389 4.80412 69.2818C4.98986 69.5104 5.31133 69.7676 5.76853 70.0534C6.24002 70.3391 6.9544 70.7106 7.91167 71.1678C9.26899 71.8107 10.2191 72.4822 10.762 73.1823C11.3193 73.8681 11.5979 74.7325 11.5979 75.7755C11.5979 76.6185 11.3836 77.3615 10.9549 78.0044C10.5263 78.6331 9.91907 79.126 9.13326 79.4832C8.34744 79.8261 7.44018 79.9975 6.41147 79.9975ZM13.4184 71.8536C13.4184 70.5677 13.3826 69.639 13.3112 69.0675H15.4543C15.5258 69.6819 15.5615 70.3105 15.5615 70.9535H15.6044C15.8472 70.2962 16.2687 69.7819 16.8688 69.4104C17.4689 69.0389 18.169 68.8532 18.9691 68.8532C19.7406 68.8532 20.3978 69.0318 20.9408 69.389C21.4837 69.7319 21.848 70.2105 22.0338 70.8249C22.3195 70.2105 22.7553 69.7319 23.3411 69.389C23.9412 69.0318 24.6127 68.8532 25.3556 68.8532C26.5415 68.8532 27.4702 69.2318 28.1417 69.9891C28.8132 70.7463 29.149 71.8036 29.149 73.1609V79.7832H26.7487V73.4181C26.7487 72.5894 26.5701 71.9465 26.2129 71.4893C25.8557 71.0321 25.3556 70.8035 24.7127 70.8035C24.0412 70.8035 23.4983 71.0463 23.0839 71.5321C22.6839 72.0036 22.4838 72.6394 22.4838 73.4395V79.7832H20.0835V73.5038C20.0835 72.6323 19.9121 71.9679 19.5692 71.5107C19.2406 71.0392 18.7619 70.8035 18.1333 70.8035C17.476 70.8035 16.926 71.0606 16.483 71.575C16.0401 72.0893 15.8187 72.7323 15.8187 73.5038V79.7832H13.4184V71.8536ZM34.7158 79.9975C34.0157 79.9975 33.387 79.8546 32.8298 79.5689C32.2869 79.2689 31.8583 78.8617 31.5439 78.3473C31.2439 77.8329 31.0939 77.2543 31.0939 76.6114C31.0939 75.5255 31.5154 74.6897 32.3583 74.1039C33.2156 73.5181 34.4229 73.2252 35.9802 73.2252H37.8448V72.7323C37.8448 72.0893 37.659 71.5964 37.2876 71.2535C36.9161 70.9106 36.3946 70.7392 35.7231 70.7392C35.0801 70.7392 34.4729 70.8606 33.9014 71.1035C33.3442 71.3321 32.8798 71.6679 32.5084 72.1108L31.3939 70.6749C31.9369 70.0891 32.5941 69.639 33.3656 69.3247C34.1371 69.0104 34.9515 68.8532 35.8088 68.8532C37.209 68.8532 38.302 69.189 39.0878 69.8605C39.8736 70.5177 40.2665 71.4464 40.2665 72.6466V77.5758C40.2665 77.8758 40.2951 78.2401 40.3522 78.6688C40.4094 79.0831 40.4737 79.4546 40.5451 79.7832H38.3806C38.252 79.4832 38.1591 79.0331 38.102 78.433H38.0591C37.2304 79.476 36.116 79.9975 34.7158 79.9975ZM35.273 78.1544C36.0017 78.1544 36.6089 77.9615 37.0947 77.5758C37.5947 77.1757 37.8448 76.6899 37.8448 76.1184V74.8754H35.9159C35.1301 74.8754 34.5229 75.0254 34.0943 75.3255C33.6799 75.6255 33.4728 76.0541 33.4728 76.6114C33.4728 77.0971 33.6299 77.4758 33.9443 77.7472C34.2586 78.0187 34.7015 78.1544 35.273 78.1544ZM42.8686 71.6821C42.8686 70.4677 42.8472 69.5962 42.8043 69.0675H45.0975C45.1546 69.6247 45.1832 70.2534 45.1832 70.9535V71.1678H45.2475C45.5189 70.4534 45.9833 69.889 46.6405 69.4747C47.2977 69.0604 48.055 68.8532 48.9122 68.8532C49.1694 68.8532 49.3837 68.8746 49.5552 68.9175V70.8463C49.4123 70.8177 49.2194 70.8035 48.9765 70.8035C48.305 70.8035 47.6835 70.9892 47.112 71.3607C46.5548 71.7179 46.1119 72.2108 45.7833 72.8394C45.4546 73.4681 45.2903 74.1468 45.2903 74.8754V79.7832H42.8686V71.6821ZM55.3167 79.9975C54.2737 79.9975 53.4522 79.6975 52.8521 79.0974C52.2663 78.483 51.9734 77.6401 51.9734 76.5685V70.8892H50.0446V69.0675H51.9734V66.2814L54.3309 65.5742H54.4166V69.0675H57.5027V70.8892H54.4166V76.247C54.4166 76.89 54.5523 77.3686 54.8238 77.6829C55.1095 77.983 55.5453 78.133 56.1311 78.133C56.7597 78.133 57.2741 78.0473 57.6742 77.8758L57.8027 79.5903C57.217 79.8618 56.3883 79.9975 55.3167 79.9975Z" fill="#FF0000"/>
<path d="M65.9735 79.9975C64.6018 79.9975 63.4017 79.6832 62.373 79.0545C61.3586 78.4259 60.5727 77.5329 60.0155 76.3756C59.4583 75.204 59.1797 73.8396 59.1797 72.2822C59.1797 70.7106 59.4583 69.3461 60.0155 68.1888C60.5727 67.0315 61.3657 66.1386 62.3944 65.5099C63.4231 64.8813 64.6304 64.5669 66.0163 64.5669C67.1736 64.5669 68.188 64.7884 69.0596 65.2313C69.9311 65.6742 70.5741 66.2957 70.9884 67.0958L69.4453 68.4889C68.6738 67.3316 67.5379 66.7529 66.0377 66.7529C64.709 66.7529 63.6874 67.2316 62.9731 68.1888C62.2587 69.1318 61.9015 70.4963 61.9015 72.2822C61.9015 74.0539 62.2515 75.4183 62.9516 76.3756C63.6517 77.3329 64.6519 77.8115 65.952 77.8115C67.5379 77.8115 68.7024 77.2257 69.4453 76.0541L70.9884 77.4472C70.5741 78.2616 69.9311 78.8902 69.0596 79.3331C68.188 79.7761 67.1593 79.9975 65.9735 79.9975ZM75.8833 79.9975C75.1832 79.9975 74.5545 79.8546 73.9973 79.5689C73.4544 79.2689 73.0258 78.8617 72.7114 78.3473C72.4114 77.8329 72.2614 77.2543 72.2614 76.6114C72.2614 75.5255 72.6829 74.6897 73.5258 74.1039C74.3831 73.5181 75.5904 73.2252 77.1477 73.2252H79.0123V72.7323C79.0123 72.0893 78.8265 71.5964 78.4551 71.2535C78.0836 70.9106 77.5621 70.7392 76.8906 70.7392C76.2476 70.7392 75.6404 70.8606 75.0689 71.1035C74.5117 71.3321 74.0473 71.6679 73.6759 72.1108L72.5614 70.6749C73.1044 70.0891 73.7616 69.639 74.5331 69.3247C75.3046 69.0104 76.119 68.8532 76.9763 68.8532C78.3765 68.8532 79.4695 69.189 80.2553 69.8605C81.0411 70.5177 81.434 71.4464 81.434 72.6466V77.5758C81.434 77.8758 81.4626 78.2401 81.5197 78.6688C81.5769 79.0831 81.6412 79.4546 81.7126 79.7832H79.5481C79.4195 79.4832 79.3266 79.0331 79.2695 78.433H79.2266C78.3979 79.476 77.2835 79.9975 75.8833 79.9975ZM76.4405 78.1544C77.1692 78.1544 77.7764 77.9615 78.2622 77.5758C78.7622 77.1757 79.0123 76.6899 79.0123 76.1184V74.8754H77.0834C76.2976 74.8754 75.6904 75.0254 75.2618 75.3255C74.8474 75.6255 74.6403 76.0541 74.6403 76.6114C74.6403 77.0971 74.7974 77.4758 75.1118 77.7472C75.4261 78.0187 75.869 78.1544 76.4405 78.1544ZM87.2079 79.9975C86.3221 79.9975 85.5363 79.8189 84.8505 79.4617C84.1647 79.1045 83.6789 78.6259 83.3931 78.0258L84.9362 76.9757C85.1791 77.3472 85.5006 77.6401 85.9006 77.8544C86.315 78.0687 86.7507 78.1758 87.2079 78.1758C87.7223 78.1758 88.1509 78.0401 88.4938 77.7687C88.8367 77.4829 89.0082 77.1186 89.0082 76.6757C89.0082 76.347 88.8796 76.0756 88.6224 75.8613C88.3795 75.6469 87.8723 75.3898 87.1008 75.0897C85.8292 74.604 84.9291 74.111 84.4004 73.611C83.8861 73.1109 83.6289 72.4894 83.6289 71.7464C83.6289 70.8749 83.9789 70.1748 84.679 69.6462C85.3791 69.1175 86.3078 68.8532 87.4651 68.8532C88.2509 68.8532 88.951 69.0032 89.5654 69.3033C90.194 69.6033 90.687 70.0319 91.0441 70.5891L89.6082 71.6607C89.3796 71.3464 89.0867 71.1035 88.7296 70.932C88.3724 70.7606 87.9795 70.6749 87.5508 70.6749C87.0936 70.6749 86.7293 70.7677 86.4578 70.9535C86.1864 71.1249 86.0506 71.3678 86.0506 71.6821C86.0506 71.9107 86.1078 72.1036 86.2221 72.2608C86.3364 72.4037 86.5436 72.5537 86.8436 72.7108C87.1579 72.868 87.6294 73.068 88.2581 73.3109C89.4582 73.7824 90.2869 74.2539 90.7441 74.7254C91.2013 75.1969 91.4299 75.8113 91.4299 76.5685C91.4299 77.5972 91.0441 78.4259 90.2726 79.0545C89.5011 79.6832 88.4795 79.9975 87.2079 79.9975ZM97.5725 79.9975C96.5295 79.9975 95.708 79.6975 95.1079 79.0974C94.5221 78.483 94.2292 77.6401 94.2292 76.5685V70.8892H92.3004V69.0675H94.2292V66.2814L96.5867 65.5742H96.6724V69.0675H99.7585V70.8892H96.6724V76.247C96.6724 76.89 96.8081 77.3686 97.0796 77.6829C97.3653 77.983 97.8011 78.133 98.3869 78.133C99.0156 78.133 99.5299 78.0473 99.93 77.8758L100.059 79.5903C99.4728 79.8618 98.6441 79.9975 97.5725 79.9975Z" fill="white"/>
<path d="M75.298 34.4412C76.406 45.7232 66.5231 56.0613 53.0312 57.3864C39.5393 58.7115 27.834 50.4937 26.7259 39.2116C25.6179 27.9296 35.5008 17.5915 48.9927 16.2664C62.4846 14.9413 74.1899 23.1591 75.298 34.4412Z" fill="black" stroke="white"/>
<ellipse cx="48.6084" cy="36.7439" rx="19.4091" ry="19.261" fill="white"/>
<path d="M39.5664 61.7833L41.048 54.5234L45.1965 55.2642L39.5664 61.7833Z" fill="white"/>
<path d="M40.1562 60.7461L41.4819 53.9307L45.1937 54.6261L40.1562 60.7461Z" fill="#FF0000"/>
<path d="M57.3477 61.7833L55.866 54.5234L51.7175 55.2642L57.3477 61.7833Z" fill="white"/>
<path d="M56.7578 60.7461L55.4322 53.9307L51.7203 54.6261L56.7578 60.7461Z" fill="#FF0000"/>
<ellipse cx="48.6055" cy="36.7445" rx="18.8165" ry="18.6683" fill="url(#paint0_linear_283_2412)"/>
<path d="M59.2784 34.0007C59.7221 33.557 59.6769 32.8135 59.149 32.4704C55.9906 30.4189 52.3039 29.3299 48.5378 29.336C44.6248 29.336 40.9789 30.4862 37.9266 32.4704C37.8045 32.5528 37.7024 32.6616 37.6278 32.7886C37.5533 32.9157 37.5081 33.0578 37.4957 33.2046C37.4833 33.3514 37.5039 33.4991 37.5561 33.6369C37.6083 33.7746 37.6907 33.899 37.7972 34.0007C37.9722 34.1715 38.2001 34.2778 38.4434 34.302C38.6868 34.3263 38.9311 34.2671 39.1364 34.1342C41.9423 32.337 45.2057 31.3845 48.5378 31.39C51.8699 31.3845 55.1333 32.337 57.9392 34.1342C58.3602 34.4054 58.9251 34.3561 59.2784 34.0007ZM54.7944 38.4847C55.2586 38.0205 55.1744 37.242 54.589 36.9442C52.7147 35.9903 50.6408 35.4948 48.5378 35.4981C46.3605 35.4981 44.3024 36.0198 42.4866 36.9442C41.9012 37.242 41.817 38.0205 42.2812 38.4847L42.312 38.5155C42.6406 38.8441 43.15 38.9058 43.567 38.7004C45.1142 37.9421 46.8148 37.5493 48.5378 37.5521C50.3207 37.5521 52.0091 37.965 53.5086 38.7024C53.9256 38.9078 54.4329 38.8462 54.7636 38.5155L54.7944 38.4847ZM50.7151 42.564C51.1177 42.1614 51.1218 41.4959 50.6329 41.2084C49.9992 40.8312 49.2753 40.6324 48.5378 40.6332C47.8003 40.6324 47.0764 40.8312 46.4427 41.2084C45.9538 41.4959 45.9579 42.1614 46.3605 42.564L47.8107 44.0142C47.9061 44.1098 48.0194 44.1857 48.1442 44.2375C48.2689 44.2893 48.4027 44.3159 48.5378 44.3159C48.6729 44.3159 48.8066 44.2893 48.9314 44.2375C49.0562 44.1857 49.1695 44.1098 49.2649 44.0142L50.7171 42.562L50.7151 42.564Z" fill="white"/>
<circle cx="71.7196" cy="36.8922" r="1.62977" fill="white"/>
<circle cx="70.8307" cy="41.6334" r="0.740806" fill="white"/>
<path d="M48.9491 15.2276L38.9727 6.30127L44.4859 16.0152L48.9491 15.2276Z" fill="white"/>
<path d="M44.4844 16.0148L58.1363 0L48.9475 15.2272L44.4844 16.0148Z" fill="#FF0000"/>
<path fill-rule="evenodd" clip-rule="evenodd" d="M41.0272 24.0056C41.6109 23.6321 42.2126 23.3001 42.8283 23.0094C43.4119 22.7338 43.2799 21.9086 42.6609 22.0917C41.6529 22.3897 40.6704 22.8043 39.7344 23.3365C40.1929 23.4721 40.6323 23.6947 41.0272 24.0056Z" fill="white"/>
<path fill-rule="evenodd" clip-rule="evenodd" d="M38.6773 24.0176C38.0195 24.437 37.3879 24.9172 36.7903 25.4588C33.4609 28.4761 31.9207 32.7309 32.2354 36.8893C32.2841 37.5321 33.0948 37.3659 33.1443 36.7231C33.4508 32.7432 35.2214 28.8684 38.4127 25.9762C38.4922 25.9042 38.5722 25.8331 38.6527 25.7629C38.8062 25.1852 38.8109 24.5857 38.6773 24.0176Z" fill="white"/>
<defs>
<linearGradient id="paint0_linear_283_2412" x1="29.7891" y1="38.5224" x2="67.422" y2="36.7445" gradientUnits="userSpaceOnUse">
<stop stop-color="#FF0000"/>
<stop offset="1" stop-color="#FF7C7C"/>
</linearGradient>
</defs>
</svg>
