<svg width="264" height="86" viewBox="0 0 264 86" fill="none" xmlns="http://www.w3.org/2000/svg">
<path d="M137.806 78.4515C137.771 78.5842 137.726 78.6916 137.666 78.7702C137.61 78.8492 137.522 78.9116 137.407 78.9508C137.29 78.9929 137.14 79.0213 136.96 79.0357C136.776 79.0495 136.544 79.0553 136.264 79.0553C135.95 79.0553 135.696 79.0495 135.507 79.0357C135.314 79.0213 135.165 78.9929 135.054 78.9508C134.944 78.9116 134.865 78.8492 134.814 78.7702C134.766 78.6916 134.726 78.5842 134.698 78.4515L132.981 71.6706H132.965L131.342 78.4515C131.314 78.5785 131.277 78.683 131.226 78.7621C131.178 78.8413 131.099 78.9029 130.991 78.9479C130.884 78.9929 130.737 79.0213 130.553 79.0357C130.367 79.0495 130.123 79.0553 129.821 79.0553C129.498 79.0553 129.244 79.0495 129.054 79.0357C128.865 79.0213 128.712 78.9929 128.603 78.9508C128.492 78.9116 128.413 78.8492 128.362 78.7702C128.314 78.6916 128.272 78.5842 128.24 78.4515L125.806 69.117C125.755 68.9168 125.73 68.7622 125.724 68.6488C125.718 68.5365 125.749 68.4487 125.817 68.3899C125.888 68.3274 126.001 68.2911 126.157 68.2765C126.315 68.2627 126.533 68.2569 126.812 68.2569C127.073 68.2569 127.276 68.2598 127.429 68.2686C127.582 68.2765 127.695 68.2961 127.771 68.3274C127.847 68.3586 127.901 68.4006 127.93 68.4602C127.955 68.5169 127.978 68.5981 127.994 68.7026L129.877 76.8975H129.886L131.839 68.7622C131.862 68.6577 131.89 68.5699 131.927 68.5051C131.961 68.4377 132.023 68.387 132.108 68.3528C132.193 68.3165 132.311 68.2911 132.461 68.2765C132.608 68.2627 132.809 68.2569 133.058 68.2569C133.324 68.2569 133.533 68.2627 133.691 68.2736C133.85 68.2853 133.972 68.3078 134.056 68.3447C134.141 68.381 134.203 68.432 134.243 68.4965C134.282 68.5618 134.31 68.6519 134.333 68.7622L136.358 76.8975H136.374L138.24 68.728C138.257 68.641 138.28 68.5647 138.305 68.4994C138.334 68.4377 138.387 68.387 138.464 68.3528C138.543 68.3165 138.653 68.2911 138.798 68.2765C138.942 68.2627 139.143 68.2569 139.402 68.2569C139.648 68.2569 139.838 68.2627 139.973 68.2765C140.109 68.2911 140.205 68.3274 140.268 68.3899C140.327 68.4487 140.355 68.5393 140.347 68.6577C140.339 68.776 140.31 68.937 140.259 69.1426L137.806 78.4515V78.4515ZM188.899 73.5324C188.899 74.4178 188.789 75.2105 188.568 75.9102C188.348 76.61 188.02 77.2052 187.582 77.6901C187.146 78.1779 186.606 78.5502 185.965 78.8071C185.319 79.0641 184.576 79.1903 183.73 79.1903C182.897 79.1903 182.17 79.0808 181.551 78.8637C180.929 78.6459 180.412 78.3164 179.996 77.8678C179.583 77.4221 179.272 76.8554 179.066 76.1664C178.859 75.4783 178.754 74.6634 178.754 73.721C178.754 72.8581 178.865 72.0792 179.085 71.3882C179.306 70.6974 179.634 70.1101 180.072 69.6252C180.508 69.1397 181.047 68.7672 181.689 68.5111C182.334 68.2512 183.08 68.1221 183.931 68.1221C184.743 68.1221 185.458 68.2287 186.08 68.4435C186.699 68.6577 187.22 68.9879 187.635 69.4365C188.054 69.8822 188.368 70.4432 188.579 71.1233C188.792 71.8056 188.899 72.607 188.899 73.5324V73.5324ZM186.609 73.6421C186.609 73.0809 186.563 72.5699 186.476 72.1105C186.389 71.6502 186.239 71.2554 186.026 70.9281C185.815 70.6015 185.532 70.3473 185.178 70.1667C184.825 69.9888 184.384 69.8989 183.855 69.8989C183.321 69.8989 182.874 70.0004 182.518 70.2007C182.159 70.4011 181.867 70.6718 181.647 71.0072C181.426 71.3432 181.271 71.7352 181.181 72.1838C181.09 72.6352 181.044 73.1092 181.044 73.6108C181.044 74.1952 181.09 74.7198 181.178 75.1851C181.265 75.6504 181.415 76.0481 181.624 76.3813C181.834 76.7109 182.113 76.962 182.467 77.137C182.82 77.309 183.264 77.3968 183.799 77.3968C184.333 77.3968 184.779 77.298 185.136 77.0978C185.495 76.9003 185.786 76.6296 186.007 76.2877C186.227 75.9465 186.383 75.5488 186.473 75.0952C186.563 74.6407 186.609 74.1552 186.609 73.6421V73.6421ZM199.965 74.9283C199.965 75.5828 199.895 76.1751 199.754 76.7C199.615 77.2248 199.408 77.6734 199.137 78.0428C198.868 78.4123 198.532 78.6947 198.131 78.8943C197.726 79.0916 197.266 79.1903 196.748 79.1903C196.533 79.1903 196.335 79.1708 196.157 79.1287C195.976 79.0866 195.803 79.0242 195.634 78.94C195.467 78.852 195.301 78.7475 195.133 78.6205C194.97 78.4943 194.797 78.3447 194.622 78.1748V81.6452C194.622 81.7011 194.605 81.7489 194.571 81.7946C194.54 81.8367 194.483 81.8759 194.401 81.9043C194.322 81.9354 194.215 81.9579 194.084 81.9746C193.952 81.9921 193.782 82 193.579 82C193.375 82 193.205 81.9921 193.072 81.9746C192.942 81.9579 192.835 81.9354 192.756 81.9043C192.674 81.8759 192.617 81.8367 192.586 81.7946C192.552 81.7489 192.535 81.7011 192.535 81.6452V71.3461C192.535 71.2925 192.549 71.2445 192.578 71.2016C192.603 71.1596 192.651 71.1256 192.722 71.0979C192.789 71.0725 192.88 71.0501 192.996 71.0355C193.109 71.0216 193.251 71.0159 193.42 71.0159C193.587 71.0159 193.726 71.0216 193.838 71.0355C193.952 71.0501 194.045 71.0725 194.113 71.0979C194.181 71.1256 194.229 71.1596 194.257 71.2016C194.285 71.2445 194.3 71.2925 194.3 71.3484V72.2172C194.514 71.9972 194.724 71.8028 194.933 71.6364C195.139 71.4674 195.349 71.3288 195.563 71.2162C195.781 71.1031 196.001 71.0188 196.23 70.9623C196.459 70.9085 196.703 70.8802 196.963 70.8802C197.503 70.8802 197.963 70.9876 198.345 71.1995C198.724 71.4107 199.035 71.7011 199.276 72.0706C199.516 72.4379 199.691 72.869 199.802 73.3597C199.912 73.8482 199.965 74.3729 199.965 74.9283V74.9283ZM197.794 75.072C197.794 74.759 197.771 74.4572 197.723 74.1696C197.678 73.8814 197.596 73.6254 197.483 73.3996C197.37 73.1739 197.223 72.9931 197.039 72.861C196.852 72.7253 196.623 72.6577 196.349 72.6577C196.211 72.6577 196.075 72.6773 195.939 72.7195C195.803 72.7622 195.668 72.8269 195.526 72.9226C195.385 73.0156 195.241 73.1368 195.094 73.2842C194.944 73.4329 194.786 73.6165 194.622 73.8365V76.2652C194.913 76.6325 195.193 76.9141 195.456 77.1143C195.722 77.3147 195.996 77.4135 196.281 77.4135C196.553 77.4135 196.782 77.3461 196.971 77.2074C197.161 77.0694 197.319 76.8886 197.438 76.6688C197.56 76.446 197.65 76.1947 197.706 75.9132C197.765 75.6337 197.794 75.3513 197.794 75.072V75.072ZM210.376 74.8238C210.376 75.0778 210.319 75.2643 210.206 75.3855C210.093 75.5068 209.937 75.5684 209.736 75.5684H205.235C205.235 75.8819 205.272 76.1636 205.349 76.4206C205.422 76.6746 205.541 76.8917 205.702 77.0694C205.866 77.2473 206.075 77.3823 206.332 77.4759C206.59 77.5689 206.895 77.6167 207.254 77.6167C207.619 77.6167 207.939 77.5914 208.215 77.5376C208.489 77.484 208.73 77.4281 208.931 77.3628C209.132 77.298 209.299 77.2415 209.432 77.1877C209.564 77.1339 209.672 77.1086 209.754 77.1086C209.805 77.1086 209.847 77.1174 209.878 77.137C209.912 77.1566 209.94 77.1906 209.963 77.2415C209.982 77.2894 210 77.3597 210.008 77.4505C210.017 77.5404 210.019 77.6559 210.019 77.7918C210.019 77.9128 210.017 78.0175 210.011 78.1016C210.005 78.1865 209.997 78.2597 209.985 78.3193C209.974 78.381 209.96 78.4319 209.937 78.4711C209.915 78.5139 209.886 78.5531 209.85 78.593C209.813 78.6294 209.717 78.6829 209.556 78.7504C209.394 78.8188 209.191 78.8833 208.942 78.9479C208.693 79.0132 208.411 79.0691 208.091 79.1169C207.771 79.1657 207.43 79.1903 207.065 79.1903C206.406 79.1903 205.832 79.1091 205.337 78.9429C204.845 78.7788 204.432 78.5277 204.099 78.1923C203.768 77.8563 203.522 77.4302 203.358 76.9199C203.197 76.4068 203.115 75.8057 203.115 75.1177C203.115 74.463 203.2 73.8736 203.372 73.3459C203.542 72.821 203.791 72.3755 204.119 72.0089C204.444 71.6423 204.84 71.3628 205.306 71.1713C205.775 70.9759 206.301 70.8802 206.887 70.8802C207.506 70.8802 208.035 70.9709 208.473 71.1538C208.914 71.3346 209.273 71.5886 209.556 71.9102C209.835 72.2318 210.045 72.6148 210.178 73.0555C210.31 73.4953 210.376 73.9752 210.376 74.4941V74.8238V74.8238ZM208.357 74.2315C208.374 73.6479 208.255 73.1875 208.004 72.8552C207.752 72.5192 207.365 72.353 206.839 72.353C206.573 72.353 206.341 72.4037 206.146 72.5025C205.948 72.6012 205.784 72.734 205.654 72.903C205.524 73.0723 205.425 73.2696 205.357 73.4984C205.286 73.7299 205.247 73.9723 205.235 74.2315H208.357V74.2315ZM218.765 72.0343C218.765 72.2318 218.759 72.3951 218.747 72.5221C218.736 72.649 218.72 72.7478 218.699 72.8181C218.677 72.8886 218.646 72.9393 218.612 72.9677C218.575 72.996 218.53 73.0075 218.473 73.0075C218.431 73.0075 218.38 72.9989 218.323 72.9793C218.27 72.9597 218.207 72.9393 218.137 72.9169C218.069 72.8944 217.993 72.8748 217.911 72.8552C217.826 72.8356 217.735 72.8269 217.636 72.8269C217.521 72.8269 217.404 72.8494 217.289 72.8972C217.173 72.9453 217.052 73.0156 216.927 73.1172C216.803 73.216 216.672 73.3487 216.536 73.512C216.401 73.679 216.257 73.8815 216.101 74.1247V78.7251C216.101 78.7788 216.085 78.8267 216.05 78.8687C216.019 78.9116 215.962 78.945 215.881 78.9733C215.802 78.9988 215.694 79.0213 215.564 79.0357C215.431 79.0495 215.262 79.0553 215.058 79.0553C214.854 79.0553 214.685 79.0495 214.552 79.0357C214.422 79.0213 214.315 78.9988 214.235 78.9733C214.153 78.945 214.096 78.9116 214.066 78.8687C214.032 78.8267 214.015 78.7788 214.015 78.7251V71.3461C214.015 71.2925 214.029 71.2445 214.057 71.2016C214.083 71.1596 214.134 71.1256 214.204 71.0979C214.278 71.0725 214.368 71.0501 214.481 71.0355C214.594 71.0216 214.739 71.0159 214.908 71.0159C215.087 71.0159 215.231 71.0216 215.346 71.0355C215.463 71.0501 215.553 71.0725 215.618 71.0979C215.68 71.1256 215.725 71.1596 215.754 71.2016C215.782 71.2445 215.796 71.2925 215.796 71.3461V72.2658C215.988 71.9893 216.172 71.7636 216.341 71.5857C216.514 71.4078 216.678 71.2641 216.831 71.1596C216.986 71.0551 217.142 70.9819 217.297 70.9427C217.45 70.9004 217.605 70.8802 217.761 70.8802C217.831 70.8802 217.911 70.8831 217.993 70.8918C218.074 70.9004 218.162 70.9143 218.25 70.9338C218.338 70.9534 218.417 70.9759 218.482 70.9992C218.549 71.0245 218.597 71.0501 218.629 71.0776C218.657 71.106 218.68 71.1371 218.694 71.1684C218.708 71.2016 218.72 71.2474 218.731 71.3062C218.742 71.3629 218.75 71.4499 218.756 71.5661C218.762 71.6816 218.765 71.8368 218.765 72.0343V72.0343ZM227.883 78.7504C227.883 78.8266 227.855 78.8862 227.801 78.9312C227.744 78.9763 227.657 79.0074 227.538 79.027C227.419 79.0466 227.244 79.0553 227.01 79.0553C226.761 79.0553 226.58 79.0466 226.467 79.027C226.353 79.0074 226.271 78.9763 226.226 78.9312C226.178 78.8862 226.155 78.8266 226.155 78.7504V78.1641C225.85 78.4885 225.505 78.7396 225.115 78.9196C224.728 79.1004 224.295 79.1903 223.82 79.1903C223.43 79.1903 223.068 79.1402 222.74 79.0386C222.412 78.9369 222.13 78.7846 221.889 78.5842C221.649 78.381 221.462 78.1328 221.329 77.8367C221.197 77.5376 221.131 77.1906 221.131 76.7958C221.131 76.364 221.216 75.9916 221.383 75.6758C221.552 75.3571 221.804 75.0974 222.138 74.8891C222.471 74.683 222.885 74.5304 223.382 74.4317C223.877 74.3329 224.454 74.2822 225.109 74.2822H225.83V73.8365C225.83 73.6058 225.808 73.4025 225.76 73.2275C225.714 73.0556 225.635 72.909 225.528 72.7927C225.421 72.6773 225.279 72.5924 225.098 72.5365C224.92 72.4829 224.697 72.4544 224.433 72.4544C224.086 72.4544 223.775 72.4938 223.504 72.5699C223.229 72.6462 222.989 72.7339 222.78 72.8269C222.57 72.9197 222.395 73.0075 222.254 73.0838C222.113 73.1601 221.999 73.1993 221.912 73.1993C221.849 73.1993 221.795 73.1797 221.75 73.1426C221.702 73.1034 221.663 73.0469 221.635 72.9764C221.603 72.9061 221.581 72.8152 221.564 72.7115C221.547 72.607 221.539 72.4907 221.539 72.3666C221.539 72.1947 221.552 72.0596 221.581 71.9609C221.606 71.8621 221.66 71.7743 221.737 71.6931C221.816 71.6139 221.948 71.5261 222.143 71.4303C222.336 71.3346 222.562 71.2445 222.822 71.1625C223.082 71.0776 223.365 71.0101 223.67 70.9592C223.979 70.9056 224.295 70.8802 224.62 70.8802C225.2 70.8802 225.695 70.9367 226.107 71.0501C226.518 71.1625 226.857 71.3375 227.119 71.5718C227.386 71.8056 227.581 72.1077 227.702 72.4771C227.824 72.8437 227.883 73.2842 227.883 73.7887V78.7504V78.7504ZM225.83 75.5859H225.036C224.7 75.5859 224.414 75.6112 224.177 75.6591C223.939 75.71 223.747 75.7832 223.597 75.8848C223.447 75.9835 223.339 76.1019 223.272 76.2427C223.201 76.3843 223.167 76.5447 223.167 76.7253C223.167 77.0354 223.266 77.2784 223.461 77.4534C223.656 77.6306 223.928 77.7184 224.276 77.7184C224.567 77.7184 224.835 77.645 225.081 77.4955C225.327 77.3461 225.576 77.129 225.83 76.8408V75.5859V75.5859ZM236.1 78C236.1 78.2432 236.085 78.429 236.055 78.5589C236.023 78.6887 235.983 78.7788 235.932 78.8296C235.884 78.8833 235.811 78.9312 235.715 78.9704C235.616 79.0132 235.503 79.0495 235.373 79.0778C235.246 79.1091 235.105 79.1316 234.952 79.1483C234.799 79.1657 234.646 79.1736 234.49 79.1736C234.078 79.1736 233.719 79.12 233.414 79.0161C233.111 78.9116 232.859 78.7504 232.659 78.5335C232.461 78.3164 232.314 78.0428 232.221 77.7097C232.127 77.3793 232.079 76.9874 232.079 76.5359V72.7593H231.182C231.078 72.7593 230.996 72.694 230.942 72.5649C230.886 72.4348 230.857 72.2172 230.857 71.9131C230.857 71.7519 230.863 71.6168 230.878 71.5065C230.891 71.397 230.914 71.3092 230.942 71.2445C230.968 71.1821 231.005 71.1371 231.047 71.1088C231.087 71.0804 231.137 71.0668 231.191 71.0668H232.079V69.4161C232.079 69.3631 232.093 69.3124 232.125 69.2667C232.155 69.2246 232.212 69.1883 232.291 69.157C232.37 69.1259 232.48 69.1034 232.616 69.0895C232.752 69.0749 232.919 69.0692 233.12 69.0692C233.323 69.0692 233.493 69.0749 233.628 69.0895C233.764 69.1034 233.871 69.1259 233.951 69.157C234.027 69.1883 234.084 69.2246 234.115 69.2667C234.148 69.3124 234.166 69.3631 234.166 69.4161V71.0668H235.769C235.825 71.0668 235.873 71.0804 235.913 71.1088C235.956 71.1371 235.989 71.1821 236.017 71.2445C236.046 71.3092 236.066 71.397 236.08 71.5065C236.094 71.6168 236.1 71.7519 236.1 71.9131C236.1 72.2172 236.071 72.4348 236.017 72.5649C235.961 72.694 235.882 72.7593 235.777 72.7593H234.166V76.2231C234.166 76.6268 234.228 76.9286 234.355 77.129C234.482 77.3293 234.709 77.4302 235.034 77.4302C235.144 77.4302 235.243 77.4221 235.331 77.4025C235.418 77.3823 235.497 77.3597 235.565 77.3343C235.636 77.3118 235.692 77.2894 235.74 77.2698C235.785 77.2502 235.831 77.2415 235.868 77.2415C235.902 77.2415 235.932 77.2502 235.964 77.2698C235.992 77.2894 236.017 77.3265 236.034 77.3852C236.049 77.4417 236.066 77.5209 236.08 77.6196C236.094 77.7212 236.1 77.8454 236.1 78ZM246.818 74.9623C246.818 75.5888 246.736 76.1614 246.569 76.6803C246.402 77.1964 246.153 77.6421 245.814 78.0175C245.478 78.3927 245.056 78.6801 244.547 78.8862C244.038 79.0895 243.445 79.1903 242.766 79.1903C242.107 79.1903 241.536 79.1004 241.05 78.9174C240.564 78.7368 240.159 78.4711 239.84 78.1241C239.52 77.7771 239.283 77.3518 239.128 76.8436C238.972 76.3386 238.896 75.7607 238.896 75.1089C238.896 74.4826 238.981 73.907 239.147 73.3879C239.317 72.8661 239.568 72.4204 239.907 72.0481C240.244 71.6787 240.665 71.3911 241.172 71.1849C241.674 70.9819 242.269 70.8802 242.947 70.8802C243.612 70.8802 244.185 70.9709 244.672 71.1488C245.158 71.3288 245.559 71.5914 245.876 71.9384C246.196 72.2854 246.43 72.7115 246.586 73.2188C246.741 73.7241 246.818 74.3047 246.818 74.9623V74.9623ZM244.681 75.0443C244.681 74.6799 244.652 74.3446 244.593 74.0398C244.533 73.732 244.437 73.4671 244.296 73.2413C244.157 73.0156 243.973 72.8377 243.744 72.7115C243.513 72.5845 243.224 72.5221 242.873 72.5221C242.563 72.5221 242.291 72.5787 242.056 72.6911C241.824 72.8045 241.632 72.9707 241.482 73.1875C241.333 73.4054 241.22 73.6674 241.146 73.9723C241.07 74.2793 241.033 74.6263 241.033 75.019C241.033 75.3826 241.064 75.7179 241.124 76.0228C241.186 76.3305 241.285 76.5954 241.421 76.8212C241.556 77.0469 241.74 77.2219 241.974 77.346C242.206 77.4701 242.494 77.5318 242.84 77.5318C243.157 77.5318 243.431 77.4759 243.665 77.3628C243.897 77.2502 244.089 77.0861 244.239 76.8721C244.389 76.655 244.499 76.3951 244.573 76.0902C244.643 75.7832 244.681 75.4362 244.681 75.0443V75.0443ZM255.141 72.0343C255.141 72.2318 255.135 72.3951 255.124 72.5221C255.113 72.649 255.096 72.7478 255.076 72.8181C255.053 72.8886 255.023 72.9393 254.989 72.9677C254.951 72.996 254.906 73.0075 254.849 73.0075C254.807 73.0075 254.756 72.9989 254.7 72.9793C254.647 72.9597 254.584 72.9393 254.513 72.9169C254.446 72.8944 254.369 72.8748 254.287 72.8552C254.202 72.8356 254.112 72.8269 254.013 72.8269C253.897 72.8269 253.781 72.8494 253.665 72.8972C253.55 72.9453 253.428 73.0156 253.304 73.1172C253.179 73.216 253.049 73.3487 252.913 73.512C252.778 73.679 252.634 73.8815 252.478 74.1247V78.7251C252.478 78.7788 252.461 78.8267 252.427 78.8687C252.396 78.9116 252.339 78.945 252.258 78.9733C252.178 78.9988 252.071 79.0213 251.94 79.0357C251.808 79.0495 251.638 79.0553 251.435 79.0553C251.231 79.0553 251.061 79.0495 250.928 79.0357C250.798 79.0213 250.691 78.9988 250.612 78.9733C250.53 78.945 250.473 78.9116 250.442 78.8687C250.408 78.8267 250.391 78.7788 250.391 78.7251V71.3461C250.391 71.2925 250.405 71.2445 250.434 71.2016C250.459 71.1596 250.51 71.1256 250.581 71.0979C250.654 71.0725 250.745 71.0501 250.858 71.0355C250.971 71.0216 251.115 71.0159 251.285 71.0159C251.463 71.0159 251.607 71.0216 251.723 71.0355C251.839 71.0501 251.929 71.0725 251.994 71.0979C252.057 71.1256 252.102 71.1596 252.13 71.2016C252.159 71.2445 252.172 71.2925 252.172 71.3461V72.2658C252.364 71.9893 252.548 71.7636 252.718 71.5857C252.89 71.4078 253.055 71.2641 253.208 71.1596C253.363 71.0551 253.518 70.9819 253.674 70.9427C253.827 70.9004 253.982 70.8802 254.137 70.8802C254.208 70.8802 254.287 70.8831 254.369 70.8918C254.451 70.9004 254.539 70.9143 254.626 70.9338C254.714 70.9534 254.793 70.9759 254.858 70.9992C254.926 71.0245 254.974 71.0501 255.005 71.0776C255.034 71.106 255.056 71.1371 255.071 71.1684C255.085 71.2016 255.096 71.2474 255.107 71.3062C255.119 71.3629 255.127 71.4499 255.133 71.5661C255.138 71.6816 255.141 71.8368 255.141 72.0343V72.0343ZM126.794 34.8928C128.32 35.1222 129.596 35.4409 130.622 35.8488C131.649 36.2567 132.47 36.7728 133.085 37.3978C133.702 38.022 134.142 38.7616 134.406 39.6152C134.67 40.4695 134.802 41.4574 134.802 42.5788V43.1522C134.802 44.5291 134.596 45.7087 134.185 46.69C133.775 47.6713 133.085 48.4872 132.118 49.1375C131.15 49.7872 129.873 50.2654 128.29 50.5711C126.706 50.8773 124.756 51.0298 122.439 51.0298C121.764 51.0298 121.061 51.0298 120.327 51.0298C119.594 51.0298 118.78 51.0298 117.885 51.0298C116.991 51.0298 115.979 51.0241 114.85 51.011C113.72 50.998 112.437 50.979 111 50.9536L112.1 45.8291C114.417 45.8806 116.389 45.9062 118.017 45.9062C119.645 45.9062 121.148 45.9062 122.526 45.9062C123.495 45.9062 124.293 45.861 124.924 45.7719C125.554 45.6825 126.053 45.536 126.421 45.3319C126.787 45.1279 127.036 44.8543 127.168 44.5103C127.3 44.1662 127.366 43.7264 127.366 43.1906C127.366 42.7065 127.329 42.2986 127.257 41.9669C127.183 41.6358 127.022 41.3615 126.772 41.1452C126.523 40.9283 126.186 40.7496 125.76 40.6096C125.335 40.4695 124.771 40.3483 124.067 40.2459L119.447 39.558C117.746 39.303 116.353 38.978 115.268 38.583C114.183 38.1874 113.324 37.6844 112.693 37.0726C112.063 36.4607 111.631 35.7341 111.396 34.8928C111.161 34.0516 111.044 33.0695 111.044 31.9481V31.3362C111.044 30.1125 111.249 29.0295 111.66 28.0858C112.071 27.1424 112.745 26.3395 113.684 25.6767C114.621 25.0141 115.847 24.5104 117.358 24.1663C118.867 23.8223 120.708 23.6503 122.879 23.6503C123.671 23.6503 124.448 23.6503 125.211 23.6503C125.973 23.6503 126.787 23.6503 127.652 23.6503C128.518 23.6503 129.456 23.6561 130.467 23.6691C131.48 23.6822 132.631 23.701 133.921 23.7264L132.821 28.8509C130.533 28.7994 128.591 28.774 126.992 28.774C125.394 28.774 123.979 28.774 122.746 28.774C121.867 28.774 121.134 28.819 120.547 28.9083C119.961 28.9976 119.505 29.1377 119.183 29.3286C118.861 29.5202 118.633 29.7815 118.501 30.1125C118.369 30.4442 118.303 30.8521 118.303 31.3362C118.303 31.7696 118.34 32.1391 118.413 32.4453C118.487 32.751 118.633 33.0065 118.853 33.2103C119.073 33.4143 119.388 33.5863 119.799 33.7265C120.209 33.8666 120.752 33.9878 121.427 34.0894L126.794 34.8928V34.8928ZM165.318 51.6418C162.104 51.6418 159.429 51.4001 157.292 50.9152C155.155 50.431 153.446 49.6856 152.163 48.678C150.881 47.6713 149.975 46.3903 149.445 44.8355C148.915 43.28 148.65 41.432 148.65 39.2899V35.3132C148.65 33.2481 148.906 31.4444 149.419 29.9019C149.932 28.3602 150.83 27.0792 152.112 26.0594C153.394 25.0395 155.103 24.2745 157.241 23.765C159.377 23.2547 162.07 23 165.318 23C168.533 23 171.199 23.2423 173.319 23.7264C175.438 24.2107 177.14 24.9569 178.423 25.9635C179.704 26.9702 180.611 28.2449 181.141 29.7872C181.67 31.3297 181.936 33.1719 181.936 35.3132V39.2899C181.936 41.3805 181.679 43.1972 181.166 44.7396C180.654 46.2821 179.764 47.5632 178.499 48.5829C177.234 49.6021 175.533 50.3671 173.396 50.8773C171.26 51.387 168.567 51.6418 165.318 51.6418V51.6418ZM165.318 46.3647C166.926 46.3647 168.233 46.2756 169.242 46.0969C170.25 45.9185 171.045 45.5678 171.626 45.0453C172.208 44.5226 172.61 43.796 172.832 42.8656C173.054 41.935 173.166 40.7177 173.166 39.2139V35.4279C173.166 33.9492 173.054 32.7385 172.832 31.795C172.61 30.8521 172.208 30.1255 171.626 29.6153C171.045 29.1058 170.25 28.7552 169.242 28.5642C168.233 28.3727 166.926 28.2768 165.318 28.2768C163.711 28.2768 162.395 28.3661 161.369 28.5446C160.343 28.7233 159.54 29.0737 158.958 29.5964C158.377 30.119 157.975 30.8456 157.754 31.7762C157.532 32.7066 157.42 33.9238 157.42 35.4279V39.2139C157.42 40.6924 157.532 41.8973 157.754 42.8277C157.975 43.7583 158.377 44.4849 158.958 45.0075C159.54 45.53 160.343 45.8866 161.369 46.0781C162.395 46.2691 163.711 46.3647 165.318 46.3647ZM204.042 23.7264V45.6382H219.734L218.469 50.9536H196.312V23.7264H204.042ZM253.179 44.376H241.188L238.565 50.9536H230.789L242.828 23.7264H251.914L264 50.9536H255.896L253.179 44.376ZM243.061 39.4433H251.305L247.137 29.3096L243.061 39.4433V39.4433ZM145.787 78.7251C145.787 78.7788 145.77 78.8267 145.736 78.8687C145.705 78.9116 145.648 78.945 145.566 78.9733C145.487 78.9988 145.379 79.0213 145.249 79.0357C145.117 79.0495 144.947 79.0553 144.744 79.0553C144.54 79.0553 144.37 79.0495 144.237 79.0357C144.107 79.0213 144 78.9988 143.921 78.9733C143.839 78.945 143.782 78.9116 143.751 78.8687C143.717 78.8267 143.7 78.7788 143.7 78.7251V71.3628C143.7 71.3092 143.717 71.2612 143.751 71.2191C143.782 71.1763 143.839 71.14 143.921 71.1117C144 71.0804 144.107 71.0579 144.237 71.0412C144.37 71.0245 144.54 71.0159 144.744 71.0159C144.947 71.0159 145.117 71.0245 145.249 71.0412C145.379 71.0579 145.487 71.0804 145.566 71.1117C145.648 71.14 145.705 71.1763 145.736 71.2191C145.77 71.2612 145.787 71.3092 145.787 71.3628V78.7251ZM145.956 68.8413C145.956 69.2615 145.871 69.5489 145.699 69.7101C145.527 69.8705 145.21 69.9496 144.744 69.9496C144.274 69.9496 143.954 69.8734 143.794 69.7182C143.63 69.5627 143.548 69.284 143.548 68.8834C143.548 68.4631 143.632 68.172 143.802 68.0087C143.969 67.8483 144.288 67.7663 144.76 67.7663C145.224 67.7663 145.541 67.8454 145.707 68.0029C145.874 68.1582 145.956 68.4377 145.956 68.8413V68.8413ZM153.448 74.8411C153.448 75.1627 153.418 75.3855 153.358 75.5125C153.296 75.6395 153.199 75.7041 153.067 75.7041H149.615C149.476 75.7041 149.377 75.6395 149.315 75.5096C149.256 75.3797 149.224 75.1569 149.224 74.8411C149.224 74.5304 149.256 74.3133 149.315 74.1864C149.377 74.0594 149.476 73.9948 149.615 73.9948H153.067C153.135 73.9948 153.191 74.0086 153.237 74.0369C153.284 74.0651 153.324 74.1103 153.358 74.1777C153.389 74.243 153.415 74.3329 153.429 74.4434C153.443 74.5529 153.448 74.6859 153.448 74.8411V74.8411ZM163.036 69.199C163.036 69.3654 163.03 69.5039 163.016 69.6165C163.002 69.7297 162.979 69.8198 162.948 69.8872C162.917 69.9525 162.883 70.0034 162.846 70.0338C162.807 70.068 162.762 70.0847 162.714 70.0847H159.202V72.9618H162.496C162.546 72.9618 162.592 72.9764 162.628 73.0046C162.669 73.0302 162.702 73.078 162.733 73.1426C162.765 73.2102 162.784 73.298 162.798 73.4083C162.813 73.518 162.821 73.6565 162.821 73.8227C162.821 73.9859 162.813 74.1247 162.798 74.2344C162.784 74.3447 162.765 74.4345 162.733 74.5079C162.702 74.5782 162.669 74.6292 162.628 74.6603C162.592 74.6916 162.546 74.7054 162.496 74.7054H159.202V78.6916C159.202 78.7504 159.185 78.8042 159.151 78.8491C159.12 78.892 159.061 78.9283 158.973 78.9596C158.889 78.9907 158.775 79.0132 158.64 79.0299C158.501 79.0466 158.322 79.0553 158.108 79.0553C157.898 79.0553 157.723 79.0466 157.582 79.0299C157.441 79.0132 157.327 78.9907 157.246 78.9596C157.164 78.9312 157.104 78.892 157.068 78.8491C157.03 78.8042 157.014 78.7504 157.014 78.6916V68.9929C157.014 68.7505 157.075 68.5756 157.2 68.4688C157.324 68.3614 157.477 68.3078 157.661 68.3078H162.714C162.762 68.3078 162.807 68.3217 162.846 68.3528C162.883 68.3839 162.917 68.4319 162.948 68.5023C162.979 68.5699 163.002 68.6634 163.016 68.7789C163.03 68.8942 163.036 69.0357 163.036 69.199V69.199ZM168.685 78.7251C168.685 78.7788 168.668 78.8267 168.634 78.8687C168.603 78.9116 168.546 78.945 168.465 78.9733C168.385 78.9988 168.278 79.0213 168.147 79.0357C168.015 79.0495 167.846 79.0553 167.642 79.0553C167.438 79.0553 167.269 79.0495 167.135 79.0357C167.005 79.0213 166.898 78.9988 166.819 78.9733C166.737 78.945 166.68 78.9116 166.649 78.8687C166.615 78.8267 166.599 78.7788 166.599 78.7251V71.3628C166.599 71.3092 166.615 71.2612 166.649 71.2191C166.68 71.1763 166.737 71.14 166.819 71.1117C166.898 71.0804 167.005 71.0579 167.135 71.0412C167.269 71.0245 167.438 71.0159 167.642 71.0159C167.846 71.0159 168.015 71.0245 168.147 71.0412C168.278 71.0579 168.385 71.0804 168.465 71.1117C168.546 71.14 168.603 71.1763 168.634 71.2191C168.668 71.2612 168.685 71.3092 168.685 71.3628V78.7251ZM168.855 68.8413C168.855 69.2615 168.769 69.5489 168.597 69.7101C168.425 69.8705 168.108 69.9496 167.642 69.9496C167.173 69.9496 166.852 69.8734 166.692 69.7182C166.528 69.5627 166.446 69.284 166.446 68.8834C166.446 68.4631 166.53 68.172 166.7 68.0087C166.867 67.8483 167.186 67.7663 167.659 67.7663C168.122 67.7663 168.439 67.8454 168.606 68.0029C168.772 68.1582 168.855 68.4377 168.855 68.8413V68.8413Z" fill="#2B2A29"/>
<path fill-rule="evenodd" clip-rule="evenodd" d="M78.1798 13.2901C77.8673 8.6705 77.0002 4.2206 75.6476 0L51.1865 32.5003L45.1044 40.5818C45.1006 41.7244 45.0364 42.8299 44.9506 43.8058L76.3549 31.7265C77.9501 25.8809 78.6116 19.6745 78.1798 13.2901V13.2901Z" fill="#A0FF61"/>
<path fill-rule="evenodd" clip-rule="evenodd" d="M76.3549 31.7265L44.9506 43.8058C44.767 45.894 44.4848 47.3898 44.4848 47.3898C48.7753 51.8763 54.4078 55.0738 60.74 56.3414C61.125 56.4185 61.5127 56.4884 61.9026 56.5511C63.5151 56.8103 65.1692 56.9448 66.855 56.9448C68.1049 56.9448 69.3377 56.8707 70.5486 56.7268C73.2413 55.8812 75.7753 54.6779 78.094 53.173C82.8659 49.0204 86.9044 44.0884 90.0297 38.604C92.5682 34.1491 94.5046 29.3304 95.7427 24.2691L92.1277 25.6599L76.3549 31.7265V31.7265Z" fill="url(#paint0_linear_2_3)"/>
<path fill-rule="evenodd" clip-rule="evenodd" d="M60.74 56.3414C54.4078 55.0738 48.7753 51.8763 44.4848 47.3898L44.4262 48.8428C48.7874 53.2509 54.4698 56.355 60.8322 57.5157C60.8065 56.7638 60.74 56.3414 60.74 56.3414V56.3414Z" fill="#48D309"/>
<path fill-rule="evenodd" clip-rule="evenodd" d="M41.2824 76.5218C33.6444 77.8503 29.5073 72.0583 28.7286 70.8368C28.6383 70.6947 28.593 70.6146 28.593 70.6146C28.5642 70.7465 28.5336 70.8769 28.5015 71.0057C27.3465 75.6317 24.0742 78.4476 21.5682 79.9845C19.8056 81.0655 18.4221 81.5136 18.4221 81.5136C22.8452 84.9831 29.9954 85.1554 29.9954 85.1554C34.9411 83.8175 38.8862 80.6212 41.2824 76.5218Z" fill="#A0FF61"/>
<path fill-rule="evenodd" clip-rule="evenodd" d="M21.5682 79.9845C24.0742 78.448 27.3465 75.6317 28.5015 71.0057C28.3655 71.1039 28.2284 71.1984 28.0901 71.2891C26.102 73.7955 23.5045 75.2331 21.4269 76.0413C19.4078 76.8267 17.8799 77.0179 17.8799 77.0179C18.9234 78.2152 20.2303 79.1949 21.5682 79.9845V79.9845Z" fill="#C3FF9B"/>
<path fill-rule="evenodd" clip-rule="evenodd" d="M21.4269 76.0413C23.5045 75.2331 26.102 73.7955 28.0901 71.2891C24.1336 73.8873 19.2219 73.5885 19.2219 73.5885C19.2219 73.5885 19.0972 74.3343 21.4269 76.0413V76.0413Z" fill="#DBFFC3"/>
<path fill-rule="evenodd" clip-rule="evenodd" d="M28.7286 70.8368C29.5069 72.0579 33.644 77.8503 41.2824 76.5218L41.3492 76.4058C34.6052 76.3314 31.4519 71.4719 30.3706 69.2768C29.8666 69.8756 29.3123 70.3917 28.7286 70.8368V70.8368Z" fill="#C3FF9B"/>
<path fill-rule="evenodd" clip-rule="evenodd" d="M30.3706 69.2768C31.4519 71.4719 34.6052 76.3314 41.3492 76.4058C41.5008 76.1421 41.6466 75.875 41.7852 75.6041C33.5654 72.7939 32.3001 65.7793 32.3001 65.7793C31.8365 67.1803 31.1663 68.3311 30.3706 69.2768Z" fill="#DBFFC3"/>
<path fill-rule="evenodd" clip-rule="evenodd" d="M28.7286 70.8368C29.3123 70.3917 29.8666 69.8756 30.3706 69.2768C30.3158 69.1657 30.2663 69.0611 30.2217 68.9647C30.0105 68.5041 29.9153 68.2212 29.9153 68.2212C29.5383 69.1026 29.0902 69.8972 28.593 70.6146C28.593 70.6146 28.6379 70.6947 28.7286 70.8368V70.8368Z" fill="#C3FF9B"/>
<path fill-rule="evenodd" clip-rule="evenodd" d="M36.4848 31.892C39.8289 31.3937 43.691 32.7727 45.1044 40.5818C45.1123 38.0724 44.829 35.3827 43.8413 33.4898C42.0822 30.1178 39.1137 25.5635 36.059 23.3934C35.9627 23.325 35.8663 23.2589 35.77 23.1954C32.894 21.2999 27.9873 22.2444 24.7725 22.7934C24.3765 22.861 24.0361 22.9279 23.7452 22.994C25.4367 22.9725 26.5626 22.9762 26.5626 22.9762C26.5626 22.9762 28.6258 23.3665 30.4813 24.3655C32.588 25.4997 34.4272 27.419 32.6753 30.4427C31.9786 31.6453 31.4708 32.914 31.1259 34.2292C31.7833 33.6916 33.6773 32.4791 35.8901 32.0008C36.0862 31.9585 36.2846 31.9219 36.4848 31.892V31.892Z" fill="#A0FF61"/>
<path fill-rule="evenodd" clip-rule="evenodd" d="M45.1044 40.5818C45.1123 38.0724 44.829 35.3827 43.8413 33.4898C42.0822 30.1182 39.1137 25.5635 36.059 23.3934C35.9627 23.325 35.8663 23.2589 35.77 23.1954C32.894 21.2999 27.9873 22.2444 24.7725 22.7934C24.3765 22.861 24.0361 22.9279 23.7452 22.994C20.5084 23.0356 15.2016 23.1697 11.7547 23.6008C11.7547 23.6008 21.5954 20.5397 26.5312 20.2896C26.5312 20.2896 28.8283 16.7649 32.571 15.7852C33.5292 15.5343 34.5821 15.4501 35.7156 15.6348C36.3976 15.7459 37.021 15.8808 37.593 16.038C37.6028 16.0406 37.6126 16.0433 37.6224 16.0459C41.6923 17.1718 43.1348 19.4138 44.3378 22.0389C44.3378 22.0389 49.365 25.7555 51.1865 32.5003C53.008 39.2451 52.6313 40.8516 52.6313 40.8516L44.9506 43.8058C45.0364 42.8299 45.1006 41.7244 45.1044 40.5818V40.5818Z" fill="#83F91B"/>
<path fill-rule="evenodd" clip-rule="evenodd" d="M43.7114 66.8531L43.7042 68.6866L43.7012 69.417C42.7729 76.7285 37.5514 83.1114 29.9954 85.1554C38.7922 85.1554 42.9909 82.7562 42.9909 82.7562C54.4603 76.9367 58.6348 69.2575 60.0966 63.6798C60.6973 61.3868 60.8398 59.4493 60.842 58.1417C60.8424 57.9426 60.8398 57.7582 60.8349 57.5893C60.8341 57.5644 60.8334 57.5399 60.8322 57.5157C54.4698 56.355 48.7874 53.2509 44.4262 48.8428L44.2558 53.0657L43.7129 66.5164L43.7114 66.8531V66.8531Z" fill="#76E216"/>
<path fill-rule="evenodd" clip-rule="evenodd" d="M21.0725 60.6127C21.0861 60.6247 21.0997 60.6368 21.1133 60.6489C21.1159 60.6516 21.1186 60.6538 21.1212 60.6565C21.4367 60.9153 21.9033 60.8722 22.1666 60.5594C22.4251 60.253 22.3948 59.7992 22.1039 59.5298C22.0945 59.5215 22.0854 59.5132 22.076 59.5053C19.7705 57.4431 18.3197 54.4459 18.3197 51.1094C18.3197 47.7895 19.7562 44.8055 22.0412 42.7449C22.0476 42.7388 22.054 42.7331 22.0605 42.7271C22.0733 42.7158 22.0858 42.7044 22.0986 42.6931C22.3759 42.4184 22.396 41.9715 22.136 41.6726C21.8659 41.3601 21.3936 41.3269 21.0812 41.5978C21.0744 41.6038 21.0676 41.6103 21.0608 41.6163C18.4606 43.9512 16.825 47.3391 16.825 51.1094C16.825 54.8849 18.4655 58.2774 21.0725 60.6127V60.6127ZM8.8119 72.3915C8.816 72.3957 8.8202 72.3998 8.824 72.404C8.8289 72.4085 8.8334 72.4134 8.8383 72.4184C9.1285 72.6991 9.5925 72.6976 9.8815 72.4131C10.1664 72.1335 10.1796 71.6816 9.9189 71.3858C9.9091 71.3759 9.8992 71.3661 9.8894 71.3559C9.8788 71.3457 9.8686 71.3351 9.8584 71.3246C4.6853 66.0608 1.4943 58.8429 1.4943 50.8797C1.4943 42.7724 4.8017 35.4378 10.1407 30.1514C10.1539 30.1386 10.1667 30.1257 10.18 30.1125C10.4543 29.8374 10.4735 29.3927 10.2143 29.095C9.9442 28.7826 9.4719 28.7493 9.1595 29.0202C9.1357 29.0436 9.1119 29.0671 9.0881 29.0909C3.4763 34.6478 0 42.3576 0 50.8797C0 59.2608 3.3626 66.8569 8.8119 72.3915V72.3915ZM15.8741 36.2486C16.1865 35.9781 16.2201 35.5051 15.9489 35.1934C15.6787 34.8809 15.2065 34.8477 14.894 35.1186C14.8679 35.1446 14.8419 35.1707 14.8158 35.1972C10.8294 39.2251 8.3679 44.7647 8.3679 50.8797C8.3679 57.003 10.837 62.5497 14.8358 66.5761C14.8642 66.6101 14.8955 66.6419 14.9303 66.6714C15.2458 66.9381 15.7184 66.8969 15.984 66.5814C16.2213 66.3 16.2152 65.8942 15.987 65.621C15.9557 65.59 15.9243 65.5587 15.8933 65.5273C12.165 61.768 9.8618 56.593 9.8618 50.88C9.8618 45.1757 12.1575 40.0079 15.8741 36.2486V36.2486Z" fill="#83F91A"/>
<path fill-rule="evenodd" clip-rule="evenodd" d="M32.6753 49.892C35.0423 56.4816 40.3484 59.707 40.3484 59.707C40.3484 59.707 42.3202 63.4841 43.7609 65.3267L44.2558 53.0657L44.4262 48.8432L44.4848 47.3898C44.4848 47.3898 44.767 45.894 44.9506 43.8058C45.0364 42.8299 45.1006 41.7244 45.1044 40.5818C43.691 32.7727 39.8289 31.3937 36.4848 31.892C36.2846 31.9219 36.0862 31.9585 35.8901 32.0008C33.6776 32.4791 31.7833 33.6916 31.1255 34.2296C29.9361 38.7592 30.6725 43.8443 32.2608 48.6868C32.3934 49.0903 32.5317 49.4923 32.6753 49.892V49.892Z" fill="#BEFC89"/>
<defs>
<linearGradient id="paint0_linear_2_3" x1="44.4848" y1="40.6068" x2="95.7427" y2="40.6068" gradientUnits="userSpaceOnUse">
<stop stop-color="#A1FA75"/>
<stop offset="1" stop-color="#95F243"/>
</linearGradient>
</defs>
</svg>
