<svg width="252" height="99" viewBox="0 0 252 99" fill="none" xmlns="http://www.w3.org/2000/svg">
<g clip-path="url(#clip0_174_1141)">
<path d="M164.109 69.4407V30.491H190.294V38.4132H172.708V46.3348H188.97V54.2573H172.708V69.4413L164.109 69.4407ZM210.966 69.4407V38.0829H199.831V30.491H230.701V38.0829H219.566V69.4413L210.966 69.4407ZM33.9008 69.2207C31.8425 68.4141 30.1245 67.2953 28.7465 65.8652C27.3679 64.4349 26.3297 62.7476 25.6317 60.8038C24.9337 58.86 24.5846 56.7327 24.5843 54.4223V30.491H33.184V54.092C33.184 55.3023 33.3769 56.4211 33.763 57.4477C34.1488 58.4749 34.6908 59.364 35.3892 60.1159C36.0925 60.8716 36.9471 61.4713 37.8975 61.8766C38.8711 62.2985 39.9277 62.5092 41.0672 62.5088C42.2065 62.5088 43.2537 62.2979 44.2094 61.8766C45.1488 61.4663 45.9931 60.8672 46.6899 60.1159C47.3882 59.364 47.9299 58.4746 48.3164 57.4477C48.7025 56.4211 48.8954 55.3026 48.8954 54.092V30.491H57.4948V54.4223C57.4948 56.7333 57.146 58.86 56.4474 60.8038C55.7487 62.7476 54.7109 64.4349 53.3324 65.8652C51.9546 67.2956 50.2369 68.4141 48.1786 69.2207C46.1199 70.0276 43.7497 70.4313 41.0672 70.4313C38.3475 70.4313 35.9588 70.0279 33.9008 69.2207ZM75.5208 69.2757C73.3528 68.5056 71.3317 67.2587 69.4569 65.5349L75.5759 58.8234C76.4486 59.9891 77.5935 60.9238 78.9113 61.5463C80.2528 62.1879 81.6401 62.5088 83.073 62.5088C83.788 62.5073 84.4998 62.4242 85.1956 62.2613C85.8723 62.1116 86.5227 61.8613 87.1252 61.5188C87.6748 61.2072 88.1461 60.7741 88.5031 60.2535C88.8522 59.7403 89.0273 59.135 89.0267 58.4384C89.0267 57.2646 88.5767 56.3383 87.6764 55.6598C86.7757 54.9811 85.6459 54.4035 84.2856 53.927C82.9262 53.4501 81.4559 52.9735 79.8758 52.4963C78.3326 52.036 76.852 51.3897 75.4657 50.5712C74.1132 49.7709 72.9551 48.6808 72.0752 47.3805C71.1752 46.0598 70.7249 44.3178 70.7249 42.1543C70.7249 40.0633 71.1382 38.2295 71.9656 36.6526C72.7654 35.1075 73.8946 33.7553 75.2731 32.6915C76.6509 31.6277 78.2402 30.8301 80.0414 30.2985C81.8489 29.7655 83.7241 29.4968 85.6093 29.5005C87.7753 29.4951 89.9304 29.8101 92.0038 30.4359C94.0618 31.0593 95.9179 32.1049 97.5716 33.5718L91.6731 40.0083C90.9745 39.1283 90.0284 38.477 88.8344 38.0554C87.6397 37.6332 86.5099 37.4226 85.4439 37.4229C84.7947 37.4254 84.1478 37.4991 83.5146 37.6429C82.8614 37.7867 82.231 38.0179 81.6401 38.3304C81.0714 38.6251 80.5804 39.0492 80.2068 39.5683C79.8394 40.0817 79.6556 40.7052 79.6556 41.439C79.6556 42.6122 80.0965 43.5106 80.9787 44.1344C81.8605 44.7579 82.9725 45.2894 84.3138 45.7298C85.6553 46.1704 87.0977 46.6104 88.6415 47.0498C90.1603 47.4795 91.6155 48.1086 92.9686 48.9205C94.3102 49.7274 95.4219 50.8097 96.304 52.1663C97.1858 53.5232 97.6267 55.3386 97.6271 57.6124C97.6271 59.7762 97.2225 61.6654 96.4142 63.2789C95.6054 64.8927 94.5118 66.2315 93.1337 67.2953C91.7558 68.3588 90.1572 69.1469 88.3377 69.6607C86.5186 70.1741 84.5984 70.4307 82.5776 70.4307C80.0411 70.4313 77.689 70.0463 75.5208 69.2763V69.2757ZM124.942 38.3579C123.453 38.9817 122.176 39.8527 121.11 40.9715C120.045 42.0896 119.227 43.4194 118.658 44.9597C118.088 46.5004 117.803 48.1686 117.803 49.9659C117.803 51.7997 118.088 53.4776 118.658 54.9998C119.227 56.5221 120.044 57.8421 121.11 58.9609C122.176 60.0797 123.453 60.9504 124.942 61.5738C126.43 62.1973 128.093 62.5088 129.931 62.5092C131.768 62.5092 133.431 62.1976 134.92 61.5738C136.408 60.9504 137.685 60.0791 138.751 58.9609C139.817 57.8421 140.635 56.5221 141.204 54.9998C141.773 53.4776 142.058 51.7997 142.058 49.9659C142.058 48.1692 141.774 46.5004 141.204 44.9597C140.634 43.4194 139.816 42.0896 138.751 40.9715C137.685 39.8527 136.408 38.9817 134.92 38.3579C133.431 37.7345 131.768 37.4229 129.931 37.4229C128.093 37.4229 126.43 37.7351 124.941 38.3582L124.942 38.3579ZM121.496 69.0007C118.924 68.0469 116.7 66.6806 114.826 64.9024C112.951 63.1236 111.491 60.9688 110.443 58.4384C109.396 55.9073 108.873 53.0835 108.873 49.9659C108.873 46.8486 109.396 44.0247 110.443 41.494C111.491 38.963 112.952 36.8088 114.826 35.03C116.7 33.2515 118.924 31.8852 121.496 30.9314C124.069 29.9776 126.88 29.5009 129.931 29.5009C132.981 29.5009 135.792 29.9776 138.365 30.9314C140.937 31.8852 143.161 33.2515 145.034 35.03C146.909 36.8088 148.37 38.963 149.418 41.494C150.465 44.0244 150.989 46.8486 150.989 49.9659C150.989 53.0835 150.465 55.9073 149.418 58.4384C148.37 60.9691 146.909 63.1239 145.034 64.9024C143.16 66.6812 140.937 68.0475 138.365 69.0007C135.792 69.9544 132.981 70.4313 129.931 70.4313C126.88 70.4313 124.069 69.9544 121.496 69.0007ZM0.791562 0.00440995L36.9609 0.000244141V7.20591H8.03275L8.02438 91.6796L36.9769 91.684L36.9822 98.8827L0.740234 98.9024L0.791562 0.00440995ZM215.02 98.8827L215.025 91.684L243.978 91.6796L243.97 7.20591H215.041V0.000244141L251.21 0.00440995L251.261 98.9024L215.02 98.8827Z" fill="#291258"/>
</g>
<defs>
<clipPath id="clip0_174_1141">
<rect width="250.521" height="98.91" fill="white" transform="translate(0.740234)"/>
</clipPath>
</defs>
</svg>
