<svg width="51" height="50" viewBox="0 0 51 50" fill="none" xmlns="http://www.w3.org/2000/svg">
<g clip-path="url(#clip0_283_1981)">
<path d="M9.41902 38.6669C8.71902 38.6669 8.04611 38.8416 7.44911 39.1697C4.30428 35.1383 2.57812 30.1304 2.57812 25C2.57812 12.2917 12.9167 1.95312 25.625 1.95312C27.17 1.95312 28.7141 2.10686 30.2148 2.41013C30.7428 2.51694 31.2585 2.17514 31.3654 1.64642C31.4722 1.11771 31.1304 0.602722 30.6017 0.495529C28.9739 0.166702 27.2997 0 25.625 0C18.9474 0 12.6691 2.60048 7.94731 7.32231C3.22548 12.0441 0.625 18.3224 0.625 25C0.625 30.6171 2.53235 36.0989 6.00487 40.4934C5.55779 41.1613 5.31746 41.9464 5.31746 42.7685C5.31746 43.8641 5.74432 44.894 6.51909 45.6684C7.29347 46.4432 8.32344 46.87 9.41902 46.87C10.5146 46.87 11.5446 46.4432 12.3193 45.6684C13.0941 44.894 13.5206 43.8637 13.5206 42.7681C13.5206 41.6729 13.0941 40.6425 12.3193 39.8682C11.5446 39.0934 10.5146 38.6669 9.41902 38.6669ZM10.938 44.2875C10.5325 44.6934 9.99275 44.9169 9.41902 44.9169C8.84529 44.9169 8.30589 44.6934 7.90001 44.2875C7.49413 43.8816 7.27058 43.3422 7.27058 42.7685C7.27058 42.1944 7.49413 41.655 7.90001 41.2491C8.30551 40.8432 8.84529 40.62 9.41902 40.62C9.99275 40.62 10.5322 40.8436 10.938 41.2491C11.3439 41.655 11.5675 42.1944 11.5675 42.7685C11.5675 43.3422 11.3439 43.8816 10.938 44.2875Z" fill="#FECA2E"/>
<path d="M45.244 9.50539C46.3056 7.91275 46.1351 5.73532 44.7309 4.33113C43.9561 3.55675 42.9262 3.12988 41.8306 3.12988C40.735 3.12988 39.705 3.55675 38.9303 4.33113C38.1555 5.1059 37.729 6.13586 37.729 7.23145C37.729 8.32703 38.1555 9.35699 38.9303 10.1318C39.705 10.9065 40.735 11.333 41.8306 11.333C42.5306 11.333 43.2035 11.1583 43.8005 10.8302C46.9453 14.862 48.6715 19.8695 48.6715 24.9999C48.6715 37.7082 38.3329 48.0468 25.6246 48.0468C24.0949 48.0468 22.5652 47.8961 21.0786 47.5986C20.5499 47.4929 20.0353 47.8358 19.9293 48.3646C19.8236 48.8937 20.1666 49.4079 20.6953 49.5139C22.3077 49.8363 23.9664 49.9999 25.6246 49.9999C32.3022 49.9999 38.5805 47.3994 43.3023 42.6776C48.0241 37.9558 50.6246 31.6776 50.6246 24.9999C50.6246 19.3824 48.7169 13.9003 45.244 9.50539ZM40.3116 8.75084C39.9057 8.34496 39.6822 7.80556 39.6822 7.23145C39.6822 6.65771 39.9057 6.11832 40.3116 5.71243C40.7171 5.30655 41.2569 5.08301 41.8306 5.08301C42.4043 5.08301 42.9441 5.30655 43.35 5.71243C44.1873 6.55014 44.1873 7.91313 43.35 8.75084C42.9441 9.15634 42.4043 9.37988 41.8306 9.37988C41.2565 9.37988 40.7171 9.15634 40.3116 8.75084Z" fill="#FECA2E"/>
<path d="M21.5967 41.7969C21.5967 42.3363 22.0342 42.7734 22.5732 42.7734H28.6794C29.2188 42.7734 29.656 42.3363 29.656 41.7969V39.9036C30.94 39.558 32.1676 39.0491 33.3212 38.3846L34.6578 39.7213C34.8409 39.9044 35.0893 40.0074 35.3487 40.0074C35.6073 40.0074 35.856 39.9044 36.0391 39.7209L40.3551 35.4019C40.7362 35.0204 40.7362 34.4021 40.3551 34.021L39.0199 32.6859C39.6844 31.5323 40.1933 30.3047 40.5389 29.0207H42.4249C42.9643 29.0207 43.4015 28.5835 43.4015 28.0441V21.9379C43.4015 21.3985 42.9643 20.9614 42.4249 20.9614H40.5386C40.1929 19.6777 39.6844 18.4502 39.0199 17.2966L40.3478 15.9687C40.5309 15.7856 40.6339 15.5369 40.6339 15.2779C40.6335 15.0188 40.5305 14.7701 40.3474 14.587L36.0281 10.2711C35.647 9.88998 35.0286 9.88998 34.6471 10.2715L33.3212 11.5978C32.1676 10.9333 30.94 10.4244 29.656 10.0788V8.20312C29.656 7.66373 29.2188 7.22656 28.6794 7.22656H22.5732C22.0342 7.22656 21.5967 7.66373 21.5967 8.20312V10.0792C20.313 10.4244 19.0855 10.9333 17.9319 11.5978L16.6055 10.2715C16.2244 9.89037 15.6061 9.88998 15.2246 10.2711L10.9056 14.5874C10.7221 14.7705 10.6191 15.0188 10.6191 15.2779C10.6191 15.5369 10.7221 15.7856 10.9052 15.9687L12.2331 17.2966C11.5686 18.4502 11.0597 19.6774 10.7141 20.9614H8.83156C8.29216 20.9614 7.855 21.3985 7.855 21.9376L7.85156 28.0437C7.85118 28.3028 7.95418 28.5515 8.13728 28.7346C8.32039 28.9177 8.56873 29.0207 8.82813 29.0207H10.7141C11.0597 30.3047 11.5686 31.5323 12.2331 32.6859L10.898 34.021C10.5169 34.4021 10.5165 35.0204 10.898 35.4019L15.2139 39.7209C15.397 39.904 15.6454 40.0074 15.9044 40.0074H15.9048C16.1638 40.0074 16.4121 39.9044 16.5952 39.7213L17.9315 38.3846C19.0855 39.0491 20.313 39.558 21.5967 39.9036V41.7969ZM18.3145 36.3308C17.9281 36.0809 17.4196 36.1351 17.0938 36.4605L15.9048 37.6495L12.9694 34.7118L14.1573 33.5236C14.4827 33.1982 14.5368 32.6897 14.287 32.3032C13.4016 30.933 12.779 29.4312 12.4372 27.8389C12.3403 27.3891 11.9428 27.0676 11.4824 27.0676H9.80507L9.80736 22.9145H11.4824C11.9428 22.9145 12.3403 22.5933 12.4372 22.1432C12.779 20.5513 13.4016 19.0495 14.287 17.6792C14.5368 17.2928 14.4827 16.7843 14.1573 16.4589L12.977 15.2782L15.9147 12.3428L17.0938 13.5223C17.4196 13.8477 17.9277 13.9015 18.3145 13.652C19.6844 12.7666 21.1862 12.1441 22.7785 11.8023C23.2282 11.7054 23.5498 11.3075 23.5498 10.8475V9.17969H27.7029V10.8471C27.7029 11.3075 28.0241 11.7054 28.4742 11.8019C30.0661 12.1441 31.5683 12.7663 32.9382 13.6517C33.3246 13.9015 33.8331 13.8477 34.1585 13.522L35.338 12.3428L38.2757 15.2782L37.0954 16.4585C36.7696 16.7843 36.7159 17.2928 36.9657 17.6792C37.8511 19.0495 38.4733 20.5513 38.8155 22.1432C38.912 22.5933 39.3098 22.9145 39.7703 22.9145H41.4484V27.0676H39.7703C39.3098 27.0676 38.9124 27.3891 38.8155 27.8389C38.4737 29.4308 37.8511 30.933 36.9657 32.3029C36.7159 32.6897 36.77 33.1982 37.0954 33.5236L38.2833 34.7115L35.3479 37.6492L34.1589 36.4605C33.8331 36.1347 33.3246 36.0809 32.9382 36.3308C31.5679 37.2162 30.0661 37.8384 28.4742 38.1805C28.0241 38.2774 27.7029 38.6749 27.7029 39.1354V40.8203H23.5498V39.1354C23.5498 38.6753 23.2282 38.2774 22.7785 38.1805C21.1866 37.8387 19.6848 37.2162 18.3145 36.3308Z" fill="#FECA2E"/>
<path d="M33.6931 24.9999C33.6931 20.5504 30.0734 16.9307 25.6239 16.9307C21.1745 16.9307 17.5547 20.5504 17.5547 24.9999C17.5547 29.4494 21.1745 33.0691 25.6239 33.0691C30.0734 33.0691 33.6931 29.4494 33.6931 24.9999ZM19.5078 24.9999C19.5078 21.6273 22.2513 18.8838 25.6239 18.8838C28.9965 18.8838 31.74 21.6277 31.74 24.9999C31.74 28.3721 28.9965 31.116 25.6239 31.116C22.2513 31.116 19.5078 28.3725 19.5078 24.9999Z" fill="#FECA2E"/>
<path d="M34.6172 3.69341C34.8743 3.69341 35.1261 3.58888 35.3076 3.4073C35.4892 3.22458 35.5938 2.97281 35.5938 2.7157C35.5938 2.46011 35.4896 2.20796 35.3076 2.02524C35.1261 1.84366 34.8743 1.73914 34.6172 1.73914C34.3593 1.73914 34.1087 1.84366 33.9271 2.02524C33.7451 2.20796 33.6406 2.45897 33.6406 2.7157C33.6406 2.97357 33.7451 3.22458 33.9271 3.4073C34.1087 3.58888 34.3593 3.69341 34.6172 3.69341Z" fill="#FECA2E"/>
<path d="M16.6758 46.3242C16.4191 46.3242 16.1669 46.4287 15.9853 46.6103C15.8037 46.7918 15.6992 47.044 15.6992 47.3007C15.6992 47.5586 15.8037 47.8096 15.9853 47.9912C16.1669 48.1728 16.4191 48.2773 16.6758 48.2773C16.9325 48.2773 17.1847 48.1728 17.3662 47.9912C17.5478 47.8096 17.6523 47.5574 17.6523 47.3007C17.6523 47.044 17.5478 46.7918 17.3662 46.6103C17.1847 46.4287 16.9325 46.3242 16.6758 46.3242Z" fill="#FECA2E"/>
</g>
<defs>
<clipPath id="clip0_283_1981">
<rect width="50" height="50" fill="white" transform="translate(0.625)"/>
</clipPath>
</defs>
</svg>
