<svg width="51" height="46" viewBox="0 0 51 46" fill="none" xmlns="http://www.w3.org/2000/svg">
<path d="M10.8252 32.5794V38.0701C10.8252 41.1352 13.3187 43.6288 16.3838 43.6288H21.5009C22.0401 43.6288 22.4774 43.1915 22.4774 42.6522C22.4774 42.113 22.0401 41.6757 21.5009 41.6757H16.3838C14.3958 41.6757 12.7783 40.0583 12.7783 38.0701V31.701V25.3816C12.7783 23.3936 14.3957 21.7761 16.3838 21.7761H21.1055L20.3181 22.5678C19.9377 22.9503 19.9395 23.5686 20.3219 23.949C20.6991 24.3241 21.3278 24.3224 21.703 23.9452L24.1465 21.4883C24.5267 21.1058 24.518 20.4632 24.1267 20.0917L21.6832 17.7701C21.2923 17.3985 20.674 17.4143 20.3026 17.8053C19.9311 18.1963 19.9469 18.8144 20.3379 19.1859L21.0084 19.823H16.3838C13.3187 19.823 10.8252 22.3166 10.8252 25.3816V30.6025C6.12451 29.7883 2.57812 25.6656 2.57812 20.7927C2.57812 15.3024 7.04482 10.8357 12.5352 10.8357C12.9608 10.8357 13.3922 10.8636 13.8172 10.9185C14.2403 10.9744 14.6499 10.7469 14.8289 10.3596C17.1731 5.28543 22.2971 2.00671 27.8828 2.00671C28.1871 2.00671 28.504 2.01726 28.8246 2.03806C29.362 2.07126 29.8274 1.66492 29.8624 1.12673C29.8973 0.588452 29.4893 0.123804 28.9511 0.0889406C28.5886 0.0655031 28.2291 0.0535889 27.8829 0.0535889C24.7049 0.0535889 21.624 0.967847 18.9735 2.69763C16.5882 4.25427 14.6599 6.39294 13.363 8.9115C13.0867 8.89236 12.8101 8.88259 12.5353 8.88259C5.96787 8.88259 0.625 14.2255 0.625 20.7927C0.625 26.7361 5.03633 31.746 10.8252 32.5794Z" fill="#FECA2E"/>
<path d="M40.4237 38.0699V32.7027H41.3202C46.4503 32.7027 50.624 28.5287 50.624 23.3981C50.624 21.2806 49.893 19.2085 48.5658 17.5634C47.4099 16.1307 45.8437 15.0677 44.1006 14.5207C43.5859 9.97773 41.1916 5.86631 37.4581 3.15732C37.0214 2.84062 36.4109 2.9375 36.0942 3.37422C35.7775 3.81084 35.8745 4.42148 36.3111 4.73818C39.7656 7.24482 41.9179 11.1139 42.2161 15.3535C42.2463 15.7821 42.5531 16.1407 42.9719 16.2368C44.5657 16.6024 46.0124 17.5092 47.0456 18.7899C48.1087 20.1075 48.6707 21.701 48.6707 23.398C48.6707 27.4517 45.3733 30.7495 41.3202 30.7495H40.4236V25.3813C40.4236 22.3163 37.93 19.8228 34.865 19.8228H29.5526C29.0133 19.8228 28.576 20.2601 28.576 20.7993C28.576 21.3386 29.0133 21.7759 29.5526 21.7759H34.865C36.853 21.7759 38.4704 23.3934 38.4704 25.3813V31.7261V38.0698C38.4704 40.0579 36.8531 41.6754 34.865 41.6754H29.948L30.7354 40.8838C31.1158 40.5014 31.1141 39.8831 30.7317 39.5027C30.3493 39.1225 29.731 39.1239 29.3506 39.5064L26.909 41.9613C26.505 42.3204 26.551 43.0048 26.9268 43.3599L29.3702 45.6813C29.7557 46.0479 30.3843 46.0319 30.7507 45.6461C31.1223 45.2552 31.1065 44.637 30.7155 44.2655L30.0451 43.6285H34.8652C37.9301 43.6285 40.4237 41.135 40.4237 38.0699Z" fill="#FECA2E"/>
<path d="M32.1979 2.31305C32.3998 2.80573 32.9826 3.04449 33.4733 2.84137C33.9642 2.63815 34.2051 2.0566 34.0007 1.56598C33.796 1.07457 33.2188 0.834241 32.7263 1.03766C32.2351 1.24049 31.9933 1.82213 32.1979 2.31305Z" fill="#FECA2E"/>
<path d="M31.5444 30.7819C31.9882 31.0766 32.604 30.9514 32.8981 30.5085C33.1965 30.0592 33.0741 29.4531 32.6247 29.1548C30.6863 27.8677 28.4257 27.1874 26.0873 27.1874C26.0872 27.1874 26.0873 27.1874 26.0871 27.1874C23.7488 27.1874 21.488 27.8677 19.5498 29.1548C19.1004 29.4532 18.9781 30.0593 19.2764 30.5085C19.5748 30.9581 20.1808 31.0799 20.6301 30.7819C23.9452 28.5805 28.2292 28.5806 31.5444 30.7819Z" fill="#FECA2E"/>
<path d="M23.5083 34.0644C25.0311 33.0866 26.9992 33.0866 28.5222 34.0645C28.9704 34.352 29.5842 34.218 29.8716 33.7703C30.163 33.3165 30.0314 32.7123 29.5775 32.4209C27.4134 31.0314 24.6168 31.0314 22.4529 32.421C21.9991 32.7123 21.8674 33.3165 22.1589 33.7703C22.4503 34.2243 23.0545 34.356 23.5083 34.0644Z" fill="#FECA2E"/>
<path d="M25.1119 36.784C25.3168 37.2755 25.8935 37.5159 26.3863 37.3123C26.8777 37.1095 27.1193 36.528 26.9147 36.0369C26.7101 35.5456 26.1319 35.3046 25.6393 35.5085C25.1483 35.7118 24.9077 36.2935 25.1119 36.784Z" fill="#FECA2E"/>
</svg>
