<svg width="47" height="50" viewBox="0 0 47 50" fill="none" xmlns="http://www.w3.org/2000/svg">
<path d="M10.4414 40.625C10.9808 40.625 11.418 40.1877 11.418 39.6484V30.2475C13.1009 29.8127 14.3477 28.2816 14.3477 26.4648C14.3477 24.648 13.1009 23.117 11.418 22.6822V10.3516C11.418 9.8123 10.9808 9.375 10.4414 9.375C9.90205 9.375 9.46484 9.8123 9.46484 10.3516V22.6822C7.78193 23.117 6.53516 24.648 6.53516 26.4648C6.53516 28.2816 7.78193 29.8127 9.46484 30.2475V39.6484C9.46484 40.1877 9.90205 40.625 10.4414 40.625ZM8.48828 26.4648C8.48828 25.3879 9.36445 24.5117 10.4414 24.5117C11.5184 24.5117 12.3945 25.3879 12.3945 26.4648C12.3945 27.5418 11.5184 28.418 10.4414 28.418C9.36445 28.418 8.48828 27.5418 8.48828 26.4648Z" fill="#FECA2E"/>
<path d="M19.2305 40.625C19.7698 40.625 20.207 40.1877 20.207 39.6484V21.4584C21.8899 21.0236 23.1367 19.4926 23.1367 17.6758C23.1367 15.859 21.8899 14.3279 20.207 13.8932V10.3516C20.207 9.8123 19.7698 9.375 19.2305 9.375C18.6911 9.375 18.2539 9.8123 18.2539 10.3516V13.8932C16.571 14.3279 15.3242 15.859 15.3242 17.6758C15.3242 19.4926 16.571 21.0236 18.2539 21.4584V39.6484C18.2539 40.1877 18.6911 40.625 19.2305 40.625ZM17.2773 17.6758C17.2773 16.5988 18.1535 15.7227 19.2305 15.7227C20.3074 15.7227 21.1836 16.5988 21.1836 17.6758C21.1836 18.7527 20.3074 19.6289 19.2305 19.6289C18.1535 19.6289 17.2773 18.7527 17.2773 17.6758Z" fill="#FECA2E"/>
<path d="M36.8086 9.375C36.2693 9.375 35.832 9.8123 35.832 10.3516V19.7525C34.1491 20.1873 32.9023 21.7184 32.9023 23.5352C32.9023 25.352 34.1491 26.883 35.832 27.3178V39.6484C35.832 40.1877 36.2693 40.625 36.8086 40.625C37.3479 40.625 37.7852 40.1877 37.7852 39.6484V27.3178C39.4681 26.883 40.7148 25.352 40.7148 23.5352C40.7148 21.7184 39.4681 20.1873 37.7852 19.7525V10.3516C37.7852 9.8123 37.3479 9.375 36.8086 9.375ZM38.7617 23.5352C38.7617 24.6121 37.8855 25.4883 36.8086 25.4883C35.7316 25.4883 34.8555 24.6121 34.8555 23.5352C34.8555 22.4582 35.7316 21.582 36.8086 21.582C37.8855 21.582 38.7617 22.4582 38.7617 23.5352Z" fill="#FECA2E"/>
<path d="M27.043 36.1068V39.6484C27.043 40.1877 27.4803 40.625 28.0195 40.625C28.5588 40.625 28.9961 40.1877 28.9961 39.6484V36.1068C30.679 35.6721 31.9258 34.141 31.9258 32.3242C31.9258 30.5074 30.679 28.9764 28.9961 28.5416V10.3516C28.9961 9.8123 28.5588 9.375 28.0195 9.375C27.4803 9.375 27.043 9.8123 27.043 10.3516V28.5416C25.3601 28.9764 24.1133 30.5074 24.1133 32.3242C24.1133 34.141 25.3601 35.6721 27.043 36.1068ZM28.0195 30.3711C29.0965 30.3711 29.9727 31.2473 29.9727 32.3242C29.9727 33.4012 29.0965 34.2773 28.0195 34.2773C26.9426 34.2773 26.0664 33.4012 26.0664 32.3242C26.0664 31.2473 26.9426 30.3711 28.0195 30.3711Z" fill="#FECA2E"/>
<path d="M23.625 50C24.1643 50 24.6016 49.5628 24.6016 49.0234C24.6016 48.4841 24.1643 48.0469 23.625 48.0469C23.0857 48.0469 22.6484 48.4841 22.6484 49.0234C22.6484 49.5628 23.0857 50 23.625 50Z" fill="#FECA2E"/>
<path d="M28.0195 50H42.668C44.8219 50 46.5742 48.2477 46.5742 46.0938V3.90625C46.5742 1.75234 44.8219 0 42.668 0H4.58203C2.42813 0 0.675781 1.75234 0.675781 3.90625V46.0938C0.675781 48.2477 2.42813 50 4.58203 50H19.2305C19.7698 50 20.207 49.5627 20.207 49.0234C20.207 48.4842 19.7698 48.0469 19.2305 48.0469H4.58203C3.50508 48.0469 2.62891 47.1707 2.62891 46.0938V3.90625C2.62891 2.8293 3.50508 1.95312 4.58203 1.95312H42.668C43.7449 1.95312 44.6211 2.8293 44.6211 3.90625V46.0938C44.6211 47.1707 43.7449 48.0469 42.668 48.0469H28.0195C27.4803 48.0469 27.043 48.4842 27.043 49.0234C27.043 49.5627 27.4803 50 28.0195 50Z" fill="#FECA2E"/>
</svg>
