<svg width="51" height="50" viewBox="0 0 51 50" fill="none" xmlns="http://www.w3.org/2000/svg">
<path d="M25.6249 22.0705C28.3173 22.0705 30.5077 19.8801 30.5077 17.1878C30.5077 14.4954 28.3173 12.3051 25.6249 12.3051C22.9326 12.3051 20.7422 14.4954 20.7422 17.1878C20.7422 19.8801 22.9326 22.0705 25.6249 22.0705ZM25.6249 14.2581C27.2403 14.2581 28.5546 15.5724 28.5546 17.1878C28.5546 18.8032 27.2403 20.1174 25.6249 20.1174C24.0095 20.1174 22.6953 18.8032 22.6953 17.1878C22.6953 15.5724 24.0095 14.2581 25.6249 14.2581Z" fill="#FECA2E"/>
<path d="M18.4693 44.0198C17.9911 41.9454 16.1877 40.372 14.0022 40.2427C12.7275 37.608 9.74947 35.963 6.66914 36.398C3.44937 36.8525 0.625 40.014 0.625 43.1637C0.625 46.7017 3.70737 49.9996 7.65614 49.9996H21.2301C21.7694 49.9996 22.2067 49.5624 22.2067 49.023C22.2067 48.4837 21.7694 48.0465 21.2301 48.0465H7.65614C4.95101 48.0465 2.57809 45.7649 2.57809 43.1637C2.57809 40.9967 4.69896 38.6486 6.94209 38.332C8.92546 38.0517 10.9058 38.9798 11.9452 40.5658C11.3171 40.8097 10.7404 41.182 10.258 41.6652C9.87691 42.0469 9.87739 42.6652 10.259 43.0463C10.4497 43.2367 10.6994 43.3318 10.949 43.3318C11.1992 43.3318 11.4492 43.2362 11.64 43.0453C12.1325 42.5519 12.7764 42.2202 13.7106 42.1873C15.326 42.1873 16.6403 43.5015 16.6403 45.1169C16.6403 45.6563 17.0776 46.0935 17.6168 46.0935C20.3694 46.0935 22.6949 43.8575 22.6949 41.2107V37.6952H28.5542V41.2107C28.5542 43.8575 30.8796 46.0935 33.6322 46.0935C34.1714 46.0935 34.6087 45.6563 34.6087 45.1169C34.6087 43.5015 35.923 42.1873 37.5365 42.1873C38.4172 42.2146 39.0892 42.5247 39.6091 43.0453C39.9885 43.4253 40.6067 43.429 40.9901 43.0463C41.3717 42.6653 41.3722 42.047 40.9912 41.6652C40.5088 41.182 39.932 40.8097 39.3038 40.5658C40.343 38.98 42.323 38.052 44.3072 38.332C46.5925 38.6542 48.7133 41.0407 48.6712 43.2424C48.6205 45.8465 46.2951 48.0465 43.593 48.0465H30.0191C29.4798 48.0465 29.0425 48.4837 29.0425 49.023C29.0425 49.5624 29.4798 49.9996 30.0191 49.9996H43.5931C47.3335 49.9996 50.5532 46.9226 50.624 43.28C50.6852 40.0766 47.861 36.8607 44.5802 36.398C41.4984 35.9631 38.5213 37.6088 37.247 40.2427C35.0615 40.3719 33.2581 41.9454 32.78 44.0198C31.4993 43.6529 30.5073 42.4968 30.5073 41.2106V37.6951H31.4839C31.9734 37.6951 32.3872 37.3327 32.4518 36.8475L32.8597 33.7889H37.1576C38.8754 33.7889 40.2728 32.3914 40.2728 30.6737C40.2728 29.931 40.0066 29.2112 39.5231 28.6466L34.3502 22.6116L34.8531 18.8399C35.8471 11.3792 32.2172 3.79472 26.1271 0.139597C25.8178 -0.0460442 25.4314 -0.0460442 25.122 0.139597C19.0306 3.7955 15.4023 11.3807 16.396 18.8402L16.899 22.6117L11.7258 28.647C11.2426 29.2113 10.9764 29.931 10.9764 30.6737C10.9764 32.3914 12.3739 33.7889 14.0916 33.7889H18.3895L18.7974 36.8475C18.862 37.3327 19.2758 37.6951 19.7653 37.6951H20.7419V41.2106C20.7419 42.4968 19.7499 43.6529 18.4693 44.0198ZM38.0399 29.9174C38.2204 30.1281 38.3197 30.3966 38.3197 30.6738C38.3197 31.3146 37.7983 31.8359 37.1576 31.8359H33.1202L34.0039 25.2088L38.0399 29.9174ZM25.6246 2.13009C27.1122 3.10791 28.4463 4.37508 29.5589 5.85963H21.6903C22.8028 4.37508 24.137 3.10791 25.6246 2.13009ZM20.4263 7.81272H30.8231C32.6616 11.1176 33.4051 14.9199 32.9173 18.5819L31.1495 31.8358H20.0995L18.332 18.5821C17.8442 14.92 18.5876 11.1177 20.4263 7.81272ZM14.0916 31.8358C13.4508 31.8358 12.9295 31.3145 12.9295 30.6737C12.9295 30.3966 13.0289 30.128 13.209 29.9176L17.2453 25.2088L18.129 31.8358H14.0916ZM20.3599 33.7889H30.8892L30.6289 35.742H20.6204L20.3599 33.7889Z" fill="#FECA2E"/>
<path d="M25.625 49.9994C26.1643 49.9994 26.6016 49.5622 26.6016 49.0228C26.6016 48.4835 26.1643 48.0463 25.625 48.0463C25.0857 48.0463 24.6484 48.4835 24.6484 49.0228C24.6484 49.5622 25.0857 49.9994 25.625 49.9994Z" fill="#FECA2E"/>
</svg>
