<svg width="43" height="50" viewBox="0 0 43 50" fill="none" xmlns="http://www.w3.org/2000/svg">
<path d="M37.4126 19.9842H18.7865C19.6478 18.9942 20.1712 17.7027 20.1712 16.2905C20.1712 13.1828 17.6429 10.6545 14.5352 10.6545C11.4275 10.6545 8.89925 13.1828 8.89925 16.2905C8.89925 17.7027 9.42258 18.9942 10.2838 19.9842H5.83754C3.15073 19.9842 0.964844 22.1701 0.964844 24.8569V30.6066C0.964844 31.1448 1.40114 31.5811 1.93938 31.5811C2.47762 31.5811 2.91392 31.1448 2.91392 30.6066V24.8569C2.91392 23.2448 4.22546 21.9333 5.83754 21.9333H33.1246C34.7367 21.9333 36.0483 23.2448 36.0483 24.8569V30.1194H25.913C23.2262 30.1194 21.0403 32.3053 21.0403 34.9921C21.0403 37.6789 23.2262 39.8648 25.913 39.8648H36.0483V45.1273C36.0483 46.7394 34.7367 48.0509 33.1246 48.0509H5.83754C4.22546 48.0509 2.91392 46.7394 2.91392 45.1273V39.3699C2.91392 38.8317 2.47762 38.3954 1.93938 38.3954C1.40114 38.3954 0.964844 38.8317 0.964844 39.3699V45.1273C0.964844 47.8141 3.15073 50 5.83754 50H37.4126C40.0994 50 42.2853 47.8141 42.2853 45.1273V24.8569C42.2853 22.1701 40.0994 19.9842 37.4126 19.9842ZM14.5352 12.6037C16.5682 12.6037 18.2221 14.2576 18.2221 16.2906C18.2221 18.3236 16.5682 19.9775 14.5352 19.9775C12.5023 19.9775 10.8483 18.3236 10.8483 16.2906C10.8483 14.2576 12.5022 12.6037 14.5352 12.6037ZM37.0202 21.9333H37.4126C39.0247 21.9333 40.3362 23.2448 40.3362 24.8569V30.1194H37.9973V24.8569C37.9973 23.7608 37.6333 22.7483 37.0202 21.9333ZM22.9894 34.9921C22.9894 33.38 24.301 32.0685 25.913 32.0685H40.3362V37.9157H25.913C24.301 37.9157 22.9894 36.6042 22.9894 34.9921ZM37.4126 48.0509H37.0202C37.6333 47.2359 37.9973 46.2235 37.9973 45.1273V39.8648H40.3362V45.1273C40.3362 46.7394 39.0247 48.0509 37.4126 48.0509Z" fill="#FECA2E"/>
<path d="M25.662 34.0176C25.4048 34.0176 25.1533 34.1219 24.9721 34.3031C24.7908 34.4844 24.6875 34.7358 24.6875 34.9921C24.6875 35.2484 24.7908 35.4999 24.9721 35.6811C25.1543 35.8624 25.4048 35.9667 25.662 35.9667C25.9183 35.9667 26.1688 35.8624 26.351 35.6811C26.5323 35.4999 26.6366 35.2484 26.6366 34.9921C26.6366 34.7358 26.5323 34.4844 26.351 34.3031C26.1698 34.1218 25.9183 34.0176 25.662 34.0176Z" fill="#FECA2E"/>
<path d="M28.7141 13.4155C31.8218 13.4155 34.35 10.8872 34.35 7.77951C34.35 4.6719 31.8218 2.14355 28.7141 2.14355C25.6064 2.14355 23.0781 4.6718 23.0781 7.77951C23.0781 10.8872 25.6064 13.4155 28.7141 13.4155ZM28.7141 4.09273C30.747 4.09273 32.401 5.74662 32.401 7.77961C32.401 9.81259 30.7471 11.4665 28.7141 11.4665C26.6811 11.4665 25.0272 9.81259 25.0272 7.77961C25.0272 5.74662 26.6811 4.09273 28.7141 4.09273Z" fill="#FECA2E"/>
<path d="M19.1972 9.60711C19.7354 9.60711 20.1717 9.1708 20.1717 8.63257V0.974539C20.1717 0.436301 19.7354 0 19.1972 0C18.659 0 18.2227 0.436301 18.2227 0.974539V8.63257C18.2227 9.1708 18.659 9.60711 19.1972 9.60711Z" fill="#FECA2E"/>
<path d="M14.5175 6.23705C15.0557 6.23705 15.492 5.80075 15.492 5.26251V0.974539C15.492 0.436301 15.0557 0 14.5175 0C13.9793 0 13.543 0.436301 13.543 0.974539V5.26251C13.543 5.80075 13.9793 6.23705 14.5175 6.23705Z" fill="#FECA2E"/>
<path d="M1.93938 35.9665C2.19569 35.9665 2.44712 35.8623 2.62838 35.681C2.80965 35.4997 2.91392 35.2483 2.91392 34.992C2.91392 34.7357 2.80965 34.4843 2.62838 34.303C2.44712 34.1217 2.19666 34.0175 1.93938 34.0175C1.68308 34.0175 1.43165 34.1217 1.25038 34.303C1.06912 34.4843 0.964844 34.7357 0.964844 34.992C0.964844 35.2483 1.06912 35.4997 1.25038 35.681C1.43165 35.8623 1.68298 35.9665 1.93938 35.9665Z" fill="#FECA2E"/>
</svg>
