<svg width="93" height="92" viewBox="0 0 93 92" fill="none" xmlns="http://www.w3.org/2000/svg">
<circle cx="46.9992" cy="46.2194" r="43.0738" stroke="#FECA2E" stroke-width="0.553927"/>
<circle cx="47.088" cy="46.3072" r="28.8188" stroke="#FECA2E" stroke-width="0.553927"/>
<path fill-rule="evenodd" clip-rule="evenodd" d="M49.385 21.4714C50.1338 21.4714 50.6629 21.65 50.9748 22.0726C51.2615 22.4612 51.406 23.1092 51.2882 24.1639C51.2694 24.2143 51.2517 24.2634 51.235 24.3107C49.9086 24.068 48.5415 23.9412 47.1448 23.9412C45.7361 23.9412 44.3576 24.0702 43.0204 24.317C42.9969 23.8117 43.0548 23.1588 43.2865 22.6054C43.4209 22.2844 43.6099 22.0062 43.8661 21.8061C44.1169 21.6101 44.4441 21.4794 44.8769 21.466C45.2769 21.5047 45.8991 21.4707 46.4374 21.2352C46.7127 21.1148 46.9751 20.9376 47.1706 20.6814C47.2011 20.6414 47.2298 20.5997 47.2565 20.5564C47.3067 20.6461 47.3683 20.7349 47.4442 20.82C47.7892 21.2072 48.3846 21.4714 49.385 21.4714ZM51.3513 21.796C51.5979 22.1303 51.7432 22.5707 51.7845 23.1312C51.9189 22.916 52.0753 22.7075 52.2572 22.5225C52.5473 22.2273 52.9074 21.9861 53.3506 21.8758C53.7948 21.7653 54.3037 21.7909 54.8826 21.9996L54.903 22.0069L54.9217 22.0179C55.2205 22.1934 55.7003 22.3784 56.1625 22.3753C56.3903 22.3738 56.6061 22.3268 56.7947 22.2182C56.9815 22.1107 57.1549 21.9353 57.2891 21.6542L57.7199 21.834C57.6365 22.066 57.559 22.4073 57.6822 22.764C57.8027 23.1125 58.134 23.5295 58.9812 23.8771C59.432 24.0621 60.0099 24.4906 60.2743 25.1874C60.443 25.6323 60.4761 26.1649 60.2906 26.7822C60.5117 26.6034 60.7558 26.4405 61.0188 26.3189C61.3746 26.1543 61.7723 26.0617 62.1969 26.1134C62.6227 26.1652 63.0557 26.3597 63.4842 26.7369L63.5216 26.7699C63.9475 27.1449 64.3146 27.4682 64.6887 27.6047C64.8716 27.6715 65.0477 27.6895 65.2285 27.6463C65.4114 27.6026 65.6188 27.4916 65.8542 27.2673L66.1924 27.5886C66.0317 27.7757 65.8375 28.0671 65.8254 28.4442C65.8136 28.8125 65.9744 29.3199 66.642 29.9457C67.1427 30.415 67.494 31.0472 67.3965 31.7912C67.3336 32.2719 67.0868 32.7703 66.6176 33.2772C66.9252 33.2063 67.2514 33.1635 67.5752 33.1698C67.9813 33.1778 68.3936 33.2634 68.7602 33.478C69.1298 33.6942 69.4393 34.0335 69.6479 34.5244L69.6537 34.5382L69.6577 34.5525C69.7514 34.8856 69.9689 35.3507 70.3043 35.668C70.4696 35.8244 70.6579 35.9397 70.8693 35.9918C71.0786 36.0433 71.3255 36.0367 71.6174 35.9269L71.8032 36.3543C71.582 36.4639 71.2892 36.6564 71.1304 36.9989C70.9752 37.3335 70.9246 37.8632 71.2942 38.6995C71.4909 39.1447 71.61 39.8531 71.3168 40.5384C71.1323 40.9696 70.7934 41.3713 70.245 41.6862C70.5194 41.7404 70.7961 41.8211 71.0562 41.9362C71.4277 42.1005 71.7746 42.3387 72.0295 42.6783C72.2864 43.0205 72.4402 43.4531 72.442 43.9863L72.4421 44.0012L72.4402 44.0159C72.3973 44.3592 72.4174 44.8721 72.6035 45.2941C72.6952 45.5021 72.824 45.6811 72.9987 45.8107C73.1715 45.939 73.4017 46.0283 73.7134 46.0398L73.7197 46.5057C73.4732 46.5213 73.1284 46.5857 72.849 46.8402C72.5759 47.0889 72.3238 47.5579 72.34 48.4718C72.3487 48.9582 72.1837 49.6573 71.6476 50.1757C71.2769 50.5342 70.7483 50.7878 70.0235 50.8384C70.3173 51.0139 70.6064 51.2287 70.852 51.4832C71.1338 51.7752 71.365 52.1266 71.4726 52.5372C71.581 52.951 71.5597 53.4095 71.3596 53.9039L71.3541 53.9178L71.3468 53.9307C71.1771 54.2325 71.0018 54.7149 71.0144 55.1758C71.0206 55.4029 71.0722 55.617 71.1848 55.8027C71.2962 55.9866 71.4755 56.156 71.7598 56.284L71.59 56.718C71.3559 56.6396 71.0121 56.5693 70.6569 56.6998C70.3098 56.8273 69.8988 57.1668 69.5681 58.0191C69.3921 58.4728 68.9748 59.0579 68.2824 59.3359C67.8685 59.5021 67.3748 59.5514 66.8026 59.4154C66.9326 59.6098 67.0489 59.8177 67.1407 60.0352C67.2985 60.4088 67.3876 60.8197 67.34 61.2414C67.2921 61.6665 67.107 62.0868 66.7422 62.4764L66.732 62.4873L66.7205 62.4968C66.4534 62.7175 66.116 63.1047 65.9617 63.5392C65.8857 63.7534 65.8567 63.9717 65.8948 64.1853C65.9326 64.3968 66.0388 64.6192 66.258 64.8407L65.9433 65.1849C65.7531 65.0278 65.4577 64.8388 65.0791 64.8331C64.7092 64.8276 64.2033 64.9969 63.5877 65.6736C63.2599 66.0338 62.6597 66.43 61.9136 66.4411C61.4124 66.4485 60.8705 66.282 60.3243 65.852C60.3913 66.126 60.4339 66.4135 60.4333 66.7003C60.4325 67.1001 60.3479 67.5075 60.1203 67.8732C59.8917 68.2407 59.5294 68.5487 59.0031 68.765L58.9904 68.7703L58.9771 68.774C58.6432 68.8673 58.1771 69.0842 57.8591 69.4186C57.7024 69.5834 57.5869 69.7711 57.5347 69.9818C57.483 70.1904 57.4894 70.4366 57.5994 70.7279L57.1715 70.9145C57.0618 70.6938 56.8689 70.4013 56.5254 70.2425C56.1898 70.0874 55.6587 70.0369 54.8205 70.4053C54.2465 70.6575 53.5295 70.8208 52.865 70.5351C52.3986 70.3346 51.9959 69.93 51.6936 69.261C51.6429 69.5954 51.5547 69.9399 51.4143 70.2597C51.2513 70.6311 51.0141 70.9783 50.675 71.2342C50.3331 71.4921 49.9004 71.6474 49.366 71.6516L49.3511 71.6518L49.3363 71.65C48.9913 71.6086 48.5095 71.6316 48.1196 71.8163C47.9279 71.9071 47.7631 72.0345 47.6432 72.2088C47.524 72.3822 47.4407 72.6145 47.4305 72.9295L46.9636 72.9377C46.948 72.708 46.8597 72.3614 46.5735 72.078C46.2915 71.7989 45.7854 71.5496 44.8704 71.5699C44.383 71.5807 43.6816 71.4192 43.1597 70.8866C42.8262 70.5463 42.5818 70.071 42.5041 69.4304C42.3492 69.6642 42.1686 69.8901 41.9622 70.0874C41.6689 70.3679 41.3163 70.5976 40.9048 70.7039C40.4901 70.811 40.0308 70.7887 39.5358 70.5879L39.5219 70.5823L39.5089 70.575C39.207 70.405 38.7239 70.2288 38.2618 70.2403C38.0341 70.2459 37.8192 70.2969 37.6326 70.4089C37.4479 70.5198 37.2776 70.6984 37.1486 70.9818L36.7146 70.81C36.7938 70.5765 36.865 70.2339 36.7352 69.8794C36.6084 69.5332 36.2695 69.1223 35.4161 68.7903C34.9619 68.6135 34.3763 68.1957 34.0992 67.5037C33.9021 67.0117 33.8714 66.4077 34.1217 65.6939C33.8353 65.9116 33.5092 66.1099 33.1609 66.2463C32.7828 66.3944 32.3692 66.4731 31.9482 66.4154C31.5238 66.3571 31.1075 66.1622 30.7262 65.7887L30.7156 65.7783L30.7063 65.7666C30.4918 65.4948 30.1121 65.1485 29.6804 64.9839C29.4676 64.9027 29.2494 64.8683 29.034 64.9011C28.8209 64.9336 28.5954 65.0342 28.3681 65.2474L28.0323 64.9236C28.1945 64.7377 28.3909 64.4478 28.4059 64.0709C28.4205 63.7026 28.2636 63.194 27.6009 62.5631C27.2481 62.2274 26.8657 61.6187 26.873 60.8735C26.8781 60.359 27.0685 59.8063 27.5404 59.2572C27.2635 59.3354 26.971 59.3894 26.6771 59.3975C26.2751 59.4087 25.8622 59.3345 25.4838 59.1127C25.1041 58.8902 24.7766 58.5293 24.5299 57.9967L24.5227 57.9811L24.5179 57.9647C24.42 57.6328 24.1965 57.1706 23.8571 56.8576C23.6898 56.7033 23.5001 56.5904 23.288 56.541C23.078 56.4921 22.8312 56.5019 22.5408 56.6155L22.3495 56.1904C22.5571 56.0843 22.7774 55.9199 22.9004 55.5903C23.0268 55.2518 23.0639 54.7037 22.8157 53.804C22.6649 53.2575 22.5298 52.551 22.8083 51.8931C23.0023 51.4349 23.3815 51.0325 24.0211 50.7229C23.7088 50.668 23.3901 50.5797 23.0932 50.4467C22.7226 50.2806 22.3768 50.0407 22.1236 49.6999C21.8683 49.3564 21.7167 48.9231 21.7175 48.3899L21.7175 48.375L21.7194 48.3603C21.764 48.0172 21.7464 47.5043 21.5624 47.0813C21.4717 46.8728 21.3437 46.6933 21.1697 46.5628C20.9975 46.4336 20.7678 46.3432 20.4561 46.3302L20.4521 45.8643C20.6986 45.8499 21.0438 45.7872 21.3245 45.534C21.5987 45.2867 21.8532 44.8189 21.8414 43.905C21.8351 43.4185 22.0035 42.7202 22.5421 42.2044C22.8672 41.8931 23.3123 41.6622 23.9024 41.5773C23.7155 41.463 23.5357 41.3321 23.3742 41.1819C23.079 40.9074 22.8384 40.5628 22.7323 40.1336C22.626 39.7034 22.6603 39.2099 22.8789 38.6481L22.8846 38.6335L22.8921 38.6198C23.0597 38.3168 23.2316 37.8332 23.2157 37.3724C23.2079 37.1454 23.1549 36.9316 23.0409 36.7467C22.9282 36.5636 22.7477 36.3955 22.4625 36.2695L22.6293 35.8342C22.8639 35.911 23.2082 35.9789 23.5625 35.8459C23.9087 35.716 24.3173 35.3736 24.6419 34.5191C24.9127 33.8065 25.3528 33.2156 26.0719 33.0233C26.4823 32.9136 26.9575 32.9414 27.5065 33.1219C27.3716 32.9344 27.2505 32.7329 27.1557 32.5201C26.9915 32.1514 26.9026 31.7403 26.9665 31.3069C27.0306 30.8719 27.2456 30.4355 27.6534 30.0129L27.6639 30.002L27.6757 29.9925C27.9465 29.7764 28.2905 29.3949 28.4521 28.9631C28.5318 28.7502 28.5646 28.5325 28.53 28.3182C28.4959 28.1061 28.3935 27.882 28.1781 27.6568L28.4986 27.3179C28.6861 27.4783 28.9783 27.6722 29.3567 27.6843C29.7265 27.6962 30.2351 27.5354 30.8622 26.8693C31.3527 26.3483 31.9579 25.9845 32.6765 26.0891C33.1112 26.1523 33.5573 26.3835 34.019 26.8067C33.9563 26.5332 33.9172 26.2466 33.9168 25.9611C33.9163 25.5557 33.9939 25.1424 34.2028 24.772C34.4134 24.3986 34.7493 24.0831 35.2401 23.8652L35.2536 23.8592L35.2677 23.855C35.5997 23.7553 36.0616 23.5294 36.373 23.1889C36.5265 23.0211 36.6384 22.8313 36.6865 22.6196C36.7341 22.41 36.7229 22.1639 36.6073 21.8748L37.0315 21.68C37.1455 21.8986 37.344 22.1873 37.6905 22.3394C38.0291 22.488 38.5611 22.5283 39.392 22.1438C40.0449 21.8416 40.8012 21.7365 41.4886 22.0875C41.9247 22.3102 42.3079 22.7037 42.6121 23.2988C42.6599 23.0049 42.7376 22.7062 42.8552 22.4256C43.0118 22.0515 43.2431 21.7003 43.5778 21.4387C43.9152 21.1751 44.3453 21.0125 44.8795 20.9993L44.8944 20.9989L44.9093 21.0004C45.2537 21.0359 45.7988 21.0052 46.2497 20.808C46.4724 20.7105 46.663 20.5765 46.7986 20.3988C46.9323 20.2236 47.0218 19.9942 47.0266 19.6869L47.4932 19.6708C47.5155 19.9319 47.5625 20.2508 47.7935 20.51C48.0189 20.7628 48.4631 21.0049 49.385 21.0049C50.1928 21.0049 50.909 21.1967 51.3513 21.796ZM25.0302 42.0867C24.9815 42.0703 24.9315 42.053 24.8806 42.0346C23.8561 41.9208 23.2357 42.1868 22.8659 42.541C22.4434 42.9456 22.3038 43.5064 22.3089 43.899C22.3218 44.9032 22.0403 45.5173 21.638 45.8801C21.5363 45.9719 21.4296 46.045 21.3223 46.1034C21.3668 46.1303 21.4096 46.1591 21.4506 46.1899C21.7032 46.3793 21.8759 46.6306 21.9912 46.8955C22.2162 47.4127 22.2342 48.008 22.185 48.4048C22.1871 48.8369 22.3094 49.1667 22.4991 49.422C22.6929 49.6829 22.9667 49.8786 23.2847 50.0211C23.8174 50.2598 24.4487 50.3373 24.9491 50.3322C24.7266 49.0641 24.6106 47.7595 24.6106 46.4278C24.6106 44.9427 24.7549 43.4913 25.0302 42.0867ZM23.6924 40.8404C24.0577 41.1801 24.5476 41.4144 24.9905 41.5778C25.037 41.5835 25.0841 41.5898 25.1319 41.5969C25.734 38.8523 26.8384 36.2953 28.3441 34.0268L28.3217 34.0069C27.3555 33.4542 26.673 33.346 26.1932 33.4743C25.6826 33.6107 25.325 34.0371 25.0789 34.6851C24.7221 35.6242 24.2346 36.0925 23.7273 36.2829C23.5989 36.3311 23.4727 36.3601 23.3513 36.3752C23.3829 36.4164 23.412 36.4588 23.4388 36.5024C23.6043 36.7711 23.6728 37.0682 23.6827 37.3569C23.7021 37.9201 23.5005 38.4803 23.3091 38.8315C23.1238 39.3144 23.1075 39.7046 23.186 40.0222C23.2654 40.3438 23.4475 40.6127 23.6924 40.8404ZM34.3734 27.899C32.1224 29.4469 30.1673 31.3927 28.6103 33.6347L28.5982 33.6277C28.2243 33.2915 27.8091 32.8393 27.5823 32.33C27.4449 32.0215 27.3805 31.7007 27.4285 31.375C27.4758 31.0541 27.6353 30.7077 27.9794 30.3476C28.2908 30.096 28.6918 29.655 28.8895 29.1268C28.9908 28.8561 29.0413 28.5554 28.9911 28.244C28.983 28.1936 28.9723 28.1433 28.959 28.0932C29.0769 28.1255 29.2047 28.1468 29.3418 28.1511C29.8835 28.1684 30.5132 27.9214 31.2023 27.1894C31.6441 26.7202 32.1072 26.4782 32.6092 26.5512C33.091 26.6214 33.6794 26.99 34.3734 27.899ZM25.0457 50.8473C25.601 53.6278 26.6701 56.2233 28.15 58.5312C27.7144 58.7324 27.1827 58.9165 26.6646 58.9309C26.3288 58.9403 26.0072 58.878 25.7206 58.71C25.4383 58.5445 25.173 58.2666 24.961 57.8152C24.8453 57.4324 24.5883 56.8963 24.1743 56.5144C23.9617 56.3184 23.7021 56.158 23.3945 56.0864C23.3277 56.0709 23.2593 56.0597 23.1894 56.0531C23.2456 55.9651 23.2961 55.8657 23.3382 55.7529C23.5123 55.2868 23.5282 54.6291 23.2662 53.6795C23.1187 53.1449 23.0267 52.5753 23.2387 52.0745C23.4345 51.612 23.9189 51.1463 25.0457 50.8473ZM28.4721 59.0194C27.6056 59.6945 27.3453 60.3491 27.34 60.8781C27.3343 61.462 27.6381 61.9538 27.9229 62.2248C28.6511 62.918 28.8941 63.5484 28.8726 64.0894C28.8671 64.226 28.8449 64.3532 28.8117 64.4705C28.8622 64.4575 28.9129 64.4472 28.9636 64.4394C29.2758 64.3918 29.5765 64.4444 29.8468 64.5475C30.3745 64.7487 30.8134 65.1523 31.0632 65.465C31.3741 65.7658 31.6959 65.9093 32.0117 65.9527C32.3342 65.9969 32.666 65.9386 32.9906 65.8115C33.4993 65.6122 33.9672 65.2528 34.309 64.9122C32.0181 63.3251 30.0364 61.3248 28.4721 59.0194ZM42.9748 68.5301L42.9687 68.5453C42.8615 69.5743 43.1345 70.1936 43.494 70.5604C43.9033 70.9782 44.4666 71.1122 44.86 71.1035C45.8669 71.0812 46.5084 71.3566 46.9027 71.7468C47.0125 71.8555 47.1006 71.9706 47.1711 72.0868C47.1977 72.0374 47.2266 71.9901 47.2577 71.9449C47.4326 71.6906 47.6675 71.514 47.9191 71.3948C48.4094 71.1626 48.9798 71.1397 49.3766 71.185C49.8095 71.1789 50.1389 71.0538 50.393 70.8621C50.6526 70.6663 50.8462 70.3913 50.986 70.0726C51.2008 69.5832 51.279 69.0123 51.2829 68.536C49.9415 68.7845 48.5583 68.9143 47.1448 68.9143C45.7201 68.9143 44.3262 68.7824 42.9748 68.5301ZM41.6389 69.7501C42.0277 69.3783 42.3206 68.8777 42.5074 68.4376C39.7243 67.8567 37.1299 66.7633 34.8277 65.261C34.3283 66.1742 34.3417 66.8531 34.533 67.3308C34.7502 67.8731 35.2186 68.2127 35.5853 68.3553C36.5229 68.7201 36.9878 69.211 37.174 69.7195C37.221 69.8479 37.249 69.974 37.2629 70.0951C37.3047 70.064 37.3476 70.0352 37.3916 70.0088C37.6622 69.8463 37.9604 69.7808 38.2497 69.7736C38.8144 69.7596 39.3742 69.9663 39.7244 70.1607C40.1265 70.321 40.4788 70.3317 40.7874 70.252C41.1025 70.1706 41.3871 69.9908 41.6389 69.7501ZM51.8871 68.4155C54.6849 67.8175 57.2902 66.7012 59.597 65.1722C59.7927 65.6161 59.967 66.1696 59.966 66.6999C59.9654 67.0353 59.8946 67.3522 59.7236 67.6271C59.5551 67.8977 59.2791 68.1446 58.8379 68.3284C58.4526 68.4383 57.9098 68.6879 57.5205 69.0973C57.3212 69.3069 57.1569 69.5639 57.0811 69.8701C57.0688 69.9197 57.0589 69.9702 57.0516 70.0215C56.9557 69.9458 56.8464 69.8764 56.722 69.8189C56.2301 69.5916 55.5537 69.5733 54.6327 69.9781C54.1045 70.2102 53.5381 70.3161 53.0501 70.1063C52.6129 69.9184 52.1742 69.448 51.8871 68.4155ZM60.0144 64.8887C60.7126 65.7377 61.3755 65.9819 61.9066 65.9741C62.4923 65.9654 62.9777 65.65 63.2422 65.3592C63.9187 64.6157 64.5441 64.358 65.0861 64.3661C65.2232 64.3682 65.3513 64.3873 65.4698 64.4176C65.4556 64.3678 65.444 64.3177 65.4351 64.2674C65.3796 63.9568 65.4249 63.6553 65.5216 63.383C65.7103 62.8514 66.1039 62.4036 66.4109 62.1467C66.7046 61.8293 66.8404 61.5048 66.8759 61.1891C66.9123 60.8666 66.8458 60.5373 66.7105 60.2168C66.5331 59.7966 66.2441 59.4075 65.9496 59.0969C65.9045 59.0743 65.8591 59.0506 65.8132 59.0258C64.2573 61.3172 62.2889 63.3069 60.0144 64.8887ZM65.5076 58.6436L65.4861 58.6709L65.4882 58.6725C64.7797 59.7273 63.9822 60.7175 63.1065 61.6326C62.7564 61.2282 62.1924 59.8024 63.8835 57.6932C64.4636 56.9697 64.7383 56.2954 64.7956 55.678C64.8529 55.0598 64.6902 54.5198 64.432 54.0695C64.2057 53.6748 63.9046 53.3461 63.6075 53.0863C64.0029 53.1602 64.4512 53.1953 64.8886 53.1187C65.3992 53.0293 65.9018 52.7874 66.2866 52.2826C66.6678 51.7827 66.9164 51.0473 66.9694 50.0011C67.1044 47.335 68.6565 46.7049 69.2107 46.6701C69.1629 51.0971 67.8058 55.2107 65.5076 58.6436ZM66.23 58.7148C66.1873 58.6712 66.1447 58.6293 66.1025 58.589C67.5827 56.2961 68.6565 53.7172 69.2224 50.9537C69.658 51.1394 70.149 51.4269 70.5157 51.8069C70.7575 52.0575 70.9382 52.3409 71.0205 52.6549C71.1011 52.9623 71.0913 53.3138 70.9317 53.7155C70.7377 54.0653 70.5318 54.6244 70.5473 55.188C70.5552 55.4768 70.6216 55.7744 70.7852 56.0443C70.8117 56.088 70.8405 56.1306 70.8718 56.1721C70.7503 56.1862 70.6239 56.2144 70.4952 56.2617C69.9865 56.4486 69.4958 56.9134 69.1324 57.85C68.9903 58.2161 68.6511 58.6846 68.1078 58.9028C67.6642 59.0809 67.0473 59.1067 66.23 58.7148ZM69.3358 50.3596C70.3454 50.4612 70.9572 50.1937 71.3222 49.8407C71.7427 49.4341 71.8795 48.8726 71.8726 48.48C71.8547 47.4759 72.1332 46.8605 72.5337 46.4956C72.635 46.4034 72.7413 46.3297 72.8484 46.2708C72.8037 46.2442 72.7608 46.2155 72.7196 46.185C72.4661 45.9968 72.2921 45.7464 72.1756 45.482C71.948 44.9659 71.9271 44.3707 71.9744 43.9736C71.9703 43.5416 71.8463 43.2124 71.6553 42.958C71.4603 42.6981 71.1856 42.5037 70.8668 42.3627C70.385 42.1496 69.8236 42.0682 69.3509 42.0599C69.3208 42.0689 69.2903 42.0776 69.2594 42.0862C69.5347 43.4909 69.679 44.9425 69.679 46.4278C69.679 47.7691 69.5614 49.0829 69.3358 50.3596ZM69.2836 41.5927C69.2406 41.5926 69.1984 41.593 69.1571 41.594C68.5521 38.8377 67.4404 36.2708 65.9245 33.9952C66.3814 33.7972 66.9869 33.6251 67.5655 33.6365C67.9141 33.6433 68.2429 33.7165 68.5237 33.8808C68.7986 34.0416 69.0407 34.2974 69.2121 34.6941C69.3226 35.0785 69.5728 35.6192 69.9827 36.007C70.1928 36.2057 70.4503 36.3694 70.7569 36.445C70.8068 36.4572 70.8575 36.4671 70.9091 36.4744C70.8333 36.57 70.7639 36.679 70.7064 36.8031C70.4786 37.2944 70.4606 37.9696 70.8666 38.8884C71.0254 39.2477 71.117 39.8182 70.8872 40.3553C70.6895 40.8174 70.2359 41.2958 69.2836 41.5927ZM65.6203 33.5502C66.5083 32.8639 66.8663 32.2439 66.9335 31.7306C67.005 31.1841 66.7549 30.6916 66.3226 30.2864C65.5891 29.5989 65.3413 28.9703 65.3587 28.4292C65.3626 28.3056 65.3803 28.1897 65.4076 28.0817C65.3841 28.0886 65.3605 28.0949 65.337 28.1006C65.0517 28.1687 64.7814 28.1358 64.5285 28.0434C64.069 27.8757 63.6409 27.498 63.2454 27.149L63.1756 27.0875C62.8065 26.7626 62.4588 26.6157 62.1405 26.577C61.8208 26.5381 61.5109 26.6058 61.2148 26.7428C60.6736 26.9931 60.2044 27.4625 59.863 27.8625C62.108 29.3968 64.0607 31.3262 65.6203 33.5502ZM51.7293 24.4069C51.7353 24.3623 51.7409 24.3182 51.746 24.2746C51.9256 23.8047 52.193 23.2544 52.5907 22.8497C52.8345 22.6017 53.1219 22.4139 53.464 22.3288C53.8005 22.245 54.2081 22.2561 54.7048 22.4316C55.0518 22.6314 55.6044 22.8458 56.1661 22.8421C56.4555 22.8402 56.7548 22.7802 57.0284 22.6227C57.0728 22.5971 57.1163 22.5691 57.1586 22.5387C57.1703 22.6601 57.1959 22.7867 57.2406 22.9159C57.4174 23.4277 57.8733 23.927 58.8041 24.3089C59.168 24.4582 59.6302 24.8063 59.8374 25.3525C60.0297 25.8596 60.0204 26.5865 59.4165 27.565C57.111 26.0684 54.5141 24.9813 51.7293 24.4069ZM41.2756 22.5032C40.7588 22.2393 40.1615 22.3019 39.588 22.5673C38.675 22.9898 37.9984 22.9846 37.5022 22.7668C37.3766 22.7117 37.266 22.6444 37.1687 22.5705C37.1624 22.622 37.1535 22.6727 37.1422 22.7225C37.0722 23.03 36.913 23.2902 36.7178 23.5036C36.3368 23.9201 35.7996 24.18 35.4166 24.2975C35.019 24.4769 34.7661 24.7237 34.6099 25.0008C34.4503 25.2837 34.3836 25.6126 34.3841 25.96C34.3849 26.5491 34.5787 27.1625 34.792 27.618C37.1117 26.0979 39.7295 24.9936 42.5389 24.4114C42.2303 23.3148 41.7611 22.751 41.2756 22.5032ZM46.2876 67.0802C46.7954 67.5993 46.9894 68.1706 47.0145 68.4469C41.0262 68.4124 35.603 65.9977 31.647 62.103C31.8567 61.8828 32.2968 61.6132 32.9458 61.6183C33.6234 61.6237 34.5565 61.9296 35.7082 62.9611C36.3203 63.5094 36.902 63.8169 37.4498 63.9328C38.0006 64.0493 38.5013 63.9686 38.9411 63.7668C39.4549 63.5311 39.8817 63.1324 40.2193 62.6964C40.1772 63.1188 40.1839 63.6038 40.3132 64.0726C40.4534 64.5807 40.7389 65.0744 41.2615 65.4411C41.7815 65.806 42.5149 66.0303 43.5252 66.0423C44.8951 66.0586 45.7614 66.5423 46.2876 67.0802ZM30.3646 57.7567C32.0477 59.8255 31.6455 61.3326 31.3153 61.7695C27.4683 57.818 25.0944 52.431 25.0777 46.4908C25.0901 46.4903 25.1027 46.4895 25.1154 46.4886C25.4038 46.4775 25.8741 46.6079 26.3059 47.0977C26.753 47.605 27.1668 48.5092 27.2621 50.0557C27.3126 50.8749 27.5106 51.5015 27.8195 51.9678C28.13 52.4366 28.5436 52.7298 28.9988 52.8941C29.5689 53.0998 30.1993 53.1022 30.7794 53.0095C30.4345 53.293 30.0641 53.676 29.7997 54.1506C29.547 54.6044 29.3892 55.1459 29.4496 55.7617C29.5099 56.3769 29.7858 57.0452 30.3646 57.7567ZM25.0857 46.0229L25.0813 46.0231C25.188 40.1149 27.6268 34.7748 31.518 30.8806C31.6957 31.1082 31.8575 31.5015 31.8109 32.056C31.7543 32.729 31.3879 33.6533 30.3365 34.7935C29.7776 35.3998 29.4721 35.9866 29.3669 36.5461C29.2613 37.1077 29.3611 37.6225 29.5799 38.0753C29.8652 38.6659 30.3531 39.1527 30.859 39.5216C30.3946 39.4665 29.817 39.4635 29.2521 39.6258C28.7526 39.7693 28.259 40.0435 27.8686 40.5268C27.4787 41.0093 27.205 41.6839 27.116 42.6061C26.853 45.3311 25.5894 45.9808 25.0857 46.0229ZM35.6082 29.5336C33.754 31.1618 32.4004 30.8586 31.8749 30.5313C35.8075 26.7691 41.1332 24.4457 47.0027 24.4087C46.9504 24.9899 46.2275 26.1688 43.3091 26.3409C42.4853 26.3895 41.8515 26.598 41.3769 26.923C40.9008 27.249 40.5992 27.6827 40.4258 28.156C40.237 28.6715 40.1999 29.2331 40.2485 29.7623C40.0008 29.4434 39.6861 29.1172 39.3035 28.8718C38.8584 28.5862 38.3163 28.4067 37.684 28.4795C37.0546 28.552 36.3624 28.8713 35.6082 29.5336ZM47.4831 68.4448C53.4581 68.3552 58.8574 65.896 62.7793 61.9673L62.7668 61.9536C62.3646 61.5355 60.8236 60.8948 58.5774 62.9357C57.9683 63.4891 57.3865 63.7944 56.8362 63.9026C56.2831 64.0114 55.7802 63.9174 55.3391 63.7035C54.7814 63.433 54.3237 62.9719 53.9709 62.4867C54.0622 63.0775 54.0558 63.7222 53.8372 64.301C53.6664 64.753 53.367 65.1617 52.893 65.4652C52.4216 65.7671 51.7911 65.9562 50.9695 65.9955C49.4306 66.0692 48.5551 66.5503 48.0693 67.0669C47.5951 67.5712 47.4732 68.1286 47.4827 68.438L47.4831 68.4448ZM69.2102 46.203L69.2109 46.203C69.1516 40.2871 66.7543 34.9297 62.8969 31.0069C62.5737 31.4569 62.2392 32.7709 63.8617 34.8094C64.4392 35.535 64.7114 36.2102 64.7665 36.8278C64.8216 37.4463 64.657 37.9856 64.3972 38.435C64.1522 38.8588 63.8208 39.2059 63.5013 39.4731C64.0899 39.4096 64.7305 39.4418 65.3077 39.6615C65.7814 39.8418 66.2127 40.149 66.5298 40.6297C66.8458 41.1089 67.0383 41.7451 67.0624 42.5688C67.1509 45.5981 68.6314 46.2061 69.2102 46.203ZM58.5745 29.5479C60.7458 31.535 62.1145 31.0703 62.5587 30.6704C58.6571 26.8696 53.3492 24.4998 47.4871 24.4109C47.535 24.6763 47.6946 25.0509 48.0858 25.3901C48.5532 25.7953 49.3691 26.1647 50.7601 26.2118C51.7487 26.2452 52.4642 26.5023 52.9683 26.9043C53.4729 27.3067 53.7432 27.8363 53.8738 28.3733C53.9962 28.877 53.9978 29.3951 53.9527 29.8416C54.3038 29.4183 54.7426 29.0291 55.2573 28.7878C55.7179 28.5719 56.2402 28.4744 56.8077 28.5805C57.3734 28.6862 57.9656 28.9907 58.5745 29.5479ZM52.6764 27.2688C52.2699 26.9446 51.6595 26.709 50.7443 26.678C49.2778 26.6284 48.3486 26.2359 47.7792 25.7422C47.5466 25.5406 47.377 25.3245 47.2568 25.1131C46.8154 25.888 45.6527 26.6701 43.3367 26.8066C42.5768 26.8514 42.0304 27.0412 41.6414 27.3076C41.2541 27.5729 41.0087 27.9237 40.8649 28.3162C40.6147 28.9993 40.6729 29.8099 40.8493 30.4799C42.7805 29.7188 44.8849 29.3006 47.0871 29.3006C49.3062 29.3006 51.426 29.7252 53.3694 30.4975C53.4823 30.0186 53.5992 29.2229 53.4194 28.4833C53.3073 28.0223 53.0824 27.5925 52.6764 27.2688ZM53.8994 30.7186C57.8184 32.4324 60.9648 35.5797 62.6723 39.4961C63.0612 39.2569 63.6378 38.8154 63.9928 38.2013C64.2134 37.8198 64.3464 37.3757 64.3013 36.8693C64.2561 36.362 64.0302 35.771 63.4963 35.1002C62.2155 33.491 62.0307 32.2057 62.2292 31.3823C61.3706 31.6618 59.9922 31.4785 58.2592 29.8924C57.6988 29.3796 57.183 29.1257 56.7219 29.0396C56.2625 28.9537 55.8393 29.0308 55.4555 29.2107C54.7979 29.519 54.2599 30.1287 53.8994 30.7186ZM63.3492 41.3342C63.8215 42.891 64.0754 44.5425 64.0754 46.2531C64.0754 47.897 63.8409 49.4861 63.4036 50.9891L63.4343 51.0302H63.3916C63.2528 51.5025 63.0941 51.9662 62.9163 52.4203C63.3784 52.5743 64.1181 52.78 64.8078 52.6592C65.2229 52.5865 65.6127 52.3961 65.9145 52.0002C66.22 51.5995 66.4524 50.9661 66.5024 49.9776C66.6085 47.8837 67.5463 46.8671 68.3628 46.4485C67.5393 46.0209 66.6631 44.9103 66.5951 42.5824C66.5729 41.8236 66.397 41.2769 66.1392 40.8862C65.8825 40.497 65.5348 40.2473 65.1411 40.0974C64.4387 39.8301 63.592 39.8826 62.9026 40.0511C63.0638 40.4602 63.2095 40.877 63.3391 41.301H63.3738L63.3492 41.3342ZM63.6083 46.2531C63.6083 47.7273 63.4144 49.1563 63.0507 50.516L59.7897 46.1451L63.0002 41.806C63.3965 43.2207 63.6083 44.7122 63.6083 46.2531ZM56.1947 51.0302H62.904C60.8911 57.6751 54.7877 62.5482 47.5163 62.7332L50.3997 58.8362H54.4432H54.7981L54.6576 58.5103L53.2413 55.2243H58.0059H58.3919L58.2128 54.8825L56.1947 51.0302ZM62.5032 50.5632H56.5208L59.4996 46.5372L62.5032 50.5632ZM55.9458 50.5551L59.2079 46.1462L55.9415 41.768H55.9362L53.6774 46.225L55.9458 50.5551ZM62.4473 41.768L59.498 45.7541L56.5242 41.768H62.4473ZM62.8499 41.301H56.1757L56.174 41.2987L57.9199 37.8537L58.0918 37.5146H57.7116H53.6264L55.5792 34.1966L55.7863 33.8447H55.3779H50.6129L47.5765 29.7747C54.7574 29.9832 60.7893 34.764 62.8499 41.301ZM47.3208 30.213L50.0302 33.8447H44.5407L47.3208 30.213ZM47.0736 29.7676L43.9525 33.8447H39.3237H38.9169L39.1221 34.196L41.0611 37.5146H36.812H36.43L36.6042 37.8546L38.3199 41.2023L38.2444 41.301H31.3276H31.3243C33.4303 34.6201 39.6843 29.7735 47.0736 29.7676ZM31.7961 41.768H37.8868L34.8177 45.7771L31.7961 41.768ZM38.475 41.768L35.1095 46.1642L38.4249 50.5632H38.4863L40.8397 46.1192L38.6098 41.768H38.475ZM31.192 41.7425L34.523 46.162L31.1409 50.58C30.766 49.2011 30.5659 47.7504 30.5659 46.2531C30.5659 44.6892 30.7842 43.176 31.192 41.7425ZM47.0166 62.7385C39.5878 62.7075 33.3161 57.7841 31.2702 51.0302H38.1921L38.2196 51.0667L36.1994 54.8815L36.0179 55.2243H36.4058H41.3532L41.3688 55.245L39.9838 58.5115L39.8461 58.8362H40.1987H44.0754L47.0166 62.7385ZM31.7419 50.5632H37.8401L34.8148 46.5492L31.7419 50.5632ZM41.5793 54.7484L38.7769 51.0302H43.1559L41.5793 54.7484ZM45.7914 54.7573L43.8813 51.0302H45.6668L47.1061 54.6112L47.1649 54.7573H45.7914ZM43.8612 50.5632H45.4791L44.6917 48.6043L43.8612 50.5632ZM47.3185 53.8873L46.1702 51.0302H48.4221L47.3185 53.8873ZM47.5406 54.6083L48.9228 51.0302H50.7186L48.8298 54.7573H47.4831L47.5406 54.6083ZM49.1032 50.5632H50.7237L49.8691 48.5803L49.1032 50.5632ZM52.9652 54.5836L51.4336 51.0302H55.5943L52.9652 54.5836ZM51.4789 50.5632H55.4228L53.4181 46.7366L52.6001 48.3507L52.6002 48.3508H52.6001L51.4789 50.5632ZM52.3421 47.8267L53.152 46.2286L51.7853 43.6197L51.1194 45.3436L52.3421 47.8267ZM50.4726 45.0873H49.1697L49.8791 43.8819L50.4726 45.0873ZM50.8388 44.7738L51.3023 43.5739H50.248L50.8388 44.7738ZM49.9157 42.899L50.5813 41.768H49.3588L49.9157 42.899ZM49.1288 41.301H50.5706L48.8317 37.9816H47.4943L49.1288 41.301ZM47.0314 37.9816H45.6775L43.9197 41.301H45.4161L47.0314 37.9816ZM47.2644 37.5146L47.2615 37.5087L47.2586 37.5146H45.9248L47.2631 34.9875L48.587 37.5146H47.2644ZM45.9355 41.301L47.264 38.571L48.6082 41.301H45.9355ZM45.1889 41.768H44.0871L44.6882 42.7969L45.1889 41.768ZM45.0567 43.1069L45.7082 41.768H47.0831L47.0476 41.8518L46.5154 43.1069H45.0567ZM44.7258 43.787L45.4855 45.0873H44.093L44.7258 43.787ZM43.6875 44.8534L44.3101 43.5739H43.1732L43.6875 44.8534ZM43.4118 45.4199L42.2401 47.8278L41.3663 46.1227L42.6898 43.6235L43.4118 45.4199ZM42.5081 48.3508L43.4843 50.2556L44.2919 48.3508H42.5081ZM45.0932 48.3508L45.9824 50.5632H46.9847L45.5311 48.3508H45.0932ZM45.2243 47.8838H44.9972L45.0863 47.6738L45.2243 47.8838ZM46.09 48.3508L47.2642 50.1381L48.4384 48.3508H46.09ZM48.9972 48.3508L47.5437 50.5632H48.6025L49.4571 48.3508H48.9972ZM50.1382 47.8838L50.8905 45.936L51.8496 47.8838H50.1382ZM50.2788 48.3508H52.0765L51.105 50.2678L50.2788 48.3508ZM49.5689 47.8838H49.3041L49.464 47.6404L49.5689 47.8838ZM48.7453 47.8838H47.5239L48.7044 45.878L49.2426 47.1268L48.7453 47.8838ZM47.1194 47.8838H45.7831L45.3055 47.1568L45.8897 45.7791L47.1194 47.8838ZM44.4021 47.8838H42.7322L43.6468 46.0044L44.4021 47.8838ZM48.8382 41.768L49.4975 43.1069H48.0185L47.477 41.8505L47.4415 41.768H48.8382ZM39.0147 50.5632H43.1171L41.0996 46.6263L39.0147 50.5632ZM41.3511 38.011L38.8701 41.2519L38.8952 41.301H43.2733L41.3511 38.011ZM38.6342 40.7917L40.7855 37.9816H37.1941L38.6342 40.7917ZM39.7306 34.3117L41.4033 37.1746L43.5949 34.3117H39.7306ZM44.1831 34.3117L41.7312 37.5146H45.3964L47.0579 34.3771L47.0925 34.3117H44.1831ZM52.7682 37.5146L50.3787 34.3117H47.4363L47.4711 34.378L49.1142 37.5146H52.7682ZM50.9613 34.3117L53.202 37.315L54.9695 34.3117H50.9613ZM57.3315 37.9816H53.6993L55.8622 40.8808L57.3315 37.9816ZM51.3981 41.301L53.248 38.1577L55.593 41.301H51.3981ZM53.4113 45.717L55.4126 41.768H51.3425L53.4113 45.717ZM50.984 41.0837L52.8097 37.9816H49.3589L50.984 41.0837ZM45.149 37.9816H41.8748L43.5923 40.9212L45.149 37.9816ZM43.1439 41.768H39.1345L41.1064 45.6156L43.1439 41.768ZM41.0012 54.7573H36.7937L38.53 51.4785L41.0012 54.7573ZM41.938 55.2243L44.3083 58.3692H47.1176L47.1124 58.359L45.5059 55.2243H41.938ZM45.2666 54.7573H42.0828L43.5243 51.3577L45.2666 54.7573ZM46.0307 55.2243L47.319 57.7383L48.5931 55.2243H46.0307ZM49.1167 55.2243L47.5285 58.3581L47.5229 58.3692H50.1643L52.4911 55.2243H49.1167ZM52.5315 54.7573H49.3533L51.0708 51.3684L52.5315 54.7573ZM53.4176 54.7573H57.62L55.878 51.432L53.4176 54.7573ZM42.9634 43.1069H44.3284L43.6124 41.8813L42.9634 43.1069ZM50.9603 42.0448L51.5166 43.1069H50.3352L50.9603 42.0448ZM54.0882 58.3692H50.7452L52.8577 55.5141L54.0882 58.3692ZM50.1132 46.6522L49.8454 47.3455L49.7711 47.173L50.1132 46.6522ZM50.2757 45.5544L49.5497 46.6594L49.0734 45.5544H50.2757ZM49.5185 43.5739L48.7688 44.8477L48.2198 43.5739H49.5185ZM48.3636 45.0873L47.7113 43.5739H46.8247L46.183 45.0873H48.3636ZM47.2643 42.537L47.0227 43.1069H47.51L47.2643 42.537ZM45.1422 43.5739H46.3174L45.8232 44.7395L45.1422 43.5739ZM44.2527 45.5544H45.4777L44.9972 46.6876L44.2527 45.5544ZM44.4031 46.6339L44.778 47.2045L44.7033 47.3807L44.4031 46.6339ZM47.2633 62.2899L44.6603 58.8362H49.8187L47.2633 62.2899ZM43.7234 58.3692L41.6934 55.6757L40.5514 58.3692H43.7234ZM48.3529 45.5544H46.2993L47.3224 47.3054L48.3529 45.5544ZM62.6832 52.9852C60.9979 56.8677 57.8994 59.9971 54.0353 61.7275C54.387 62.3394 54.9016 62.9722 55.5429 63.2833C55.9029 63.4579 56.3031 63.5315 56.7461 63.4444C57.192 63.3567 57.6994 63.1025 58.2633 62.5901C60.0047 61.0079 61.4634 60.8773 62.3637 61.1818C62.1224 60.3382 62.2259 59.0141 63.5192 57.4011C64.0555 56.7322 64.2835 56.142 64.3305 55.6349C64.3775 55.1287 64.246 54.6841 64.0269 54.3018C63.6655 53.6715 63.0711 53.2215 62.6832 52.9852ZM53.3893 62.0009C51.4405 62.7782 49.3138 63.2057 47.0871 63.2057C44.8721 63.2057 42.7559 62.7826 40.8155 62.013C40.6977 62.4682 40.5691 63.2422 40.764 63.9488C40.8806 64.3718 41.1116 64.7656 41.5304 65.0595C41.9519 65.3552 42.5848 65.5646 43.5308 65.5758C45.02 65.5935 46.0061 66.1246 46.6222 66.7543C46.875 67.0128 47.0651 67.2878 47.2016 67.5488C47.3137 67.2846 47.4832 67.0084 47.7284 66.7477C48.3154 66.1234 49.3165 65.6076 50.9471 65.5295C51.7102 65.493 52.2553 65.3192 52.6405 65.0726C53.0232 64.8276 53.2615 64.5023 53.3997 64.1364C53.6484 63.4781 53.5749 62.6796 53.3893 62.0009ZM40.2621 61.7821C36.362 60.0727 33.2284 56.9431 31.519 53.0491C31.1354 53.2919 30.5582 53.7487 30.2077 54.3779C29.9925 54.7643 29.8649 55.2114 29.9144 55.7162C29.9639 56.2216 30.193 56.8057 30.7268 57.4619C32.03 59.0637 32.2089 60.4427 32.0081 61.3218C32.2716 61.2167 32.587 61.1485 32.9494 61.1513C33.7722 61.1578 34.8101 61.5298 36.0198 62.6132C36.5883 63.1224 37.0986 63.3811 37.5465 63.4759C37.9914 63.57 38.3902 63.5057 38.7463 63.3423C39.3988 63.043 39.9159 62.4059 40.2621 61.7821ZM31.2605 52.4267C30.5106 50.5137 30.0989 48.4314 30.0989 46.2531C30.0989 44.069 30.5128 41.9814 31.2666 40.0641C30.8235 39.9638 30.0818 39.8729 29.3815 40.0741C28.9573 40.196 28.5524 40.4236 28.2326 40.8195C27.9121 41.2161 27.6637 41.7982 27.5814 42.6508C27.3837 44.6986 26.6213 45.7517 25.905 46.2061C26.1575 46.3282 26.4165 46.5168 26.6569 46.7896C27.1932 47.398 27.6294 48.4133 27.7288 50.0271C27.7756 50.7879 27.9572 51.3295 28.2095 51.7105C28.4602 52.089 28.7894 52.3224 29.1578 52.4554C29.8088 52.6902 30.5909 52.6135 31.2605 52.4267ZM31.539 39.4117C33.26 35.5225 36.4035 32.4009 40.311 30.7029C40.0752 30.2839 39.6534 29.651 39.0514 29.2649C38.6792 29.0261 38.2435 28.8852 37.7374 28.9435C37.2284 29.0021 36.6216 29.2653 35.9164 29.8846C34.3507 31.2594 33.027 31.3987 32.1825 31.1674C32.2654 31.43 32.306 31.7411 32.2763 32.0952C32.2083 32.9028 31.7769 33.9203 30.6799 35.1101C30.1647 35.6689 29.9111 36.1792 29.8259 36.6324C29.7411 37.0836 29.8193 37.4972 30.0004 37.8721C30.3149 38.5231 30.9391 39.0534 31.539 39.4117Z" fill="#FECA2E"/>
<path d="M30.7004 81.774L29.7956 81.3859L32.1218 75.9616L28.922 74.5894L29.31 73.6846L36.6145 76.8171L36.2265 77.7219L33.0266 76.3496L30.7004 81.774Z" fill="#FECA2E"/>
<path d="M30.7004 81.774L30.66 81.8681L30.7541 81.9085L30.7945 81.8143L30.7004 81.774ZM29.7956 81.3859L29.7014 81.3456L29.661 81.4397L29.7552 81.4801L29.7956 81.3859ZM32.1218 75.9616L32.216 76.002L32.2563 75.9078L32.1622 75.8675L32.1218 75.9616ZM28.922 74.5894L28.8278 74.549L28.7874 74.6431L28.8816 74.6835L28.922 74.5894ZM29.31 73.6846L29.3504 73.5904L29.2562 73.55L29.2158 73.6442L29.31 73.6846ZM36.6145 76.8171L36.7086 76.8575L36.749 76.7633L36.6549 76.723L36.6145 76.8171ZM36.2265 77.7219L36.1861 77.8161L36.2802 77.8564L36.3206 77.7623L36.2265 77.7219ZM33.0266 76.3496L33.067 76.2555L32.9728 76.2151L32.9324 76.3093L33.0266 76.3496ZM30.7407 81.6798L29.836 81.2918L29.7552 81.4801L30.66 81.8681L30.7407 81.6798ZM29.8897 81.4263L32.216 76.002L32.0277 75.9212L29.7014 81.3456L29.8897 81.4263ZM32.1622 75.8675L28.9623 74.4952L28.8816 74.6835L32.0814 76.0558L32.1622 75.8675ZM29.0161 74.6297L29.4041 73.7249L29.2158 73.6442L28.8278 74.549L29.0161 74.6297ZM29.2696 73.7787L36.5741 76.9113L36.6549 76.723L29.3504 73.5904L29.2696 73.7787ZM36.5203 76.7767L36.1323 77.6815L36.3206 77.7623L36.7086 76.8575L36.5203 76.7767ZM36.2668 77.6278L33.067 76.2555L32.9862 76.4438L36.1861 77.8161L36.2668 77.6278ZM32.9324 76.3093L30.6062 81.7336L30.7945 81.8143L33.1208 76.39L32.9324 76.3093Z" fill="#FECA2E"/>
<path d="M43.7452 85.1516L36.7156 84.0094L37.8201 77.212L44.8498 78.3542L44.6919 79.326L38.6339 78.3416L37.8452 83.1955L43.9031 84.1799L43.7452 85.1516ZM43.3934 82.1072L38.6437 81.3354L38.8016 80.3636L43.5513 81.1354L43.3934 82.1072Z" fill="#FECA2E"/>
<path d="M43.7452 85.1516L43.7288 85.2528L43.8299 85.2692L43.8463 85.1681L43.7452 85.1516ZM36.7156 84.0094L36.6144 83.9929L36.598 84.0941L36.6991 84.1105L36.7156 84.0094ZM37.8201 77.212L37.8365 77.1109L37.7354 77.0944L37.719 77.1955L37.8201 77.212ZM44.8498 78.3542L44.9509 78.3707L44.9673 78.2696L44.8662 78.2531L44.8498 78.3542ZM44.6919 79.326L44.6754 79.4271L44.7765 79.4435L44.793 79.3424L44.6919 79.326ZM38.6339 78.3416L38.6504 78.2405L38.5492 78.2241L38.5328 78.3252L38.6339 78.3416ZM37.8452 83.1955L37.7441 83.1791L37.7276 83.2802L37.8288 83.2967L37.8452 83.1955ZM43.9031 84.1799L44.0042 84.1963L44.0207 84.0952L43.9196 84.0788L43.9031 84.1799ZM43.3934 82.1072L43.3769 82.2083L43.4781 82.2247L43.4945 82.1236L43.3934 82.1072ZM38.6437 81.3354L38.5426 81.3189L38.5262 81.4201L38.6273 81.4365L38.6437 81.3354ZM38.8016 80.3636L38.818 80.2625L38.7169 80.2461L38.7005 80.3472L38.8016 80.3636ZM43.5513 81.1354L43.6524 81.1519L43.6688 81.0507L43.5677 81.0343L43.5513 81.1354ZM43.7617 85.0505L36.732 83.9083L36.6991 84.1105L43.7288 85.2528L43.7617 85.0505ZM36.8167 84.0258L37.9212 77.2284L37.719 77.1955L36.6144 83.9929L36.8167 84.0258ZM37.8037 77.3131L44.8333 78.4554L44.8662 78.2531L37.8365 77.1109L37.8037 77.3131ZM44.7486 78.3378L44.5907 79.3096L44.793 79.3424L44.9509 78.3707L44.7486 78.3378ZM44.7083 79.2249L38.6504 78.2405L38.6175 78.4427L44.6754 79.4271L44.7083 79.2249ZM38.5328 78.3252L37.7441 83.1791L37.9463 83.212L38.735 78.358L38.5328 78.3252ZM37.8288 83.2967L43.8867 84.281L43.9196 84.0788L37.8616 83.0944L37.8288 83.2967ZM43.802 84.1635L43.6441 85.1352L43.8463 85.1681L44.0042 84.1963L43.802 84.1635ZM43.4098 82.006L38.6601 81.2343L38.6273 81.4365L43.3769 82.2083L43.4098 82.006ZM38.7448 81.3518L38.9027 80.3801L38.7005 80.3472L38.5426 81.3189L38.7448 81.3518ZM38.7852 80.4648L43.5348 81.2366L43.5677 81.0343L38.818 80.2625L38.7852 80.4648ZM43.4501 81.119L43.2922 82.0907L43.4945 82.1236L43.6524 81.1519L43.4501 81.119Z" fill="#FECA2E"/>
<path d="M54.5746 84.4554L53.595 84.5536L53.3987 82.5945L47.9322 83.1423L47.8345 82.1675L53.301 81.6197L53.0064 78.681L49.4943 79.033C49.1598 79.0665 48.851 79.1634 48.5678 79.3237C48.2843 79.4808 48.0439 79.6819 47.8464 79.9269C47.6486 80.1687 47.4993 80.4443 47.3984 80.7537C47.3006 81.0627 47.2687 81.3861 47.3025 81.7237L47.6459 85.1498L46.6663 85.248L46.323 81.8219C46.2914 81.5065 46.3008 81.1999 46.3514 80.902C46.4049 80.6007 46.4923 80.3168 46.6136 80.0505C46.7378 79.7806 46.893 79.5318 47.0793 79.3039C47.2685 79.0726 47.4814 78.8695 47.7181 78.6945C47.9579 78.5193 48.2188 78.3773 48.5007 78.2686C48.7823 78.1567 49.0808 78.085 49.3961 78.0534L53.8878 77.6032L54.5746 84.4554Z" fill="#FECA2E"/>
<path d="M54.5746 84.4554L54.5848 84.5574L54.6867 84.5472L54.6765 84.4452L54.5746 84.4554ZM53.595 84.5536L53.4931 84.5638L53.5033 84.6658L53.6052 84.6556L53.595 84.5536ZM53.3987 82.5945L53.5006 82.5843L53.4904 82.4823L53.3884 82.4925L53.3987 82.5945ZM47.9322 83.1423L47.8302 83.1525L47.8405 83.2545L47.9424 83.2443L47.9322 83.1423ZM47.8345 82.1675L47.8243 82.0656L47.7223 82.0758L47.7325 82.1778L47.8345 82.1675ZM53.301 81.6197L53.3112 81.7216L53.4131 81.7114L53.4029 81.6095L53.301 81.6197ZM53.0064 78.681L53.1084 78.6707L53.0982 78.5688L52.9962 78.579L53.0064 78.681ZM48.5678 79.3237L48.6175 79.4133L48.6183 79.4128L48.5678 79.3237ZM47.8464 79.9269L47.9257 79.9918L47.9262 79.9912L47.8464 79.9269ZM47.3984 80.7537L47.301 80.7219L47.3007 80.7228L47.3984 80.7537ZM47.6459 85.1498L47.6561 85.2518L47.7581 85.2416L47.7478 85.1396L47.6459 85.1498ZM46.6663 85.248L46.5644 85.2582L46.5746 85.3602L46.6766 85.35L46.6663 85.248ZM46.3514 80.902L46.2506 80.8841L46.2504 80.8849L46.3514 80.902ZM46.6136 80.0505L46.5205 80.0076L46.5203 80.008L46.6136 80.0505ZM47.7181 78.6945L47.6576 78.6118L47.6572 78.6122L47.7181 78.6945ZM48.5007 78.2686L48.5376 78.3642L48.5385 78.3638L48.5007 78.2686ZM53.8878 77.6032L53.9898 77.593L53.9796 77.4911L53.8776 77.5013L53.8878 77.6032ZM54.5644 84.3535L53.5848 84.4517L53.6052 84.6556L54.5848 84.5574L54.5644 84.3535ZM53.697 84.5434L53.5006 82.5843L53.2967 82.6047L53.4931 84.5638L53.697 84.5434ZM53.3884 82.4925L47.922 83.0404L47.9424 83.2443L53.4089 82.6964L53.3884 82.4925ZM48.0341 83.1321L47.9364 82.1573L47.7325 82.1778L47.8302 83.1525L48.0341 83.1321ZM47.8447 82.2695L53.3112 81.7216L53.2908 81.5177L47.8243 82.0656L47.8447 82.2695ZM53.4029 81.6095L53.1084 78.6707L52.9045 78.6912L53.199 81.6299L53.4029 81.6095ZM52.9962 78.579L49.4841 78.931L49.5045 79.1349L53.0167 78.7829L52.9962 78.579ZM49.4841 78.931C49.1359 78.9659 48.8133 79.067 48.5174 79.2345L48.6183 79.4128C48.8887 79.2598 49.1837 79.167 49.5045 79.1349L49.4841 78.931ZM48.5182 79.2341C48.2235 79.3974 47.9727 79.607 47.7666 79.8626L47.9262 79.9912C48.1151 79.7568 48.3452 79.5642 48.6175 79.4133L48.5182 79.2341ZM47.7671 79.862C47.561 80.1141 47.4057 80.401 47.301 80.7219L47.4958 80.7854C47.5929 80.4876 47.7363 80.2234 47.9257 79.9918L47.7671 79.862ZM47.3007 80.7228C47.1986 81.0457 47.1654 81.3831 47.2006 81.7339L47.4045 81.7135C47.372 81.389 47.4027 81.0797 47.4961 80.7846L47.3007 80.7228ZM47.2006 81.7339L47.544 85.1601L47.7478 85.1396L47.4045 81.7135L47.2006 81.7339ZM47.6357 85.0479L46.6561 85.1461L46.6766 85.35L47.6561 85.2518L47.6357 85.0479ZM46.7683 85.2378L46.4249 81.8117L46.221 81.8321L46.5644 85.2582L46.7683 85.2378ZM46.4249 81.8117C46.3942 81.505 46.4035 81.2076 46.4524 80.9192L46.2504 80.8849C46.1982 81.1922 46.1885 81.5081 46.221 81.8321L46.4249 81.8117ZM46.4523 80.9199C46.5043 80.6266 46.5892 80.3511 46.7068 80.0929L46.5203 80.008C46.3953 80.2825 46.3054 80.5747 46.2506 80.8841L46.4523 80.9199ZM46.7067 80.0933C46.8272 79.8312 46.9779 79.5898 47.1586 79.3688L47 79.2391C46.8082 79.4737 46.6483 79.7299 46.5205 80.0076L46.7067 80.0933ZM47.1586 79.3688C47.3425 79.144 47.5493 78.9467 47.779 78.7769L47.6572 78.6122C47.4136 78.7922 47.1945 79.0013 47 79.2391L47.1586 79.3688ZM47.7785 78.7773C48.011 78.6074 48.2639 78.4697 48.5376 78.3642L48.4638 78.173C48.1737 78.2849 47.9049 78.4312 47.6576 78.6118L47.7785 78.7773ZM48.5385 78.3638C48.8109 78.2556 49.1 78.186 49.4064 78.1553L49.3859 77.9514C49.0615 77.984 48.7537 78.0578 48.4629 78.1734L48.5385 78.3638ZM49.4064 78.1553L53.8981 77.7052L53.8776 77.5013L49.3859 77.9514L49.4064 78.1553ZM53.7859 77.6134L54.4726 84.4657L54.6765 84.4452L53.9898 77.593L53.7859 77.6134Z" fill="#FECA2E"/>
<path d="M62.7518 81.3197L61.8619 81.7408L60.3891 78.6284C60.2439 78.3216 60.0498 78.0611 59.8067 77.8467C59.5636 77.6324 59.2935 77.4733 58.9964 77.3695C58.7009 77.2614 58.3897 77.2138 58.0629 77.2268C57.7376 77.2355 57.4216 77.3124 57.1149 77.4576L56.6374 77.6835L59.1619 83.0185L58.272 83.4396L55.3264 77.2148L56.6938 76.5677C56.9774 76.4335 57.2672 76.3424 57.5633 76.2944C57.8608 76.2421 58.1554 76.2285 58.447 76.2534C58.7387 76.2783 59.0223 76.3389 59.2981 76.4351C59.5738 76.5313 59.8346 76.6594 60.0803 76.8194C60.1095 76.5293 60.1743 76.2472 60.2748 75.9729C60.3752 75.6987 60.5083 75.4409 60.6739 75.1996C60.8395 74.9583 61.0355 74.7399 61.2617 74.5443C61.4894 74.3444 61.7451 74.1774 62.0287 74.0432L63.4004 73.3941L66.346 79.6189L65.4561 80.04L62.9316 74.7051L62.4498 74.9331C62.143 75.0782 61.8832 75.2738 61.6702 75.5198C61.4558 75.7629 61.2953 76.0337 61.1886 76.3321C61.0834 76.6263 61.0351 76.936 61.0438 77.2613C61.0554 77.5852 61.1338 77.9006 61.279 78.2073L62.7518 81.3197Z" fill="#FECA2E"/>
<path d="M62.7518 81.3197L62.7956 81.4123L62.8882 81.3685L62.8444 81.2759L62.7518 81.3197ZM61.8619 81.7408L61.7693 81.7846L61.8131 81.8772L61.9057 81.8334L61.8619 81.7408ZM58.9964 77.3695L58.9612 77.4657L58.9626 77.4662L58.9964 77.3695ZM58.0629 77.2268L58.0657 77.3292L58.067 77.3292L58.0629 77.2268ZM56.6374 77.6835L56.5935 77.5909L56.5009 77.6348L56.5448 77.7274L56.6374 77.6835ZM59.1619 83.0185L59.2057 83.1111L59.2983 83.0672L59.2545 82.9746L59.1619 83.0185ZM58.272 83.4396L58.1794 83.4834L58.2232 83.576L58.3158 83.5322L58.272 83.4396ZM55.3264 77.2148L55.2826 77.1222L55.19 77.166L55.2338 77.2586L55.3264 77.2148ZM57.5633 76.2944L57.5797 76.3955L57.581 76.3953L57.5633 76.2944ZM60.0803 76.8194L60.0244 76.9052L60.1654 76.997L60.1822 76.8297L60.0803 76.8194ZM61.2617 74.5443L61.3287 74.6218L61.3292 74.6213L61.2617 74.5443ZM63.4004 73.3941L63.493 73.3503L63.4492 73.2577L63.3566 73.3015L63.4004 73.3941ZM66.346 79.6189L66.3898 79.7115L66.4824 79.6677L66.4386 79.5751L66.346 79.6189ZM65.4561 80.04L65.3635 80.0838L65.4073 80.1764L65.4999 80.1326L65.4561 80.04ZM62.9316 74.7051L63.0242 74.6613L62.9804 74.5686L62.8878 74.6125L62.9316 74.7051ZM61.6702 75.5198L61.747 75.5876L61.7476 75.5869L61.6702 75.5198ZM61.0438 77.2613L60.9414 77.2641L60.9414 77.265L61.0438 77.2613ZM62.7079 81.2271L61.8181 81.6482L61.9057 81.8334L62.7956 81.4123L62.7079 81.2271ZM61.9545 81.697L60.4817 78.5846L60.2965 78.6722L61.7693 81.7846L61.9545 81.697ZM60.4817 78.5846C60.3309 78.2659 60.1285 77.9939 59.8744 77.7699L59.7389 77.9236C59.9711 78.1283 60.157 78.3774 60.2965 78.6722L60.4817 78.5846ZM59.8744 77.7699C59.6217 77.547 59.3402 77.3811 59.0302 77.2728L58.9626 77.4662C59.2468 77.5655 59.5054 77.7177 59.7389 77.9236L59.8744 77.7699ZM59.0316 77.2733C58.723 77.1604 58.3985 77.111 58.0589 77.1244L58.067 77.3292C58.381 77.3167 58.6788 77.3624 58.9612 77.4657L59.0316 77.2733ZM58.0602 77.1244C57.7201 77.1335 57.3901 77.214 57.071 77.365L57.1587 77.5502C57.4531 77.4109 57.7552 77.3375 58.0657 77.3292L58.0602 77.1244ZM57.071 77.365L56.5935 77.5909L56.6812 77.7761L57.1587 77.5502L57.071 77.365ZM56.5448 77.7274L59.0693 83.0623L59.2545 82.9746L56.73 77.6397L56.5448 77.7274ZM59.1181 82.9259L58.2282 83.347L58.3158 83.5322L59.2057 83.1111L59.1181 82.9259ZM58.3646 83.3957L55.419 77.1709L55.2338 77.2586L58.1794 83.4834L58.3646 83.3957ZM55.3702 77.3074L56.7376 76.6603L56.6499 76.4751L55.2826 77.1222L55.3702 77.3074ZM56.7376 76.6603C57.0129 76.53 57.2935 76.4419 57.5797 76.3955L57.5469 76.1933C57.2409 76.2429 56.9418 76.337 56.6499 76.4751L56.7376 76.6603ZM57.581 76.3953C57.8701 76.3445 58.1558 76.3313 58.4383 76.3555L58.4558 76.1513C58.1551 76.1256 57.8516 76.1397 57.5455 76.1935L57.581 76.3953ZM58.4383 76.3555C58.7214 76.3797 58.9967 76.4385 59.2643 76.5318L59.3318 76.3384C59.048 76.2393 58.7559 76.177 58.4558 76.1513L58.4383 76.3555ZM59.2643 76.5318C59.5323 76.6253 59.7856 76.7497 60.0244 76.9052L60.1362 76.7335C59.8836 76.5691 59.6154 76.4373 59.3318 76.3384L59.2643 76.5318ZM60.1822 76.8297C60.2106 76.5481 60.2735 76.2744 60.371 76.0082L60.1786 75.9377C60.0752 76.2199 60.0084 76.5105 59.9784 76.8091L60.1822 76.8297ZM60.371 76.0082C60.4685 75.742 60.5976 75.4919 60.7584 75.2576L60.5894 75.1417C60.419 75.39 60.282 75.6554 60.1786 75.9377L60.371 76.0082ZM60.7584 75.2576C60.9189 75.0237 61.1089 74.8118 61.3287 74.6218L61.1947 74.4668C60.962 74.668 60.7601 74.893 60.5894 75.1417L60.7584 75.2576ZM61.3292 74.6213C61.5496 74.4279 61.7972 74.2661 62.0725 74.1358L61.9849 73.9506C61.693 74.0887 61.4292 74.2609 61.1941 74.4673L61.3292 74.6213ZM62.0725 74.1358L63.4442 73.4867L63.3566 73.3015L61.9849 73.9506L62.0725 74.1358ZM63.3078 73.4379L66.2534 79.6627L66.4386 79.5751L63.493 73.3503L63.3078 73.4379ZM66.3022 79.5263L65.4123 79.9474L65.4999 80.1326L66.3898 79.7115L66.3022 79.5263ZM65.5487 79.9962L63.0242 74.6613L62.839 74.7489L65.3635 80.0838L65.5487 79.9962ZM62.8878 74.6125L62.406 74.8405L62.4936 75.0257L62.9754 74.7977L62.8878 74.6125ZM62.406 74.8405C62.0869 74.9915 61.8154 75.1955 61.5927 75.4528L61.7476 75.5869C61.9509 75.3521 62.1991 75.165 62.4936 75.0257L62.406 74.8405ZM61.5933 75.4521C61.3706 75.7047 61.2033 75.9867 61.0921 76.2976L61.285 76.3666C61.3873 76.0807 61.541 75.8212 61.747 75.5876L61.5933 75.4521ZM61.0921 76.2976C60.9825 76.6042 60.9324 76.9266 60.9414 77.2641L61.1462 77.2586C61.1379 76.9454 61.1843 76.6484 61.285 76.3666L61.0921 76.2976ZM60.9414 77.265C60.9536 77.6035 61.0355 77.9324 61.1864 78.2511L61.3716 78.1635C61.2321 77.8687 61.1573 77.567 61.1462 77.2576L60.9414 77.265ZM61.1864 78.2511L62.6592 81.3635L62.8444 81.2759L61.3716 78.1635L61.1864 78.2511Z" fill="#FECA2E"/>
<path d="M26.6052 21.6161L26.001 22.3934L24.4111 21.2319L21.0389 25.5691L20.2479 24.9912L23.62 20.654L21.2352 18.9118L19.0686 21.6983C18.8623 21.9637 18.7207 22.2527 18.644 22.5652C18.5646 22.8758 18.5476 23.1844 18.593 23.491C18.6358 23.7957 18.7371 24.0877 18.897 24.3669C19.0588 24.6437 19.2767 24.8821 19.5507 25.0823L22.3311 27.1135L21.7269 27.8907L18.9465 25.8595C18.6905 25.6726 18.4695 25.4616 18.2834 25.2265C18.0966 24.987 17.9464 24.7346 17.8325 24.4691C17.7181 24.1992 17.6407 23.9208 17.6004 23.6337C17.5595 23.3423 17.5559 23.0523 17.5896 22.7639C17.6253 22.4729 17.7003 22.1888 17.8144 21.9116C17.9261 21.6325 18.0791 21.3678 18.2737 21.1176L21.0445 17.5538L26.6052 21.6161Z" fill="#FECA2E"/>
<path d="M26.6052 21.6161L26.688 21.6766L26.7508 21.5957L26.6681 21.5353L26.6052 21.6161ZM26.001 22.3934L25.9381 22.4742L26.0208 22.5347L26.0837 22.4538L26.001 22.3934ZM24.4111 21.2319L24.474 21.151L24.3912 21.0906L24.3283 21.1714L24.4111 21.2319ZM21.0389 25.5691L20.9761 25.65L21.0588 25.7104L21.1217 25.6295L21.0389 25.5691ZM20.2479 24.9912L20.1651 24.9308L20.1023 25.0116L20.185 25.0721L20.2479 24.9912ZM23.62 20.654L23.7027 20.7144L23.7656 20.6335L23.6829 20.5731L23.62 20.654ZM21.2352 18.9118L21.298 18.8309L21.2153 18.7704L21.1524 18.8513L21.2352 18.9118ZM18.644 22.5652L18.7448 22.5887L18.745 22.5878L18.644 22.5652ZM18.593 23.491L18.696 23.4765L18.6959 23.4758L18.593 23.491ZM18.897 24.3669L18.8061 24.4166L18.8065 24.4174L18.897 24.3669ZM22.3311 27.1135L22.4139 27.1739L22.4767 27.0931L22.394 27.0326L22.3311 27.1135ZM21.7269 27.8907L21.664 27.9716L21.7467 28.032L21.8096 27.9511L21.7269 27.8907ZM18.2834 25.2265L18.2004 25.2879L18.2008 25.2885L18.2834 25.2265ZM17.8325 24.4691L17.7364 24.5082L17.7365 24.5086L17.8325 24.4691ZM17.6004 23.6337L17.7033 23.6193L17.6004 23.6337ZM17.5896 22.7639L17.4864 22.7527L17.4863 22.7533L17.5896 22.7639ZM17.8144 21.9116L17.9109 21.9484L17.9113 21.9475L17.8144 21.9116ZM21.0445 17.5538L21.1074 17.4729L21.0246 17.4125L20.9618 17.4934L21.0445 17.5538ZM26.5225 21.5557L25.9182 22.3329L26.0837 22.4538L26.688 21.6766L26.5225 21.5557ZM26.0638 22.3125L24.474 21.151L24.3482 21.3128L25.9381 22.4742L26.0638 22.3125ZM24.3283 21.1714L20.9562 25.5087L21.1217 25.6295L24.4938 21.2923L24.3283 21.1714ZM21.1018 25.4882L20.3108 24.9103L20.185 25.0721L20.9761 25.65L21.1018 25.4882ZM20.3306 25.0516L23.7027 20.7144L23.5373 20.5935L20.1651 24.9308L20.3306 25.0516ZM23.6829 20.5731L21.298 18.8309L21.1723 18.9926L23.5571 20.7349L23.6829 20.5731ZM21.1524 18.8513L18.9859 21.6379L19.1514 21.7588L21.3179 18.9722L21.1524 18.8513ZM18.9859 21.6379C18.7711 21.9141 18.6231 22.2159 18.5429 22.5425L18.745 22.5878C18.8183 22.2895 18.9535 22.0133 19.1514 21.7588L18.9859 21.6379ZM18.5431 22.5416C18.4606 22.8645 18.4428 23.1863 18.4902 23.5061L18.6959 23.4758C18.6525 23.1825 18.6686 22.887 18.7448 22.5887L18.5431 22.5416ZM18.4901 23.5054C18.5346 23.823 18.6402 24.1269 18.8061 24.4166L18.9879 24.3173C18.834 24.0485 18.737 23.7683 18.696 23.4765L18.4901 23.5054ZM18.8065 24.4174C18.9756 24.7065 19.2031 24.9552 19.4879 25.1632L19.6136 25.0014C19.3503 24.8091 19.142 24.5808 18.9874 24.3165L18.8065 24.4174ZM19.4879 25.1632L22.2682 27.1944L22.394 27.0326L19.6136 25.0014L19.4879 25.1632ZM22.2484 27.0531L21.6441 27.8303L21.8096 27.9511L22.4139 27.1739L22.2484 27.0531ZM21.7897 27.8098L19.0094 25.7787L18.8836 25.9404L21.664 27.9716L21.7897 27.8098ZM19.0094 25.7787C18.7605 25.5968 18.5461 25.3921 18.3659 25.1645L18.2008 25.2885C18.3929 25.531 18.6206 25.7483 18.8836 25.9404L19.0094 25.7787ZM18.3664 25.1651C18.1847 24.9321 18.0388 24.6869 17.9285 24.4296L17.7365 24.5086C17.8539 24.7822 18.0086 25.042 18.2004 25.2879L18.3664 25.1651ZM17.9286 24.43C17.8175 24.1679 17.7424 23.8978 17.7033 23.6193L17.4974 23.6482C17.5389 23.9438 17.6186 24.2305 17.7364 24.5082L17.9286 24.43ZM17.7033 23.6193C17.6636 23.336 17.6601 23.0544 17.6928 22.7745L17.4863 22.7533C17.4516 23.0502 17.4553 23.3486 17.4974 23.6482L17.7033 23.6193ZM17.6928 22.775C17.7274 22.493 17.8 22.2176 17.9109 21.9484L17.718 21.8747C17.6005 22.1601 17.5232 22.4528 17.4864 22.7527L17.6928 22.775ZM17.9113 21.9475C18.0192 21.6775 18.1674 21.4211 18.3564 21.178L18.191 21.0572C17.9908 21.3146 17.8329 21.5874 17.7176 21.8757L17.9113 21.9475ZM18.3564 21.178L21.1272 17.6142L20.9618 17.4934L18.191 21.0572L18.3564 21.178ZM20.9816 17.6347L26.5424 21.697L26.6681 21.5353L21.1074 17.4729L20.9816 17.6347Z" fill="#FECA2E"/>
<path d="M31.6982 14.5661C31.8667 14.7839 31.983 15.0179 32.0471 15.2681C32.1092 15.5158 32.1226 15.7633 32.0874 16.0106C32.0527 16.2535 31.9697 16.4861 31.8382 16.7084C31.7094 16.9289 31.5349 17.1192 31.3149 17.2793L26.4769 20.8005L25.8746 20.0218L30.7125 16.5006C30.8238 16.4196 30.9117 16.324 30.9761 16.2138C31.0406 16.1035 31.0803 15.9875 31.0954 15.8658C31.113 15.7421 31.1063 15.6184 31.0752 15.4945C31.0422 15.3681 30.9845 15.2518 30.9023 15.1454C30.82 15.0391 30.7219 14.9541 30.608 14.8905C30.4941 14.827 30.3735 14.7861 30.2462 14.768C30.1215 14.7479 29.9955 14.7525 29.8684 14.7817C29.7413 14.8109 29.6221 14.866 29.5108 14.947L26.2648 17.3096C26.0473 17.4678 25.8102 17.5771 25.5534 17.6374C25.2965 17.6976 25.0418 17.7109 24.7891 17.6771C24.537 17.6389 24.2948 17.5559 24.0625 17.4282C23.8327 17.2985 23.6346 17.1261 23.4681 16.9108C23.3036 16.6981 23.1893 16.4667 23.1252 16.2164C23.0637 15.9643 23.0503 15.7168 23.0849 15.4739C23.1201 15.2266 23.2035 14.9918 23.335 14.7695C23.4645 14.5446 23.6379 14.353 23.8554 14.1948L28.2934 10.9646L28.8957 11.7433L24.4577 14.9735C24.349 15.0526 24.2611 15.1482 24.1941 15.2603C24.1297 15.3706 24.0886 15.4875 24.071 15.6112C24.0534 15.7348 24.0611 15.8598 24.0941 15.9862C24.1251 16.11 24.1818 16.2251 24.2641 16.3315C24.3464 16.4379 24.4454 16.5241 24.5613 16.5902C24.6752 16.6537 24.7958 16.6946 24.9231 16.7127C25.0504 16.7309 25.1777 16.7254 25.3048 16.6962C25.4345 16.6651 25.5537 16.61 25.6624 16.5309L28.9084 14.1683C29.1284 14.0082 29.3666 13.9002 29.6227 13.8443C29.8796 13.7841 30.134 13.773 30.3861 13.8112C30.6388 13.845 30.88 13.9267 31.1097 14.0563C31.3375 14.1834 31.5337 14.3534 31.6982 14.5661Z" fill="#FECA2E"/>
<path d="M32.0471 15.2681L32.148 15.2449L32.1478 15.2444L32.0471 15.2681ZM31.8382 16.7084L31.7481 16.6576L31.7478 16.658L31.8382 16.7084ZM26.4769 20.8005L26.3941 20.8608L26.4568 20.9419L26.5396 20.8816L26.4769 20.8005ZM25.8746 20.0218L25.8119 19.9408L25.7291 20.0011L25.7917 20.0821L25.8746 20.0218ZM31.0954 15.8658L30.9924 15.8511L30.9922 15.8529L31.0954 15.8658ZM31.0752 15.4945L31.1761 15.4713L31.1759 15.4704L31.0752 15.4945ZM30.2462 14.768L30.2301 14.8676L30.2319 14.8679L30.2462 14.768ZM24.7891 17.6771L24.7739 17.7769L24.7758 17.7772L24.7891 17.6771ZM24.0625 17.4282L24.0109 17.5154L24.0119 17.516L24.0625 17.4282ZM23.1252 16.2164L23.0241 16.239L23.0244 16.2401L23.1252 16.2164ZM23.335 14.7695L23.4251 14.8203L23.4257 14.8194L23.335 14.7695ZM28.2934 10.9646L28.3762 10.9043L28.3135 10.8233L28.2307 10.8836L28.2934 10.9646ZM28.8957 11.7433L28.9584 11.8244L29.0413 11.7641L28.9786 11.683L28.8957 11.7433ZM24.1941 15.2603L24.1042 15.209L24.1037 15.2099L24.1941 15.2603ZM24.0941 15.9862L24.195 15.963L24.1948 15.9621L24.0941 15.9862ZM24.5613 16.5902L24.5093 16.6772L24.5101 16.6777L24.5613 16.5902ZM25.3048 16.6962L25.3294 16.7945L25.3304 16.7943L25.3048 16.6962ZM29.6227 13.8443L29.6463 13.9429L29.6479 13.9425L29.6227 13.8443ZM30.3861 13.8112L30.3709 13.911L30.3728 13.9113L30.3861 13.8112ZM31.1097 14.0563L31.0582 14.1436L31.0586 14.1438L31.1097 14.0563ZM31.6154 14.6264C31.7759 14.8338 31.8858 15.0555 31.9463 15.2917L32.1478 15.2444C32.0802 14.9802 31.9575 14.7339 31.7811 14.5058L31.6154 14.6264ZM31.9462 15.2912C32.0052 15.5268 32.0179 15.7614 31.9845 15.9959L32.1902 16.0252C32.2273 15.7651 32.2131 15.5048 32.148 15.2449L31.9462 15.2912ZM31.9845 15.9959C31.9517 16.2254 31.8732 16.4458 31.7481 16.6576L31.9284 16.7593C32.0661 16.5264 32.1537 16.2815 32.1902 16.0252L31.9845 15.9959ZM31.7478 16.658C31.6263 16.8658 31.4615 17.0459 31.2522 17.1983L31.3776 17.3604C31.6083 17.1924 31.7924 16.9919 31.9286 16.7589L31.7478 16.658ZM31.2522 17.1983L26.4142 20.7195L26.5396 20.8816L31.3776 17.3604L31.2522 17.1983ZM26.5598 20.7403L25.9574 19.9616L25.7917 20.0821L26.3941 20.8608L26.5598 20.7403ZM25.9373 20.1029L30.7752 16.5817L30.6498 16.4196L25.8119 19.9408L25.9373 20.1029ZM30.7752 16.5817C30.8971 16.493 30.9947 16.3872 31.0666 16.2642L30.8857 16.1633C30.8287 16.2608 30.7506 16.3462 30.6498 16.4196L30.7752 16.5817ZM31.0666 16.2642C31.1375 16.1428 31.1818 16.0141 31.1985 15.8786L30.9922 15.8529C30.9789 15.961 30.9437 16.0642 30.8857 16.1633L31.0666 16.2642ZM31.1983 15.8804C31.2177 15.7439 31.2102 15.6074 31.1761 15.4713L30.9743 15.5177C31.0023 15.6294 31.0083 15.7403 30.9925 15.8511L31.1983 15.8804ZM31.1759 15.4704C31.1394 15.3307 31.0756 15.2021 30.9851 15.0851L30.8194 15.2057C30.8935 15.3015 30.945 15.4056 30.9745 15.5186L31.1759 15.4704ZM30.9851 15.0851C30.8946 14.9682 30.7859 14.8738 30.6592 14.803L30.5569 14.978C30.6579 15.0344 30.7454 15.1099 30.8194 15.2057L30.9851 15.0851ZM30.6592 14.803C30.5341 14.7332 30.401 14.6881 30.2604 14.6681L30.2319 14.8679C30.3461 14.8842 30.4542 14.9207 30.5569 14.978L30.6592 14.803ZM30.2623 14.6683C30.1235 14.646 29.9837 14.6513 29.8438 14.6834L29.8931 14.88C30.0073 14.8538 30.1194 14.8499 30.2301 14.8676L30.2623 14.6683ZM29.8438 14.6834C29.702 14.716 29.5699 14.7773 29.4481 14.866L29.5735 15.0281C29.6742 14.9547 29.7806 14.9058 29.8931 14.88L29.8438 14.6834ZM29.4481 14.866L26.2021 17.2285L26.3274 17.3906L29.5735 15.0281L29.4481 14.866ZM26.2021 17.2285C25.9955 17.3789 25.771 17.4822 25.5282 17.5392L25.5785 17.7356C25.8493 17.672 26.0992 17.5567 26.3274 17.3906L26.2021 17.2285ZM25.5282 17.5392C25.2835 17.5966 25.0418 17.609 24.8024 17.577L24.7758 17.7772C25.0418 17.8127 25.3096 17.7987 25.5785 17.7356L25.5282 17.5392ZM24.8043 17.5773C24.5652 17.5411 24.3349 17.4623 24.1131 17.3404L24.0119 17.516C24.2547 17.6495 24.5089 17.7367 24.7739 17.7769L24.8043 17.5773ZM24.1141 17.3409C23.897 17.2184 23.7094 17.0553 23.5509 16.8506L23.3853 16.9711C23.5599 17.1968 23.7685 17.3786 24.0109 17.5154L24.1141 17.3409ZM23.5509 16.8506C23.3946 16.6484 23.2865 16.4294 23.226 16.1928L23.0244 16.2401C23.092 16.504 23.2125 16.7478 23.3853 16.9711L23.5509 16.8506ZM23.2262 16.1939C23.1676 15.9533 23.155 15.7185 23.1878 15.4886L22.982 15.4593C22.9455 15.7152 22.9598 15.9753 23.0241 16.239L23.2262 16.1939ZM23.1878 15.4886C23.2212 15.2544 23.3001 15.0319 23.4251 14.8203L23.2448 14.7186C23.1069 14.9517 23.0191 15.1988 22.982 15.4593L23.1878 15.4886ZM23.4257 14.8194C23.548 14.607 23.7118 14.4259 23.918 14.2758L23.7927 14.1137C23.564 14.2801 23.3809 14.4822 23.2442 14.7196L23.4257 14.8194ZM23.918 14.2758L28.3561 11.0457L28.2307 10.8836L23.7927 14.1137L23.918 14.2758ZM28.2106 11.0249L28.8129 11.8036L28.9786 11.683L28.3762 10.9043L28.2106 11.0249ZM28.8331 11.6623L24.395 14.8924L24.5204 15.0545L28.9584 11.8244L28.8331 11.6623ZM24.395 14.8924C24.2755 14.9794 24.1783 15.0851 24.1042 15.209L24.284 15.3116C24.344 15.2113 24.4225 15.1258 24.5204 15.0545L24.395 14.8924ZM24.1037 15.2099C24.0329 15.3309 23.9876 15.46 23.9681 15.5965L24.1739 15.6258C24.1897 15.515 24.2264 15.4102 24.2845 15.3108L24.1037 15.2099ZM23.9681 15.5965C23.9486 15.7336 23.9572 15.8718 23.9934 16.0103L24.1948 15.9621C24.1649 15.8479 24.1582 15.736 24.1739 15.6258L23.9681 15.5965ZM23.9932 16.0094C24.0277 16.1472 24.0908 16.2748 24.1813 16.3918L24.3469 16.2712C24.2728 16.1754 24.2225 16.0729 24.195 15.963L23.9932 16.0094ZM24.1813 16.3918C24.2717 16.5087 24.3812 16.6041 24.5093 16.6772L24.6133 16.5032C24.5096 16.444 24.421 16.367 24.3469 16.2712L24.1813 16.3918ZM24.5101 16.6777C24.6352 16.7475 24.7683 16.7926 24.9089 16.8127L24.9374 16.6128C24.8232 16.5965 24.7151 16.56 24.6124 16.5027L24.5101 16.6777ZM24.9089 16.8127C25.0494 16.8327 25.1898 16.8265 25.3294 16.7945L25.2801 16.5979C25.1655 16.6242 25.0515 16.6291 24.9374 16.6128L24.9089 16.8127ZM25.3304 16.7943C25.4738 16.7599 25.6055 16.6989 25.7251 16.6119L25.5997 16.4498C25.5018 16.5211 25.3952 16.5703 25.2791 16.5981L25.3304 16.7943ZM25.7251 16.6119L28.9711 14.2494L28.8457 14.0873L25.5997 16.4498L25.7251 16.6119ZM28.9711 14.2494C29.1801 14.0972 29.405 13.9955 29.6463 13.9429L29.5992 13.7458C29.3281 13.8049 29.0768 13.9191 28.8457 14.0873L28.9711 14.2494ZM29.6479 13.9425C29.8921 13.8852 30.1328 13.8749 30.3709 13.911L30.4013 13.7114C30.1352 13.6711 29.8671 13.6829 29.5976 13.7461L29.6479 13.9425ZM30.3728 13.9113C30.6115 13.9432 30.8397 14.0203 31.0582 14.1436L31.1613 13.9691C30.9203 13.8331 30.6661 13.7468 30.3994 13.7112L30.3728 13.9113ZM31.0586 14.1438C31.2735 14.2638 31.4591 14.4242 31.6154 14.6264L31.7811 14.5058C31.6083 14.2825 31.4015 14.1031 31.1609 13.9688L31.0586 14.1438Z" fill="#FECA2E"/>
<path d="M40.1783 13.6356L36.0396 15.2228C35.5942 15.3937 35.1554 15.466 34.7231 15.4397C34.2909 15.4135 33.8862 15.3065 33.5091 15.1186C33.135 14.9295 32.7987 14.6677 32.5001 14.333C32.2016 13.9984 31.9624 13.6102 31.7827 13.1683C31.6041 12.7294 31.5067 12.2903 31.4903 11.8509C31.4728 11.4085 31.534 10.9942 31.6741 10.608C31.8159 10.2176 32.0354 9.86946 32.3325 9.56353C32.6284 9.25463 32.9991 9.01477 33.4445 8.84396L37.5832 7.25676L37.9541 8.16866L33.8155 9.75586C33.4986 9.87738 33.2379 10.0477 33.0333 10.2667C32.8304 10.4816 32.683 10.7267 32.5911 11.0019C32.501 11.273 32.4642 11.5648 32.4808 11.8773C32.5003 12.1886 32.574 12.5015 32.7019 12.8158C32.8298 13.1302 32.9967 13.409 33.2028 13.6522C33.4107 13.8913 33.6435 14.0814 33.9014 14.2225C34.161 14.3595 34.4405 14.4391 34.7398 14.4614C35.0422 14.4826 35.3518 14.4325 35.6686 14.3109L38.8881 13.0763L38.1479 11.2569L34.2559 12.7495L33.8849 11.8376L38.6961 9.99247L40.1783 13.6356Z" fill="#FECA2E"/>
<path d="M40.1783 13.6356L40.2169 13.7305L40.3125 13.6938L40.2739 13.5989L40.1783 13.6356ZM34.7231 15.4397L34.7183 15.5413L34.7231 15.4397ZM33.5091 15.1186L33.4631 15.209L33.4637 15.2092L33.5091 15.1186ZM32.5001 14.333L32.4231 14.3996L32.5001 14.333ZM31.4903 11.8509L31.5934 11.8487L31.5934 11.8484L31.4903 11.8509ZM31.6741 10.608L31.5769 10.5724L31.5769 10.5725L31.6741 10.608ZM32.3325 9.56353L32.4075 9.63447L32.408 9.63398L32.3325 9.56353ZM37.5832 7.25676L37.6788 7.22007L37.6402 7.12517L37.5445 7.16186L37.5832 7.25676ZM37.9541 8.16866L37.9927 8.26356L38.0884 8.22687L38.0498 8.13198L37.9541 8.16866ZM33.0333 10.2667L33.1093 10.3366L33.1096 10.3362L33.0333 10.2667ZM32.5911 11.0019L32.4931 10.9688L32.4931 10.9689L32.5911 11.0019ZM32.4808 11.8773L32.3777 11.8811L32.3778 11.8821L32.4808 11.8773ZM33.2028 13.6522L33.1241 13.7167L33.1249 13.7177L33.2028 13.6522ZM33.9014 14.2225L33.8523 14.3113L33.8537 14.312L33.9014 14.2225ZM34.7398 14.4614L34.7335 14.5629L34.734 14.5629L34.7398 14.4614ZM38.8881 13.0763L38.9267 13.1711L39.0223 13.1345L38.9837 13.0396L38.8881 13.0763ZM38.1479 11.2569L38.2436 11.2202L38.205 11.1253L38.1093 11.162L38.1479 11.2569ZM34.2559 12.7495L34.1602 12.7862L34.1988 12.8811L34.2945 12.8444L34.2559 12.7495ZM33.8849 11.8376L33.8463 11.7427L33.7506 11.7794L33.7892 11.8743L33.8849 11.8376ZM38.6961 9.99247L38.7918 9.95578L38.7532 9.86089L38.6575 9.89757L38.6961 9.99247ZM40.1396 13.5407L36.001 15.1279L36.0782 15.3177L40.2169 13.7305L40.1396 13.5407ZM36.001 15.1279C35.5679 15.2941 35.1438 15.3634 34.7279 15.3382L34.7183 15.5413C35.167 15.5685 35.6206 15.4932 36.0782 15.3177L36.001 15.1279ZM34.7279 15.3382C34.3094 15.3128 33.9186 15.2093 33.5545 15.0279L33.4637 15.2092C33.8538 15.4037 34.2724 15.5143 34.7183 15.5413L34.7279 15.3382ZM33.5551 15.0281C33.1936 14.8455 32.8676 14.592 32.5771 14.2665L32.4231 14.3996C32.7298 14.7433 33.0764 15.0135 33.4631 15.209L33.5551 15.0281ZM32.5771 14.2665C32.287 13.9413 32.054 13.5634 31.8783 13.1317L31.687 13.205C31.8709 13.657 32.1162 14.0556 32.4231 14.3996L32.5771 14.2665ZM31.8783 13.1317C31.7039 12.703 31.6093 12.2755 31.5934 11.8487L31.3872 11.8531C31.4041 12.3051 31.5043 12.7559 31.687 13.205L31.8783 13.1317ZM31.5934 11.8484C31.5763 11.418 31.6359 11.0167 31.7713 10.6435L31.5769 10.5725C31.4321 10.9717 31.3692 11.399 31.3873 11.8534L31.5934 11.8484ZM31.7712 10.6435C31.9082 10.2667 32.12 9.93054 32.4075 9.63447L32.2575 9.49259C31.9508 9.80838 31.7237 10.1685 31.5769 10.5724L31.7712 10.6435ZM32.408 9.63398C32.6926 9.33691 33.0502 9.10488 33.4831 8.93886L33.4059 8.74906C32.948 8.92467 32.5643 9.17235 32.2571 9.49308L32.408 9.63398ZM33.4831 8.93886L37.6218 7.35165L37.5445 7.16186L33.4059 8.74906L33.4831 8.93886ZM37.4875 7.29344L37.8585 8.20535L38.0498 8.13198L37.6788 7.22007L37.4875 7.29344ZM37.9155 8.07376L33.7769 9.66097L33.8541 9.85076L37.9927 8.26356L37.9155 8.07376ZM33.7769 9.66097C33.4474 9.78732 33.1732 9.96564 32.9569 10.1972L33.1096 10.3362C33.3026 10.1297 33.5498 9.96745 33.8541 9.85076L33.7769 9.66097ZM32.9573 10.1968C32.7447 10.4221 32.5897 10.6796 32.4931 10.9688L32.6892 11.035C32.7764 10.7737 32.9162 10.5412 33.1092 10.3366L32.9573 10.1968ZM32.4931 10.9689C32.3987 11.2529 32.3606 11.5573 32.3777 11.8811L32.5838 11.8735C32.5678 11.5724 32.6033 11.2931 32.6892 11.0349L32.4931 10.9689ZM32.3778 11.8821C32.3981 12.2052 32.4745 12.5288 32.6062 12.8525L32.7975 12.7791C32.6735 12.4742 32.6025 12.1721 32.5837 11.8725L32.3778 11.8821ZM32.6062 12.8525C32.7379 13.1762 32.9104 13.4646 33.1241 13.7167L33.2816 13.5876C33.0831 13.3533 32.9216 13.0841 32.7975 12.7791L32.6062 12.8525ZM33.1249 13.7177C33.3403 13.9655 33.5827 14.1637 33.8523 14.3113L33.9504 14.1337C33.7044 13.9991 33.4811 13.8171 33.2807 13.5866L33.1249 13.7177ZM33.8537 14.312C34.1265 14.456 34.4201 14.5395 34.7335 14.5629L34.7461 14.36C34.4608 14.3387 34.1954 14.263 33.949 14.1329L33.8537 14.312ZM34.734 14.5629C35.0534 14.5853 35.3781 14.5321 35.7072 14.4058L35.63 14.216C35.3254 14.3328 35.031 14.3799 34.7456 14.36L34.734 14.5629ZM35.7072 14.4058L38.9267 13.1711L38.8495 12.9814L35.63 14.216L35.7072 14.4058ZM38.9837 13.0396L38.2436 11.2202L38.0522 11.2936L38.7924 13.1129L38.9837 13.0396ZM38.1093 11.162L34.2173 12.6546L34.2945 12.8444L38.1865 11.3518L38.1093 11.162ZM34.3515 12.7128L33.9805 11.8009L33.7892 11.8743L34.1602 12.7862L34.3515 12.7128ZM33.9235 11.9325L38.7347 10.0874L38.6575 9.89757L33.8463 11.7427L33.9235 11.9325ZM38.6005 10.0292L40.0826 13.6723L40.2739 13.5989L38.7918 9.95578L38.6005 10.0292Z" fill="#FECA2E"/>
<path d="M48.858 12.9181L47.8778 13.0092L47.6865 11.0495L42.2162 11.5578L42.1211 10.5827L47.5914 10.0745L47.3045 7.13501L43.7899 7.46155C43.4552 7.49265 43.146 7.58729 42.8623 7.74548C42.5782 7.90048 42.3371 8.09973 42.1389 8.34321C41.9404 8.58351 41.7903 8.8579 41.6885 9.16638C41.5899 9.47457 41.5571 9.79754 41.5901 10.1353L41.9245 13.5623L40.9442 13.6534L40.6098 10.2264C40.579 9.91092 40.5893 9.60451 40.6407 9.30714C40.695 9.00629 40.7832 8.72318 40.9052 8.45783C41.0302 8.189 41.1862 7.9414 41.3732 7.71503C41.563 7.48518 41.7766 7.28367 42.0138 7.11051C42.2542 6.93705 42.5156 6.79702 42.7979 6.69041C43.0799 6.58061 43.3787 6.51105 43.6943 6.48172L48.1892 6.06411L48.858 12.9181Z" fill="#FECA2E"/>
<path d="M48.858 12.9181L48.868 13.0201L48.97 13.0106L48.96 12.9086L48.858 12.9181ZM47.8778 13.0092L47.7757 13.0187L47.7857 13.1206L47.8877 13.1111L47.8778 13.0092ZM47.6865 11.0495L47.7885 11.0401L47.7786 10.9381L47.6766 10.9476L47.6865 11.0495ZM42.2162 11.5578L42.1142 11.5673L42.1241 11.6692L42.2262 11.6597L42.2162 11.5578ZM42.1211 10.5827L42.1111 10.4808L42.0091 10.4902L42.019 10.5922L42.1211 10.5827ZM47.5914 10.0745L47.6013 10.1765L47.7033 10.167L47.6934 10.065L47.5914 10.0745ZM47.3045 7.13501L47.4065 7.12553L47.3966 7.02357L47.2946 7.03304L47.3045 7.13501ZM42.8623 7.74548L42.9117 7.83541L42.9125 7.83496L42.8623 7.74548ZM42.1389 8.34321L42.2181 8.40861L42.2186 8.40804L42.1389 8.34321ZM41.6885 9.16638L41.5911 9.13392L41.5909 9.1348L41.6885 9.16638ZM41.9245 13.5623L41.9344 13.6643L42.0364 13.6548L42.0265 13.5528L41.9245 13.5623ZM40.9442 13.6534L40.8422 13.6629L40.8522 13.7648L40.9542 13.7553L40.9442 13.6534ZM40.6407 9.30714L40.5398 9.28853L40.5397 9.28927L40.6407 9.30714ZM40.9052 8.45783L40.8123 8.41435L40.8121 8.41472L40.9052 8.45783ZM42.0138 7.11051L41.9536 7.02739L41.9531 7.02773L42.0138 7.11051ZM42.7979 6.69041L42.8345 6.78622L42.8355 6.78584L42.7979 6.69041ZM48.1892 6.06411L48.2912 6.05463L48.2812 5.95267L48.1792 5.96214L48.1892 6.06411ZM48.8481 12.8161L47.8678 12.9072L47.8877 13.1111L48.868 13.0201L48.8481 12.8161ZM47.9798 12.9997L47.7885 11.0401L47.5845 11.059L47.7757 13.0187L47.9798 12.9997ZM47.6766 10.9476L42.2063 11.4558L42.2262 11.6597L47.6965 11.1515L47.6766 10.9476ZM42.3182 11.5483L42.2231 10.5733L42.019 10.5922L42.1142 11.5673L42.3182 11.5483ZM42.131 10.6847L47.6013 10.1765L47.5814 9.97252L42.1111 10.4808L42.131 10.6847ZM47.6934 10.065L47.4065 7.12553L47.2025 7.14449L47.4894 10.084L47.6934 10.065ZM47.2946 7.03304L43.78 7.35958L43.7999 7.56351L47.3145 7.23698L47.2946 7.03304ZM43.78 7.35958C43.4316 7.39195 43.1086 7.49066 42.812 7.656L42.9125 7.83496C43.1834 7.68392 43.4789 7.59334 43.7999 7.56351L43.78 7.35958ZM42.8128 7.65556C42.5176 7.81669 42.2661 8.02434 42.0593 8.27838L42.2186 8.40804C42.4082 8.17511 42.6389 7.98427 42.9117 7.8354L42.8128 7.65556ZM42.0598 8.27781C41.8529 8.52827 41.6967 8.81393 41.5912 9.13392L41.7859 9.19884C41.8838 8.90187 42.028 8.63876 42.2181 8.40861L42.0598 8.27781ZM41.5909 9.1348C41.4878 9.45684 41.4538 9.79383 41.488 10.1448L41.6921 10.1258C41.6604 9.80125 41.692 9.49229 41.7861 9.19796L41.5909 9.1348ZM41.488 10.1448L41.8225 13.5718L42.0265 13.5528L41.6921 10.1258L41.488 10.1448ZM41.9145 13.4603L40.9343 13.5514L40.9542 13.7553L41.9344 13.6643L41.9145 13.4603ZM41.0462 13.6439L40.7118 10.2169L40.5078 10.2359L40.8422 13.6629L41.0462 13.6439ZM40.7118 10.2169C40.6819 9.91012 40.692 9.61292 40.7417 9.32501L40.5397 9.28927C40.4867 9.59609 40.4762 9.91172 40.5078 10.2359L40.7118 10.2169ZM40.7416 9.32575C40.7944 9.03297 40.8801 8.75814 40.9984 8.50095L40.8121 8.41472C40.6863 8.68823 40.5956 8.9796 40.5399 9.28853L40.7416 9.32575ZM40.9982 8.50131C41.1196 8.24027 41.2709 8.00005 41.4523 7.78043L41.294 7.64963C41.1014 7.88275 40.9408 8.13773 40.8123 8.41435L40.9982 8.50131ZM41.4523 7.78043C41.6369 7.55701 41.8443 7.36137 42.0745 7.19329L41.9531 7.02773C41.7089 7.20597 41.4892 7.41334 41.294 7.64963L41.4523 7.78043ZM42.0741 7.19362C42.3071 7.02551 42.5605 6.88971 42.8345 6.78622L42.7613 6.59459C42.4707 6.70433 42.2014 6.8486 41.9536 7.0274L42.0741 7.19362ZM42.8355 6.78584C43.1083 6.67965 43.3977 6.61217 43.7043 6.58369L43.6844 6.37976C43.3597 6.40992 43.0516 6.48156 42.7603 6.59497L42.8355 6.78584ZM43.7043 6.58369L48.1991 6.16608L48.1792 5.96214L43.6844 6.37976L43.7043 6.58369ZM48.0871 6.07359L48.756 12.9276L48.96 12.9086L48.2912 6.05463L48.0871 6.07359Z" fill="#FECA2E"/>
<path d="M57.7621 14.6675L56.455 14.4203L54.8164 12.1067L51.8531 11.5463L52.0454 10.5955L55.9289 11.3299C56.1302 11.368 56.3266 11.366 56.518 11.3241C56.7101 11.2789 56.8839 11.2027 57.0395 11.0953C57.1983 10.9884 57.3332 10.8543 57.4443 10.6929C57.556 10.5283 57.6322 10.3456 57.6728 10.1447C57.7134 9.94391 57.7138 9.7485 57.6738 9.55849C57.6339 9.36849 57.5609 9.19666 57.4548 9.04302C57.3524 8.88683 57.2208 8.75442 57.0599 8.64579C56.899 8.53717 56.7178 8.46381 56.5165 8.42574L52.0904 7.58866L50.9199 13.3735L49.9526 13.1906L51.3183 6.44079L56.7117 7.46081C57.0452 7.52387 57.3452 7.6474 57.6117 7.83138C57.8789 8.01223 58.0988 8.23301 58.2714 8.49372C58.4478 8.75189 58.5694 9.03878 58.6362 9.35441C58.7061 9.67064 58.7074 9.99506 58.6401 10.3277C58.5792 10.6289 58.4695 10.9047 58.3111 11.1549C58.1533 11.402 57.9616 11.615 57.736 11.7939C57.511 11.9696 57.2599 12.1046 56.9828 12.1988C56.7095 12.2904 56.425 12.3327 56.1292 12.3257L57.7621 14.6675Z" fill="#FECA2E"/>
<path d="M57.7621 14.6675L57.7417 14.7679L57.9906 14.815L57.8466 14.6086L57.7621 14.6675ZM56.455 14.4203L56.3708 14.4798L56.3944 14.5131L56.4347 14.5207L56.455 14.4203ZM54.8164 12.1067L54.9006 12.0472L54.877 12.0139L54.8367 12.0063L54.8164 12.1067ZM51.8531 11.5463L51.7524 11.5272L51.7321 11.6277L51.8327 11.6467L51.8531 11.5463ZM52.0454 10.5955L52.0658 10.4951L51.9651 10.476L51.9448 10.5764L52.0454 10.5955ZM56.518 11.3241L56.539 11.4239L56.5405 11.4235L56.518 11.3241ZM57.0395 11.0953L56.9827 11.0108L56.9817 11.0115L57.0395 11.0953ZM57.4443 10.6929L57.5288 10.7499L57.5292 10.7494L57.4443 10.6929ZM57.6738 9.55849L57.7743 9.53643L57.6738 9.55849ZM57.4548 9.04302L57.3685 9.09955L57.3699 9.10157L57.4548 9.04302ZM52.0904 7.58866L52.1107 7.48824L52.01 7.46921L51.9897 7.56962L52.0904 7.58866ZM50.9199 13.3735L50.8996 13.4739L51.0003 13.493L51.0206 13.3926L50.9199 13.3735ZM49.9526 13.1906L49.8519 13.1715L49.8316 13.2719L49.9323 13.291L49.9526 13.1906ZM51.3183 6.44079L51.3386 6.34037L51.2379 6.32133L51.2176 6.42175L51.3183 6.44079ZM57.6117 7.83138L57.5525 7.91559L57.5533 7.91611L57.6117 7.83138ZM58.2714 8.49372L58.1854 8.55066L58.1863 8.55187L58.2714 8.49372ZM58.6362 9.35441L58.5357 9.3766L58.5359 9.3775L58.6362 9.35441ZM58.3111 11.1549L58.3976 11.209L58.3978 11.2087L58.3111 11.1549ZM57.736 11.7939L57.7988 11.874L57.7994 11.8735L57.736 11.7939ZM56.9828 12.1988L57.0146 12.2956L57.015 12.2955L56.9828 12.1988ZM56.1292 12.3257L56.1329 12.2235L55.9289 12.2186L56.0446 12.3846L56.1292 12.3257ZM57.7824 14.5671L56.4753 14.3199L56.4347 14.5207L57.7417 14.7679L57.7824 14.5671ZM56.5391 14.3608L54.9006 12.0472L54.7322 12.1663L56.3708 14.4798L56.5391 14.3608ZM54.8367 12.0063L51.8734 11.4459L51.8327 11.6467L54.7961 12.2071L54.8367 12.0063ZM51.9537 11.5653L52.1461 10.6145L51.9448 10.5764L51.7524 11.5272L51.9537 11.5653ZM52.0251 10.6959L55.9086 11.4303L55.9492 11.2295L52.0658 10.4951L52.0251 10.6959ZM55.9086 11.4303C56.1229 11.4709 56.3333 11.469 56.539 11.4239L56.497 11.2243C56.3199 11.2631 56.1376 11.2651 55.9492 11.2295L55.9086 11.4303ZM56.5405 11.4235C56.7446 11.3755 56.9305 11.2941 57.0974 11.179L56.9817 11.0115C56.8372 11.1112 56.6755 11.1823 56.4955 11.2246L56.5405 11.4235ZM57.0964 11.1797C57.2663 11.0654 57.4105 10.9219 57.5288 10.7499L57.3598 10.6358C57.2559 10.7868 57.1303 10.9115 56.9827 11.0108L57.0964 11.1797ZM57.5292 10.7494C57.6489 10.573 57.7302 10.3775 57.7734 10.1638L57.5721 10.1257C57.5341 10.3136 57.4631 10.4835 57.3594 10.6364L57.5292 10.7494ZM57.7734 10.1638C57.8167 9.95005 57.8173 9.74063 57.7743 9.53643L57.5733 9.58055C57.6102 9.75636 57.6101 9.93778 57.5721 10.1257L57.7734 10.1638ZM57.7743 9.53643C57.7318 9.33384 57.6536 9.14952 57.5396 8.98446L57.3699 9.10157C57.4681 9.2438 57.536 9.40313 57.5733 9.58055L57.7743 9.53643ZM57.541 8.9865C57.4311 8.8187 57.2898 8.67682 57.1182 8.561L57.0016 8.73059C57.1518 8.83202 57.2738 8.95495 57.3685 9.09954L57.541 8.9865ZM57.1182 8.561C56.9453 8.44425 56.7511 8.36584 56.5368 8.32532L56.4962 8.52615C56.6846 8.56178 56.8527 8.63008 57.0016 8.73059L57.1182 8.561ZM56.5368 8.32532L52.1107 7.48824L52.0701 7.68907L56.4962 8.52615L56.5368 8.32532ZM51.9897 7.56962L50.8193 13.3545L51.0206 13.3926L52.191 7.6077L51.9897 7.56962ZM50.9403 13.2731L49.9729 13.0902L49.9323 13.291L50.8996 13.4739L50.9403 13.2731ZM50.0533 13.2096L51.4189 6.45983L51.2176 6.42175L49.8519 13.1715L50.0533 13.2096ZM51.298 6.5412L56.6914 7.56123L56.7321 7.3604L51.3386 6.34037L51.298 6.5412ZM56.6914 7.56123C57.0115 7.62176 57.2982 7.73999 57.5525 7.91559L57.6709 7.74718C57.3922 7.5548 57.0789 7.42599 56.7321 7.3604L56.6914 7.56123ZM57.5533 7.91611C57.8099 8.0898 58.0203 8.30124 58.1854 8.55065L58.3573 8.43679C58.1772 8.16478 57.9479 7.93467 57.6702 7.74666L57.5533 7.91611ZM58.1863 8.55187C58.355 8.79885 58.4715 9.07347 58.5357 9.3766L58.7367 9.33223C58.6672 9.0041 58.5406 8.70493 58.3565 8.43557L58.1863 8.55187ZM58.5359 9.3775C58.6026 9.6793 58.6041 9.98936 58.5394 10.3086L58.7408 10.3467C58.8108 10.0008 58.8096 9.66197 58.7365 9.33133L58.5359 9.3775ZM58.5394 10.3086C58.4809 10.5981 58.3758 10.862 58.2244 11.1012L58.3978 11.2087C58.5632 10.9473 58.6774 10.6597 58.7408 10.3467L58.5394 10.3086ZM58.2246 11.1008C58.0729 11.3384 57.8889 11.5427 57.6726 11.7142L57.7994 11.8735C58.0342 11.6873 58.2337 11.4656 58.3976 11.209L58.2246 11.1008ZM57.6731 11.7137C57.4576 11.8821 57.217 12.0116 56.9507 12.1021L57.015 12.2955C57.3029 12.1976 57.5643 12.0571 57.7988 11.874L57.6731 11.7137ZM56.9511 12.102C56.6895 12.1897 56.417 12.2303 56.1329 12.2235L56.1255 12.4278C56.433 12.4352 56.7295 12.3912 57.0146 12.2956L56.9511 12.102ZM56.0446 12.3846L57.6775 14.7264L57.8466 14.6086L56.2138 12.2667L56.0446 12.3846Z" fill="#FECA2E"/>
<path d="M67.1111 15.6524C66.8862 16.0731 66.6062 16.4339 66.2711 16.7349C65.9389 17.0373 65.5752 17.263 65.1798 17.4119C64.7845 17.5609 64.37 17.6269 63.9363 17.6098C63.5056 17.5942 63.0784 17.4801 62.6549 17.2676L59.5516 15.7105L60.0157 14.8423L63.119 16.3994C63.4223 16.5516 63.7244 16.6315 64.0251 16.6392C64.3287 16.6483 64.6156 16.5971 64.8857 16.4855C65.1602 16.3726 65.4119 16.2071 65.641 15.989C65.8744 15.7696 66.0712 15.5102 66.2311 15.2109C66.3911 14.9116 66.4955 14.6077 66.5443 14.2992C66.596 13.9921 66.5894 13.6988 66.5247 13.4192C66.4644 13.1383 66.3428 12.8804 66.16 12.6454C65.9815 12.409 65.7406 12.2147 65.4372 12.0625L61.8961 10.2857L59.1138 15.4908L58.2338 15.0493L61.4803 8.97601L65.9013 11.1943C66.3249 11.4068 66.6667 11.6804 66.9269 12.0151C67.1915 12.3483 67.3743 12.7158 67.4754 13.1174C67.578 13.5162 67.5976 13.9343 67.5344 14.3716C67.4755 14.8076 67.3344 15.2345 67.1111 15.6524Z" fill="#FECA2E"/>
<path d="M66.2711 16.7349L66.2018 16.6607L66.2013 16.6611L66.2711 16.7349ZM63.9363 17.6098L63.942 17.5085L63.9417 17.5085L63.9363 17.6098ZM59.5516 15.7105L59.46 15.6646L59.4117 15.7549L59.5033 15.8009L59.5516 15.7105ZM60.0157 14.8423L60.064 14.7519L59.9724 14.706L59.9241 14.7964L60.0157 14.8423ZM64.0251 16.6392L64.0298 16.5379L64.0294 16.5379L64.0251 16.6392ZM64.8857 16.4855L64.8468 16.3922L64.8467 16.3922L64.8857 16.4855ZM65.641 15.989L65.5699 15.9164L65.5694 15.9169L65.641 15.989ZM66.5443 14.2992L66.4422 14.2842L66.442 14.2851L66.5443 14.2992ZM66.5247 13.4192L66.4234 13.4415L66.4238 13.443L66.5247 13.4192ZM66.16 12.6454L66.0764 12.7064L66.0773 12.7076L66.16 12.6454ZM61.8961 10.2857L61.9444 10.1954L61.8528 10.1494L61.8045 10.2398L61.8961 10.2857ZM59.1138 15.4908L59.0655 15.5812L59.157 15.6271L59.2053 15.5368L59.1138 15.4908ZM58.2338 15.0493L58.1423 15.0034L58.094 15.0937L58.1855 15.1397L58.2338 15.0493ZM61.4803 8.97601L61.5285 8.88566L61.437 8.83971L61.3887 8.93006L61.4803 8.97601ZM66.9269 12.0151L66.8442 12.0772L66.8448 12.078L66.9269 12.0151ZM67.4754 13.1174L67.3749 13.143L67.375 13.1435L67.4754 13.1174ZM67.5344 14.3716L67.4319 14.3589L67.4318 14.3598L67.5344 14.3716ZM67.0195 15.6065C66.7999 16.0173 66.5272 16.3684 66.2018 16.6607L66.3405 16.8091C66.6852 16.4995 66.9725 16.1289 67.2026 15.6984L67.0195 15.6065ZM66.2013 16.6611C65.8783 16.9552 65.5259 17.1735 65.1439 17.3174L65.2157 17.5065C65.6245 17.3525 65.9996 17.1194 66.341 16.8087L66.2013 16.6611ZM65.1439 17.3174C64.7622 17.4612 64.3619 17.525 63.942 17.5085L63.9306 17.7111C64.378 17.7287 64.8067 17.6606 65.2157 17.5065L65.1439 17.3174ZM63.9417 17.5085C63.5275 17.4935 63.1149 17.3839 62.7032 17.1773L62.6066 17.358C63.0419 17.5764 63.4836 17.6949 63.931 17.7111L63.9417 17.5085ZM62.7032 17.1773L59.5999 15.6202L59.5033 15.8009L62.6066 17.358L62.7032 17.1773ZM59.6431 15.7565L60.1072 14.8882L59.9241 14.7964L59.46 15.6646L59.6431 15.7565ZM59.9674 14.9327L63.0707 16.4898L63.1673 16.3091L60.064 14.7519L59.9674 14.9327ZM63.0707 16.4898C63.3858 16.6478 63.7027 16.7324 64.0209 16.7405L64.0294 16.5379C63.746 16.5307 63.4589 16.4554 63.1673 16.3091L63.0707 16.4898ZM64.0204 16.7405C64.3383 16.7501 64.6401 16.6964 64.9247 16.5789L64.8467 16.3922C64.591 16.4978 64.3191 16.5466 64.0298 16.5379L64.0204 16.7405ZM64.9246 16.5789C65.212 16.4606 65.4747 16.2876 65.7126 16.0612L65.5694 15.9169C65.3491 16.1266 65.1083 16.2846 64.8468 16.3922L64.9246 16.5789ZM65.7121 16.0616C65.9544 15.8339 66.1578 15.5654 66.3227 15.2569L66.1396 15.165C65.9845 15.455 65.7945 15.7052 65.5699 15.9164L65.7121 16.0616ZM66.3227 15.2569C66.4876 14.9483 66.5959 14.6337 66.6466 14.3132L66.442 14.2851C66.3951 14.5817 66.2946 14.8749 66.1396 15.165L66.3227 15.2569ZM66.6464 14.3142C66.7001 13.9952 66.6936 13.6887 66.6257 13.3954L66.4238 13.443C66.4853 13.7089 66.4918 13.989 66.4422 14.2842L66.6464 14.3142ZM66.6261 13.397C66.5625 13.101 66.4344 12.8295 66.2427 12.5832L66.0773 12.7076C66.2513 12.9312 66.3663 13.1756 66.4234 13.4415L66.6261 13.397ZM66.2435 12.5843C66.0546 12.3341 65.8009 12.1304 65.4855 11.9722L65.389 12.1529C65.6802 12.299 65.9084 12.4839 66.0764 12.7064L66.2435 12.5843ZM65.4855 11.9722L61.9444 10.1954L61.8478 10.3761L65.389 12.1529L65.4855 11.9722ZM61.8045 10.2398L59.0222 15.4449L59.2053 15.5368L61.9876 10.3317L61.8045 10.2398ZM59.162 15.4005L58.2821 14.959L58.1855 15.1397L59.0655 15.5812L59.162 15.4005ZM58.3254 15.0953L61.5718 9.02195L61.3887 8.93006L58.1423 15.0034L58.3254 15.0953ZM61.432 9.06636L65.853 11.2847L65.9496 11.104L61.5285 8.88566L61.432 9.06636ZM65.853 11.2847C66.2645 11.4911 66.5941 11.7556 66.8442 12.0772L67.0097 11.9529C66.7393 11.6052 66.3852 11.3225 65.9496 11.104L65.853 11.2847ZM66.8448 12.078C67.1009 12.4006 67.2773 12.7554 67.3749 13.143L67.5759 13.0918C67.4714 12.6762 67.2821 12.2961 67.009 11.9521L66.8448 12.078ZM67.375 13.1435C67.4741 13.5288 67.4934 13.9337 67.4319 14.3589L67.6369 14.3844C67.7019 13.9349 67.6818 13.5036 67.5758 13.0913L67.375 13.1435ZM67.4318 14.3598C67.3746 14.7831 67.2376 15.1985 67.0195 15.6065L67.2026 15.6984C67.4313 15.2705 67.5765 14.8321 67.637 14.3834L67.4318 14.3598Z" fill="#FECA2E"/>
<path d="M66.5369 19.9554L65.7623 19.3479L70.1747 14.0606L70.9494 14.6681L66.5369 19.9554Z" fill="#FECA2E"/>
<path d="M66.5369 19.9554L66.4713 20.0341L66.5519 20.0973L66.6176 20.0186L66.5369 19.9554ZM65.7623 19.3479L65.6817 19.2846L65.616 19.3633L65.6966 19.4265L65.7623 19.3479ZM70.1747 14.0606L70.2404 13.9819L70.1597 13.9187L70.0941 13.9974L70.1747 14.0606ZM70.9494 14.6681L71.03 14.7314L71.0956 14.6527L71.015 14.5895L70.9494 14.6681ZM66.6026 19.8768L65.8279 19.2692L65.6966 19.4265L66.4713 20.0341L66.6026 19.8768ZM65.8429 19.4111L70.2553 14.1238L70.0941 13.9974L65.6817 19.2846L65.8429 19.4111ZM70.1091 14.1393L70.8837 14.7468L71.015 14.5895L70.2404 13.9819L70.1091 14.1393ZM70.8687 14.6049L66.4563 19.8922L66.6176 20.0186L71.03 14.7314L70.8687 14.6049Z" fill="#FECA2E"/>
<path d="M72.0119 27.4557L71.3778 26.7026L72.9213 25.4801L69.3829 21.2774L70.1509 20.6692L73.6893 24.8718L76.0045 23.0381L73.7311 20.338C73.5146 20.0808 73.259 19.8791 72.9644 19.7328C72.6722 19.5846 72.3672 19.4955 72.0492 19.4657C71.7337 19.4339 71.4171 19.4602 71.0991 19.5446C70.7832 19.6315 70.4923 19.7803 70.2262 19.991L67.527 22.1289L66.893 21.3758L69.5922 19.2379C69.8406 19.0411 70.1048 18.8829 70.3848 18.7632C70.6693 18.644 70.9581 18.5623 71.2512 18.5179C71.5489 18.474 71.8463 18.467 72.1435 18.497C72.4452 18.5274 72.7365 18.5927 73.0174 18.6927C73.3003 18.7952 73.5669 18.9331 73.8173 19.1063C74.0702 19.2774 74.2987 19.4843 74.5029 19.7267L77.4103 23.18L72.0119 27.4557Z" fill="#FECA2E"/>
<path d="M72.0119 27.4557L71.9316 27.5193L71.9976 27.5977L72.0779 27.5341L72.0119 27.4557ZM71.3778 26.7026L71.3118 26.6242L71.2315 26.6878L71.2975 26.7662L71.3778 26.7026ZM72.9213 25.4801L72.9873 25.5585L73.0676 25.4949L73.0016 25.4165L72.9213 25.4801ZM69.3829 21.2774L69.3169 21.1991L69.2366 21.2627L69.3026 21.341L69.3829 21.2774ZM70.1509 20.6692L70.2312 20.6056L70.1652 20.5272L70.0849 20.5908L70.1509 20.6692ZM73.6893 24.8718L73.609 24.9354L73.675 25.0138L73.7553 24.9502L73.6893 24.8718ZM76.0045 23.0381L76.0705 23.1165L76.1508 23.0529L76.0848 22.9745L76.0045 23.0381ZM72.9644 19.7328L72.9167 19.8222L72.9175 19.8227L72.9644 19.7328ZM72.0492 19.4657L72.0391 19.5661L72.0398 19.5662L72.0492 19.4657ZM71.0991 19.5446L71.0711 19.4472L71.0702 19.4475L71.0991 19.5446ZM67.527 22.1289L67.4467 22.1925L67.5127 22.2709L67.593 22.2073L67.527 22.1289ZM66.893 21.3758L66.827 21.2974L66.7467 21.361L66.8127 21.4394L66.893 21.3758ZM70.3848 18.7632L70.3431 18.6705L70.3424 18.6708L70.3848 18.7632ZM71.2512 18.5179L71.235 18.4181L71.2346 18.4181L71.2512 18.5179ZM72.1435 18.497L72.1334 18.5974L72.1435 18.497ZM73.0174 18.6927L73.0532 18.5982L73.0526 18.598L73.0174 18.6927ZM73.8173 19.1063L73.7574 19.1884L73.7582 19.1889L73.8173 19.1063ZM77.4103 23.18L77.4763 23.2583L77.5566 23.1947L77.4906 23.1164L77.4103 23.18ZM72.0922 27.3921L71.4581 26.639L71.2975 26.7662L71.9316 27.5193L72.0922 27.3921ZM71.4438 26.781L72.9873 25.5585L72.8553 25.4017L71.3118 26.6242L71.4438 26.781ZM73.0016 25.4165L69.4632 21.2138L69.3026 21.341L72.841 25.5437L73.0016 25.4165ZM69.4489 21.3558L70.2169 20.7475L70.0849 20.5908L69.3169 21.1991L69.4489 21.3558ZM70.0706 20.7328L73.609 24.9354L73.7696 24.8082L70.2312 20.6056L70.0706 20.7328ZM73.7553 24.9502L76.0705 23.1165L75.9385 22.9597L73.6233 24.7935L73.7553 24.9502ZM76.0848 22.9745L73.8114 20.2744L73.6508 20.4016L75.9242 23.1017L76.0848 22.9745ZM73.8114 20.2744C73.5861 20.0067 73.3192 19.7959 73.0112 19.643L72.9175 19.8227C73.1988 19.9623 73.4432 20.1549 73.6508 20.4016L73.8114 20.2744ZM73.0121 19.6434C72.7084 19.4893 72.3903 19.3964 72.0586 19.3652L72.0398 19.5662C72.344 19.5947 72.6361 19.6798 72.9167 19.8222L73.0121 19.6434ZM72.0593 19.3653C71.7305 19.3321 71.4009 19.3596 71.0711 19.4472L71.1271 19.642C71.4332 19.5607 71.7369 19.5356 72.0391 19.5661L72.0593 19.3653ZM71.0702 19.4475C70.7401 19.5383 70.4367 19.6937 70.1603 19.9127L70.2922 20.0694C70.5479 19.8669 70.8263 19.7247 71.128 19.6417L71.0702 19.4475ZM70.1603 19.9127L67.461 22.0505L67.593 22.2073L70.2922 20.0694L70.1603 19.9127ZM67.6073 22.0653L66.9733 21.3122L66.8127 21.4394L67.4467 22.1925L67.6073 22.0653ZM66.9589 21.4542L69.6582 19.3163L69.5262 19.1596L66.827 21.2974L66.9589 21.4542ZM69.6582 19.3163C69.8998 19.1249 70.1561 18.9715 70.4271 18.8557L70.3424 18.6708C70.0536 18.7943 69.7815 18.9573 69.5262 19.1596L69.6582 19.3163ZM70.4264 18.856C70.7033 18.74 70.9837 18.6606 71.2678 18.6176L71.2346 18.4181C70.9325 18.4639 70.6353 18.5481 70.3431 18.6705L70.4264 18.856ZM71.2674 18.6177C71.5565 18.575 71.8451 18.5683 72.1334 18.5974L72.1536 18.3966C71.8476 18.3657 71.5413 18.3729 71.235 18.4181L71.2674 18.6177ZM72.1334 18.5974C72.4266 18.627 72.7095 18.6904 72.9821 18.7875L73.0526 18.598C72.7636 18.495 72.4638 18.4279 72.1536 18.3966L72.1334 18.5974ZM72.9815 18.7873C73.2557 18.8866 73.5143 19.0202 73.7574 19.1884L73.8773 19.0242C73.6196 18.8459 73.3448 18.7039 73.0532 18.5982L72.9815 18.7873ZM73.7582 19.1889C74.0028 19.3545 74.2243 19.5548 74.4226 19.7903L74.5832 19.6631C74.3732 19.4137 74.1376 19.2004 73.8764 19.0236L73.7582 19.1889ZM74.4226 19.7903L77.33 23.2436L77.4906 23.1164L74.5832 19.6631L74.4226 19.7903ZM77.3443 23.1016L71.9459 27.3773L72.0779 27.5341L77.4763 23.2583L77.3443 23.1016Z" fill="#FECA2E"/>
<path d="M80.5893 29.7104L80.941 32.857L83.4146 30.8807L81.4383 33.3543L84.5848 33.706L81.4383 34.0577L83.4146 36.5313L80.941 34.555L80.5893 37.7015L80.2376 34.555L77.764 36.5313L79.7403 34.0577L76.5938 33.706L79.7403 33.3543L77.764 30.8807L80.2376 32.857L80.5893 29.7104Z" fill="#FECA2E"/>
<path d="M13.3823 29.7104L13.7339 32.857L16.2075 30.8807L14.2313 33.3543L17.3778 33.706L14.2313 34.0577L16.2075 36.5313L13.7339 34.555L13.3823 37.7015L13.0306 34.555L10.557 36.5313L12.5332 34.0577L9.38672 33.706L12.5332 33.3543L10.557 30.8807L13.0306 32.857L13.3823 29.7104Z" fill="#FECA2E"/>
<path d="M20.5541 67.0022L20.9058 70.1487L23.3794 68.1725L21.4032 70.6461L24.5497 70.9977L21.4032 71.3494L23.3794 73.823L20.9058 71.8468L20.5541 74.9933L20.2025 71.8468L17.7289 73.823L19.7051 71.3494L16.5586 70.9977L19.7051 70.6461L17.7289 68.1725L20.2025 70.1487L20.5541 67.0022Z" fill="#FECA2E"/>
<path d="M82.2299 48.5613L82.5816 51.7078L85.0552 49.7315L83.0789 52.2051L86.2255 52.5568L83.0789 52.9085L85.0552 55.3821L82.5816 53.4058L82.2299 56.5524L81.8782 53.4058L79.4046 55.3821L81.3809 52.9085L78.2344 52.5568L81.3809 52.2051L79.4046 49.7315L81.8782 51.7078L82.2299 48.5613Z" fill="#FECA2E"/>
<path d="M11.7455 48.561L12.0972 51.7076L14.5708 49.7313L12.5946 52.2049L15.7411 52.5566L12.5946 52.9083L14.5708 55.3819L12.0972 53.4056L11.7455 56.5521L11.3939 53.4056L8.92027 55.3819L10.8965 52.9083L7.75 52.5566L10.8965 52.2049L8.92027 49.7313L11.3939 51.7076L11.7455 48.561Z" fill="#FECA2E"/>
<path d="M73.6245 67.002L73.9761 70.1485L76.4497 68.1722L74.4735 70.6458L77.62 70.9975L74.4735 71.3492L76.4497 73.8228L73.9761 71.8465L73.6245 74.993L73.2728 71.8465L70.7992 73.8228L72.7754 71.3492L69.6289 70.9975L72.7754 70.6458L70.7992 68.1722L73.2728 70.1485L73.6245 67.002Z" fill="#FECA2E"/>
</svg>
