<svg width="33" height="33" viewBox="0 0 33 33" fill="none" xmlns="http://www.w3.org/2000/svg">
<path d="M16.6562 0.929688C7.83381 0.929688 0.65625 8.10725 0.65625 16.9297C0.65625 25.7521 7.83381 32.9297 16.6562 32.9297C25.4787 32.9297 32.6562 25.7521 32.6562 16.9297C32.6562 8.10725 25.4787 0.929688 16.6562 0.929688ZM16.6562 31.4297C8.66094 31.4297 2.15625 24.925 2.15625 16.9297C2.15625 8.93437 8.66094 2.42969 16.6562 2.42969C24.6516 2.42969 31.1562 8.93437 31.1562 16.9297C31.1562 24.925 24.6516 31.4297 16.6562 31.4297ZM24.1758 10.3359H9.13669C8.13081 10.3359 7.31244 11.1543 7.31244 12.1602V21.6992C7.31244 22.7051 8.13075 23.5235 9.13669 23.5235H24.1758C25.1816 23.5235 26 22.7051 26 21.6992V12.1602C26 11.1543 25.1816 10.3359 24.1758 10.3359ZM23.0452 11.8359L16.6562 16.9095L10.2673 11.8359H23.0452ZM24.1758 22.0234H9.13669C8.95794 22.0234 8.81244 21.878 8.81244 21.6992V12.5961L16.1898 18.4545C16.3264 18.5629 16.4913 18.6172 16.6562 18.6172C16.8211 18.6172 16.9861 18.563 17.1226 18.4545L24.5 12.5961V21.6992C24.5 21.878 24.3545 22.0234 24.1758 22.0234Z" fill="#FECA2E"/>
</svg>
