<svg width="248" height="93" viewBox="0 0 248 93" fill="none" xmlns="http://www.w3.org/2000/svg">
<g filter="url(#filter0_b_42_867)">
<circle cx="46.2297" cy="46.7153" r="42.8508" stroke="#FECA2E"/>
</g>
<g filter="url(#filter1_b_42_867)">
<circle cx="46.3165" cy="46.8035" r="28.5958" stroke="#FECA2E"/>
</g>
<path fill-rule="evenodd" clip-rule="evenodd" d="M48.6121 21.9674C49.3609 21.9674 49.89 22.1459 50.2018 22.5686C50.4879 22.9563 50.6323 23.6021 50.5161 24.6524C50.4963 24.7052 50.4778 24.7565 50.4604 24.8061C49.1351 24.5638 47.7692 24.4372 46.3738 24.4372C44.9644 24.4372 43.5852 24.5663 42.2475 24.8134C42.2239 24.308 42.2818 23.6549 42.5136 23.1014C42.648 22.7804 42.8369 22.5022 43.0931 22.302C43.3439 22.1061 43.6711 21.9754 44.104 21.962C44.5039 22.0007 45.1261 21.9667 45.6644 21.7312C45.9398 21.6108 46.2021 21.4335 46.3976 21.1774C46.4282 21.1373 46.4569 21.0957 46.4836 21.0524C46.5338 21.142 46.5954 21.2309 46.6712 21.316C47.0163 21.7031 47.6117 21.9674 48.6121 21.9674ZM50.5783 22.292C50.8246 22.6257 50.9697 23.0652 51.0114 23.6244C51.1453 23.4101 51.3012 23.2027 51.4823 23.0184C51.7724 22.7232 52.1325 22.4821 52.5757 22.3718C53.0199 22.2613 53.5288 22.2869 54.1077 22.4955L54.1281 22.5029L54.1468 22.5139C54.4456 22.6894 54.9254 22.8744 55.3876 22.8713C55.6154 22.8698 55.8312 22.8228 56.0198 22.7142C56.2066 22.6067 56.38 22.4312 56.5142 22.1502L56.945 22.33C56.8616 22.5619 56.7841 22.9032 56.9073 23.26C57.0278 23.6085 57.3591 24.0255 58.2063 24.3731C58.6571 24.558 59.235 24.9865 59.4994 25.6834C59.6681 26.1283 59.7012 26.6611 59.5156 27.2785C59.7367 27.0997 59.9809 26.9367 60.2439 26.8151C60.5997 26.6505 60.9974 26.5579 61.422 26.6096C61.8478 26.6614 62.2808 26.856 62.7093 27.2331L62.7467 27.2661C63.1726 27.6411 63.5397 27.9644 63.9137 28.101C64.0967 28.1677 64.2728 28.1857 64.4536 28.1425C64.6365 28.0988 64.8439 27.9878 65.0793 27.7636L65.4175 28.0848C65.2568 28.2719 65.0626 28.5633 65.0505 28.9404C65.0387 29.3088 65.1995 29.8161 65.8671 30.4419C66.3678 30.9113 66.7191 31.5434 66.6216 32.2874C66.5587 32.7682 66.3118 33.2667 65.8425 33.7737C66.1507 33.7025 66.4777 33.6594 66.8022 33.6658C67.2084 33.6737 67.6206 33.7594 67.9873 33.9739C68.3568 34.1902 68.6664 34.5295 68.8749 35.0204L68.8808 35.0341L68.8848 35.0485C68.9784 35.3816 69.1959 35.8466 69.5313 36.164C69.6966 36.3204 69.8849 36.4356 70.0963 36.4877C70.3056 36.5393 70.5526 36.5327 70.8444 36.4228L71.0303 36.8503C70.8091 36.9598 70.5162 37.1524 70.3574 37.4949C70.2023 37.8295 70.1517 38.3592 70.5212 39.1955C70.7179 39.6406 70.8371 40.3491 70.5439 41.0344C70.3593 41.4656 70.0205 41.8673 69.4721 42.1822C69.7465 42.2364 70.0231 42.3171 70.2833 42.4322C70.6547 42.5964 71.0017 42.8347 71.2566 43.1743C71.5135 43.5165 71.6672 43.949 71.6691 44.4822L71.6691 44.4971L71.6673 44.5119C71.6243 44.8552 71.6445 45.368 71.8306 45.7901C71.9223 45.9981 72.0511 46.177 72.2257 46.3067C72.3986 46.435 72.6287 46.5243 72.9405 46.5358L72.9467 47.0017C72.7003 47.0172 72.3554 47.0816 72.076 47.3362C71.803 47.5849 71.5508 48.0539 71.5671 48.9677C71.5757 49.4541 71.4107 50.1533 70.8746 50.6717C70.5042 51.0299 69.9762 51.2834 69.2523 51.3342C69.5462 51.5097 69.8354 51.7246 70.081 51.9791C70.3628 52.2712 70.594 52.6226 70.7016 53.0331C70.81 53.447 70.7887 53.9055 70.5887 54.3999L70.5831 54.4137L70.5758 54.4267C70.4061 54.7285 70.2308 55.2109 70.2434 55.6717C70.2496 55.8989 70.3012 56.113 70.4138 56.2987C70.5252 56.4826 70.7045 56.6519 70.9888 56.78L70.819 57.214C70.5849 57.1356 70.2411 57.0653 69.8859 57.1958C69.5388 57.3233 69.1278 57.6628 68.7971 58.515C68.6211 58.9687 68.2038 59.5539 67.5114 59.8319C67.0964 59.9986 66.6012 60.0476 66.0269 59.9103C66.1572 60.1049 66.2738 60.3133 66.3658 60.5311C66.5235 60.9048 66.6127 61.3156 66.5651 61.7374C66.5172 62.1625 66.3321 62.5827 65.9673 62.9723L65.9571 62.9832L65.9456 62.9927C65.6785 63.2134 65.3411 63.6007 65.1868 64.0352C65.1108 64.2494 65.0818 64.4676 65.1199 64.6813C65.1577 64.8928 65.2639 65.1151 65.4831 65.3366L65.1684 65.6809C64.9782 65.5238 64.6828 65.3348 64.3042 65.3291C63.9343 65.3236 63.4284 65.4929 62.8128 66.1695C62.485 66.5298 61.8848 66.926 61.1387 66.937C60.6389 66.9444 60.0988 66.7789 59.5541 66.3517C59.6207 66.6246 59.6629 66.9109 59.6623 67.1965C59.6615 67.5963 59.5769 68.0037 59.3494 68.3694C59.1207 68.7369 58.7584 69.0449 58.2321 69.2612L58.2194 69.2665L58.2061 69.2702C57.8722 69.3635 57.4061 69.5804 57.0881 69.9148C56.9314 70.0796 56.8159 70.2673 56.7637 70.478C56.712 70.6866 56.7184 70.9329 56.8284 71.2241L56.4005 71.4107C56.2908 71.19 56.0979 70.8975 55.7544 70.7388C55.4188 70.5836 54.8877 70.5331 54.0495 70.9015C53.4755 71.1537 52.7585 71.317 52.094 71.0313C51.6269 70.8305 51.2236 70.4249 50.9211 69.7538C50.8705 70.0892 50.7821 70.4347 50.6413 70.7555C50.4784 71.1268 50.2412 71.4741 49.902 71.7299C49.5602 71.9878 49.1274 72.1431 48.5931 72.1474L48.5782 72.1475L48.5633 72.1457C48.2183 72.1043 47.7366 72.1273 47.3466 72.312C47.155 72.4028 46.9901 72.5303 46.8703 72.7046C46.7511 72.8779 46.6678 73.1102 46.6576 73.4252L46.1907 73.4335C46.1751 73.2037 46.0868 72.8571 45.8005 72.5738C45.5185 72.2947 45.0124 72.0454 44.0975 72.0656C43.6101 72.0765 42.9087 71.9149 42.3867 71.3823C42.0528 71.0416 41.8083 70.5655 41.7309 69.9236C41.5756 70.1584 41.3944 70.3851 41.1873 70.5832C40.894 70.8636 40.5414 71.0933 40.1299 71.1996C39.7152 71.3068 39.2559 71.2844 38.7609 71.0836L38.747 71.078L38.734 71.0707C38.4321 70.9007 37.949 70.7245 37.4869 70.736C37.2592 70.7417 37.0443 70.7926 36.8577 70.9047C36.673 71.0156 36.5027 71.1941 36.3737 71.4776L35.9397 71.3057C36.0189 71.0723 36.0901 70.7296 35.9603 70.3752C35.8335 70.0289 35.4946 69.618 34.6412 69.286C34.187 69.1093 33.6014 68.6914 33.3243 67.9995C33.1273 67.5075 33.0965 66.9036 33.3466 66.19C33.0603 66.4076 32.7343 66.6059 32.386 66.7423C32.0079 66.8904 31.5943 66.9691 31.1733 66.9113C30.7489 66.8531 30.3326 66.6582 29.9513 66.2847L29.9407 66.2742L29.9314 66.2625C29.7169 65.9908 29.3372 65.6445 28.9055 65.4798C28.6927 65.3987 28.4745 65.3643 28.2591 65.3971C28.046 65.4296 27.8205 65.5302 27.5932 65.7434L27.2574 65.4196C27.4196 65.2337 27.616 64.9438 27.631 64.5668C27.6456 64.1985 27.4887 63.69 26.826 63.0591C26.4732 62.7233 26.0908 62.1146 26.0981 61.3695C26.1032 60.8552 26.2934 60.3028 26.7649 59.7539C26.4887 59.8318 26.1971 59.8854 25.9042 59.8935C25.5021 59.9047 25.0893 59.8305 24.7108 59.6086C24.3312 59.3861 24.0037 59.0253 23.757 58.4927L23.7498 58.4771L23.7449 58.4607C23.6471 58.1288 23.4236 57.6665 23.0841 57.3535C22.9168 57.1993 22.7271 57.0864 22.515 57.037C22.3051 56.9881 22.0583 56.9978 21.7678 57.1114L21.5766 56.6864C21.7841 56.5803 22.0044 56.4159 22.1275 56.0862C22.2539 55.7477 22.291 55.1997 22.0428 54.2999C21.892 53.7535 21.7569 53.0469 22.0354 52.3891C22.2293 51.9308 22.6085 51.5285 23.2482 51.2189C22.9358 51.164 22.6172 51.0757 22.3203 50.9427C21.9497 50.7766 21.6039 50.5367 21.3506 50.1959C21.0954 49.8524 20.9438 49.4191 20.9445 48.8859L20.9445 48.871L20.9465 48.8562C20.9911 48.5131 20.9734 48.0002 20.7894 47.5773C20.6987 47.3688 20.5708 47.1893 20.3968 47.0588C20.2245 46.9296 19.9948 46.8392 19.6832 46.8262L19.6792 46.3603C19.9257 46.3459 20.2709 46.2832 20.5515 46.03C20.8258 45.7826 21.0802 45.3148 21.0684 44.401C21.0621 43.9145 21.2306 43.2162 21.7692 42.7004C22.0939 42.3894 22.5384 42.1587 23.1276 42.0735C22.9406 41.9592 22.7608 41.8283 22.5993 41.6781C22.3041 41.4037 22.0635 41.059 21.9574 40.6298C21.8511 40.1996 21.8854 39.7062 22.104 39.1443L22.1097 39.1297L22.1172 39.116C22.2848 38.8131 22.4567 38.3294 22.4408 37.8687C22.433 37.6416 22.38 37.4278 22.266 37.2429C22.1533 37.0598 21.9728 36.8917 21.6876 36.7657L21.8544 36.3305C22.089 36.4072 22.4333 36.4751 22.7876 36.3421C23.1338 36.2122 23.5424 35.8699 23.867 35.0153C24.1378 34.3027 24.5779 33.7118 25.297 33.5196C25.7087 33.4095 26.1855 33.4378 26.7367 33.6198C26.6014 33.4318 26.4798 33.2297 26.3847 33.0163C26.2205 32.6476 26.1316 32.2366 26.1955 31.8032C26.2596 31.3681 26.4746 30.9317 26.8824 30.5091L26.8929 30.4982L26.9048 30.4887C27.1755 30.2726 27.5195 29.8911 27.6811 29.4593C27.7608 29.2465 27.7936 29.0287 27.7591 28.8144C27.7249 28.6023 27.6225 28.3782 27.4071 28.153L27.7276 27.8142C27.9151 27.9745 28.2073 28.1685 28.5857 28.1806C28.9555 28.1924 29.4642 28.0316 30.0912 27.3655C30.5817 26.8445 31.187 26.4807 31.9055 26.5853C32.3394 26.6485 32.7847 26.8789 33.2456 27.3007C33.1832 27.0278 33.1443 26.7419 33.1439 26.4571C33.1433 26.0517 33.221 25.6384 33.4299 25.2679C33.6404 24.8946 33.9764 24.5791 34.4671 24.3612L34.4806 24.3552L34.4948 24.3509C34.8268 24.2512 35.2886 24.0254 35.6001 23.6849C35.7536 23.5171 35.8654 23.3272 35.9136 23.1155C35.9612 22.906 35.95 22.6599 35.8344 22.3708L36.2586 22.176C36.3725 22.3945 36.5711 22.6833 36.9176 22.8354C37.2561 22.984 37.7881 23.0243 38.619 22.6398C39.2719 22.3376 40.0283 22.2325 40.7156 22.5834C41.1518 22.8061 41.535 23.1997 41.8391 23.7948C41.887 23.5009 41.9647 23.2022 42.0822 22.9215C42.2388 22.5475 42.4701 22.1963 42.8049 21.9347C43.1423 21.6711 43.5724 21.5085 44.1066 21.4952L44.1215 21.4949L44.1363 21.4964C44.4808 21.5318 45.0259 21.5012 45.4767 21.304C45.6994 21.2065 45.89 21.0725 46.0257 20.8947C46.1593 20.7196 46.2489 20.4902 46.2536 20.1829L46.7203 20.1667C46.7425 20.4278 46.7896 20.7467 47.0206 21.006C47.2459 21.2588 47.6901 21.5008 48.6121 21.5008C49.4198 21.5008 50.1361 21.6926 50.5783 22.292ZM24.2589 42.5842C24.2085 42.5672 24.1567 42.5492 24.1038 42.5302C23.0816 42.4174 22.4623 42.6832 22.0929 43.037C21.6705 43.4415 21.5308 44.0023 21.5359 44.395C21.5489 45.3991 21.2673 46.0132 20.8651 46.3761C20.7634 46.4678 20.6567 46.541 20.5493 46.5994C20.5939 46.6262 20.6367 46.6551 20.6776 46.6858C20.9302 46.8752 21.103 47.1265 21.2183 47.3915C21.4433 47.9086 21.4613 48.504 21.4121 48.9008C21.4141 49.3329 21.5364 49.6627 21.7262 49.918C21.92 50.1788 22.1937 50.3746 22.5118 50.5171C23.0452 50.7561 23.6774 50.8335 24.1781 50.8281C23.9556 49.5601 23.8396 48.2554 23.8396 46.9238C23.8396 45.4392 23.9838 43.9883 24.2589 42.5842ZM22.9175 41.3366C23.2823 41.6758 23.7713 41.9099 24.2136 42.0733C24.262 42.0792 24.3111 42.0858 24.3608 42.0932C24.9629 39.3485 26.0673 36.7915 27.573 34.5229L27.5579 34.5095C26.5858 33.9513 25.9 33.8417 25.4183 33.9705C24.9077 34.107 24.5501 34.5334 24.3039 35.1813C23.9472 36.1204 23.4597 36.5887 22.9523 36.7791C22.824 36.8273 22.6978 36.8563 22.5764 36.8714C22.608 36.9126 22.6371 36.9551 22.6639 36.9986C22.8294 37.2673 22.8979 37.5644 22.9078 37.8531C22.9272 38.4163 22.7255 38.9765 22.5342 39.3277C22.3489 39.8106 22.3326 40.2008 22.4111 40.5184C22.4905 40.84 22.6726 41.1089 22.9175 41.3366ZM33.6022 28.395C31.3507 29.9434 29.3953 31.8898 27.8381 34.1325L27.8344 34.1303C27.4586 33.7935 27.0396 33.3387 26.8113 32.8262C26.6739 32.5177 26.6095 32.197 26.6575 31.8713C26.7048 31.5503 26.8643 31.2039 27.2084 30.8439C27.5198 30.5922 27.9208 30.1512 28.1185 29.623C28.2199 29.3523 28.2703 29.0516 28.2201 28.7402C28.212 28.6898 28.2013 28.6395 28.188 28.5894C28.3059 28.6217 28.4337 28.643 28.5708 28.6473C29.1125 28.6647 29.7422 28.4176 30.4313 27.6857C30.8731 27.2164 31.3362 26.9744 31.8382 27.0475C32.32 27.1176 32.9084 27.4862 33.6022 28.395ZM24.2746 51.3428C24.8298 54.1232 25.8988 56.7186 27.3785 59.0264C26.9426 59.228 26.4104 59.4125 25.8917 59.4269C25.5559 59.4362 25.2342 59.374 24.9476 59.206C24.6653 59.0405 24.4001 58.7626 24.1881 58.3112C24.0723 57.9284 23.8154 57.3922 23.4013 57.0104C23.1887 56.8144 22.9291 56.654 22.6216 56.5824C22.5547 56.5668 22.4863 56.5556 22.4164 56.5491C22.4727 56.4611 22.5232 56.3617 22.5653 56.2489C22.7393 55.7828 22.7553 55.1251 22.4932 54.1755C22.3458 53.6409 22.2537 53.0713 22.4657 52.5705C22.6616 52.1077 23.1465 51.6418 24.2746 51.3428ZM27.6997 59.5134C26.8312 60.1892 26.5704 60.8445 26.5651 61.3741C26.5594 61.958 26.8632 62.4497 27.148 62.7208C27.8761 63.4139 28.1192 64.0444 28.0976 64.5854C28.0922 64.722 28.07 64.8492 28.0368 64.9665C28.0873 64.9535 28.138 64.9431 28.1887 64.9354C28.5009 64.8878 28.8016 64.9404 29.0719 65.0435C29.5996 65.2447 30.0385 65.6483 30.2883 65.9609C30.5992 66.2617 30.921 66.4053 31.2368 66.4486C31.5593 66.4929 31.8911 66.4346 32.2157 66.3075C32.7252 66.1079 33.1938 65.7477 33.5357 65.4065C31.2451 63.8193 29.2637 61.8189 27.6997 59.5134ZM42.2001 69.0253L42.1964 69.0345C42.0874 70.0674 42.3607 70.6885 42.721 71.0562C43.1304 71.4739 43.6936 71.608 44.0871 71.5992C45.094 71.5769 45.7355 71.8523 46.1297 72.2425C46.2396 72.3512 46.3277 72.4664 46.3981 72.5825C46.4247 72.5332 46.4536 72.4859 46.4847 72.4406C46.6596 72.1863 46.8945 72.0097 47.1462 71.8905C47.6365 71.6583 48.2069 71.6354 48.6036 71.6807C49.0366 71.6746 49.366 71.5495 49.6201 71.3578C49.8796 71.162 50.0732 70.887 50.2131 70.5683C50.4277 70.0791 50.506 69.5085 50.51 69.0323C49.1691 69.2806 47.7867 69.4103 46.3738 69.4103C44.9478 69.4103 43.5527 69.2781 42.2001 69.0253ZM40.864 70.2458C41.2529 69.8739 41.5459 69.373 41.7327 68.9328C38.9498 68.3514 36.3556 67.2577 34.0537 65.755C33.5534 66.6691 33.5667 67.3485 33.7581 67.8265C33.9753 68.3688 34.4437 68.7084 34.8104 68.8511C35.748 69.2159 36.2129 69.7068 36.3991 70.2152C36.4461 70.3436 36.4741 70.4697 36.488 70.5909C36.5298 70.5597 36.5727 70.5309 36.6167 70.5045C36.8873 70.342 37.1855 70.2766 37.4748 70.2694C38.0395 70.2553 38.5992 70.4621 38.9494 70.6565C39.3516 70.8168 39.7039 70.8274 40.0125 70.7477C40.3276 70.6663 40.6122 70.4865 40.864 70.2458ZM51.1161 68.9115C53.9139 68.3135 56.5191 67.1972 58.8259 65.6682C59.0217 66.1121 59.196 66.6657 59.195 67.1961C59.1944 67.5315 59.1236 67.8484 58.9526 68.1233C58.7841 68.3939 58.5081 68.6408 58.0669 68.8246C57.6816 68.9345 57.1388 69.1841 56.7495 69.5935C56.5502 69.8031 56.3859 70.0602 56.3101 70.3663C56.2978 70.4159 56.2879 70.4664 56.2806 70.5178C56.1847 70.442 56.0754 70.3726 55.951 70.3151C55.4591 70.0878 54.7827 70.0695 53.8617 70.4743C53.3335 70.7064 52.7671 70.8123 52.2791 70.6025C51.8419 70.4146 51.4031 69.9441 51.1161 68.9115ZM59.2409 65.3864C59.9386 66.234 60.601 66.4779 61.1317 66.4701C61.7174 66.4614 62.2028 66.1459 62.4673 65.8552C63.1438 65.1117 63.7692 64.854 64.3112 64.8621C64.4483 64.8642 64.5764 64.8832 64.6949 64.9136C64.6807 64.8637 64.6691 64.8136 64.6602 64.7634C64.6047 64.4528 64.65 64.1513 64.7467 63.8789C64.9354 63.3474 65.329 62.8996 65.636 62.6427C65.9297 62.3252 66.0655 62.0008 66.101 61.6851C66.1374 61.3626 66.0709 61.0333 65.9356 60.7127C65.7574 60.2908 65.4668 59.9003 65.1712 59.5891C65.1285 59.5676 65.0856 59.5452 65.0422 59.5218C63.4858 61.814 61.5165 63.8043 59.2409 65.3864ZM64.7583 59.1071L64.7112 59.1668L64.7158 59.1705C64.0071 60.2253 63.2095 61.2155 62.3336 62.1306C61.9836 61.7293 61.4144 60.3021 63.1086 58.1889C63.6887 57.4654 63.9634 56.7912 64.0207 56.1738C64.078 55.5555 63.9153 55.0156 63.6571 54.5653C63.4308 54.1706 63.1297 53.8418 62.8326 53.582C63.228 53.6559 63.6763 53.6911 64.1137 53.6145C64.6243 53.5251 65.1269 53.2831 65.5117 52.7784C65.8929 52.2784 66.1415 51.543 66.1945 50.4968C66.3298 47.8244 67.889 47.1977 68.4397 47.1656C68.3921 51.5788 67.0434 55.6806 64.7583 59.1071ZM65.4516 59.2072C65.4109 59.1657 65.3703 59.1257 65.33 59.0873C66.811 56.7938 67.8854 54.2141 68.4514 51.4497C68.887 51.6354 69.378 51.9229 69.7447 52.3029C69.9865 52.5535 70.1672 52.8369 70.2495 53.1509C70.3301 53.4583 70.3203 53.8098 70.1607 54.2114C69.9667 54.5613 69.7608 55.1204 69.7763 55.684C69.7842 55.9728 69.8506 56.2704 70.0142 56.5402C70.0407 56.5839 70.0695 56.6266 70.1008 56.668C69.9793 56.6822 69.8529 56.7104 69.7242 56.7577C69.2155 56.9445 68.7248 57.4094 68.3614 58.3459C68.2193 58.7121 67.8801 59.1806 67.3368 59.3988C66.8919 59.5774 66.2726 59.6029 65.4516 59.2072ZM68.5647 50.8557C69.5732 50.9568 70.1845 50.6894 70.5493 50.3367C70.9697 49.9301 71.1066 49.3686 71.0996 48.976C71.0817 47.9719 71.3603 47.3564 71.7608 46.9916C71.862 46.8994 71.9683 46.8257 72.0754 46.7668C72.0307 46.7402 71.9878 46.7115 71.9467 46.681C71.6932 46.4928 71.5192 46.2423 71.4026 45.9779C71.1751 45.4619 71.1542 44.8667 71.2014 44.4696C71.1973 44.0376 71.0734 43.7083 70.8824 43.4539C70.6873 43.1941 70.4126 42.9996 70.0939 42.8587C69.6121 42.6456 69.0506 42.5642 68.578 42.5559C68.5484 42.5647 68.5185 42.5732 68.4883 42.5816C68.7637 43.9866 68.908 45.4383 68.908 46.9238C68.908 48.2651 68.7904 49.579 68.5647 50.8557ZM68.5106 42.0887C68.4683 42.0886 68.4268 42.089 68.3861 42.0899C67.781 39.3334 66.6692 36.7663 65.1531 34.4905C65.6098 34.2928 66.2146 34.1211 66.7926 34.1325C67.1412 34.1393 67.47 34.2124 67.7508 34.3767C68.0257 34.5376 68.2677 34.7933 68.4392 35.1901C68.5497 35.5745 68.7999 36.1152 69.2098 36.503C69.4198 36.7017 69.6774 36.8654 69.984 36.9409C70.0338 36.9532 70.0846 36.9631 70.1362 36.9704C70.0604 37.066 69.991 37.175 69.9334 37.2991C69.7056 37.7904 69.6877 38.4655 70.0937 39.3844C70.2525 39.7437 70.344 40.3142 70.1142 40.8513C69.9165 41.3133 69.4629 41.7917 68.5106 42.0887ZM64.8481 34.0444C65.7341 33.3589 66.0914 32.7396 66.1586 32.2268C66.2301 31.6803 65.98 31.1878 65.5477 30.7826C64.8142 30.0951 64.5664 29.4665 64.5837 28.9254C64.5877 28.8019 64.6054 28.6859 64.6327 28.5779C64.6092 28.5849 64.5856 28.5911 64.562 28.5968C64.2768 28.6649 64.0065 28.632 63.7536 28.5397C63.2941 28.3719 62.866 27.9942 62.4705 27.6453L62.4007 27.5837C62.0316 27.2588 61.6839 27.1119 61.3656 27.0732C61.0459 27.0343 60.736 27.102 60.4399 27.239C59.8995 27.4889 59.4309 27.9572 59.0897 28.3568C61.3351 29.8911 63.2881 31.8204 64.8481 34.0444ZM50.9564 24.9025C50.9627 24.8555 50.9686 24.8091 50.974 24.7632C51.1535 24.295 51.4202 23.7482 51.8158 23.3457C52.0596 23.0976 52.347 22.9099 52.6891 22.8248C53.0256 22.741 53.4332 22.7521 53.9299 22.9276C54.2769 23.1274 54.8295 23.3418 55.3912 23.3381C55.6806 23.3362 55.9799 23.2762 56.2535 23.1187C56.2979 23.0931 56.3414 23.0651 56.3837 23.0347C56.3954 23.1561 56.421 23.2826 56.4657 23.4119C56.6425 23.9237 57.0984 24.423 58.0292 24.8048C58.3931 24.9542 58.8553 25.3022 59.0625 25.8484C59.2547 26.3552 59.2455 27.0816 58.6427 28.0592C56.3374 26.5631 53.7408 25.4765 50.9564 24.9025ZM40.5026 22.9991C39.9859 22.7353 39.3885 22.7979 38.8151 23.0633C37.902 23.4858 37.2254 23.4806 36.7292 23.2628C36.6037 23.2077 36.4931 23.1404 36.3958 23.0665C36.3894 23.118 36.3805 23.1686 36.3692 23.2184C36.2993 23.526 36.1401 23.7862 35.9449 23.9996C35.5639 24.4161 35.0267 24.676 34.6437 24.7935C34.2461 24.9729 33.9932 25.2197 33.8369 25.4967C33.6774 25.7797 33.6107 26.1085 33.6112 26.456C33.6119 27.0455 33.8061 27.6594 34.0195 28.1149C36.3391 26.5947 38.9568 25.4902 41.7661 24.9077C41.4575 23.8109 40.9882 23.2471 40.5026 22.9991ZM45.5146 67.5762C46.0224 68.0953 46.2165 68.6666 46.2416 68.9429C40.2535 68.9078 34.8307 66.4929 30.875 62.598C31.0851 62.3779 31.5249 62.1092 32.1728 62.1143C32.8505 62.1197 33.7835 62.4256 34.9352 63.4571C35.5474 64.0053 36.1291 64.3129 36.6769 64.4288C37.2277 64.5453 37.7284 64.4646 38.1681 64.2628C38.682 64.0271 39.1088 63.6284 39.4464 63.1924C39.4042 63.6147 39.411 64.0998 39.5403 64.5686C39.6804 65.0767 39.9659 65.5704 40.4885 65.9371C41.0085 66.302 41.7419 66.5262 42.7523 66.5383C44.1221 66.5545 44.9885 67.0383 45.5146 67.5762ZM29.5916 58.2526C31.2733 60.3197 30.8732 61.826 30.5432 62.2643C26.6969 58.3129 24.3234 52.9263 24.3067 46.9866C24.3179 46.9861 24.3291 46.9854 24.3405 46.9846C24.6289 46.9735 25.0992 47.1039 25.531 47.5937C25.9781 48.1009 26.3919 49.0052 26.4872 50.5517C26.5377 51.3709 26.7357 51.9974 27.0446 52.4637C27.3551 52.9326 27.7687 53.2258 28.2239 53.3901C28.7948 53.596 29.4261 53.5981 30.0069 53.5051C29.6619 53.7886 29.2912 54.1718 29.0268 54.6466C28.774 55.1003 28.6163 55.6419 28.6766 56.2577C28.7369 56.8729 29.0128 57.5412 29.5916 58.2526ZM24.3108 46.5189L24.3103 46.5189C24.417 40.6113 26.8554 35.2717 30.7459 31.3776C30.9232 31.6054 31.0845 31.9984 31.0379 32.552C30.9813 33.2249 30.6149 34.1492 29.5636 35.2895C29.0046 35.8958 28.6992 36.4826 28.594 37.0421C28.4883 37.6037 28.5882 38.1184 28.8069 38.5712C29.0924 39.162 29.5804 39.649 30.0864 40.0179C29.6216 39.9625 29.043 39.9592 28.4772 40.1218C27.9777 40.2653 27.4841 40.5395 27.0937 41.0227C26.7038 41.5053 26.4301 42.1798 26.3411 43.1021C26.0781 45.8271 24.8145 46.4767 24.3108 46.5189ZM34.8353 30.0296C32.9824 31.6566 31.6295 31.3551 31.1032 31.028C35.0353 27.2658 40.3607 24.9422 46.2297 24.9047C46.1773 25.486 45.4542 26.6646 42.5362 26.8367C41.7123 26.8852 41.0786 27.0937 40.604 27.4187C40.1278 27.7448 39.8263 28.1784 39.6529 28.6517C39.464 29.1673 39.4269 29.729 39.4756 30.2583C39.2279 29.9394 38.9132 29.6132 38.5306 29.3677C38.0855 29.0822 37.5433 28.9027 36.911 28.9755C36.2817 29.048 35.5895 29.3673 34.8353 30.0296ZM46.7102 68.9408C52.6849 68.8517 58.0842 66.3932 62.0064 62.4652L61.9919 62.4493C61.5897 62.0312 60.0487 61.3906 57.8025 63.4314C57.1934 63.9849 56.6116 64.2902 56.0613 64.3984C55.5082 64.5072 55.0053 64.4131 54.5642 64.1992C54.0078 63.9294 53.5509 63.4698 53.1984 62.9858C53.2893 63.5758 53.2825 64.2192 53.0642 64.7969C52.8935 65.249 52.5941 65.6577 52.1201 65.9612C51.6486 66.263 51.0181 66.4522 50.1965 66.4915C48.6577 66.5651 47.7821 67.0463 47.2964 67.5629C46.8222 68.0672 46.7002 68.6246 46.7097 68.9339L46.7102 68.9408ZM68.4353 46.6988L68.4399 46.6986C68.3805 40.7816 65.9823 35.4235 62.1236 31.5006C61.7999 31.9483 61.4616 33.2634 63.0868 35.3054C63.6643 36.031 63.9365 36.7062 63.9916 37.3238C64.0467 37.9423 63.8821 38.4816 63.6223 38.931C63.3773 39.3546 63.0461 39.7017 62.7268 39.9688C63.3153 39.9053 63.9557 39.9376 64.5328 40.1573C65.0065 40.3376 65.4378 40.6447 65.7549 41.1254C66.0709 41.6046 66.2634 42.2408 66.2875 43.0645C66.376 46.0938 67.8565 46.7018 68.4353 46.6988ZM57.7996 30.0439C59.9742 32.034 61.3438 31.5649 61.7859 31.1645C57.8839 27.3644 52.5761 24.9952 46.7142 24.9068C46.7621 25.1723 46.9218 25.5467 47.3129 25.8858C47.7803 26.291 48.5961 26.6604 49.9872 26.7075C50.9758 26.741 51.6913 26.9981 52.1954 27.4C52.7 27.8024 52.9703 28.3321 53.1008 28.8691C53.223 29.3718 53.2248 29.8889 53.18 30.3349C53.5307 29.9127 53.9687 29.5246 54.4824 29.2838C54.943 29.0679 55.4653 28.9704 56.0328 29.0765C56.5985 29.1822 57.1907 29.4867 57.7996 30.0439ZM51.9035 27.7645C51.497 27.4403 50.8866 27.2047 49.9713 27.1738C48.5048 27.1241 47.5757 26.7317 47.0062 26.238C46.7737 26.0363 46.6041 25.8202 46.4838 25.6089C46.0425 26.3838 44.8798 27.1658 42.5637 27.3024C41.8038 27.3472 41.2574 27.537 40.8685 27.8033C40.4811 28.0686 40.2358 28.4194 40.092 28.8119C39.8417 29.4951 39.8999 30.3058 40.0764 30.9759C42.0076 30.2148 44.112 29.7966 46.3142 29.7966C48.5333 29.7966 50.6531 30.2212 52.5964 30.9935C52.7093 30.5146 52.8262 29.7187 52.6465 28.9791C52.5344 28.518 52.3094 28.0882 51.9035 27.7645ZM53.1249 31.2139C57.0443 32.9275 60.1911 36.0747 61.8989 39.9911C62.2878 39.7517 62.8633 39.3106 63.2179 38.6972C63.4385 38.3158 63.5715 37.8716 63.5264 37.3652C63.4812 36.858 63.2553 36.267 62.7214 35.5962C61.4406 33.987 61.2558 32.7017 61.4543 31.8782C60.5957 32.1578 59.2173 31.9745 57.4843 30.3884C56.9239 29.8755 56.4081 29.6217 55.947 29.5355C55.4876 29.4497 55.0644 29.5268 54.6806 29.7067C54.0232 30.0148 53.4854 30.6242 53.1249 31.2139ZM62.5757 41.8283C63.0483 43.3856 63.3024 45.0377 63.3024 46.7491C63.3024 48.3936 63.0678 49.9834 62.6301 51.4869L62.6594 51.5262H62.6186C62.4799 51.9986 62.321 52.4624 62.1432 52.9167C62.6054 53.0706 63.3441 53.2756 64.0329 53.155C64.448 53.0823 64.8378 52.8918 65.1396 52.4959C65.4451 52.0952 65.6775 51.4619 65.7275 50.4733C65.8336 48.3795 66.7714 47.3628 67.5879 46.9442C66.7644 46.5166 65.8882 45.406 65.8202 43.0781C65.798 42.3193 65.6221 41.7726 65.3643 41.3819C65.1076 40.9927 64.7599 40.743 64.3662 40.5931C63.6644 40.326 62.8185 40.3782 62.1293 40.5464C62.2907 40.9557 62.4365 41.3728 62.5661 41.7969H62.5989L62.5757 41.8283ZM62.8354 46.7491C62.8354 48.224 62.6413 49.6536 62.2772 51.0139L59.0148 46.6411L62.2267 42.3C62.6233 43.7153 62.8354 45.2075 62.8354 46.7491ZM55.4198 51.5262H62.1311C60.118 58.1717 54.0137 63.045 46.7414 63.2292L49.6248 59.3322H53.6702H54.0251L53.8847 59.0062L52.4684 55.7203H57.231H57.617L57.4379 55.3784L55.4198 51.5262ZM61.7283 51.0592H55.7459L58.7247 47.0332L61.7283 51.0592ZM55.1709 51.0511L58.433 46.6422L55.1666 42.264H55.1632L52.9035 46.7229L55.1709 51.0511ZM61.6724 42.264L58.7231 46.2501L55.7493 42.264H61.6724ZM62.077 41.7969H55.4008L55.4003 41.7962L57.147 38.3496L57.3188 38.0106H56.9387H52.8535L54.8062 34.6926L55.0133 34.3406H54.605H49.838L46.8016 30.2706C53.9834 30.4783 60.0162 35.2593 62.077 41.7969ZM46.5459 30.709L49.2553 34.3406H43.7657L46.5459 30.709ZM46.2987 30.2636L43.1776 34.3406H38.5508H38.1439L38.3492 34.692L40.2881 38.0106H36.0391H35.657L35.8313 38.3506L37.5461 41.6968L37.4695 41.7969H30.5527H30.5514C32.6572 35.1166 38.9103 30.2704 46.2987 30.2636ZM31.0212 42.264H37.1119L34.0428 46.2731L31.0212 42.264ZM37.7001 42.264L34.3346 46.6602L37.65 51.0592H37.7114L40.0658 46.6133L37.8368 42.264H37.7001ZM30.4185 42.2403L33.7481 46.658L30.3674 51.0741C29.9928 49.6958 29.793 48.2457 29.793 46.7491C29.793 45.1858 30.0111 43.6733 30.4185 42.2403ZM46.2417 63.2345C38.8137 63.2026 32.543 58.2795 30.4973 51.5262H37.4172L37.4447 51.5627L35.4245 55.3775L35.243 55.7203H35.6309H40.5783L40.5951 55.7426L39.2108 59.0075L39.0731 59.3322H39.4258H43.3005L46.2417 63.2345ZM30.967 51.0592H37.0652L34.0399 47.0452L30.967 51.0592ZM40.8057 55.2461L38.002 51.5262H42.3829L40.8057 55.2461ZM45.0184 55.2533L43.1083 51.5262H44.8919L46.3312 55.1072L46.39 55.2533H45.0184ZM43.0882 51.0592H44.7042L43.9178 49.1027L43.0882 51.0592ZM46.5436 54.3832L45.3952 51.5262H47.6472L46.5436 54.3832ZM46.7657 55.1043L48.1479 51.5262H49.9457L48.0568 55.2533H46.7082L46.7657 55.1043ZM48.3283 51.0592H49.9508L49.0951 49.0739L48.3283 51.0592ZM52.1915 55.0779L50.6607 51.5262H54.8194L52.1915 55.0779ZM50.7059 51.0592H54.6479L52.6442 47.2345L51.8272 48.8466L50.7059 51.0592ZM51.5692 48.3226L52.3781 46.7265L51.0104 44.1157L50.3454 45.8372L51.5692 48.3226ZM49.6998 45.5833H48.3967L49.1062 44.3778L49.6998 45.5833ZM50.0648 45.2674L50.5274 44.0699H49.4752L50.0648 45.2674ZM49.1428 43.3948L49.8083 42.264H48.5859L49.1428 43.3948ZM48.356 41.7969H49.7957L48.0568 38.4776H46.7215L48.356 41.7969ZM46.2583 38.4776H44.9026L43.1448 41.7969H44.6431L46.2583 38.4776ZM46.4915 38.0106L46.4885 38.0044L46.4856 38.0106H45.1499L46.4882 35.4834L47.8121 38.0106H46.4915ZM45.1624 41.7969L46.491 39.0667L47.8354 41.7969H45.1624ZM44.4158 42.264H43.3141L43.9152 43.2927L44.4158 42.264ZM44.2837 43.6028L44.9352 42.264H46.3102L46.2746 42.3477L45.7425 43.6028H44.2837ZM43.9528 44.2829L44.7126 45.5833H43.3199L43.9528 44.2829ZM42.9134 45.3514L43.537 44.0699H42.3983L42.9134 45.3514ZM42.6377 45.9179L41.4671 48.3236L40.5924 46.6168L41.9149 44.1195L42.6377 45.9179ZM41.7351 48.8466L42.7114 50.7516L43.5191 48.8466H41.7351ZM44.3182 48.8466L45.2075 51.0592H46.2098L44.7561 48.8466H44.3182ZM44.4492 48.3795H44.2244L44.3126 48.1715L44.4492 48.3795ZM45.3149 48.8466L46.4893 50.634L47.6637 48.8466H45.3149ZM48.2225 48.8466L46.7688 51.0592H47.8276L48.6823 48.8466H48.2225ZM49.3634 48.3795L50.1166 46.4296L51.0767 48.3795H49.3634ZM49.5057 48.8466H51.3037L50.332 50.7638L49.5057 48.8466ZM48.7958 48.3795H48.5293L48.6903 48.1346L48.7958 48.3795ZM47.9705 48.3795H46.7511L47.9314 46.374L48.4689 47.621L47.9705 48.3795ZM46.3463 48.3795H45.008L44.5318 47.6546L45.1167 46.275L46.3463 48.3795ZM43.6271 48.3795H41.9593L42.8727 46.5025L43.6271 48.3795ZM48.0654 42.264L48.7246 43.6028H47.2456L46.7041 42.3465L46.6685 42.264H48.0654ZM38.2398 51.0592H42.3442L40.3257 47.1204L38.2398 51.0592ZM40.5773 38.5056L38.0963 41.7464L38.1222 41.7969H42.5003L40.5773 38.5056ZM37.8605 41.2862L40.0106 38.4776H36.4211L37.8605 41.2862ZM38.9577 34.8077L40.6295 37.6691L42.82 34.8077H38.9577ZM43.4082 34.8077L40.9563 38.0106H44.6215L46.283 34.8731L46.3176 34.8077H43.4082ZM51.9933 38.0106L49.6038 34.8077H46.6614L46.6962 34.874L48.3393 38.0106H51.9933ZM50.1864 34.8077L52.4282 37.8125L54.1966 34.8077H50.1864ZM56.5585 38.4776H52.9244L55.0885 41.3783L56.5585 38.4776ZM50.6251 41.7969L52.4742 38.6551L54.8181 41.7969H50.6251ZM52.6374 46.2149L54.6397 42.264H50.5676L52.6374 46.2149ZM50.21 41.5814L52.0367 38.4776H48.584L50.21 41.5814ZM44.3741 38.4776H41.1019L42.8183 41.4154L44.3741 38.4776ZM42.369 42.264H38.3616L40.3324 46.1097L42.369 42.264ZM40.2263 55.2533H36.0188L37.7551 51.9745L40.2263 55.2533ZM41.1631 55.7203L43.5334 58.8652H46.3446L46.3394 58.855L44.733 55.7203H41.1631ZM44.4936 55.2533H41.3099L42.7514 51.8536L44.4936 55.2533ZM45.2577 55.7203L46.5461 58.2342L47.8201 55.7203H45.2577ZM48.3437 55.7203L46.7556 58.8541L46.7499 58.8652H49.3894L51.7162 55.7203H48.3437ZM51.7585 55.2533H48.5804L50.2979 51.8644L51.7585 55.2533ZM52.6427 55.2533H56.8451L55.1031 51.928L52.6427 55.2533ZM42.1884 43.6028H43.5555L42.8384 42.3755L42.1884 43.6028ZM50.1863 42.5426L50.7417 43.6028H49.5623L50.1863 42.5426ZM53.3153 58.8652H49.9703L52.084 56.0084L53.3153 58.8652ZM49.3383 47.1482L49.0715 47.8391L48.9974 47.6672L49.3383 47.1482ZM49.5008 46.0503L48.776 47.1536L48.3005 46.0503H49.5008ZM48.7455 44.0699L47.9959 45.3436L47.4469 44.0699H48.7455ZM47.5906 45.5833L46.9383 44.0699H46.0517L45.41 45.5833H47.5906ZM46.4914 43.0329L46.2497 43.6028H46.737L46.4914 43.0329ZM44.3692 44.0699H45.5444L45.0502 45.2354L44.3692 44.0699ZM43.4778 46.0503H44.7047L44.2235 47.1853L43.4778 46.0503ZM43.6282 47.1299L44.0043 47.7023L43.9293 47.8791L43.6282 47.1299ZM46.4884 62.7859L43.8854 59.3322H49.0438L46.4884 62.7859ZM42.9485 58.8652L40.9198 56.1734L39.7784 58.8652H42.9485ZM47.58 46.0503H45.5263L46.5494 47.8014L47.58 46.0503ZM61.9099 53.4819C60.2244 57.3646 57.1254 60.494 53.2609 62.2241C53.6126 62.8357 54.127 63.4681 54.768 63.779C55.128 63.9536 55.5282 64.0273 55.9712 63.9401C56.4171 63.8524 56.9245 63.5982 57.4884 63.0858C59.2298 61.5036 60.6885 61.373 61.5888 61.6776C61.3475 60.8339 61.451 59.5098 62.7443 57.8968C63.2806 57.2279 63.5086 56.6377 63.5556 56.1306C63.6026 55.6244 63.4711 55.1798 63.252 54.7976C62.8911 54.1681 62.2979 53.7185 61.9099 53.4819ZM52.6163 62.4968C50.6676 63.2741 48.5409 63.7017 46.3142 63.7017C44.0991 63.7017 41.983 63.2786 40.0426 62.509C39.9248 62.9642 39.7962 63.7382 39.9911 64.4448C40.1077 64.8677 40.3387 65.2616 40.7575 65.5555C41.1789 65.8512 41.8118 66.0605 42.7579 66.0718C44.247 66.0895 45.2332 66.6206 45.8492 67.2503C46.1021 67.5088 46.2922 67.7838 46.4287 68.0447C46.5407 67.7806 46.7102 67.5044 46.9554 67.2437C47.5425 66.6193 48.5436 66.1035 50.1741 66.0255C50.9372 65.989 51.4824 65.8152 51.8676 65.5685C52.2502 65.3236 52.4885 64.9983 52.6267 64.6324C52.8754 63.9741 52.8019 63.1756 52.6163 62.4968ZM39.4892 62.278C35.5891 60.5687 32.4555 57.4391 30.746 53.545C30.3624 53.7879 29.7853 54.2446 29.4348 54.8739C29.2196 55.2603 29.092 55.7074 29.1414 56.2122C29.1909 56.7175 29.42 57.3017 29.9539 57.9579C31.2571 59.5597 31.436 60.9387 31.2351 61.8178C31.4987 61.7127 31.8141 61.6444 32.1765 61.6473C32.9993 61.6538 34.0372 62.0258 35.2468 63.1092C35.8154 63.6184 36.3256 63.8771 36.7735 63.9719C37.2184 64.066 37.6172 64.0017 37.9733 63.8383C38.6258 63.539 39.1429 62.9019 39.4892 62.278ZM30.4874 52.9222C29.7376 51.0093 29.3259 48.9272 29.3259 46.7491C29.3259 44.5651 29.7398 42.4776 30.4935 40.5605C30.0506 40.46 29.3079 40.3686 28.6066 40.5701C28.1824 40.692 27.7775 40.9196 27.4577 41.3155C27.1372 41.7121 26.8888 42.2941 26.8065 43.1468C26.6088 45.1946 25.8464 46.2477 25.1301 46.702C25.3826 46.8241 25.6416 47.0128 25.882 47.2856C26.4183 47.894 26.8545 48.9093 26.9539 50.523C27.0007 51.2839 27.1823 51.8255 27.4346 52.2065C27.6853 52.585 28.0144 52.8184 28.3829 52.9513C29.0345 53.1864 29.8174 53.1093 30.4874 52.9222ZM30.7661 39.9077C32.4871 36.0185 35.6305 32.8968 39.5381 31.1989C39.3023 30.7799 38.8804 30.147 38.2784 29.7608C37.9062 29.5221 37.4705 29.3812 36.9644 29.4395C36.4554 29.4981 35.8487 29.7612 35.1434 30.3805C33.5778 31.7553 32.254 31.8947 31.4095 31.6634C31.4925 31.926 31.5331 32.237 31.5033 32.5911C31.4354 33.3988 31.004 34.4163 29.9069 35.6061C29.3917 36.1649 29.1382 36.6751 29.0529 37.1284C28.9681 37.5796 29.0463 37.9932 29.2275 38.3681C29.542 39.0191 30.1661 39.5494 30.7661 39.9077Z" fill="#FECA2E"/>
<path d="M29.9289 82.27L29.0241 81.882L31.3503 76.4577L28.1505 75.0854L28.5385 74.1807L35.843 77.3132L35.455 78.218L32.2551 76.8457L29.9289 82.27Z" fill="#FECA2E"/>
<path d="M29.9289 82.27L29.8885 82.3642L29.9827 82.4046L30.023 82.3104L29.9289 82.27ZM29.0241 81.882L28.9299 81.8416L28.8896 81.9358L28.9837 81.9762L29.0241 81.882ZM31.3503 76.4577L31.4445 76.4981L31.4849 76.4039L31.3907 76.3636L31.3503 76.4577ZM28.1505 75.0854L28.0563 75.0451L28.0159 75.1392L28.1101 75.1796L28.1505 75.0854ZM28.5385 74.1807L28.5789 74.0865L28.4847 74.0461L28.4443 74.1403L28.5385 74.1807ZM35.843 77.3132L35.9371 77.3536L35.9775 77.2594L35.8834 77.2191L35.843 77.3132ZM35.455 78.218L35.4146 78.3122L35.5087 78.3525L35.5491 78.2584L35.455 78.218ZM32.2551 76.8457L32.2955 76.7516L32.2013 76.7112L32.161 76.8054L32.2551 76.8457ZM29.9693 82.1759L29.0645 81.7879L28.9837 81.9762L29.8885 82.3642L29.9693 82.1759ZM29.1183 81.9224L31.4445 76.4981L31.2562 76.4173L28.9299 81.8416L29.1183 81.9224ZM31.3907 76.3636L28.1908 74.9913L28.1101 75.1796L31.3099 76.5519L31.3907 76.3636ZM28.2446 75.1258L28.6326 74.221L28.4443 74.1403L28.0563 75.0451L28.2446 75.1258ZM28.4981 74.2748L35.8026 77.4074L35.8834 77.2191L28.5789 74.0865L28.4981 74.2748ZM35.7488 77.2728L35.3608 78.1776L35.5491 78.2584L35.9371 77.3536L35.7488 77.2728ZM35.4953 78.1238L32.2955 76.7516L32.2147 76.9399L35.4146 78.3122L35.4953 78.1238ZM32.161 76.8054L29.8347 82.2297L30.023 82.3104L32.3493 76.8861L32.161 76.8054Z" fill="#FECA2E"/>
<path d="M42.9737 85.6477L35.9441 84.5055L37.0486 77.7081L44.0783 78.8503L43.9204 79.8221L37.8624 78.8377L37.0737 83.6916L43.1316 84.676L42.9737 85.6477ZM42.6219 82.6033L37.8722 81.8315L38.0301 80.8597L42.7798 81.6315L42.6219 82.6033Z" fill="#FECA2E"/>
<path d="M42.9737 85.6477L42.9573 85.7489L43.0584 85.7653L43.0749 85.6642L42.9737 85.6477ZM35.9441 84.5055L35.8429 84.489L35.8265 84.5902L35.9276 84.6066L35.9441 84.5055ZM37.0486 77.7081L37.065 77.6069L36.9639 77.5905L36.9475 77.6916L37.0486 77.7081ZM44.0783 78.8503L44.1794 78.8668L44.1958 78.7657L44.0947 78.7492L44.0783 78.8503ZM43.9204 79.8221L43.9039 79.9232L44.0051 79.9396L44.0215 79.8385L43.9204 79.8221ZM37.8624 78.8377L37.8789 78.7366L37.7777 78.7201L37.7613 78.8213L37.8624 78.8377ZM37.0737 83.6916L36.9726 83.6752L36.9561 83.7763L37.0573 83.7928L37.0737 83.6916ZM43.1316 84.676L43.2328 84.6924L43.2492 84.5913L43.1481 84.5749L43.1316 84.676ZM42.6219 82.6033L42.6054 82.7044L42.7066 82.7208L42.723 82.6197L42.6219 82.6033ZM37.8722 81.8315L37.7711 81.815L37.7547 81.9162L37.8558 81.9326L37.8722 81.8315ZM38.0301 80.8597L38.0466 80.7586L37.9454 80.7422L37.929 80.8433L38.0301 80.8597ZM42.7798 81.6315L42.8809 81.648L42.8973 81.5468L42.7962 81.5304L42.7798 81.6315ZM42.9902 85.5466L35.9605 84.4043L35.9276 84.6066L42.9573 85.7489L42.9902 85.5466ZM36.0452 84.5219L37.1497 77.7245L36.9475 77.6916L35.8429 84.489L36.0452 84.5219ZM37.0322 77.8092L44.0618 78.9515L44.0947 78.7492L37.065 77.6069L37.0322 77.8092ZM43.9771 78.8339L43.8192 79.8056L44.0215 79.8385L44.1794 78.8668L43.9771 78.8339ZM43.9368 79.721L37.8789 78.7366L37.846 78.9388L43.9039 79.9232L43.9368 79.721ZM37.7613 78.8213L36.9726 83.6752L37.1748 83.7081L37.9636 78.8541L37.7613 78.8213ZM37.0573 83.7928L43.1152 84.7771L43.1481 84.5749L37.0901 83.5905L37.0573 83.7928ZM43.0305 84.6596L42.8726 85.6313L43.0749 85.6642L43.2328 84.6924L43.0305 84.6596ZM42.6383 82.5021L37.8887 81.7303L37.8558 81.9326L42.6054 82.7044L42.6383 82.5021ZM37.9734 81.8479L38.1313 80.8762L37.929 80.8433L37.7711 81.815L37.9734 81.8479ZM38.0137 80.9609L42.7633 81.7326L42.7962 81.5304L38.0466 80.7586L38.0137 80.9609ZM42.6787 81.6151L42.5208 82.5868L42.723 82.6197L42.8809 81.648L42.6787 81.6151Z" fill="#FECA2E"/>
<path d="M53.8051 84.9518L52.8255 85.05L52.6291 83.0908L47.1626 83.6387L47.0649 82.6639L52.5314 82.116L52.2369 79.1773L48.7248 79.5293C48.3903 79.5628 48.0815 79.6597 47.7983 79.82C47.5148 79.9771 47.2743 80.1782 47.0769 80.4232C46.8791 80.6651 46.7298 80.9407 46.6288 81.25C46.5311 81.559 46.4992 81.8824 46.533 82.2201L46.8764 85.6462L45.8968 85.7444L45.5534 82.3182C45.5218 82.0029 45.5313 81.6962 45.5819 81.3984C45.6354 81.097 45.7227 80.8131 45.8441 80.5468C45.9682 80.2769 46.1235 80.0281 46.3098 79.8003C46.499 79.569 46.7119 79.3658 46.9485 79.1909C47.1884 79.0156 47.4493 78.8736 47.7312 78.7649C48.0128 78.6531 48.3112 78.5813 48.6266 78.5497L53.1183 78.0995L53.8051 84.9518Z" fill="#FECA2E"/>
<path d="M53.8051 84.9518L53.8153 85.0537L53.9172 85.0435L53.907 84.9416L53.8051 84.9518ZM52.8255 85.05L52.7235 85.0602L52.7338 85.1621L52.8357 85.1519L52.8255 85.05ZM52.6291 83.0908L52.7311 83.0806L52.7209 82.9787L52.6189 82.9889L52.6291 83.0908ZM47.1626 83.6387L47.0607 83.6489L47.0709 83.7508L47.1729 83.7406L47.1626 83.6387ZM47.0649 82.6639L47.0547 82.5619L46.9528 82.5722L46.963 82.6741L47.0649 82.6639ZM52.5314 82.116L52.5417 82.218L52.6436 82.2077L52.6334 82.1058L52.5314 82.116ZM52.2369 79.1773L52.3389 79.1671L52.3286 79.0651L52.2267 79.0754L52.2369 79.1773ZM47.7983 79.82L47.848 79.9096L47.8488 79.9092L47.7983 79.82ZM47.0769 80.4232L47.1562 80.4881L47.1567 80.4875L47.0769 80.4232ZM46.6288 81.25L46.5314 81.2182L46.5312 81.2191L46.6288 81.25ZM46.8764 85.6462L46.8866 85.7481L46.9885 85.7379L46.9783 85.636L46.8764 85.6462ZM45.8968 85.7444L45.7949 85.7546L45.8051 85.8565L45.907 85.8463L45.8968 85.7444ZM45.5819 81.3984L45.481 81.3805L45.4809 81.3812L45.5819 81.3984ZM45.8441 80.5468L45.751 80.504L45.7508 80.5043L45.8441 80.5468ZM46.9485 79.1909L46.8881 79.1082L46.8876 79.1085L46.9485 79.1909ZM47.7312 78.7649L47.768 78.8605L47.769 78.8602L47.7312 78.7649ZM53.1183 78.0995L53.2203 78.0893L53.21 77.9874L53.1081 77.9976L53.1183 78.0995ZM53.7948 84.8498L52.8153 84.948L52.8357 85.1519L53.8153 85.0537L53.7948 84.8498ZM52.9274 85.0397L52.7311 83.0806L52.5272 83.101L52.7235 85.0602L52.9274 85.0397ZM52.6189 82.9889L47.1524 83.5367L47.1729 83.7406L52.6394 83.1927L52.6189 82.9889ZM47.2646 83.6285L47.1669 82.6537L46.963 82.6741L47.0607 83.6489L47.2646 83.6285ZM47.0752 82.7658L52.5417 82.218L52.5212 82.0141L47.0547 82.5619L47.0752 82.7658ZM52.6334 82.1058L52.3389 79.1671L52.135 79.1875L52.4295 82.1262L52.6334 82.1058ZM52.2267 79.0754L48.7146 79.4273L48.735 79.6312L52.2471 79.2792L52.2267 79.0754ZM48.7146 79.4273C48.3664 79.4622 48.0438 79.5633 47.7478 79.7309L47.8488 79.9092C48.1191 79.7561 48.4142 79.6634 48.735 79.6312L48.7146 79.4273ZM47.7486 79.7304C47.4539 79.8938 47.2031 80.1033 46.9971 80.3589L47.1567 80.4875C47.3456 80.2531 47.5757 80.0605 47.848 79.9096L47.7486 79.7304ZM46.9976 80.3584C46.7914 80.6104 46.6361 80.8973 46.5314 81.2182L46.7262 81.2818C46.8234 80.984 46.9668 80.7197 47.1562 80.4881L46.9976 80.3584ZM46.5312 81.2191C46.429 81.542 46.3959 81.8794 46.4311 82.2303L46.6349 82.2099C46.6024 81.8854 46.6332 81.576 46.7265 81.2809L46.5312 81.2191ZM46.4311 82.2303L46.7744 85.6564L46.9783 85.636L46.6349 82.2099L46.4311 82.2303ZM46.8662 85.5442L45.8866 85.6424L45.907 85.8463L46.8866 85.7481L46.8662 85.5442ZM45.9987 85.7341L45.6554 82.308L45.4515 82.3285L45.7949 85.7546L45.9987 85.7341ZM45.6554 82.308C45.6246 82.0013 45.6339 81.7039 45.6829 81.4155L45.4809 81.3812C45.4287 81.6886 45.419 82.0044 45.4515 82.3285L45.6554 82.308ZM45.6828 81.4163C45.7348 81.123 45.8197 80.8474 45.9373 80.5893L45.7508 80.5043C45.6258 80.7789 45.5359 81.071 45.481 81.3805L45.6828 81.4163ZM45.9371 80.5896C46.0577 80.3276 46.2083 80.0862 46.3891 79.8651L46.2305 79.7354C46.0386 79.97 45.8788 80.2263 45.751 80.504L45.9371 80.5896ZM46.3891 79.8651C46.573 79.6403 46.7797 79.4431 47.0094 79.2733L46.8876 79.1085C46.644 79.2886 46.425 79.4976 46.2305 79.7354L46.3891 79.8651ZM47.009 79.2736C47.2414 79.1037 47.4944 78.9661 47.768 78.8605L47.6943 78.6694C47.4042 78.7812 47.1353 78.9275 46.8881 79.1082L47.009 79.2736ZM47.769 78.8602C48.0413 78.752 48.3305 78.6824 48.6368 78.6517L48.6164 78.4478C48.292 78.4803 47.9842 78.5542 47.6933 78.6697L47.769 78.8602ZM48.6368 78.6517L53.1285 78.2015L53.1081 77.9976L48.6164 78.4478L48.6368 78.6517ZM53.0164 78.1098L53.7031 84.962L53.907 84.9416L53.2203 78.0893L53.0164 78.1098Z" fill="#FECA2E"/>
<path d="M61.9783 81.8158L61.0885 82.2369L59.6157 79.1245C59.4705 78.8177 59.2764 78.5572 59.0333 78.3428C58.7901 78.1285 58.5201 77.9694 58.223 77.8656C57.9275 77.7575 57.6163 77.7099 57.2895 77.7229C56.9642 77.7316 56.6482 77.8085 56.3414 77.9537L55.8639 78.1796L58.3884 83.5146L57.4986 83.9356L54.553 77.7109L55.9203 77.0638C56.2039 76.9296 56.4938 76.8385 56.7898 76.7905C57.0874 76.7382 57.382 76.7246 57.6736 76.7495C57.9652 76.7744 58.2489 76.835 58.5246 76.9312C58.8004 77.0274 59.0611 77.1555 59.3068 77.3155C59.336 77.0254 59.4009 76.7432 59.5013 76.469C59.6018 76.1948 59.7348 75.937 59.9005 75.6957C60.0661 75.4544 60.262 75.236 60.4882 75.0404C60.716 74.8405 60.9716 74.6735 61.2552 74.5393L62.627 73.8902L65.5726 80.115L64.6827 80.5361L62.1582 75.2012L61.6763 75.4292C61.3696 75.5743 61.1097 75.7699 60.8967 76.0159C60.6824 76.259 60.5218 76.5298 60.4151 76.8282C60.3099 77.1224 60.2617 77.4321 60.2704 77.7574C60.282 78.0813 60.3604 78.3966 60.5055 78.7034L61.9783 81.8158Z" fill="#FECA2E"/>
<path d="M61.9783 81.8158L62.0222 81.9084L62.1148 81.8646L62.0709 81.772L61.9783 81.8158ZM61.0885 82.2369L60.9959 82.2807L61.0397 82.3733L61.1323 82.3295L61.0885 82.2369ZM58.223 77.8656L58.1878 77.9618L58.1892 77.9623L58.223 77.8656ZM57.2895 77.7229L57.2922 77.8253L57.2935 77.8253L57.2895 77.7229ZM55.8639 78.1796L55.8201 78.087L55.7275 78.1309L55.7713 78.2235L55.8639 78.1796ZM58.3884 83.5146L58.4323 83.6072L58.5249 83.5633L58.481 83.4707L58.3884 83.5146ZM57.4986 83.9356L57.406 83.9795L57.4498 84.0721L57.5424 84.0283L57.4986 83.9356ZM54.553 77.7109L54.5091 77.6183L54.4165 77.6621L54.4604 77.7547L54.553 77.7109ZM56.7898 76.7905L56.8062 76.8916L56.8075 76.8914L56.7898 76.7905ZM59.3068 77.3155L59.2509 77.4013L59.3919 77.4931L59.4088 77.3257L59.3068 77.3155ZM60.4882 75.0404L60.5552 75.1179L60.5558 75.1174L60.4882 75.0404ZM62.627 73.8902L62.7196 73.8464L62.6757 73.7538L62.5831 73.7976L62.627 73.8902ZM65.5726 80.115L65.6164 80.2076L65.709 80.1638L65.6652 80.0712L65.5726 80.115ZM64.6827 80.5361L64.5901 80.5799L64.6339 80.6725L64.7265 80.6287L64.6827 80.5361ZM62.1582 75.2012L62.2508 75.1573L62.207 75.0647L62.1144 75.1086L62.1582 75.2012ZM60.8967 76.0159L60.9736 76.0837L60.9742 76.083L60.8967 76.0159ZM60.2704 77.7574L60.168 77.7601L60.168 77.7611L60.2704 77.7574ZM61.9345 81.7232L61.0446 82.1443L61.1323 82.3295L62.0222 81.9084L61.9345 81.7232ZM61.1811 82.1931L59.7083 79.0807L59.523 79.1683L60.9959 82.2807L61.1811 82.1931ZM59.7083 79.0807C59.5574 78.7619 59.355 78.49 59.101 78.266L58.9655 78.4197C59.1977 78.6244 59.3836 78.8735 59.523 79.1683L59.7083 79.0807ZM59.101 78.266C58.8483 78.0431 58.5667 77.8772 58.2568 77.7689L58.1892 77.9623C58.4734 78.0616 58.732 78.2138 58.9655 78.4197L59.101 78.266ZM58.2582 77.7693C57.9496 77.6565 57.625 77.607 57.2854 77.6205L57.2935 77.8253C57.6075 77.8128 57.9053 77.8585 58.1878 77.9618L58.2582 77.7693ZM57.2867 77.6205C56.9466 77.6296 56.6167 77.7101 56.2976 77.8611L56.3852 78.0463C56.6797 77.907 56.9818 77.8336 57.2922 77.8253L57.2867 77.6205ZM56.2976 77.8611L55.8201 78.087L55.9078 78.2722L56.3852 78.0463L56.2976 77.8611ZM55.7713 78.2235L58.2958 83.5584L58.481 83.4707L55.9565 78.1358L55.7713 78.2235ZM58.3446 83.4219L57.4547 83.843L57.5424 84.0283L58.4323 83.6072L58.3446 83.4219ZM57.5912 83.8918L54.6456 77.667L54.4604 77.7547L57.406 83.9795L57.5912 83.8918ZM54.5968 77.8035L55.9642 77.1564L55.8765 76.9712L54.5091 77.6183L54.5968 77.8035ZM55.9642 77.1564C56.2395 77.0261 56.5201 76.938 56.8062 76.8916L56.7734 76.6894C56.4674 76.739 56.1684 76.8331 55.8765 76.9712L55.9642 77.1564ZM56.8075 76.8914C57.0967 76.8406 57.3824 76.8274 57.6649 76.8516L57.6823 76.6474C57.3816 76.6217 57.0781 76.6358 56.7721 76.6896L56.8075 76.8914ZM57.6649 76.8516C57.948 76.8758 58.2233 76.9346 58.4909 77.0279L58.5584 76.8345C58.2745 76.7354 57.9825 76.6731 57.6823 76.6474L57.6649 76.8516ZM58.4909 77.0279C58.7588 77.1214 59.0121 77.2458 59.2509 77.4013L59.3627 77.2296C59.1101 77.0652 58.842 76.9334 58.5584 76.8345L58.4909 77.0279ZM59.4088 77.3257C59.4371 77.0442 59.5 76.7704 59.5975 76.5043L59.4051 76.4338C59.3017 76.716 59.235 77.0066 59.2049 77.3052L59.4088 77.3257ZM59.5975 76.5043C59.695 76.2381 59.8241 75.988 59.9849 75.7537L59.816 75.6378C59.6455 75.8861 59.5086 76.1515 59.4051 76.4338L59.5975 76.5043ZM59.9849 75.7537C60.1455 75.5198 60.3355 75.3079 60.5552 75.1179L60.4212 74.9629C60.1885 75.1641 59.9867 75.3891 59.816 75.6378L59.9849 75.7537ZM60.5558 75.1174C60.7761 74.924 61.0238 74.7622 61.2991 74.6319L61.2114 74.4467C60.9195 74.5848 60.6558 74.757 60.4207 74.9634L60.5558 75.1174ZM61.2991 74.6319L62.6708 73.9828L62.5831 73.7976L61.2114 74.4467L61.2991 74.6319ZM62.5344 73.934L65.48 80.1588L65.6652 80.0712L62.7196 73.8464L62.5344 73.934ZM65.5287 80.0224L64.6389 80.4435L64.7265 80.6287L65.6164 80.2076L65.5287 80.0224ZM64.7753 80.4923L62.2508 75.1573L62.0656 75.245L64.5901 80.5799L64.7753 80.4923ZM62.1144 75.1086L61.6325 75.3366L61.7202 75.5218L62.202 75.2938L62.1144 75.1086ZM61.6325 75.3366C61.3135 75.4875 61.042 75.6916 60.8193 75.9489L60.9742 76.083C61.1775 75.8482 61.4257 75.6611 61.7202 75.5218L61.6325 75.3366ZM60.8199 75.9482C60.5971 76.2008 60.4298 76.4828 60.3187 76.7937L60.5116 76.8627C60.6138 76.5768 60.7676 76.3173 60.9736 76.0837L60.8199 75.9482ZM60.3187 76.7937C60.209 77.1003 60.159 77.4227 60.168 77.7601L60.3728 77.7547C60.3644 77.4415 60.4108 77.1445 60.5116 76.8627L60.3187 76.7937ZM60.168 77.7611C60.1801 78.0995 60.2621 78.4285 60.4129 78.7472L60.5981 78.6596C60.4586 78.3648 60.3839 78.0631 60.3728 77.7537L60.168 77.7611ZM60.4129 78.7472L61.8857 81.8596L62.0709 81.772L60.5981 78.6596L60.4129 78.7472Z" fill="#FECA2E"/>
<path d="M25.8357 22.1122L25.2314 22.8895L23.6415 21.728L20.2694 26.0652L19.4783 25.4873L22.8505 21.1501L20.4656 19.4078L18.2991 22.1944C18.0928 22.4598 17.9512 22.7488 17.8744 23.0613C17.7951 23.3719 17.7781 23.6805 17.8235 23.9871C17.8663 24.2918 17.9676 24.5838 18.1274 24.863C18.2893 25.1398 18.5072 25.3782 18.7812 25.5784L21.5616 27.6096L20.9573 28.3868L18.1769 26.3556C17.921 26.1687 17.7 25.9576 17.5139 25.7226C17.3271 25.4831 17.1768 25.2307 17.063 24.9652C16.9485 24.6953 16.8712 24.4169 16.8308 24.1298C16.7899 23.8384 16.7863 23.5484 16.8201 23.26C16.8558 22.969 16.9307 22.6849 17.0449 22.4077C17.1565 22.1286 17.3096 21.8639 17.5041 21.6137L20.2749 18.0499L25.8357 22.1122Z" fill="#FECA2E"/>
<path d="M25.8357 22.1122L25.9184 22.1727L25.9813 22.0918L25.8986 22.0314L25.8357 22.1122ZM25.2314 22.8895L25.1685 22.9703L25.2513 23.0308L25.3142 22.9499L25.2314 22.8895ZM23.6415 21.728L23.7044 21.6471L23.6217 21.5867L23.5588 21.6675L23.6415 21.728ZM20.2694 26.0652L20.2065 26.1461L20.2893 26.2065L20.3521 26.1256L20.2694 26.0652ZM19.4783 25.4873L19.3956 25.4268L19.3327 25.5077L19.4155 25.5682L19.4783 25.4873ZM22.8505 21.1501L22.9332 21.2105L22.9961 21.1296L22.9134 21.0692L22.8505 21.1501ZM20.4656 19.4078L20.5285 19.327L20.4458 19.2665L20.3829 19.3474L20.4656 19.4078ZM17.8744 23.0613L17.9753 23.0848L17.9755 23.0839L17.8744 23.0613ZM17.8235 23.9871L17.9264 23.9726L17.9263 23.9719L17.8235 23.9871ZM18.1274 24.863L18.0365 24.9127L18.037 24.9134L18.1274 24.863ZM21.5616 27.6096L21.6443 27.67L21.7072 27.5891L21.6245 27.5287L21.5616 27.6096ZM20.9573 28.3868L20.8944 28.4677L20.9772 28.5281L21.04 28.4472L20.9573 28.3868ZM17.5139 25.7226L17.4308 25.784L17.4313 25.7846L17.5139 25.7226ZM17.063 24.9652L16.9669 25.0043L16.967 25.0047L17.063 24.9652ZM16.8308 24.1298L16.9338 24.1154L16.8308 24.1298ZM16.8201 23.26L16.7169 23.2488L16.7168 23.2494L16.8201 23.26ZM17.0449 22.4077L17.1413 22.4445L17.1417 22.4436L17.0449 22.4077ZM20.2749 18.0499L20.3378 17.969L20.2551 17.9086L20.1922 17.9895L20.2749 18.0499ZM25.753 22.0518L25.1487 22.829L25.3142 22.9499L25.9184 22.1727L25.753 22.0518ZM25.2943 22.8086L23.7044 21.6471L23.5787 21.8089L25.1685 22.9703L25.2943 22.8086ZM23.5588 21.6675L20.1867 26.0048L20.3521 26.1256L23.7243 21.7884L23.5588 21.6675ZM20.3323 25.9843L19.5412 25.4064L19.4155 25.5682L20.2065 26.1461L20.3323 25.9843ZM19.5611 25.5477L22.9332 21.2105L22.7677 21.0896L19.3956 25.4268L19.5611 25.5477ZM22.9134 21.0692L20.5285 19.327L20.4027 19.4887L22.7876 21.2309L22.9134 21.0692ZM20.3829 19.3474L18.2164 22.134L18.3818 22.2549L20.5484 19.4683L20.3829 19.3474ZM18.2164 22.134C18.0016 22.4102 17.8536 22.712 17.7734 23.0386L17.9755 23.0839C18.0488 22.7856 18.1839 22.5094 18.3818 22.2549L18.2164 22.134ZM17.7736 23.0377C17.6911 23.3606 17.6733 23.6823 17.7206 24.0022L17.9263 23.9719C17.8829 23.6786 17.8991 23.3831 17.9753 23.0848L17.7736 23.0377ZM17.7205 24.0015C17.7651 24.3191 17.8707 24.623 18.0365 24.9127L18.2184 24.8134C18.0645 24.5445 17.9674 24.2644 17.9264 23.9726L17.7205 24.0015ZM18.037 24.9134C18.2061 25.2026 18.4336 25.4513 18.7183 25.6593L18.8441 25.4975C18.5808 25.3052 18.3724 25.0769 18.2179 24.8126L18.037 24.9134ZM18.7183 25.6593L21.4987 27.6905L21.6245 27.5287L18.8441 25.4975L18.7183 25.6593ZM21.4789 27.5492L20.8746 28.3264L21.04 28.4472L21.6443 27.67L21.4789 27.5492ZM21.0202 28.3059L18.2398 26.2747L18.1141 26.4365L20.8944 28.4677L21.0202 28.3059ZM18.2398 26.2747C17.9909 26.0929 17.7766 25.8882 17.5964 25.6606L17.4313 25.7846C17.6233 26.0271 17.8511 26.2444 18.1141 26.4365L18.2398 26.2747ZM17.5969 25.6612C17.4151 25.4282 17.2693 25.183 17.159 24.9257L16.967 25.0047C17.0844 25.2783 17.2391 25.5381 17.4308 25.784L17.5969 25.6612ZM17.1591 24.9261C17.048 24.664 16.9729 24.3938 16.9338 24.1154L16.7279 24.1443C16.7694 24.4399 16.8491 24.7266 16.9669 25.0043L17.1591 24.9261ZM16.9338 24.1154C16.894 23.8321 16.8906 23.5505 16.9233 23.2706L16.7168 23.2494C16.6821 23.5463 16.6858 23.8446 16.7279 24.1443L16.9338 24.1154ZM16.9232 23.2711C16.9579 22.9891 17.0305 22.7136 17.1413 22.4445L16.9485 22.3708C16.8309 22.6562 16.7537 22.9489 16.7169 23.2488L16.9232 23.2711ZM17.1417 22.4436C17.2497 22.1736 17.3979 21.9172 17.5869 21.6741L17.4214 21.5533C17.2213 21.8107 17.0634 22.0835 16.9481 22.3718L17.1417 22.4436ZM17.5869 21.6741L20.3577 18.1103L20.1922 17.9895L17.4214 21.5533L17.5869 21.6741ZM20.2121 18.1308L25.7728 22.1931L25.8986 22.0314L20.3378 17.969L20.2121 18.1308Z" fill="#FECA2E"/>
<path d="M30.9287 15.0622C31.0972 15.28 31.2134 15.514 31.2775 15.7642C31.3397 16.0119 31.3531 16.2594 31.3178 16.5067C31.2832 16.7496 31.2001 16.9822 31.0687 17.2045C30.9398 17.425 30.7654 17.6153 30.5454 17.7754L25.7074 21.2966L25.105 20.5179L29.943 16.9967C30.0543 16.9157 30.1422 16.8201 30.2066 16.7099C30.271 16.5996 30.3108 16.4836 30.3258 16.3619C30.3435 16.2382 30.3367 16.1144 30.3057 15.9906C30.2727 15.8642 30.215 15.7479 30.1327 15.6415C30.0505 15.5351 29.9524 15.4502 29.8385 15.3866C29.7246 15.3231 29.604 15.2822 29.4767 15.2641C29.3519 15.244 29.226 15.2486 29.0989 15.2778C28.9718 15.307 28.8525 15.3621 28.7412 15.4431L25.4952 17.8057C25.2778 17.9639 25.0407 18.0732 24.7838 18.1335C24.527 18.1937 24.2723 18.207 24.0196 18.1732C23.7675 18.135 23.5253 18.052 23.293 17.9243C23.0632 17.7946 22.8651 17.6222 22.6986 17.4069C22.534 17.1942 22.4197 16.9627 22.3556 16.7125C22.2942 16.4604 22.2807 16.2129 22.3154 15.97C22.3506 15.7227 22.434 15.4879 22.5654 15.2656C22.6949 15.0407 22.8684 14.8491 23.0858 14.6909L27.5239 11.4607L28.1262 12.2394L23.6882 15.4696C23.5795 15.5487 23.4916 15.6443 23.4246 15.7564C23.3601 15.8667 23.3191 15.9836 23.3015 16.1073C23.2838 16.2309 23.2915 16.3559 23.3246 16.4823C23.3556 16.6061 23.4123 16.7212 23.4946 16.8276C23.5768 16.934 23.6759 17.0202 23.7917 17.0863C23.9056 17.1498 24.0262 17.1907 24.1536 17.2088C24.2809 17.227 24.4081 17.2215 24.5352 17.1923C24.6649 17.1612 24.7842 17.1061 24.8929 17.027L28.1389 14.6644C28.3589 14.5043 28.597 14.3963 28.8532 14.3404C29.11 14.2802 29.3645 14.2691 29.6165 14.3073C29.8692 14.3411 30.1105 14.4228 30.3402 14.5524C30.568 14.6795 30.7642 14.8495 30.9287 15.0622Z" fill="#FECA2E"/>
<path d="M31.2775 15.7642L31.3784 15.741L31.3783 15.7405L31.2775 15.7642ZM31.0687 17.2045L30.9785 17.1536L30.9783 17.1541L31.0687 17.2045ZM25.7074 21.2966L25.6246 21.3569L25.6872 21.438L25.7701 21.3777L25.7074 21.2966ZM25.105 20.5179L25.0424 20.4369L24.9595 20.4972L25.0222 20.5782L25.105 20.5179ZM30.3258 16.3619L30.2229 16.3472L30.2227 16.349L30.3258 16.3619ZM30.3057 15.9906L30.4066 15.9674L30.4063 15.9665L30.3057 15.9906ZM29.4767 15.2641L29.4605 15.3637L29.4624 15.364L29.4767 15.2641ZM24.0196 18.1732L24.0044 18.273L24.0062 18.2732L24.0196 18.1732ZM23.293 17.9243L23.2414 18.0115L23.2424 18.0121L23.293 17.9243ZM22.3556 16.7125L22.2546 16.7351L22.2549 16.7362L22.3556 16.7125ZM22.5654 15.2656L22.6556 15.3164L22.6562 15.3154L22.5654 15.2656ZM27.5239 11.4607L27.6067 11.4004L27.544 11.3194L27.4612 11.3797L27.5239 11.4607ZM28.1262 12.2394L28.1889 12.3205L28.2717 12.2602L28.209 12.1791L28.1262 12.2394ZM23.4246 15.7564L23.3346 15.7051L23.3342 15.706L23.4246 15.7564ZM23.3246 16.4823L23.4255 16.4591L23.4252 16.4582L23.3246 16.4823ZM23.7917 17.0863L23.7397 17.1733L23.7406 17.1738L23.7917 17.0863ZM24.5352 17.1923L24.5599 17.2906L24.5609 17.2904L24.5352 17.1923ZM28.8532 14.3404L28.8767 14.439L28.8784 14.4386L28.8532 14.3404ZM29.6165 14.3073L29.6014 14.4071L29.6032 14.4074L29.6165 14.3073ZM30.3402 14.5524L30.2886 14.6397L30.2891 14.6399L30.3402 14.5524ZM30.8459 15.1225C31.0064 15.3299 31.1162 15.5516 31.1767 15.7878L31.3783 15.7405C31.3107 15.4763 31.188 15.23 31.0115 15.0019L30.8459 15.1225ZM31.1766 15.7873C31.2357 16.0229 31.2484 16.2575 31.2149 16.492L31.4207 16.5213C31.4578 16.2612 31.4436 16.0009 31.3784 15.741L31.1766 15.7873ZM31.2149 16.492C31.1822 16.7215 31.1037 16.9419 30.9785 17.1536L31.1589 17.2554C31.2966 17.0225 31.3842 16.7776 31.4207 16.5213L31.2149 16.492ZM30.9783 17.1541C30.8568 17.3619 30.692 17.542 30.4827 17.6944L30.608 17.8565C30.8387 17.6885 31.0229 17.488 31.1591 17.255L30.9783 17.1541ZM30.4827 17.6944L25.6447 21.2156L25.7701 21.3777L30.608 17.8565L30.4827 17.6944ZM25.7902 21.2363L25.1879 20.4576L25.0222 20.5782L25.6246 21.3569L25.7902 21.2363ZM25.1677 20.599L30.0057 17.0778L29.8803 16.9157L25.0424 20.4369L25.1677 20.599ZM30.0057 17.0778C30.1275 16.9891 30.2251 16.8833 30.297 16.7603L30.1162 16.6594C30.0592 16.7569 29.9811 16.8423 29.8803 16.9157L30.0057 17.0778ZM30.297 16.7603C30.368 16.6389 30.4122 16.5102 30.429 16.3747L30.2227 16.349C30.2093 16.457 30.1741 16.5603 30.1162 16.6594L30.297 16.7603ZM30.4287 16.3765C30.4482 16.24 30.4407 16.1034 30.4066 15.9674L30.2048 16.0138C30.2328 16.1254 30.2387 16.2364 30.2229 16.3472L30.4287 16.3765ZM30.4063 15.9665C30.3698 15.8268 30.306 15.6982 30.2156 15.5812L30.0499 15.7018C30.124 15.7976 30.1755 15.9017 30.205 16.0147L30.4063 15.9665ZM30.2156 15.5812C30.1251 15.4643 30.0164 15.3699 29.8896 15.2991L29.7873 15.4741C29.8884 15.5305 29.9758 15.606 30.0499 15.7018L30.2156 15.5812ZM29.8896 15.2991C29.7646 15.2293 29.6314 15.1842 29.4909 15.1641L29.4624 15.364C29.5765 15.3803 29.6846 15.4168 29.7873 15.4741L29.8896 15.2991ZM29.4928 15.1644C29.354 15.1421 29.2142 15.1474 29.0742 15.1795L29.1235 15.3761C29.2378 15.3499 29.3499 15.3459 29.4605 15.3637L29.4928 15.1644ZM29.0742 15.1795C28.9324 15.2121 28.8004 15.2734 28.6786 15.3621L28.8039 15.5241C28.9047 15.4508 29.0111 15.4019 29.1235 15.3761L29.0742 15.1795ZM28.6786 15.3621L25.4325 17.7246L25.5579 17.8867L28.8039 15.5241L28.6786 15.3621ZM25.4325 17.7246C25.2259 17.875 25.0015 17.9783 24.7587 18.0353L24.809 18.2316C25.0798 18.1681 25.3296 18.0528 25.5579 17.8867L25.4325 17.7246ZM24.7587 18.0353C24.5139 18.0927 24.2722 18.1051 24.0329 18.0731L24.0062 18.2732C24.2723 18.3088 24.5401 18.2947 24.809 18.2316L24.7587 18.0353ZM24.0347 18.0734C23.7956 18.0372 23.5654 17.9584 23.3435 17.8364L23.2424 18.0121C23.4852 18.1456 23.7394 18.2328 24.0044 18.273L24.0347 18.0734ZM23.3445 17.837C23.1275 17.7145 22.9398 17.5514 22.7814 17.3466L22.6158 17.4672C22.7903 17.6929 22.9989 17.8747 23.2414 18.0115L23.3445 17.837ZM22.7814 17.3466C22.6251 17.1445 22.517 16.9255 22.4564 16.6889L22.2549 16.7362C22.3224 17 22.443 17.2439 22.6158 17.4672L22.7814 17.3466ZM22.4567 16.69C22.398 16.4494 22.3855 16.2146 22.4182 15.9847L22.2125 15.9554C22.176 16.2113 22.1903 16.4714 22.2546 16.7351L22.4567 16.69ZM22.4182 15.9847C22.4516 15.7505 22.5305 15.528 22.6556 15.3164L22.4753 15.2147C22.3374 15.4478 22.2496 15.6949 22.2125 15.9554L22.4182 15.9847ZM22.6562 15.3154C22.7785 15.1031 22.9423 14.922 23.1485 14.7719L23.0231 14.6098C22.7945 14.7762 22.6114 14.9783 22.4747 15.2157L22.6562 15.3154ZM23.1485 14.7719L27.5865 11.5418L27.4612 11.3797L23.0231 14.6098L23.1485 14.7719ZM27.441 11.521L28.0434 12.2997L28.209 12.1791L27.6067 11.4004L27.441 11.521ZM28.0635 12.1584L23.6255 15.3885L23.7509 15.5506L28.1889 12.3205L28.0635 12.1584ZM23.6255 15.3885C23.5059 15.4755 23.4087 15.5812 23.3347 15.7051L23.5145 15.8077C23.5744 15.7074 23.653 15.6218 23.7509 15.5506L23.6255 15.3885ZM23.3342 15.706C23.2634 15.827 23.218 15.9561 23.1986 16.0926L23.4044 16.1219C23.4202 16.0111 23.4569 15.9063 23.515 15.8069L23.3342 15.706ZM23.1986 16.0926C23.179 16.2297 23.1877 16.3679 23.2239 16.5064L23.4252 16.4582C23.3954 16.344 23.3887 16.2321 23.4044 16.1219L23.1986 16.0926ZM23.2236 16.5055C23.2582 16.6433 23.3213 16.7709 23.4117 16.8879L23.5774 16.7673C23.5033 16.6715 23.453 16.569 23.4255 16.4591L23.2236 16.5055ZM23.4117 16.8879C23.5022 17.0048 23.6117 17.1002 23.7397 17.1733L23.8438 16.9993C23.7401 16.9401 23.6515 16.8631 23.5774 16.7673L23.4117 16.8879ZM23.7406 17.1738C23.8657 17.2436 23.9988 17.2887 24.1393 17.3088L24.1678 17.1089C24.0537 17.0926 23.9456 17.0561 23.8429 16.9988L23.7406 17.1738ZM24.1393 17.3088C24.2799 17.3288 24.4203 17.3226 24.5599 17.2906L24.5106 17.094C24.396 17.1203 24.2819 17.1252 24.1678 17.1089L24.1393 17.3088ZM24.5609 17.2904C24.7042 17.256 24.836 17.195 24.9556 17.108L24.8302 16.9459C24.7323 17.0172 24.6256 17.0664 24.5096 17.0942L24.5609 17.2904ZM24.9556 17.108L28.2016 14.7454L28.0762 14.5834L24.8302 16.9459L24.9556 17.108ZM28.2016 14.7454C28.4106 14.5933 28.6354 14.4916 28.8767 14.439L28.8297 14.2419C28.5586 14.301 28.3073 14.4152 28.0762 14.5834L28.2016 14.7454ZM28.8784 14.4386C29.1225 14.3813 29.3633 14.371 29.6014 14.4071L29.6317 14.2075C29.3657 14.1672 29.0976 14.179 28.8281 14.2422L28.8784 14.4386ZM29.6032 14.4074C29.8419 14.4393 30.0702 14.5164 30.2886 14.6397L30.3918 14.4652C30.1507 14.3292 29.8966 14.2429 29.6299 14.2073L29.6032 14.4074ZM30.2891 14.6399C30.504 14.7599 30.6895 14.9203 30.8459 15.1225L31.0115 15.0019C30.8388 14.7786 30.632 14.5992 30.3914 14.4649L30.2891 14.6399Z" fill="#FECA2E"/>
<path d="M39.4107 14.132L35.272 15.7192C34.8266 15.89 34.3878 15.9623 33.9556 15.9361C33.5233 15.9099 33.1186 15.8028 32.7415 15.6149C32.3674 15.4258 32.0311 15.164 31.7326 14.8294C31.434 14.4948 31.1949 14.1065 31.0151 13.6647C30.8365 13.2258 30.7391 12.7866 30.7228 12.3472C30.7052 11.9049 30.7665 11.4906 30.9065 11.1043C31.0483 10.7139 31.2678 10.3658 31.5649 10.0599C31.8609 9.75097 32.2315 9.51111 32.6769 9.3403L36.8156 7.7531L37.1866 8.665L33.0479 10.2522C32.7311 10.3737 32.4703 10.544 32.2657 10.763C32.0628 10.9779 31.9155 11.223 31.8236 11.4982C31.7334 11.7694 31.6966 12.0612 31.7132 12.3736C31.7327 12.685 31.8064 12.9978 31.9343 13.3122C32.0622 13.6265 32.2292 13.9053 32.4352 14.1485C32.6431 14.3876 32.8759 14.5777 33.1338 14.7188C33.3934 14.8558 33.6729 14.9355 33.9722 14.9578C34.2746 14.979 34.5842 14.9288 34.901 14.8073L38.1205 13.5726L37.3803 11.7532L33.4883 13.2459L33.1173 12.334L37.9285 10.4888L39.4107 14.132Z" fill="#FECA2E"/>
<path d="M39.4107 14.132L39.4493 14.2269L39.5449 14.1902L39.5063 14.0953L39.4107 14.132ZM33.9556 15.9361L33.9507 16.0376L33.9556 15.9361ZM32.7415 15.6149L32.6956 15.7053L32.6961 15.7056L32.7415 15.6149ZM31.7326 14.8294L31.6556 14.896L31.7326 14.8294ZM30.7228 12.3472L30.8258 12.345L30.8258 12.3447L30.7228 12.3472ZM30.9065 11.1043L30.8093 11.0687L30.8093 11.0688L30.9065 11.1043ZM31.5649 10.0599L31.6399 10.1308L31.6404 10.1303L31.5649 10.0599ZM36.8156 7.7531L36.9112 7.71641L36.8726 7.62152L36.777 7.6582L36.8156 7.7531ZM37.1866 8.665L37.2252 8.7599L37.3208 8.72322L37.2822 8.62832L37.1866 8.665ZM32.2657 10.763L32.3417 10.8329L32.342 10.8326L32.2657 10.763ZM31.8236 11.4982L31.7255 11.4651L31.7255 11.4653L31.8236 11.4982ZM31.7132 12.3736L31.6102 12.3775L31.6102 12.3784L31.7132 12.3736ZM32.4352 14.1485L32.3565 14.2131L32.3574 14.2141L32.4352 14.1485ZM33.1338 14.7188L33.0847 14.8076L33.0862 14.8084L33.1338 14.7188ZM33.9722 14.9578L33.966 15.0592L33.9664 15.0593L33.9722 14.9578ZM38.1205 13.5726L38.1591 13.6675L38.2548 13.6308L38.2161 13.5359L38.1205 13.5726ZM37.3803 11.7532L37.476 11.7165L37.4374 11.6217L37.3417 11.6583L37.3803 11.7532ZM33.4883 13.2459L33.3926 13.2825L33.4312 13.3774L33.5269 13.3408L33.4883 13.2459ZM33.1173 12.334L33.0787 12.2391L32.983 12.2757L33.0216 12.3706L33.1173 12.334ZM37.9285 10.4888L38.0242 10.4521L37.9856 10.3572L37.8899 10.3939L37.9285 10.4888ZM39.3721 14.0371L35.2334 15.6243L35.3106 15.8141L39.4493 14.2269L39.3721 14.0371ZM35.2334 15.6243C34.8003 15.7904 34.3762 15.8597 33.9604 15.8345L33.9507 16.0376C34.3994 16.0648 34.853 15.9896 35.3106 15.8141L35.2334 15.6243ZM33.9604 15.8345C33.5418 15.8092 33.151 15.7056 32.787 15.5242L32.6961 15.7056C33.0863 15.9 33.5048 16.0106 33.9507 16.0376L33.9604 15.8345ZM32.7875 15.5245C32.426 15.3418 32.1 15.0883 31.8096 14.7628L31.6556 14.896C31.9622 15.2396 32.3089 15.5099 32.6956 15.7053L32.7875 15.5245ZM31.8096 14.7628C31.5195 14.4377 31.2864 14.0597 31.1108 13.628L30.9194 13.7014C31.1033 14.1534 31.3486 14.5519 31.6556 14.896L31.8096 14.7628ZM31.1108 13.628C30.9364 13.1993 30.8417 12.7718 30.8258 12.345L30.6197 12.3495C30.6365 12.8015 30.7367 13.2522 30.9194 13.7014L31.1108 13.628ZM30.8258 12.3447C30.8088 11.9144 30.8684 11.513 31.0037 11.1398L30.8093 11.0688C30.6645 11.4681 30.6017 11.8954 30.6197 12.3497L30.8258 12.3447ZM31.0037 11.1399C31.1406 10.7631 31.3524 10.4269 31.6399 10.1308L31.49 9.98893C31.1832 10.3047 30.9561 10.6648 30.8093 11.0687L31.0037 11.1399ZM31.6404 10.1303C31.925 9.83325 32.2826 9.60122 32.7155 9.4352L32.6383 9.2454C32.1804 9.42101 31.7967 9.66869 31.4895 9.98942L31.6404 10.1303ZM32.7155 9.4352L36.8542 7.848L36.777 7.6582L32.6383 9.2454L32.7155 9.4352ZM36.7199 7.78978L37.0909 8.70169L37.2822 8.62832L36.9112 7.71641L36.7199 7.78978ZM37.148 8.57011L33.0093 10.1573L33.0865 10.3471L37.2252 8.7599L37.148 8.57011ZM33.0093 10.1573C32.6798 10.2837 32.4056 10.462 32.1894 10.6935L32.342 10.8326C32.535 10.626 32.7823 10.4638 33.0865 10.3471L33.0093 10.1573ZM32.1897 10.6931C31.9771 10.9184 31.8221 11.176 31.7255 11.4651L31.9216 11.5314C32.0088 11.2701 32.1486 11.0375 32.3417 10.8329L32.1897 10.6931ZM31.7255 11.4653C31.6311 11.7492 31.593 12.0536 31.6102 12.3775L31.8162 12.3698C31.8002 12.0687 31.8358 11.7895 31.9216 11.5312L31.7255 11.4653ZM31.6102 12.3784C31.6305 12.7015 31.707 13.0251 31.8386 13.3488L32.03 13.2755C31.9059 12.9705 31.8349 12.6684 31.8161 12.3688L31.6102 12.3784ZM31.8386 13.3488C31.9703 13.6726 32.1428 13.9609 32.3565 14.2131L32.514 14.084C32.3155 13.8497 32.154 13.5804 32.03 13.2755L31.8386 13.3488ZM32.3574 14.2141C32.5727 14.4618 32.8151 14.6601 33.0848 14.8076L33.1828 14.63C32.9368 14.4954 32.7135 14.3135 32.5131 14.0829L32.3574 14.2141ZM33.0862 14.8084C33.3589 14.9523 33.6525 15.0359 33.966 15.0592L33.9785 14.8563C33.6932 14.8351 33.4279 14.7593 33.1814 14.6293L33.0862 14.8084ZM33.9664 15.0593C34.2858 15.0816 34.6105 15.0284 34.9397 14.9022L34.8624 14.7124C34.5578 14.8292 34.2634 14.8763 33.978 14.8563L33.9664 15.0593ZM34.9397 14.9022L38.1591 13.6675L38.0819 13.4777L34.8624 14.7124L34.9397 14.9022ZM38.2161 13.5359L37.476 11.7165L37.2847 11.7899L38.0248 13.6093L38.2161 13.5359ZM37.3417 11.6583L33.4497 13.151L33.5269 13.3408L37.4189 11.8481L37.3417 11.6583ZM33.584 13.2092L33.213 12.2973L33.0216 12.3706L33.3926 13.2825L33.584 13.2092ZM33.1559 12.4288L37.9671 10.5837L37.8899 10.3939L33.0787 12.2391L33.1559 12.4288ZM37.8329 10.5255L39.315 14.1687L39.5063 14.0953L38.0242 10.4521L37.8329 10.5255Z" fill="#FECA2E"/>
<path d="M48.0904 13.4144L47.1102 13.5055L46.9189 11.5459L41.4486 12.0541L41.3535 11.0791L46.8238 10.5708L46.5369 7.63135L43.0224 7.95789C42.6876 7.98899 42.3784 8.08363 42.0947 8.24182C41.8107 8.39682 41.5696 8.59606 41.3714 8.83955C41.1729 9.07985 41.0227 9.35424 40.9209 9.66272C40.8223 9.9709 40.7895 10.2939 40.8225 10.6316L41.1569 14.0586L40.1766 14.1497L39.8422 10.7227C39.8114 10.4073 39.8217 10.1008 39.8731 9.80348C39.9274 9.50262 40.0156 9.21952 40.1377 8.95417C40.2626 8.68534 40.4186 8.43773 40.6056 8.21137C40.7955 7.98151 41.009 7.78001 41.2462 7.60685C41.4867 7.43339 41.748 7.29336 42.0303 7.18674C42.3123 7.07694 42.6111 7.00738 42.9267 6.97806L47.4216 6.56045L48.0904 13.4144Z" fill="#FECA2E"/>
<path d="M48.0904 13.4144L48.1004 13.5164L48.2024 13.5069L48.1924 13.405L48.0904 13.4144ZM47.1102 13.5055L47.0082 13.515L47.0181 13.617L47.1201 13.6075L47.1102 13.5055ZM46.9189 11.5459L47.021 11.5364L47.011 11.4344L46.909 11.4439L46.9189 11.5459ZM41.4486 12.0541L41.3466 12.0636L41.3566 12.1656L41.4586 12.1561L41.4486 12.0541ZM41.3535 11.0791L41.3435 10.9771L41.2415 10.9866L41.2515 11.0885L41.3535 11.0791ZM46.8238 10.5708L46.8337 10.6728L46.9358 10.6633L46.9258 10.5613L46.8238 10.5708ZM46.5369 7.63135L46.639 7.62187L46.629 7.5199L46.527 7.52938L46.5369 7.63135ZM42.0947 8.24182L42.1441 8.33175L42.145 8.3313L42.0947 8.24182ZM41.3714 8.83955L41.4505 8.90495L41.451 8.90438L41.3714 8.83955ZM40.9209 9.66272L40.8236 9.63026L40.8233 9.63114L40.9209 9.66272ZM41.1569 14.0586L41.1669 14.1606L41.2689 14.1511L41.2589 14.0492L41.1569 14.0586ZM40.1766 14.1497L40.0746 14.1592L40.0846 14.2612L40.1866 14.2517L40.1766 14.1497ZM39.8731 9.80348L39.7723 9.78487L39.7721 9.7856L39.8731 9.80348ZM40.1377 8.95417L40.0447 8.91069L40.0445 8.91105L40.1377 8.95417ZM41.2462 7.60685L41.186 7.52373L41.1855 7.52406L41.2462 7.60685ZM42.0303 7.18674L42.067 7.28256L42.0679 7.28218L42.0303 7.18674ZM47.4216 6.56045L47.5236 6.55097L47.5136 6.449L47.4116 6.45848L47.4216 6.56045ZM48.0805 13.3125L47.1002 13.4036L47.1201 13.6075L48.1004 13.5164L48.0805 13.3125ZM47.2122 13.496L47.021 11.5364L46.8169 11.5553L47.0082 13.515L47.2122 13.496ZM46.909 11.4439L41.4387 11.9521L41.4586 12.1561L46.9289 11.6478L46.909 11.4439ZM41.5506 12.0446L41.4555 11.0696L41.2515 11.0885L41.3466 12.0636L41.5506 12.0446ZM41.3634 11.181L46.8337 10.6728L46.8138 10.4689L41.3435 10.9771L41.3634 11.181ZM46.9258 10.5613L46.639 7.62187L46.4349 7.64083L46.7218 10.5803L46.9258 10.5613ZM46.527 7.52938L43.0124 7.85592L43.0323 8.05985L46.5469 7.73331L46.527 7.52938ZM43.0124 7.85592C42.664 7.88829 42.341 7.987 42.0444 8.15234L42.145 8.3313C42.4158 8.18026 42.7113 8.08968 43.0323 8.05985L43.0124 7.85592ZM42.0453 8.15189C41.75 8.31303 41.4985 8.52068 41.2917 8.77472L41.451 8.90438C41.6406 8.67144 41.8714 8.48061 42.1441 8.33174L42.0453 8.15189ZM41.2922 8.77415C41.0853 9.0246 40.9292 9.31027 40.8236 9.63026L41.0183 9.69518C41.1163 9.39821 41.2604 9.13509 41.4505 8.90495L41.2922 8.77415ZM40.8233 9.63114C40.7203 9.95318 40.6862 10.2902 40.7205 10.6411L40.9245 10.6222C40.8928 10.2976 40.9244 9.98863 41.0186 9.6943L40.8233 9.63114ZM40.7205 10.6411L41.0549 14.0681L41.2589 14.0492L40.9245 10.6222L40.7205 10.6411ZM41.147 13.9567L40.1667 14.0477L40.1866 14.2517L41.1669 14.1606L41.147 13.9567ZM40.2787 14.1402L39.9442 10.7132L39.7402 10.7322L40.0746 14.1592L40.2787 14.1402ZM39.9442 10.7132C39.9143 10.4065 39.9244 10.1093 39.9741 9.82135L39.7721 9.7856C39.7191 10.0924 39.7086 10.4081 39.7402 10.7322L39.9442 10.7132ZM39.974 9.82209C40.0268 9.52931 40.1125 9.25448 40.2308 8.99729L40.0445 8.91105C39.9187 9.18456 39.828 9.47594 39.7723 9.78487L39.974 9.82209ZM40.2307 8.99765C40.352 8.73661 40.5033 8.49638 40.6848 8.27676L40.5264 8.14597C40.3339 8.37909 40.1732 8.63407 40.0447 8.91069L40.2307 8.99765ZM40.6848 8.27676C40.8693 8.05335 41.0767 7.85771 41.3069 7.68963L41.1855 7.52406C40.9413 7.7023 40.7216 7.90968 40.5264 8.14597L40.6848 8.27676ZM41.3065 7.68996C41.5395 7.52185 41.7929 7.38605 42.067 7.28256L41.9937 7.09093C41.7031 7.20067 41.4338 7.34493 41.186 7.52373L41.3065 7.68996ZM42.0679 7.28218C42.3407 7.17599 42.6301 7.10851 42.9367 7.08003L42.9168 6.8761C42.5922 6.90626 42.284 6.9779 41.9927 7.09131L42.0679 7.28218ZM42.9367 7.08003L47.4315 6.66241L47.4116 6.45848L42.9168 6.8761L42.9367 7.08003ZM47.3196 6.56993L47.9884 13.4239L48.1924 13.405L47.5236 6.55097L47.3196 6.56993Z" fill="#FECA2E"/>
<path d="M56.9945 15.1636L55.6874 14.9164L54.0488 12.6028L51.0855 12.0424L51.2779 11.0916L55.1613 11.826C55.3627 11.8641 55.559 11.8621 55.7504 11.8201C55.9425 11.775 56.1163 11.6987 56.272 11.5913C56.4307 11.4845 56.5657 11.3504 56.6767 11.189C56.7884 11.0244 56.8646 10.8417 56.9052 10.6408C56.9458 10.44 56.9462 10.2446 56.9062 10.0546C56.8663 9.86458 56.7933 9.69275 56.6872 9.53911C56.5849 9.38292 56.4533 9.25052 56.2923 9.14189C56.1314 9.03326 55.9503 8.95991 55.7489 8.92183L51.3228 8.08475L50.1524 13.8696L49.185 13.6867L50.5507 6.93688L55.9442 7.9569C56.2776 8.01997 56.5776 8.14349 56.8441 8.32748C57.1113 8.50833 57.3312 8.72911 57.5038 8.98981C57.6802 9.24798 57.8018 9.53488 57.8686 9.85051C57.9385 10.1667 57.9398 10.4912 57.8725 10.8238C57.8116 11.125 57.7019 11.4008 57.5435 11.651C57.3857 11.8981 57.194 12.1111 56.9684 12.29C56.7434 12.4657 56.4923 12.6007 56.2153 12.6949C55.942 12.7865 55.6574 12.8288 55.3616 12.8218L56.9945 15.1636Z" fill="#FECA2E"/>
<path d="M56.9945 15.1636L56.9742 15.264L57.223 15.3111L57.0791 15.1047L56.9945 15.1636ZM55.6874 14.9164L55.6032 14.9759L55.6268 15.0092L55.6671 15.0168L55.6874 14.9164ZM54.0488 12.6028L54.133 12.5433L54.1094 12.51L54.0691 12.5024L54.0488 12.6028ZM51.0855 12.0424L50.9848 12.0233L50.9645 12.1238L51.0652 12.1428L51.0855 12.0424ZM51.2779 11.0916L51.2982 10.9912L51.1975 10.9721L51.1772 11.0725L51.2779 11.0916ZM55.7504 11.8201L55.7714 11.92L55.7729 11.9196L55.7504 11.8201ZM56.272 11.5913L56.2151 11.5069L56.2141 11.5076L56.272 11.5913ZM56.6767 11.189L56.7612 11.246L56.7616 11.2455L56.6767 11.189ZM56.9062 10.0546L57.0068 10.0325L56.9062 10.0546ZM56.6872 9.53911L56.6009 9.59565L56.6023 9.59767L56.6872 9.53911ZM51.3228 8.08475L51.3431 7.98434L51.2425 7.9653L51.2221 8.06571L51.3228 8.08475ZM50.1524 13.8696L50.1321 13.97L50.2327 13.9891L50.253 13.8886L50.1524 13.8696ZM49.185 13.6867L49.0844 13.6676L49.0641 13.768L49.1647 13.7871L49.185 13.6867ZM50.5507 6.93688L50.571 6.83647L50.4704 6.81743L50.45 6.91784L50.5507 6.93688ZM56.8441 8.32748L56.7849 8.41168L56.7857 8.4122L56.8441 8.32748ZM57.5038 8.98981L57.4178 9.04675L57.4187 9.04796L57.5038 8.98981ZM57.8686 9.85051L57.7681 9.87269L57.7683 9.87359L57.8686 9.85051ZM57.5435 11.651L57.63 11.7051L57.6302 11.7047L57.5435 11.651ZM56.9684 12.29L57.0312 12.3701L57.0318 12.3696L56.9684 12.29ZM56.2153 12.6949L56.247 12.7917L56.2474 12.7916L56.2153 12.6949ZM55.3616 12.8218L55.3653 12.7196L55.1613 12.7147L55.277 12.8807L55.3616 12.8218ZM57.0148 15.0632L55.7077 14.816L55.6671 15.0168L56.9742 15.264L57.0148 15.0632ZM55.7716 14.8569L54.133 12.5433L53.9646 12.6623L55.6032 14.9759L55.7716 14.8569ZM54.0691 12.5024L51.1058 11.942L51.0652 12.1428L54.0285 12.7032L54.0691 12.5024ZM51.1861 12.0614L51.3785 11.1106L51.1772 11.0725L50.9848 12.0233L51.1861 12.0614ZM51.2575 11.192L55.141 11.9264L55.1817 11.7256L51.2982 10.9912L51.2575 11.192ZM55.141 11.9264C55.3553 11.967 55.5657 11.9651 55.7714 11.9199L55.7295 11.7204C55.5524 11.7592 55.3701 11.7612 55.1817 11.7256L55.141 11.9264ZM55.7729 11.9196C55.977 11.8716 56.163 11.7902 56.3298 11.6751L56.2141 11.5076C56.0697 11.6073 55.9079 11.6784 55.728 11.7207L55.7729 11.9196ZM56.3288 11.6758C56.4987 11.5615 56.643 11.418 56.7612 11.246L56.5922 11.1319C56.4884 11.2829 56.3628 11.4076 56.2151 11.5069L56.3288 11.6758ZM56.7616 11.2455C56.8813 11.0691 56.9626 10.8736 57.0059 10.6599L56.8045 10.6218C56.7665 10.8097 56.6955 10.9796 56.5918 11.1324L56.7616 11.2455ZM57.0059 10.6599C57.0491 10.4461 57.0497 10.2367 57.0068 10.0325L56.8057 10.0766C56.8427 10.2525 56.8426 10.4339 56.8045 10.6218L57.0059 10.6599ZM57.0068 10.0325C56.9642 9.82993 56.886 9.64561 56.772 9.48055L56.6023 9.59767C56.7005 9.7399 56.7684 9.89923 56.8057 10.0766L57.0068 10.0325ZM56.7734 9.48259C56.6635 9.3148 56.5222 9.17292 56.3507 9.05709L56.234 9.22668C56.3843 9.32811 56.5062 9.45105 56.601 9.59563L56.7734 9.48259ZM56.3507 9.05709C56.1777 8.94035 55.9835 8.86194 55.7693 8.82142L55.7286 9.02225C55.917 9.05788 56.0851 9.12617 56.234 9.22668L56.3507 9.05709ZM55.7693 8.82142L51.3431 7.98434L51.3025 8.18517L55.7286 9.02225L55.7693 8.82142ZM51.2221 8.06571L50.0517 13.8506L50.253 13.8886L51.4235 8.10379L51.2221 8.06571ZM50.1727 13.7692L49.2054 13.5863L49.1647 13.7871L50.1321 13.97L50.1727 13.7692ZM49.2857 13.7057L50.6514 6.95592L50.45 6.91784L49.0844 13.6676L49.2857 13.7057ZM50.5304 7.0373L55.9239 8.05732L55.9645 7.85649L50.571 6.83647L50.5304 7.0373ZM55.9239 8.05732C56.2439 8.11785 56.5306 8.23609 56.7849 8.41168L56.9033 8.24328C56.6247 8.0509 56.3113 7.92208 55.9645 7.85649L55.9239 8.05732ZM56.7857 8.4122C57.0423 8.58589 57.2527 8.79734 57.4179 9.04675L57.5898 8.93288C57.4097 8.66088 57.1803 8.43076 56.9026 8.24276L56.7857 8.4122ZM57.4187 9.04796C57.5874 9.29494 57.7039 9.56956 57.7681 9.87269L57.9691 9.82832C57.8997 9.5002 57.773 9.20102 57.5889 8.93167L57.4187 9.04796ZM57.7683 9.87359C57.835 10.1754 57.8365 10.4855 57.7719 10.8047L57.9732 10.8428C58.0432 10.4969 58.042 10.1581 57.9689 9.82742L57.7683 9.87359ZM57.7719 10.8047C57.7133 11.0942 57.6082 11.3581 57.4568 11.5973L57.6302 11.7047C57.7956 11.4434 57.9099 11.1558 57.9732 10.8428L57.7719 10.8047ZM57.457 11.5969C57.3053 11.8345 57.1214 12.0388 56.905 12.2103L57.0318 12.3696C57.2667 12.1834 57.4661 11.9617 57.63 11.7051L57.457 11.5969ZM56.9056 12.2098C56.69 12.3782 56.4494 12.5077 56.1831 12.5982L56.2474 12.7916C56.5353 12.6937 56.7967 12.5532 57.0312 12.3701L56.9056 12.2098ZM56.1835 12.5981C55.922 12.6858 55.6494 12.7264 55.3653 12.7196L55.3579 12.9239C55.6654 12.9313 55.9619 12.8873 56.247 12.7917L56.1835 12.5981ZM55.277 12.8807L56.9099 15.2225L57.0791 15.1047L55.4462 12.7628L55.277 12.8807Z" fill="#FECA2E"/>
<path d="M66.3415 16.1488C66.1167 16.5695 65.8367 16.9303 65.5016 17.2312C65.1694 17.5336 64.8056 17.7593 64.4103 17.9083C64.0149 18.0572 63.6004 18.1232 63.1668 18.1062C62.736 18.0905 62.3089 17.9765 61.8854 17.764L58.782 16.2069L59.2461 15.3386L62.3495 16.8958C62.6528 17.048 62.9548 17.1279 63.2556 17.1356C63.5592 17.1447 63.846 17.0934 64.1162 16.9819C64.3906 16.869 64.6424 16.7035 64.8715 16.4854C65.1049 16.2659 65.3016 16.0065 65.4616 15.7072C65.6216 15.408 65.726 15.104 65.7748 14.7955C65.8264 14.4884 65.8199 14.1951 65.7552 13.9156C65.6949 13.6347 65.5733 13.3767 65.3904 13.1417C65.2119 12.9054 64.971 12.7111 64.6677 12.5589L61.1265 10.7821L58.3442 15.9872L57.4643 15.5457L60.7107 9.47235L65.1318 11.6907C65.5553 11.9031 65.8972 12.1767 66.1574 12.5114C66.422 12.8447 66.6048 13.2121 66.7059 13.6138C66.8084 14.0125 66.8281 14.4306 66.7649 14.868C66.706 15.304 66.5649 15.7309 66.3415 16.1488Z" fill="#FECA2E"/>
<path d="M65.5016 17.2312L65.4323 17.157L65.4317 17.1575L65.5016 17.2312ZM63.1668 18.1062L63.1725 18.0049L63.1722 18.0049L63.1668 18.1062ZM58.782 16.2069L58.6905 16.1609L58.6422 16.2513L58.7337 16.2972L58.782 16.2069ZM59.2461 15.3386L59.2944 15.2483L59.2029 15.2023L59.1546 15.2927L59.2461 15.3386ZM63.2556 17.1356L63.2603 17.0342L63.2598 17.0342L63.2556 17.1356ZM64.1162 16.9819L64.0773 16.8885L64.0771 16.8886L64.1162 16.9819ZM64.8715 16.4854L64.8004 16.4128L64.7999 16.4132L64.8715 16.4854ZM65.7748 14.7955L65.6726 14.7805L65.6725 14.7815L65.7748 14.7955ZM65.7552 13.9156L65.6539 13.9378L65.6542 13.9394L65.7552 13.9156ZM65.3904 13.1417L65.3069 13.2028L65.3077 13.2039L65.3904 13.1417ZM61.1265 10.7821L61.1748 10.6917L61.0833 10.6458L61.035 10.7361L61.1265 10.7821ZM58.3442 15.9872L58.2959 16.0775L58.3875 16.1235L58.4358 16.0331L58.3442 15.9872ZM57.4643 15.5457L57.3727 15.4997L57.3244 15.5901L57.416 15.636L57.4643 15.5457ZM60.7107 9.47235L60.759 9.38199L60.6674 9.33605L60.6192 9.4264L60.7107 9.47235ZM66.1574 12.5114L66.0747 12.5736L66.0753 12.5744L66.1574 12.5114ZM66.7059 13.6138L66.6053 13.6394L66.6054 13.6399L66.7059 13.6138ZM66.7649 14.868L66.6624 14.8552L66.6622 14.8562L66.7649 14.868ZM66.25 16.1028C66.0304 16.5136 65.7577 16.8647 65.4323 17.157L65.571 17.3055C65.9157 16.9959 66.2029 16.6253 66.4331 16.1947L66.25 16.1028ZM65.4317 17.1575C65.1087 17.4515 64.7563 17.6698 64.3744 17.8138L64.4462 18.0028C64.8549 17.8488 65.2301 17.6158 65.5715 17.305L65.4317 17.1575ZM64.3744 17.8138C63.9927 17.9576 63.5924 18.0214 63.1725 18.0049L63.1611 18.2074C63.6085 18.225 64.0371 18.1569 64.4462 18.0028L64.3744 17.8138ZM63.1722 18.0049C62.758 17.9898 62.3454 17.8802 61.9337 17.6736L61.8371 17.8543C62.2724 18.0728 62.7141 18.1912 63.1614 18.2074L63.1722 18.0049ZM61.9337 17.6736L58.8303 16.1165L58.7337 16.2972L61.8371 17.8543L61.9337 17.6736ZM58.8736 16.2528L59.3377 15.3846L59.1546 15.2927L58.6905 16.1609L58.8736 16.2528ZM59.1978 15.429L62.3012 16.9861L62.3978 16.8054L59.2944 15.2483L59.1978 15.429ZM62.3012 16.9861C62.6162 17.1442 62.9332 17.2288 63.2514 17.2369L63.2598 17.0342C62.9765 17.027 62.6894 16.9517 62.3978 16.8054L62.3012 16.9861ZM63.2509 17.2369C63.5688 17.2464 63.8706 17.1927 64.1552 17.0752L64.0771 16.8886C63.8215 16.9942 63.5496 17.0429 63.2603 17.0342L63.2509 17.2369ZM64.155 17.0752C64.4425 16.957 64.7052 16.784 64.9431 16.5575L64.7999 16.4132C64.5796 16.6229 64.3388 16.7809 64.0773 16.8885L64.155 17.0752ZM64.9426 16.558C65.1848 16.3303 65.3883 16.0617 65.5532 15.7532L65.37 15.6613C65.215 15.9514 65.025 16.2016 64.8004 16.4128L64.9426 16.558ZM65.5532 15.7532C65.7181 15.4447 65.8264 15.13 65.8771 14.8096L65.6725 14.7815C65.6256 15.0781 65.5251 15.3712 65.37 15.6613L65.5532 15.7532ZM65.8769 14.8105C65.9306 14.4916 65.9241 14.185 65.8562 13.8918L65.6542 13.9394C65.7158 14.2052 65.7223 14.4853 65.6726 14.7805L65.8769 14.8105ZM65.8565 13.8933C65.793 13.5974 65.6648 13.3259 65.4731 13.0795L65.3077 13.2039C65.4818 13.4275 65.5968 13.6719 65.6539 13.9378L65.8565 13.8933ZM65.474 13.0807C65.2851 12.8305 65.0314 12.6268 64.716 12.4685L64.6194 12.6492C64.9107 12.7954 65.1388 12.9803 65.3069 13.2028L65.474 13.0807ZM64.716 12.4685L61.1748 10.6917L61.0783 10.8724L64.6194 12.6492L64.716 12.4685ZM61.035 10.7361L58.2527 15.9412L58.4358 16.0331L61.2181 10.828L61.035 10.7361ZM58.3925 15.8968L57.5126 15.4553L57.416 15.636L58.2959 16.0775L58.3925 15.8968ZM57.5559 15.5916L60.8023 9.51829L60.6192 9.4264L57.3727 15.4997L57.5559 15.5916ZM60.6624 9.5627L65.0835 11.781L65.1801 11.6003L60.759 9.38199L60.6624 9.5627ZM65.0835 11.781C65.495 11.9875 65.8246 12.2519 66.0747 12.5736L66.2401 12.4492C65.9698 12.1016 65.6157 11.8188 65.1801 11.6003L65.0835 11.781ZM66.0753 12.5744C66.3314 12.8969 66.5078 13.2517 66.6053 13.6394L66.8064 13.5881C66.7019 13.1726 66.5126 12.7925 66.2395 12.4485L66.0753 12.5744ZM66.6054 13.6399C66.7045 14.0252 66.7238 14.43 66.6624 14.8552L66.8674 14.8807C66.9323 14.4313 66.9123 13.9999 66.8063 13.5876L66.6054 13.6399ZM66.6622 14.8562C66.6051 15.2795 66.468 15.6949 66.25 16.1028L66.4331 16.1947C66.6618 15.7669 66.8069 15.3284 66.8675 14.8798L66.6622 14.8562Z" fill="#FECA2E"/>
<path d="M65.7674 20.4515L64.9928 19.844L69.4052 14.5567L70.1798 15.1642L65.7674 20.4515Z" fill="#FECA2E"/>
<path d="M65.7674 20.4515L65.7018 20.5302L65.7824 20.5934L65.848 20.5147L65.7674 20.4515ZM64.9928 19.844L64.9121 19.7807L64.8465 19.8594L64.9271 19.9226L64.9928 19.844ZM69.4052 14.5567L69.4708 14.478L69.3902 14.4148L69.3246 14.4935L69.4052 14.5567ZM70.1798 15.1642L70.2604 15.2275L70.3261 15.1488L70.2455 15.0856L70.1798 15.1642ZM65.833 20.3728L65.0584 19.7653L64.9271 19.9226L65.7018 20.5302L65.833 20.3728ZM65.0734 19.9072L69.4858 14.6199L69.3246 14.4935L64.9121 19.7807L65.0734 19.9072ZM69.3395 14.6354L70.1142 15.2429L70.2455 15.0856L69.4708 14.478L69.3395 14.6354ZM70.0992 15.101L65.6868 20.3883L65.848 20.5147L70.2604 15.2275L70.0992 15.101Z" fill="#FECA2E"/>
<path d="M71.2443 27.952L70.6102 27.1989L72.1537 25.9764L68.6153 21.7738L69.3833 21.1655L72.9217 25.3682L75.2369 23.5344L72.9636 20.8343C72.747 20.5771 72.4915 20.3754 72.1968 20.2292C71.9046 20.0809 71.5996 19.9919 71.2816 19.962C70.9662 19.9302 70.6495 19.9565 70.3315 20.041C70.0156 20.1279 69.7247 20.2767 69.4587 20.4874L66.7595 22.6252L66.1254 21.8721L68.8246 19.7343C69.0731 19.5375 69.3372 19.3792 69.6172 19.2596C69.9017 19.1404 70.1905 19.0586 70.4836 19.0142C70.7813 18.9703 71.0787 18.9633 71.3759 18.9933C71.6776 19.0238 71.9689 19.089 72.2498 19.1891C72.5327 19.2916 72.7994 19.4294 73.0497 19.6026C73.3026 19.7738 73.5312 19.9806 73.7353 20.2231L76.6427 23.6763L71.2443 27.952Z" fill="#FECA2E"/>
<path d="M71.2443 27.952L71.164 28.0156L71.23 28.094L71.3103 28.0304L71.2443 27.952ZM70.6102 27.1989L70.5443 27.1206L70.464 27.1842L70.5299 27.2625L70.6102 27.1989ZM72.1537 25.9764L72.2197 26.0548L72.3 25.9912L72.234 25.9128L72.1537 25.9764ZM68.6153 21.7738L68.5493 21.6954L68.469 21.759L68.535 21.8374L68.6153 21.7738ZM69.3833 21.1655L69.4636 21.1019L69.3976 21.0235L69.3173 21.0871L69.3833 21.1655ZM72.9217 25.3682L72.8414 25.4318L72.9074 25.5102L72.9877 25.4465L72.9217 25.3682ZM75.2369 23.5344L75.3029 23.6128L75.3832 23.5492L75.3172 23.4708L75.2369 23.5344ZM72.1968 20.2292L72.1491 20.3186L72.1499 20.319L72.1968 20.2292ZM71.2816 19.962L71.2715 20.0624L71.2722 20.0625L71.2816 19.962ZM70.3315 20.041L70.3035 19.9436L70.3026 19.9438L70.3315 20.041ZM66.7595 22.6252L66.6791 22.6888L66.7451 22.7672L66.8254 22.7036L66.7595 22.6252ZM66.1254 21.8721L66.0594 21.7938L65.9791 21.8574L66.0451 21.9357L66.1254 21.8721ZM69.6172 19.2596L69.5755 19.1669L69.5748 19.1672L69.6172 19.2596ZM70.4836 19.0142L70.4674 18.9144L70.467 18.9145L70.4836 19.0142ZM71.3759 18.9933L71.3658 19.0937L71.3759 18.9933ZM72.2498 19.1891L72.2856 19.0945L72.2851 19.0943L72.2498 19.1891ZM73.0497 19.6026L72.9898 19.6847L72.9906 19.6853L73.0497 19.6026ZM76.6427 23.6763L76.7087 23.7547L76.789 23.6911L76.723 23.6127L76.6427 23.6763ZM71.3246 27.8884L70.6906 27.1353L70.5299 27.2625L71.164 28.0156L71.3246 27.8884ZM70.6762 27.2773L72.2197 26.0548L72.0877 25.8981L70.5443 27.1206L70.6762 27.2773ZM72.234 25.9128L68.6956 21.7102L68.535 21.8374L72.0734 26.04L72.234 25.9128ZM68.6813 21.8521L69.4493 21.2439L69.3173 21.0871L68.5493 21.6954L68.6813 21.8521ZM69.303 21.2291L72.8414 25.4318L73.002 25.3046L69.4636 21.1019L69.303 21.2291ZM72.9877 25.4465L75.3029 23.6128L75.1709 23.4561L72.8557 25.2898L72.9877 25.4465ZM75.3172 23.4708L73.0439 20.7707L72.8832 20.8979L75.1566 23.5981L75.3172 23.4708ZM73.0439 20.7707C72.8185 20.503 72.5516 20.2922 72.2437 20.1394L72.1499 20.319C72.4313 20.4586 72.6756 20.6513 72.8832 20.8979L73.0439 20.7707ZM72.2445 20.1398C71.9408 19.9856 71.6227 19.8927 71.291 19.8616L71.2722 20.0625C71.5764 20.091 71.8685 20.1762 72.1491 20.3186L72.2445 20.1398ZM71.2918 19.8616C70.963 19.8285 70.6334 19.856 70.3035 19.9436L70.3595 20.1383C70.6656 20.057 70.9694 20.0319 71.2715 20.0624L71.2918 19.8616ZM70.3026 19.9438C69.9726 20.0346 69.6691 20.1901 69.3927 20.409L69.5246 20.5657C69.7803 20.3633 70.0587 20.2211 70.3604 20.1381L70.3026 19.9438ZM69.3927 20.409L66.6935 22.5469L66.8254 22.7036L69.5246 20.5657L69.3927 20.409ZM66.8398 22.5616L66.2057 21.8085L66.0451 21.9357L66.6791 22.6888L66.8398 22.5616ZM66.1914 21.9505L68.8906 19.8126L68.7586 19.6559L66.0594 21.7938L66.1914 21.9505ZM68.8906 19.8126C69.1322 19.6213 69.3885 19.4679 69.6595 19.352L69.5748 19.1672C69.286 19.2906 69.0139 19.4537 68.7586 19.6559L68.8906 19.8126ZM69.6588 19.3523C69.9357 19.2363 70.2161 19.157 70.5002 19.114L70.467 18.9145C70.1649 18.9602 69.8677 19.0445 69.5755 19.1669L69.6588 19.3523ZM70.4998 19.114C70.7889 19.0714 71.0775 19.0646 71.3658 19.0937L71.386 18.8929C71.08 18.8621 70.7737 18.8692 70.4674 18.9144L70.4998 19.114ZM71.3658 19.0937C71.6591 19.1233 71.9419 19.1867 72.2145 19.2838L72.2851 19.0943C71.996 18.9913 71.6962 18.9242 71.386 18.8929L71.3658 19.0937ZM72.214 19.2836C72.4882 19.383 72.7467 19.5166 72.9898 19.6847L73.1097 19.5205C72.852 19.3423 72.5772 19.2002 72.2856 19.0945L72.214 19.2836ZM72.9906 19.6853C73.2352 19.8508 73.4567 20.0512 73.655 20.2867L73.8156 20.1595C73.6056 19.91 73.37 19.6967 73.1088 19.5199L72.9906 19.6853ZM73.655 20.2867L76.5624 23.7399L76.723 23.6127L73.8156 20.1595L73.655 20.2867ZM76.5767 23.5979L71.1783 27.8737L71.3103 28.0304L76.7087 23.7547L76.5767 23.5979Z" fill="#FECA2E"/>
<path d="M79.8178 30.2065L80.1695 33.3531L82.6431 31.3768L80.6668 33.8504L83.8134 34.2021L80.6668 34.5538L82.6431 37.0274L80.1695 35.0511L79.8178 38.1976L79.4661 35.0511L76.9925 37.0274L78.9688 34.5538L75.8223 34.2021L78.9688 33.8504L76.9925 31.3768L79.4661 33.3531L79.8178 30.2065Z" fill="#FECA2E"/>
<path d="M12.6108 30.2065L12.9625 33.3531L15.4361 31.3768L13.4598 33.8504L16.6063 34.2021L13.4598 34.5538L15.4361 37.0274L12.9625 35.0511L12.6108 38.1976L12.2591 35.0511L9.7855 37.0274L11.7618 34.5538L8.61523 34.2021L11.7618 33.8504L9.7855 31.3768L12.2591 33.3531L12.6108 30.2065Z" fill="#FECA2E"/>
<path d="M19.7827 67.4983L20.1343 70.6448L22.6079 68.6686L20.6317 71.1422L23.7782 71.4938L20.6317 71.8455L22.6079 74.3191L20.1343 72.3429L19.7827 75.4894L19.431 72.3429L16.9574 74.3191L18.9336 71.8455L15.7871 71.4938L18.9336 71.1422L16.9574 68.6686L19.431 70.6448L19.7827 67.4983Z" fill="#FECA2E"/>
<path d="M81.4565 49.0574L81.8082 52.2039L84.2818 50.2276L82.3055 52.7012L85.452 53.0529L82.3055 53.4046L84.2818 55.8782L81.8082 53.9019L81.4565 57.0485L81.1048 53.9019L78.6312 55.8782L80.6075 53.4046L77.4609 53.0529L80.6075 52.7012L78.6312 50.2276L81.1048 52.2039L81.4565 49.0574Z" fill="#FECA2E"/>
<path d="M10.9721 49.0574L11.3238 52.2039L13.7974 50.2276L11.8211 52.7012L14.9677 53.0529L11.8211 53.4046L13.7974 55.8782L11.3238 53.9019L10.9721 57.0485L10.6204 53.9019L8.14683 55.8782L10.1231 53.4046L6.97656 53.0529L10.1231 52.7012L8.14683 50.2276L10.6204 52.2039L10.9721 49.0574Z" fill="#FECA2E"/>
<path d="M72.851 67.4983L73.2027 70.6448L75.6763 68.6686L73.7 71.1422L76.8466 71.4938L73.7 71.8455L75.6763 74.3191L73.2027 72.3429L72.851 75.4894L72.4993 72.3429L70.0257 74.3191L72.002 71.8455L68.8555 71.4938L72.002 71.1422L70.0257 68.6686L72.4993 70.6448L72.851 67.4983Z" fill="#FECA2E"/>
<path d="M108.856 45.9297V36.6997H110.598V40.8467L115.356 36.6997H117.696L112.535 41.1847L117.917 45.9297H115.486L110.598 41.7047V45.9297H108.856ZM122.973 46.0857C121.578 46.0857 120.421 45.635 119.502 44.7337C118.592 43.8237 118.137 42.684 118.137 41.3147C118.137 39.928 118.601 38.7884 119.528 37.8957C120.456 36.9944 121.604 36.5437 122.973 36.5437C124.369 36.5437 125.521 36.9987 126.431 37.9087C127.35 38.81 127.809 39.9454 127.809 41.3147C127.809 42.7014 127.346 43.8454 126.418 44.7467C125.491 45.6394 124.343 46.0857 122.973 46.0857ZM122.973 44.4997C123.875 44.4997 124.607 44.1964 125.17 43.5897C125.742 42.9744 126.028 42.216 126.028 41.3147C126.028 40.4047 125.742 39.6464 125.17 39.0397C124.598 38.433 123.866 38.1297 122.973 38.1297C122.072 38.1297 121.34 38.4374 120.776 39.0527C120.213 39.6594 119.931 40.4134 119.931 41.3147C119.931 42.2247 120.213 42.983 120.776 43.5897C121.348 44.1964 122.081 44.4997 122.973 44.4997ZM132.48 36.6997L135.236 43.4207L138.005 36.6997H140.514V45.9297H138.824V38.3637L135.73 45.9687H134.547L131.479 38.4287V45.9297H129.867V36.6997H132.48ZM143.045 45.9297V36.6997H151.469V45.9297H149.727V38.2597H144.787V45.9297H143.045ZM161.163 45.9297L160.318 44.0317H155.664L154.819 45.9297H153.064L157.211 36.6607H158.862L163.022 45.9297H161.163ZM156.327 42.5237H159.655L157.991 38.7927L156.327 42.5237ZM171.426 45.9297V42.0687H166.356V45.9297H164.614V36.6997H166.356V40.5087H171.426V36.6997H173.181V45.9297H171.426ZM175.71 45.9297V36.6997H177.452V43.5897L182.652 36.6997H184.394V45.9297H182.652V39.0397L177.452 45.9297H175.71ZM188.284 45.9297H186.399L188.674 42.1597C188.033 41.9864 187.539 41.6787 187.192 41.2367C186.854 40.7947 186.685 40.2444 186.685 39.5857C186.685 38.615 186.967 37.8914 187.53 37.4147C188.093 36.938 188.873 36.6997 189.87 36.6997H195.005V45.9297H193.263V42.3807H190.403L188.284 45.9297ZM190.013 40.8727H193.263V38.2337H190.013C189.51 38.2337 189.129 38.3377 188.869 38.5457C188.609 38.7537 188.479 39.1004 188.479 39.5857C188.479 40.4437 188.99 40.8727 190.013 40.8727ZM197.324 42.8227V41.2887H201.653V42.8227H197.324ZM108.856 60.9297V51.6997H113.952C114.949 51.6997 115.733 51.9294 116.305 52.3887C116.886 52.8394 117.176 53.55 117.176 54.5207C117.176 55.474 116.881 56.1934 116.292 56.6787C115.711 57.1554 114.931 57.3937 113.952 57.3937H110.598V60.9297H108.856ZM113.861 53.2597H110.598V55.8337H113.861C114.312 55.8337 114.676 55.7297 114.953 55.5217C115.239 55.305 115.382 54.98 115.382 54.5467C115.382 53.6887 114.875 53.2597 113.861 53.2597ZM125.299 60.9297L124.454 59.0317H119.8L118.955 60.9297H117.2L121.347 51.6607H122.998L127.158 60.9297H125.299ZM120.463 57.5237H123.791L122.127 53.7927L120.463 57.5237ZM132.381 51.5437C132.849 51.5437 133.295 51.5827 133.72 51.6607C134.153 51.7387 134.574 51.8687 134.981 52.0507C135.397 52.224 135.726 52.4884 135.969 52.8437C136.22 53.199 136.346 53.6237 136.346 54.1177C136.346 54.5857 136.212 55.0104 135.943 55.3917C135.674 55.773 135.315 56.0244 134.864 56.1457C135.384 56.293 135.796 56.5357 136.099 56.8737C136.411 57.2117 136.567 57.632 136.567 58.1347C136.567 58.5854 136.48 58.9884 136.307 59.3437C136.142 59.6904 135.926 59.972 135.657 60.1887C135.397 60.3967 135.081 60.5744 134.708 60.7217C134.335 60.8604 133.963 60.9557 133.59 61.0077C133.217 61.0597 132.823 61.0857 132.407 61.0857C131.012 61.0857 129.92 60.7477 129.131 60.0717C128.49 59.543 128.117 58.9017 128.013 58.1477H129.781C129.85 58.321 129.946 58.4814 130.067 58.6287C130.275 58.932 130.604 59.1574 131.055 59.3047C131.506 59.4434 131.956 59.5127 132.407 59.5127C133.993 59.5127 134.786 59.0447 134.786 58.1087C134.786 57.3547 134.11 56.9777 132.758 56.9777H131.38V55.4957H132.758C133.954 55.4957 134.552 55.0927 134.552 54.2867C134.552 53.5067 133.82 53.1167 132.355 53.1167C131.081 53.1167 130.24 53.5197 129.833 54.3257H128.052C128.156 53.8317 128.351 53.4027 128.637 53.0387C128.932 52.666 129.283 52.3757 129.69 52.1677C130.097 51.951 130.526 51.795 130.977 51.6997C131.428 51.5957 131.896 51.5437 132.381 51.5437ZM138.652 60.9297V51.6997H143.748C144.745 51.6997 145.529 51.9294 146.101 52.3887C146.682 52.8394 146.972 53.55 146.972 54.5207C146.972 55.474 146.677 56.1934 146.088 56.6787C145.507 57.1554 144.727 57.3937 143.748 57.3937H140.394V60.9297H138.652ZM143.657 53.2597H140.394V55.8337H143.657C144.108 55.8337 144.472 55.7297 144.749 55.5217C145.035 55.305 145.178 54.98 145.178 54.5467C145.178 53.6887 144.671 53.2597 143.657 53.2597ZM155.095 60.9297L154.25 59.0317H149.596L148.751 60.9297H146.996L151.143 51.6607H152.794L156.954 60.9297H155.095ZM150.259 57.5237H153.587L151.923 53.7927L150.259 57.5237ZM160.287 55.3527H163.42C164.408 55.3527 165.214 55.578 165.838 56.0287C166.462 56.4794 166.774 57.1814 166.774 58.1347C166.774 59.1054 166.467 59.816 165.851 60.2667C165.245 60.7087 164.434 60.9297 163.42 60.9297H158.545V51.6997H166.02V53.2597H160.287V55.3527ZM163.381 56.8347H160.287V59.3827H163.381C164.447 59.3827 164.98 58.958 164.98 58.1087C164.98 57.6667 164.829 57.346 164.525 57.1467C164.231 56.9387 163.849 56.8347 163.381 56.8347ZM173.183 61.0857C171.788 61.0857 170.631 60.635 169.712 59.7337C168.802 58.8237 168.347 57.684 168.347 56.3147C168.347 54.928 168.811 53.7884 169.738 52.8957C170.666 51.9944 171.814 51.5437 173.183 51.5437C174.579 51.5437 175.731 51.9987 176.641 52.9087C177.56 53.81 178.019 54.9454 178.019 56.3147C178.019 57.7014 177.556 58.8454 176.628 59.7467C175.701 60.6394 174.553 61.0857 173.183 61.0857ZM173.183 59.4997C174.085 59.4997 174.817 59.1964 175.38 58.5897C175.952 57.9744 176.238 57.216 176.238 56.3147C176.238 55.4047 175.952 54.6464 175.38 54.0397C174.808 53.433 174.076 53.1297 173.183 53.1297C172.282 53.1297 171.55 53.4374 170.986 54.0527C170.423 54.6594 170.141 55.4134 170.141 56.3147C170.141 57.2247 170.423 57.983 170.986 58.5897C171.558 59.1964 172.291 59.4997 173.183 59.4997ZM178.954 53.2597V51.6997H188.028V53.2597H184.362V60.9297H182.62V53.2597H178.954ZM196.12 60.9297V57.3287C195.244 57.502 194.3 57.5887 193.286 57.5887C192.02 57.5887 191.08 57.3114 190.465 56.7567C189.858 56.1934 189.555 55.305 189.555 54.0917V51.6997H191.297V54.0657C191.297 54.7937 191.466 55.3094 191.804 55.6127C192.142 55.916 192.662 56.0677 193.364 56.0677C194.482 56.0677 195.4 55.9767 196.12 55.7947V51.6997H197.862V60.9297H196.12ZM200.415 60.9297V51.6997H202.157V58.5897L207.357 51.6997H209.099V60.9297H207.357V54.0397L202.157 60.9297H200.415ZM211.65 60.9297V51.6997H213.392V55.8467L218.15 51.6997H220.49L215.329 56.1847L220.711 60.9297H218.28L213.392 56.7047V60.9297H211.65ZM225.361 60.9297V51.6997H233.785V60.9297H232.043V53.2597H227.103V60.9297H225.361ZM240.672 61.0857C239.276 61.0857 238.119 60.635 237.201 59.7337C236.291 58.8237 235.836 57.684 235.836 56.3147C235.836 54.928 236.299 53.7884 237.227 52.8957C238.154 51.9944 239.302 51.5437 240.672 51.5437C242.067 51.5437 243.22 51.9987 244.13 52.9087C245.048 53.81 245.508 54.9454 245.508 56.3147C245.508 57.7014 245.044 58.8454 244.117 59.7467C243.189 60.6394 242.041 61.0857 240.672 61.0857ZM240.672 59.4997C241.573 59.4997 242.305 59.1964 242.869 58.5897C243.441 57.9744 243.727 57.216 243.727 56.3147C243.727 55.4047 243.441 54.6464 242.869 54.0397C242.297 53.433 241.564 53.1297 240.672 53.1297C239.77 53.1297 239.038 53.4374 238.475 54.0527C237.911 54.6594 237.63 55.4134 237.63 56.3147C237.63 57.2247 237.911 57.983 238.475 58.5897C239.047 59.1964 239.779 59.4997 240.672 59.4997Z" fill="white"/>
<defs>
<filter id="filter0_b_42_867" x="-17.1211" y="-16.6355" width="126.702" height="126.702" filterUnits="userSpaceOnUse" color-interpolation-filters="sRGB">
<feFlood flood-opacity="0" result="BackgroundImageFix"/>
<feGaussianBlur in="BackgroundImage" stdDeviation="10"/>
<feComposite in2="SourceAlpha" operator="in" result="effect1_backgroundBlur_42_867"/>
<feBlend mode="normal" in="SourceGraphic" in2="effect1_backgroundBlur_42_867" result="shape"/>
</filter>
<filter id="filter1_b_42_867" x="-2.7793" y="-2.29224" width="98.1915" height="98.1917" filterUnits="userSpaceOnUse" color-interpolation-filters="sRGB">
<feFlood flood-opacity="0" result="BackgroundImageFix"/>
<feGaussianBlur in="BackgroundImage" stdDeviation="10"/>
<feComposite in2="SourceAlpha" operator="in" result="effect1_backgroundBlur_42_867"/>
<feBlend mode="normal" in="SourceGraphic" in2="effect1_backgroundBlur_42_867" result="shape"/>
</filter>
</defs>
</svg>
