<svg width="33" height="33" viewBox="0 0 33 33" fill="none" xmlns="http://www.w3.org/2000/svg">
<path d="M16.2188 0.929688C7.39631 0.929688 0.21875 8.10725 0.21875 16.9297C0.21875 25.7521 7.39631 32.9297 16.2188 32.9297C25.0412 32.9297 32.2188 25.7521 32.2188 16.9297C32.2188 8.10725 25.0412 0.929688 16.2188 0.929688ZM16.2188 31.4297C8.22344 31.4297 1.71875 24.925 1.71875 16.9297C1.71875 8.93437 8.22344 2.42969 16.2188 2.42969C24.2141 2.42969 30.7188 8.93437 30.7188 16.9297C30.7188 24.925 24.2141 31.4297 16.2188 31.4297ZM24.5866 19.84C24.5866 19.84 24.5866 19.84 24.5866 19.84L21.6473 18.143C21.1973 17.8832 20.6721 17.8143 20.1686 17.9492C19.6652 18.0841 19.2448 18.4062 18.9849 18.8564C18.8342 19.1176 18.5701 19.4461 18.1684 19.5282C17.8021 19.6032 17.4786 19.5305 17.1796 19.3061C16.075 18.4771 14.6715 17.0736 13.8424 15.9689C13.618 15.6699 13.5453 15.3464 13.6202 14.9801C13.7024 14.5783 14.0309 14.3143 14.2921 14.1636C15.2228 13.6261 15.5428 12.4318 15.0055 11.5011L13.3085 8.56175C12.8224 7.72 11.8129 7.36694 10.9084 7.72213L10.8732 7.73594C9.46856 8.28737 8.44144 8.71056 8.01669 9.13531C7.24512 9.90694 6.46362 11.3427 7.12244 13.8014C8.402 18.577 14.5714 24.7464 19.347 26.0261C19.9954 26.1998 20.5727 26.2734 21.0854 26.2734C22.5169 26.2734 23.4451 25.6999 24.0133 25.1318C24.4379 24.7071 24.861 23.6802 25.4124 22.2759L25.4264 22.2402C25.7815 21.3355 25.4284 20.3261 24.5866 19.84ZM24.03 21.6919L24.0159 21.7278C23.7499 22.4053 23.1965 23.815 22.9524 24.0711C22.2364 24.7871 21.154 24.9573 19.7351 24.5772C15.4561 23.4306 9.71762 17.6921 8.57113 13.4132C8.19094 11.9944 8.36119 10.9119 9.07644 10.1967C9.33338 9.95181 10.7435 9.39825 11.4211 9.13225L11.4564 9.11837C11.5126 9.09625 11.5698 9.08575 11.6258 9.08575C11.7808 9.08575 11.9257 9.16712 12.0092 9.31181L13.7063 12.2511C13.83 12.4656 13.7563 12.7407 13.5419 12.8644C12.7959 13.2951 12.3018 13.9397 12.1505 14.6796C11.9893 15.4682 12.1594 16.2253 12.6425 16.8692C13.5606 18.0925 15.056 19.5879 16.2792 20.5058C16.9229 20.9889 17.6801 21.1591 18.4688 20.9978C19.2086 20.8465 19.8533 20.3523 20.2839 19.6063C20.3434 19.5033 20.4403 19.4292 20.5568 19.3981C20.6732 19.3669 20.7941 19.3824 20.8973 19.442L23.8366 21.139C24.0336 21.2529 24.1132 21.4803 24.03 21.6919Z" fill="#FECA2E"/>
</svg>
