<svg width="50" height="51" viewBox="0 0 50 51" fill="none" xmlns="http://www.w3.org/2000/svg">
<path d="M13.0486 23.3212C13.5651 23.3212 13.9837 22.9025 13.9837 22.3861V19.8859L15.9982 22.8029C16.2591 23.18 16.7157 23.3457 17.1344 23.2147C17.5661 23.08 17.8452 22.6818 17.8451 22.1914L17.7937 16.8665C17.7887 16.3531 17.3711 15.9404 16.8588 15.9404H16.8495C16.3331 15.9455 15.9184 16.3682 15.9234 16.8847L15.9481 19.439L13.818 16.3546C13.5854 16.0178 13.1609 15.8717 12.7702 15.9933C12.3794 16.1151 12.1133 16.4768 12.1133 16.8861V22.3863C12.1134 22.9025 12.5321 23.3212 13.0486 23.3212Z" fill="#FECA2E"/>
<path d="M20.0524 23.3216H22.3531C22.8696 23.3216 23.2883 22.9028 23.2883 22.3864C23.2883 21.87 22.8696 21.4512 22.3531 21.4512H20.9875V20.5915H22.1835C22.7 20.5915 23.1186 20.1727 23.1186 19.6563C23.1186 19.1398 22.7 18.7211 22.1835 18.7211H20.9875V17.8613H22.3531C22.8696 17.8613 23.2883 17.4426 23.2883 16.9261C23.2883 16.4096 22.8696 15.991 22.3531 15.991H20.0524C19.5359 15.991 19.1172 16.4096 19.1172 16.9261V22.3864C19.1172 22.9028 19.5359 23.3216 20.0524 23.3216Z" fill="#FECA2E"/>
<path d="M35.2947 23.3213C36.5755 23.3213 37.6527 22.4949 37.8561 21.3562C38.0108 20.4896 37.6299 19.3624 36.0969 18.7969C35.4648 18.5637 34.8735 18.3108 34.6477 18.2125C34.629 18.1904 34.6121 18.1547 34.6203 18.0982C34.6355 17.9914 34.7323 17.9038 34.8857 17.8576C35.3309 17.7234 35.765 17.9114 35.999 18.0469C36.0162 18.0568 36.0477 18.0781 36.0888 18.1069C36.4982 18.3942 37.0616 18.3083 37.3657 17.9113L37.3752 17.8987C37.6747 17.5077 37.623 16.9462 37.247 16.6281C37.2433 16.6249 37.2404 16.6226 37.2383 16.6211C36.6689 16.2045 35.546 15.7054 34.3462 16.0666C33.4926 16.3238 32.8882 17.0004 32.7688 17.8325C32.656 18.6191 32.9973 19.3758 33.6595 19.8075C33.7007 19.8345 33.7441 19.8581 33.7892 19.8781C33.8213 19.8925 34.5874 20.2336 35.4496 20.5516C35.8144 20.6862 36.0417 20.8774 36.0148 21.0274C35.9831 21.2049 35.7153 21.4508 35.2948 21.4508C34.8155 21.4508 34.3567 21.2603 34.0674 20.9412C33.7117 20.5487 33.0988 20.5282 32.7177 20.9036C32.3498 21.2658 32.3761 21.8763 32.7314 22.251C33.3772 22.9321 34.307 23.3213 35.2947 23.3213Z" fill="#FECA2E"/>
<path d="M25.0291 22.4848C25.038 22.5296 25.0502 22.5737 25.0655 22.6168C25.2157 23.0389 25.6162 23.3212 26.0637 23.3212H26.071C26.5214 23.3181 26.9216 23.0295 27.0668 22.6031C27.0695 22.5948 27.0723 22.5865 27.0748 22.5782L27.8574 20.05L28.6364 22.5786C28.6402 22.5912 28.6444 22.6036 28.6488 22.6161C28.7988 23.0386 29.1995 23.3211 29.6473 23.3211H29.6546C30.1053 23.318 30.5056 23.0291 30.6505 22.6023C30.6637 22.5637 30.6742 22.5241 30.6822 22.4841L31.7601 17.068C31.8609 16.5614 31.5319 16.069 31.0255 15.9682C30.5189 15.8675 30.0265 16.1963 29.9257 16.7028L29.4774 18.9556L28.7516 16.5999C28.5994 16.1064 28.0762 15.8296 27.5825 15.9816C27.2497 16.0841 27.0155 16.3555 26.9448 16.6727L26.2378 18.9567L25.7903 16.6939C25.6901 16.1873 25.198 15.8577 24.6914 15.958C24.1847 16.0582 23.8553 16.5502 23.9554 17.0569L25.0291 22.4848Z" fill="#FECA2E"/>
<path d="M46.028 3.04761H3.97197C1.78184 3.04761 0 4.82944 0 7.01958V43.0965C0 45.2867 1.78184 47.0685 3.97197 47.0685H46.028C48.2182 47.0685 50 45.2867 50 43.0965V7.01958C50 4.82944 48.2182 3.04761 46.028 3.04761ZM1.95312 7.01958C1.95312 5.9064 2.85879 5.00073 3.97197 5.00073H46.028C47.1413 5.00073 48.0469 5.9063 48.0469 7.01958V10.6453H1.95312V7.01958ZM48.0469 43.0965C48.0469 44.2097 47.1413 45.1154 46.028 45.1154H3.97197C2.85879 45.1154 1.95312 44.2098 1.95312 43.0965V12.5984H48.0469V43.0965Z" fill="#FECA2E"/>
<path d="M7.23311 6.89526H5.88672C5.34736 6.89526 4.91016 7.33257 4.91016 7.87183C4.91016 8.41108 5.34736 8.84839 5.88672 8.84839H7.23311C7.77246 8.84839 8.20967 8.41108 8.20967 7.87183C8.20967 7.33247 7.77246 6.89526 7.23311 6.89526Z" fill="#FECA2E"/>
<path d="M13.1823 6.89526H11.8359C11.2966 6.89526 10.8594 7.33257 10.8594 7.87183C10.8594 8.41108 11.2966 8.84839 11.8359 8.84839H13.1823C13.7217 8.84839 14.1589 8.41108 14.1589 7.87183C14.1589 7.33247 13.7217 6.89526 13.1823 6.89526Z" fill="#FECA2E"/>
<path d="M19.1276 6.89526H17.7812C17.2419 6.89526 16.8047 7.33257 16.8047 7.87183C16.8047 8.41108 17.2419 8.84839 17.7812 8.84839H19.1276C19.667 8.84839 20.1042 8.41108 20.1042 7.87183C20.1042 7.33247 19.667 6.89526 19.1276 6.89526Z" fill="#FECA2E"/>
<path d="M44.1114 6.89539H28.7773C28.2381 6.89539 27.8008 7.33269 27.8008 7.87195C27.8008 8.41121 28.2381 8.84851 28.7773 8.84851H44.1114C44.6508 8.84851 45.088 8.41121 45.088 7.87195C45.088 7.33259 44.6508 6.89539 44.1114 6.89539Z" fill="#FECA2E"/>
<path d="M7.5624 41.8229H17.9064C18.9941 41.8229 19.879 40.938 19.879 39.8503V29.0645C19.879 27.9768 18.9941 27.092 17.9064 27.092H7.5624C6.47471 27.092 5.58984 27.9769 5.58984 29.0645V39.8502C5.58975 40.9379 6.47471 41.8229 7.5624 41.8229ZM7.54287 29.0645C7.54287 29.0539 7.55156 29.0452 7.5623 29.0452H17.9063C17.9171 29.0452 17.9258 29.0539 17.9258 29.0645V39.8502C17.9258 39.8609 17.9171 39.8697 17.9063 39.8697H7.5624C7.55166 39.8697 7.54297 39.8609 7.54297 39.8502V29.0645H7.54287Z" fill="#FECA2E"/>
<path d="M10.5474 37.9906C10.8087 38.1435 11.0966 38.22 11.3847 38.22C11.6631 38.22 11.9418 38.1486 12.1969 38.0053L15.9401 35.9034H15.9402C16.4623 35.6102 16.7866 35.0561 16.7866 34.4574C16.7866 33.8586 16.4623 33.3045 15.9402 33.0113L12.1969 30.9093C11.6777 30.6178 11.0609 30.6235 10.5472 30.9241C10.0333 31.2248 9.72656 31.76 9.72656 32.3553V36.5592C9.72656 37.1546 10.0334 37.6898 10.5474 37.9906ZM14.9839 34.2002L14.9831 34.2007C14.9834 34.2005 14.9836 34.2004 14.9839 34.2002ZM11.6797 32.8588L14.5263 34.4573L11.6797 36.0556V32.8588Z" fill="#FECA2E"/>
<path d="M24.1406 28.0686C24.1406 28.608 24.5778 29.0452 25.1172 29.0452H43.433C43.9723 29.0452 44.4096 28.608 44.4096 28.0686C44.4096 27.5293 43.9723 27.092 43.433 27.092H25.1172C24.5778 27.092 24.1406 27.5293 24.1406 28.0686Z" fill="#FECA2E"/>
<path d="M43.433 33.4812H25.1172C24.5778 33.4812 24.1406 33.9185 24.1406 34.4578C24.1406 34.997 24.5778 35.4343 25.1172 35.4343H43.433C43.9723 35.4343 44.4096 34.997 44.4096 34.4578C44.4096 33.9185 43.9723 33.4812 43.433 33.4812Z" fill="#FECA2E"/>
<path d="M43.433 39.8699H25.1172C24.5778 39.8699 24.1406 40.3072 24.1406 40.8464C24.1406 41.3857 24.5778 41.823 25.1172 41.823H43.433C43.9723 41.823 44.4096 41.3857 44.4096 40.8464C44.4096 40.3072 43.9723 39.8699 43.433 39.8699Z" fill="#FECA2E"/>
</svg>
