<svg width="51" height="51" viewBox="0 0 51 51" fill="none" xmlns="http://www.w3.org/2000/svg">
<path d="M47.6743 26.2644C47.6748 23.3467 47.5094 13.6649 45.3748 11.581C43.7634 10.008 36.8045 9.11468 29.1091 8.89737C28.9142 8.20952 28.5451 7.59945 28.0415 7.12568L29.9914 5.21741C30.0378 5.22202 30.0827 5.23146 30.1303 5.23146C30.9065 5.23146 31.538 4.59992 31.538 3.82374C31.538 3.04756 30.9065 2.41602 30.1303 2.41602C29.3559 2.41602 28.7259 3.04502 28.7231 3.81879L26.2991 6.19087C25.6288 6.02764 25.1204 6.0276 24.4469 6.19225L22.0241 3.82126C22.0228 3.04629 21.392 2.41602 20.6167 2.41602C19.8405 2.41602 19.2089 3.04756 19.2089 3.82374C19.2089 4.59992 19.8405 5.23146 20.6167 5.23146C20.6635 5.23146 20.7078 5.22214 20.7535 5.21764L22.7044 7.12684C22.2005 7.60043 21.831 8.21021 21.6359 8.89737C13.9404 9.11468 6.98128 10.008 5.36984 11.581C3.23522 13.6649 3.06985 23.3467 3.07031 26.2644C3.07031 29.1803 3.23661 38.8565 5.36984 40.9391C5.88116 41.4383 6.94489 41.8668 8.38544 42.2294L7.93654 44.6049C7.69284 45.9689 8.39414 47.1519 9.49812 47.5576C10.6646 47.9848 11.9568 47.4193 12.5909 46.278L14.3177 43.1757C20.9403 43.8416 29.7624 43.8458 36.4273 43.1755L38.1533 46.277C38.7869 47.4171 40.0773 47.9852 41.247 47.5576C42.3409 47.1559 43.0526 45.9867 42.8067 44.5948L42.3594 42.2293C43.7999 41.8668 44.8636 41.4385 45.3748 40.9396C47.5081 38.8565 47.6743 29.1803 47.6743 26.2644ZM10.9422 45.3608C10.7529 45.6998 10.4102 45.8809 10.1481 45.7864C9.9116 45.6993 9.71475 45.3868 9.79201 44.9453L10.2167 42.6997C10.8298 42.8107 11.5051 42.9139 12.2505 43.0106L10.9422 45.3608ZM40.597 45.786C40.3368 45.8836 39.9913 45.7008 39.8024 45.3604L38.4947 43.0106C39.24 42.9139 39.9153 42.8107 40.5284 42.6997L40.9503 44.9324C41.0304 45.3906 40.8333 45.6993 40.597 45.786ZM27.0463 8.8539C25.933 8.84008 24.8131 8.84008 23.6998 8.8539C24.4931 7.66004 26.2505 7.65186 27.0463 8.8539ZM6.6882 39.589C5.84891 38.7704 4.95711 33.8217 4.95711 26.2639C4.95665 18.702 5.84845 13.7506 6.6882 12.9306C9.65707 10.0327 41.088 10.0331 44.0565 12.9306C44.8962 13.7506 45.788 18.702 45.7876 26.2639C45.7876 33.8217 44.8957 38.7704 44.0565 39.5894C41.1033 42.4719 9.65497 42.4856 6.6882 39.589Z" fill="#FECA2E"/>
<path d="M38.7916 13.897H11.9564C9.94067 13.897 8.30078 15.5369 8.30078 17.5526V33.0804C8.30078 35.0962 9.94067 36.7361 11.9564 36.7361H38.7916C40.8074 36.7361 42.4473 35.0962 42.4473 33.0804V17.5526C42.4473 15.5369 40.8074 13.897 38.7916 13.897ZM40.5605 33.0804C40.5605 34.0556 39.7668 34.8493 38.7916 34.8493H11.9564C10.9813 34.8493 10.1876 34.0556 10.1876 33.0804V17.5526C10.1876 16.5775 10.9813 15.7838 11.9564 15.7838H38.7916C39.7668 15.7838 40.5605 16.5775 40.5605 17.5526V33.0804Z" fill="#FECA2E"/>
<path d="M25.3732 38.2744C24.8522 38.2744 24.3828 38.7438 24.3828 39.2648C24.3828 39.7858 24.8522 40.2556 25.3732 40.2556C25.8942 40.2556 26.3636 39.7858 26.3636 39.2648C26.3636 38.7438 25.8942 38.2744 25.3732 38.2744Z" fill="#FECA2E"/>
<path d="M29.1466 38.2744C28.6256 38.2744 28.1562 38.7438 28.1562 39.2648C28.1562 39.7858 28.6256 40.2556 29.1466 40.2556C29.6676 40.2556 30.137 39.7858 30.137 39.2648C30.137 38.7438 29.6676 38.2744 29.1466 38.2744Z" fill="#FECA2E"/>
<path d="M21.5998 38.2744C21.0788 38.2744 20.6094 38.7438 20.6094 39.2648C20.6094 39.7858 21.0788 40.2556 21.5998 40.2556C22.1207 40.2556 22.5901 39.7858 22.5901 39.2648C22.5901 38.7438 22.1207 38.2744 21.5998 38.2744Z" fill="#FECA2E"/>
<path d="M22.7788 22.0739C22.3979 21.2101 21.1226 21.0918 20.6842 22.0803L18.1963 27.9531C18.0315 28.3505 18.1244 28.7214 18.3658 28.9702C18.7744 29.3949 19.5732 29.337 19.8763 28.6777L20.3894 27.4464H23.0764L23.5964 28.6938C23.8781 29.303 24.6699 29.4182 25.1004 28.9702C25.3419 28.7206 25.4359 28.3561 25.269 27.9512L22.7788 22.0739ZM21.1228 25.6936L21.7331 24.2251L22.343 25.6936H21.1228Z" fill="#FECA2E"/>
<path d="M33.1021 25.3168C33.1021 23.2645 31.6277 21.4409 29.1876 21.4409H27.2271C26.9756 21.4409 26.7503 21.5363 26.5744 21.7182C26.4053 21.8942 26.3164 22.1167 26.3164 22.3613V28.2815C26.3164 28.5307 26.4081 28.7541 26.5813 28.9273C26.7545 29.1005 26.9779 29.1922 27.2271 29.1922H29.1876C31.6159 29.1922 33.1021 27.3959 33.1021 25.3168ZM29.0803 27.4196H28.1475V23.2135H29.0803C30.397 23.2135 31.2808 24.0187 31.2808 25.3168C31.2808 26.6133 30.3976 27.4196 29.0803 27.4196Z" fill="#FECA2E"/>
<path d="M16.0801 22.2953C16.6011 22.2953 17.0235 21.8729 17.0235 21.3519V19.5587H18.8265C19.3475 19.5587 19.7699 19.1363 19.7699 18.6153C19.7699 18.0943 19.3475 17.6719 18.8265 17.6719H16.0801C15.5591 17.6719 15.1367 18.0943 15.1367 18.6153V21.3519C15.1367 21.8729 15.5591 22.2953 16.0801 22.2953Z" fill="#FECA2E"/>
<path d="M34.5726 28.3408C34.0516 28.3408 33.6292 28.7632 33.6292 29.2842V31.0775H31.8262C31.3052 31.0775 30.8828 31.4999 30.8828 32.0209C30.8828 32.5419 31.3052 32.9643 31.8262 32.9643H34.5726C35.0935 32.9643 35.516 32.5419 35.516 32.0209V29.2842C35.516 28.7632 35.0935 28.3408 34.5726 28.3408Z" fill="#FECA2E"/>
<path d="M34.5726 17.6719H31.8262C31.3052 17.6719 30.8828 18.0943 30.8828 18.6153C30.8828 19.1363 31.3052 19.5587 31.8262 19.5587H33.6292V21.3519C33.6292 21.8729 34.0516 22.2953 34.5726 22.2953C35.0935 22.2953 35.516 21.8729 35.516 21.3519V18.6153C35.516 18.0943 35.0935 17.6719 34.5726 17.6719Z" fill="#FECA2E"/>
<path d="M18.8265 31.0775H17.0235V29.2842C17.0235 28.7632 16.6011 28.3408 16.0801 28.3408C15.5591 28.3408 15.1367 28.7632 15.1367 29.2842V32.0209C15.1367 32.5419 15.5591 32.9643 16.0801 32.9643H18.8265C19.3475 32.9643 19.7699 32.5419 19.7699 32.0209C19.7699 31.4999 19.3475 31.0775 18.8265 31.0775Z" fill="#FECA2E"/>
</svg>
