<svg width="50" height="51" viewBox="0 0 50 51" fill="none" xmlns="http://www.w3.org/2000/svg">
<g clip-path="url(#clip0_216_2025)">
<path d="M45 0.805664H5C2.23975 0.808398 0.00273438 3.04541 0 5.80566V45.8057C0.00273438 48.5659 2.23975 50.8029 5 50.8057H45C47.7603 50.8029 49.9973 48.5659 50 45.8057V5.80566C49.9973 3.04541 47.7603 0.808398 45 0.805664ZM5 2.47236H45C46.8409 2.47236 48.3333 3.96475 48.3333 5.80566H1.6667C1.6667 3.96475 3.15908 2.47236 5 2.47236ZM45 49.139H5C3.15908 49.139 1.6667 47.6466 1.6667 45.8057V7.47236H48.3334V45.8057C48.3333 47.6466 46.8409 49.139 45 49.139Z" fill="#FECA2E"/>
<path d="M44.1654 11.9727H5.83203C4.45137 11.9727 3.33203 13.092 3.33203 14.4727V31.1394C3.33203 32.52 4.45137 33.6394 5.83203 33.6394H44.1653C45.546 33.6394 46.6653 32.52 46.6653 31.1394V14.4727C46.6654 13.0919 45.5461 11.9727 44.1654 11.9727ZM5.83203 13.6393H44.1653C44.6256 13.6393 44.9986 14.0124 44.9986 14.4726V22.2268L38.5553 15.7751C38.2547 15.4734 37.8461 15.3046 37.4203 15.306H37.4153C36.9946 15.3058 36.5916 15.4749 36.297 15.7751L30.5146 21.556L27.2188 18.2602C26.6165 17.6587 25.641 17.6587 25.0388 18.2602L17.9871 25.306H4.99873V14.4727C4.99873 14.0124 5.37188 13.6393 5.83203 13.6393ZM44.1654 31.9727H5.83203C5.37178 31.9727 4.99873 31.5995 4.99873 31.1394V26.9727H26.6654C27.1257 26.9727 27.4987 26.5995 27.4987 26.1394C27.4987 25.6791 27.1257 25.3061 26.6654 25.3061H20.3446L26.1279 19.5244L33.3321 26.7286C33.6591 27.0444 34.1789 27.0399 34.5003 26.7185C34.8218 26.397 34.8263 25.8772 34.5104 25.5503L31.6921 22.7319L37.4221 17.0011L44.9987 24.5843V31.1393C44.9987 31.5995 44.6257 31.9727 44.1654 31.9727Z" fill="#FECA2E"/>
<path d="M10.4167 21.972C11.5964 21.972 12.6599 21.2614 13.1113 20.1715C13.5628 19.0817 13.3133 17.8271 12.4791 16.993C11.6449 16.1588 10.3904 15.9093 9.30059 16.3608C8.21064 16.8122 7.5 17.8756 7.5 19.0553C7.5 20.6662 8.80586 21.972 10.4167 21.972ZM10.4167 17.8053C11.107 17.8053 11.6667 18.365 11.6667 19.0553C11.6667 19.7457 11.107 20.3053 10.4167 20.3053C9.72637 20.3053 9.1667 19.7457 9.1667 19.0553C9.1667 18.365 9.72627 17.8053 10.4167 17.8053Z" fill="#FECA2E"/>
<path d="M7.5 38.3057C6.11934 38.3057 5 39.425 5 40.8057V45.8057C5 46.2659 5.37314 46.639 5.8333 46.639C6.29346 46.639 6.6666 46.2659 6.6666 45.8057V44.139H8.3333V45.8057C8.3333 46.2659 8.70644 46.639 9.1666 46.639C9.62685 46.639 9.9999 46.2659 9.9999 45.8057V40.8057C10 39.425 8.88066 38.3057 7.5 38.3057ZM6.6667 42.4724V40.8057C6.6667 40.3454 7.03984 39.9724 7.5 39.9724C7.96025 39.9724 8.3333 40.3455 8.3333 40.8057V42.4724H6.6667Z" fill="#FECA2E"/>
<path d="M14.168 38.3057H13.3347C12.4142 38.3057 11.668 39.0519 11.668 39.9724V44.9724C11.668 45.8929 12.4142 46.6391 13.3347 46.6391H14.168C15.5486 46.6391 16.668 45.5197 16.668 44.1391V40.8057C16.668 39.425 15.5486 38.3057 14.168 38.3057ZM15.0013 44.139C15.0013 44.5992 14.6281 44.9723 14.168 44.9723H13.3347V39.9723H14.168C14.6282 39.9723 15.0013 40.3454 15.0013 40.8056V44.139Z" fill="#FECA2E"/>
<path fill-rule="evenodd" clip-rule="evenodd" d="M44.168 39.6387H20.0013C19.541 39.6387 19.168 40.0117 19.168 40.472C19.168 40.9322 19.5411 41.3053 20.0013 41.3053H44.168C44.6282 41.3053 45.0013 40.9322 45.0013 40.472C45.0013 40.0117 44.6282 39.6387 44.168 39.6387Z" fill="#FECA2E"/>
<path fill-rule="evenodd" clip-rule="evenodd" d="M36.668 42.9727H20.0013C19.541 42.9727 19.168 43.3457 19.168 43.806C19.168 44.2662 19.5411 44.6393 20.0013 44.6393H36.668C37.1282 44.6393 37.5013 44.2662 37.5013 43.806C37.5013 43.3457 37.1282 42.9727 36.668 42.9727Z" fill="#FECA2E"/>
</g>
<defs>
<clipPath id="clip0_216_2025">
<rect width="50" height="50" fill="white" transform="translate(0 0.805664)"/>
</clipPath>
</defs>
</svg>
