<svg width="50" height="51" viewBox="0 0 50 51" fill="none" xmlns="http://www.w3.org/2000/svg">
<g clip-path="url(#clip0_216_2042)">
<path d="M16.0371 34.0227C20.8564 34.0227 24.7772 30.1046 24.7772 25.2887C24.7772 24.7493 24.3399 24.3121 23.8007 24.3121H17.0137V17.5312C17.0137 16.9919 16.5764 16.5547 16.0371 16.5547C11.2177 16.5547 7.29688 20.4728 7.29688 25.2887C7.29688 30.1046 11.2178 34.0227 16.0371 34.0227ZM15.0605 18.5779V25.2888C15.0605 25.8281 15.4979 26.2653 16.0371 26.2653H22.7539C22.2786 29.5432 19.4477 32.0696 16.0371 32.0696C12.2947 32.0696 9.25 29.0278 9.25 25.2888C9.25 21.8809 11.779 19.0522 15.0605 18.5779Z" fill="#FECA2E"/>
<path d="M19.6953 22.6109H27.4589C27.9981 22.6109 28.4354 22.1737 28.4354 21.6344C28.4354 16.8185 24.5146 12.9004 19.6953 12.9004C19.1561 12.9004 18.7188 13.3376 18.7188 13.877V21.6344C18.7188 22.1737 19.156 22.6109 19.6953 22.6109ZM20.6719 14.9235C23.6341 15.3517 25.983 17.6984 26.4121 20.6578H20.6719V14.9235Z" fill="#FECA2E"/>
<path d="M49.0234 0.617676H0.976562C0.437305 0.617676 0 1.05488 0 1.59424V6.77695C0 7.31631 0.437305 7.75352 0.976562 7.75352H2.18643V37.6991C2.18643 39.5868 3.72178 41.1225 5.60889 41.1225H24.0234V42.4749C22.5199 42.9005 21.4153 44.2835 21.4153 45.9192C21.4153 47.8929 23.0234 49.4985 25 49.4985C26.9766 49.4985 28.5847 47.8929 28.5847 45.9192C28.5847 44.2835 27.4801 42.9005 25.9766 42.4749V41.1225H44.3909C46.2781 41.1225 47.8136 39.5867 47.8136 37.6991V7.75352H49.0234C49.5627 7.75352 50 7.31631 50 6.77695V1.59424C50 1.05488 49.5627 0.617676 49.0234 0.617676ZM26.6315 45.9192C26.6315 46.8159 25.8996 47.5454 25 47.5454C24.1004 47.5454 23.3685 46.8159 23.3685 45.9192C23.3685 45.0226 24.1004 44.2931 25 44.2931C25.8996 44.2931 26.6315 45.0226 26.6315 45.9192ZM45.8604 37.6991C45.8604 38.5098 45.2013 39.1693 44.3909 39.1693H5.60889C4.79873 39.1693 4.13955 38.5098 4.13955 37.6991V7.75352H45.8605V37.6991H45.8604ZM48.0469 5.80039H1.95312V2.5708H48.0469V5.80039Z" fill="#FECA2E"/>
<path d="M31.7617 17.9746H41.7352C42.2744 17.9746 42.7117 17.5374 42.7117 16.998C42.7117 16.4587 42.2744 16.0215 41.7352 16.0215H31.7617C31.2225 16.0215 30.7852 16.4587 30.7852 16.998C30.7852 17.5374 31.2224 17.9746 31.7617 17.9746Z" fill="#FECA2E"/>
<path d="M31.7617 22.0518H41.7352C42.2744 22.0518 42.7117 21.6146 42.7117 21.0752C42.7117 20.5358 42.2744 20.0986 41.7352 20.0986H31.7617C31.2225 20.0986 30.7852 20.5358 30.7852 21.0752C30.7852 21.6146 31.2224 22.0518 31.7617 22.0518Z" fill="#FECA2E"/>
<path d="M27.8438 29.2822C27.8438 29.8216 28.2811 30.2588 28.8203 30.2588H41.7358C42.2751 30.2588 42.7124 29.8216 42.7124 29.2822C42.7124 28.7429 42.2751 28.3057 41.7358 28.3057H28.8203C28.281 28.3057 27.8438 28.7429 27.8438 29.2822Z" fill="#FECA2E"/>
</g>
<defs>
<clipPath id="clip0_216_2042">
<rect width="50" height="50" fill="white" transform="translate(0 0.0581055)"/>
</clipPath>
</defs>
</svg>
